<?xml version="1.0" encoding="utf-8"?>
<!-- Generator: Adobe Illustrator 25.4.1, SVG Export Plug-In . SVG Version: 6.00 Build 0)  -->
<svg version="1.1" id="Capa_1" xmlns="http://www.w3.org/2000/svg" xmlns:xlink="http://www.w3.org/1999/xlink" x="0px" y="0px"
	 viewBox="0 0 200 200" style="enable-background:new 0 0 200 200;" xml:space="preserve">
<style type="text/css">
	.st0{fill:#FDFDFD;}
	.st1{fill:#969387;}
	.st2{fill:#97958B;}
	.st3{fill:#99968A;}
	.st4{fill:#9A978D;}
	.st5{fill:#8C897B;}
	.st6{fill:#9A988E;}
	.st7{fill:#FCB84E;}
	.st8{fill:#FEFEFE;}
	.st9{fill:#0F75BC;}
	.st10{fill:#C3986C;}
	.st11{fill:#FBB84E;}
	.st12{fill:#C4996A;}
	.st13{fill:#C3996B;}
	.st14{fill:#FDB84E;}
	.st15{fill:#C3996C;}
	.st16{fill:#1074B9;}
	.st17{fill:#F4F4F4;}
	.st18{fill:#F9F9F9;}
	.st19{fill:#543B1B;}
	.st20{fill:#F2F2F2;}
	.st21{fill:#F1BA5E;}
	.st22{fill:#020201;}
	.st23{fill:#BD1E2E;}
</style>
<g>
	<g>
		<path d="M99.3,164.3c-0.2-0.1-0.3-0.2-0.5-0.3c-0.8-0.5-1.5-1.1-2.2-1.7c-0.7-0.7-1.1-0.6-1.4,0.3c-0.7,1.9-1.7,3.7-1.9,5.8
			c-0.1,1.3-0.2,2.6-0.3,4c-0.2,2.6-1.2,4.9-2.8,6.9c-0.6,0.7-1.4,1.2-2.3,1.5c-1.8,0.7-3.7,0.5-5.4-0.3c-1.7-0.8-2.3-2.5-2.6-4.2
			c-0.4-2.3,0-4.6,0.4-6.8c0.1-0.9,0-0.9-0.8-0.9c-2.6,0-4.7-0.9-6.1-3.7c-0.7-1.5-1.3-3-1.5-4.7c-0.1-1-0.4-2-0.8-3
			c-0.2-0.5-0.6-0.8-1.1-0.8c-0.7-0.1-1.4-0.2-2-0.4c-1.1-0.2-1.7-0.8-1.9-1.9c-0.2-1.8-0.2-3.5-0.1-5.3c0-2.2,0-4.4,0.4-6.6
			c0.1-0.6-0.1-1.1-0.6-1.5c-0.7-0.6-0.7-1.4-0.6-2.2c0.1-1,0.4-2,0.6-3c0.8-3.5,1.4-7,2.2-10.5c0.1-0.6,0-1-0.7-1.1
			c-2.8-0.4-5.3-1.5-7.9-2.5c-2.6-1.1-5-2.6-7.2-4.2c-2-1.4-3.7-3.2-5.4-5c-2-2.2-3.8-4.4-5.5-6.9c-1.9-2.8-3.6-5.7-5.1-8.8
			c-0.4-0.8-1.1-1.4-1.7-2c-2-2.5-3.3-5.3-3-8.6c0.3-3.5,2-6.1,5.1-7.7c1.3-0.6,2.7-0.8,4.1-0.6c0.6,0.1,0.9-0.1,1.1-0.6
			c0.2-0.5,0.5-1,0.8-1.4c0.4-0.7,0.7-1.4,0.5-2.2c-0.2-1.2,0.4-2.3,0.6-3.4c0-0.2,0.1-0.4,0.1-0.6c0.1-0.6,0-0.9-0.7-1.1
			c-1.4-0.4-2.9-0.9-4.3-1.3c-0.8-0.3-1.5-0.7-1.7-1.7c-0.2-1,0.3-1.8,1.1-2.3c0.5-0.3,1.1-0.6,1.6-0.9c0.4-0.3,0.5-0.6,0.1-0.9
			c-1.1-1.2-2.2-2.4-3.4-3.6c-0.6-0.7-0.6-1.5-0.2-2.3c0.4-0.8,1.2-1,2-1.1c2.1-0.1,4.1-0.4,6.2-0.5c0.6,0,0.6-0.4,0.6-0.8
			c0.3-2.1,0.8-4.2,1.1-6.4c0.6-3.9,1.3-7.8,2.2-11.6c1.1-4.5,2.4-9,4.7-13.2c0.6-1.1,1.4-2.1,2.3-3c1.7-1.6,4-2,6.1-0.9
			c2.1,1,3.9,2.6,5.6,4.1c2.9,2.5,5.7,5.1,8.3,7.9c2.7,2.9,5.5,5.6,8.1,8.6c0.5,0.6,1,0.7,1.8,0.5c1.9-0.5,3.9-0.7,5.8-0.8
			c2.1-0.1,4.2-0.2,6.2,0c2,0,3.9,0.3,5.9,0.6c2,0.3,3.9,0.8,5.8,1.4c5.9,1.8,11.2,4.6,16.1,8.4c2.3,1.8,4.4,3.7,6.4,5.8
			c0.5,0.5,1,0.7,1.8,0.5c3.8-0.8,7.6-1.6,11.4-2.4c3.3-0.6,6.5-1.2,9.8-1.6c3.2-0.4,6.4-0.8,9.6-0.4c2.2,0.3,3.7,1.3,4.4,3.5
			c0.6,2.1,0.4,4.1,0.2,6.2c-0.3,2.6-1.1,5.1-1.9,7.6c-0.9,2.7-2,5.5-3.3,8.1c-0.1,0.1-0.1,0.3-0.1,0.4c-0.9,2-1.8,4-2.7,6
			c-1,2.1-2,4.2-3,6.3c-0.3,0.6-0.2,1,0.4,1.5c1.6,1.2,3.1,2.5,4.6,3.8c0.7,0.6,1,1.3,0.8,2.1c-0.2,0.9-0.8,1.3-1.7,1.5
			c-1.4,0.3-2.8,0.5-4.2,0.8c-1,0.2-1.1,0.4-0.7,1.3c0.2,0.5,0.4,0.9,0.6,1.4c0.4,0.8,0.4,1.6-0.2,2.3c-0.7,0.7-1.5,0.8-2.4,0.6
			c-1.3-0.4-2.6-0.8-4-1.2c-1.2-0.4-1.4-0.3-1.8,0.9c-0.3,0.8-0.6,1.6-1,2.4c-0.3,0.6-0.7,1.2-1.4,1.5c-0.6,0.2-0.7,0.7-0.8,1.3
			c-0.1,1.6-0.2,3.3-0.5,4.9c-0.3,2-0.7,4.1-1,6.1c-0.3,2-1.6,3.2-3.1,4.2c-2.8,1.9-5.7,3.4-8.8,4.5c-0.1,0-0.2,0-0.2,0.1
			c-3.1,1.1-6.3,1.6-9.6,1.7c-2.1,0-4.1,0.3-6.1,0.3c-2,0-3.9-0.2-5.9-0.4c-0.8-0.1-0.9,0.1-0.6,0.8c0.5,1,1.1,2,1.7,2.9
			c0.8,1.4,1.5,2.9,1.8,4.5c0.4,1.8-0.5,3.4-2.1,3.9c-0.8,0.3-1.5,0.1-2.2-0.2c-1.6-0.6-2.8-1.7-4.1-2.8c-0.2-0.2-0.4-0.5-0.7-0.3
			c-0.3,0.1-0.2,0.4-0.2,0.7c0,0.8,0,1.6,0.1,2.4c0.1,1-0.3,1.8-1.3,2.2c-0.4,0.2-0.5,0.5-0.5,0.9c-0.1,1.2-0.2,2.4-0.3,3.6
			c-0.1,1.1,0,1.1,1.2,1.2c0.1,0,0.2,0,0.3,0c1.7,0.2,3.5,0.1,5.2,0.2c1.4,0.1,2.8,0.1,4.1,0.3c2.5,0.2,4.8,0.8,6.6,2.6
			c2.1,2.1,2.9,6,1.5,8.9c-1.2,2.6-3.3,4.2-5.9,5.2c-4.3,1.6-8.5,1.1-12.7-0.5C101.7,165.7,100.5,165,99.3,164.3z"/>
		<path class="st1" d="M36.9,57.1c1.3,1.1,2.4,2.4,3.5,3.6c0.4,0.5,0.2,0.8-0.2,1.1c-0.5,0.3-1,0.6-1.6,0.9c-0.8,0.4-1.3,1-1.2,2
			c0.1,1,0.8,1.4,1.6,1.6c1.4,0.5,2.8,0.9,4.3,1.4c0.8,0.2,1,0.7,0.8,1.4c-0.3,0.9-0.4,1.8-0.7,2.8c-0.1,0.4-0.2,0.8-0.1,1.2
			c0.5,1.9-1,2.9-1.7,4.3c-0.1,0.3-0.5,0.2-0.8,0.2c-3.6-0.4-6.9,1.7-8.3,5c-1.9,4.8-0.4,8.8,2.8,12.4c0.5,0.6,1,1.2,1.3,1.9
			c3.5,7.3,8.2,13.6,14.3,18.9c4.6,4,10,6.5,16,7.8c1.3,0.3,1.5,0.4,1.2,1.8c-0.9,4.3-1.8,8.5-2.7,12.8c-0.2,1-0.2,1.9,0.8,2.6
			c0.4,0.3,0.4,0.8,0.4,1.2c-0.4,3.6-0.4,7.1-0.3,10.7c0,0.2,0,0.4,0,0.6c0.1,2,0.5,2.4,2.4,2.7c0.1,0,0.2,0.1,0.3,0.1
			c2.3,0.4,2.7,0.9,3.1,3.3c0.3,2.3,0.9,4.5,2.2,6.4c1.3,1.9,3.1,2.7,5.4,2.6c1,0,1.2,0.2,1,1.2c-0.4,2-0.7,4.1-0.5,6.2
			c0.4,4.5,3.5,5.9,7.5,5.1c0.1,0,0.3,0,0.4-0.1c0,0,0.1,0.1,0.1,0.1c0,0,0,0.1,0,0.1c-0.4,0.3-0.8,0.4-1.3,0.4
			c-1.2,0.2-2.4,0-3.5-0.3c-1.2-0.2-2-1-2.5-2c-1-1.8-1.1-3.8-0.9-5.8c0.1-1.2,0.2-2.4,0.4-3.6c0.1-0.6-0.1-0.8-0.7-0.8
			c-1.7,0-3.2-0.4-4.5-1.5c-1-0.9-1.6-2-2.1-3.2c-0.7-1.6-1-3.3-1.3-5c-0.1-0.6-0.4-1.2-0.6-1.8c-0.2-0.4-0.5-0.5-0.8-0.6
			c-0.7-0.1-1.5-0.2-2.2-0.4c-1.2-0.2-1.9-1-2-2.2c-0.1-3.9-0.3-7.7,0.3-11.5c0.1-0.7,0-1.3-0.6-1.8c-0.7-0.6-0.8-1.5-0.6-2.4
			c0.9-4,1.7-7.9,2.5-11.9c0.1-0.3,0.1-0.7,0.1-1c0.3-1.3,0.3-1.3-1-1.5c-1.7-0.3-3.3-0.9-4.9-1.4c-3.8-1.3-7.3-3.3-10.4-5.8
			c-2.8-2.2-5.2-4.8-7.5-7.6c-2.1-2.5-3.8-5.3-5.6-8c-0.8-1.3-1.6-2.7-2.1-4.2c-0.3-0.7-0.7-1.2-1.2-1.7c-2.2-2.3-3.6-5.1-3.7-8.3
			c-0.1-2.8,0.8-5.4,2.9-7.4c1.7-1.6,3.7-2.6,6.2-2.3c0.9,0.1,1.4-0.2,1.6-1c0.1-0.3,0.3-0.7,0.5-0.9c0.5-0.7,0.7-1.3,0.4-2.2
			c-0.2-0.8,0.2-1.6,0.4-2.3c0.2-0.8,0.6-1.6,0.3-2.2c-0.3-0.6-1.3-0.5-2-0.8c-0.9-0.3-1.9-0.6-2.9-0.9c-1-0.3-1.7-0.9-1.8-2
			c-0.1-1,0.3-1.8,1.2-2.3c0.5-0.2,0.9-0.5,1.4-0.8c0.6-0.3,0.6-0.6,0.2-1.1c-1-1-2-2.1-3-3.1C36.7,57.4,36.7,57.3,36.9,57.1z"/>
		<path class="st2" d="M36.9,57.1c0,0.1,0,0.3,0,0.4c-0.7-0.6-0.9-1.4-0.7-2.3c0.3-1,1-1.5,2-1.5c2.1-0.2,4.3-0.3,6.4-0.5
			c0.4,0,0.6-0.1,0.6-0.6c0.4-2.4,0.9-4.7,1.3-7.1c0.4-2.2,0.6-4.4,1.1-6.5c0.6-3.1,1.3-6.1,2.2-9.1c0.9-3.1,2-6,3.6-8.8
			c0.9-1.5,1.8-2.9,3.4-3.8c1.8-1,3.5-0.9,5.2,0c2.1,1.1,3.9,2.7,5.7,4.2c3.5,3,6.8,6.2,9.9,9.6c2.1,2.2,4.4,4.3,6.3,6.7
			c0.4,0.5,0.8,0.7,1.6,0.4c0.6-0.3,1.3-0.3,2-0.4c2.4-0.3,4.8-0.6,7.3-0.5c0.9,0,1.7-0.1,2.6,0.2c0.1,0,0.2,0.1,0.2,0.2
			c-1.7,0-3.4,0-5.1,0.1c-2.4,0.1-4.7,0.4-7,0.9c-0.9,0.2-1.4-0.1-2-0.7c-3.6-4-7.3-7.9-11.1-11.6c-3-2.9-5.9-5.7-9.4-8.1
			c-1.3-0.9-2.7-1.6-4.4-1.3c-1.7,0.3-2.9,1.3-3.9,2.5c-1.7,2.2-2.7,4.6-3.6,7.2c-2.2,6-3.3,12.2-4.4,18.5c-0.4,2.4-0.8,4.7-1.2,7.1
			c-0.1,0.7-0.4,1.1-1.2,1.1c-1.9,0.1-3.9,0.3-5.8,0.4C36.7,54.2,36,55.4,36.9,57.1z"/>
		<path class="st3" d="M97.7,37.8c-0.9-0.5-1.9-0.2-2.8-0.4c2-0.2,3.9,0.1,5.9,0.2c3,0.3,5.9,0.9,8.7,1.8c4.8,1.5,9.3,3.6,13.5,6.5
			c3.1,2.1,6,4.5,8.6,7.3c0.8,0.9,1.6,1.1,2.8,0.8c2.6-0.6,5.2-1.1,7.8-1.6c3.4-0.6,6.8-1.4,10.2-1.9c3.6-0.5,7.1-1,10.7-0.9
			c1.1,0,2.2,0.1,3.3,0.5c1.7,0.7,2.5,2.1,2.9,3.7c0.4,1.9,0.4,3.8,0,5.7c0,0.1,0,0.1,0,0.2c-0.2,1.5-0.5,2.9-1,4.4
			c0,0.1,0,0.1,0,0.1c-0.1,0.6-0.3,1.1-0.5,1.7l0,0c-0.2,0.7-0.4,1.3-0.7,2c-0.2,0.3-0.3,0.6-0.3,1c-0.2,0.4-0.3,0.9-0.5,1.3
			c-0.7,1.9-1.5,3.7-2.3,5.5c-0.1,0.1-0.1,0-0.2,0c0.7-1.6,1.3-3.2,2-4.8c1.6-4.2,3-8.3,3.5-12.8c0.2-1.9,0.2-3.8-0.7-5.6
			c-0.8-1.5-2.2-2.2-3.8-2.4c-2.6-0.3-5.2-0.1-7.7,0.2c-7.9,0.9-15.6,2.6-23.4,4.2c-0.7,0.1-1.2,0-1.6-0.5
			c-3.6-3.8-7.6-7.1-12.1-9.7c-5.3-3.1-10.9-5.1-17-6.1C101.1,38.1,99.4,37.9,97.7,37.8z"/>
		<path class="st4" d="M163.6,75.8c0.1,0,0.1,0,0.2,0c-0.3,1.2-0.9,2.2-1.4,3.3c-1.4,3-2.8,6.1-4.2,9.1c-0.2,0.5-0.1,0.8,0.3,1.1
			c1.6,1.2,3.2,2.5,4.7,3.8c0.6,0.6,1,1.3,0.9,2.2c-0.2,1-0.8,1.6-1.8,1.8c-1.4,0.3-2.8,0.5-4.2,0.8c-0.9,0.2-0.9,0.3-0.5,1.1
			c0.3,0.7,0.8,1.4,0.8,2.3c0,1.3-0.8,2.1-2.1,2.2c-0.6,0-1.1-0.1-1.6-0.3c-1.2-0.4-2.4-0.7-3.6-1.1c-0.6-0.2-1.1-0.2-1.3,0.6
			c-0.3,1.1-0.8,2.1-1.3,3.1c-0.2,0.4-0.6,0.8-1,0.9c-0.7,0.3-0.9,0.8-0.9,1.5c-0.2,3.4-0.7,6.7-1.3,10c-0.1,0.6-0.3,1.2-0.4,1.9
			c-0.1,1.2-1,1.9-1.9,2.5c-3.2,2.4-6.7,4.3-10.5,5.5c-0.1,0-0.1,0-0.2,0c-0.1-0.4,0.4-0.3,0.5-0.5c3.5-1.3,6.8-3,9.8-5.2
			c1.1-0.8,1.8-1.8,2.1-3.2c0.8-3.7,1.3-7.5,1.6-11.3c0.1-0.7,0.3-1.2,1-1.4c0.6-0.2,1-0.7,1.2-1.2c0.4-0.9,0.7-1.7,1.1-2.6
			c0.5-1.1,0.7-1.3,1.9-0.9c1.3,0.4,2.6,0.8,3.9,1.2c0.9,0.3,1.7,0.3,2.4-0.4c0.6-0.7,0.5-1.5,0.1-2.3c-0.2-0.4-0.4-0.9-0.6-1.4
			c-0.4-0.8-0.2-1.2,0.7-1.3c1.5-0.3,2.9-0.6,4.4-0.8c0.8-0.1,1.3-0.5,1.6-1.3c0.2-0.8,0-1.4-0.6-1.9c-1.6-1.3-3.1-2.6-4.7-3.9
			c-0.7-0.6-0.8-1.1-0.4-1.9c1.8-3.8,3.5-7.5,5.3-11.3C163.3,76.3,163.5,76.1,163.6,75.8z"/>
		<path class="st5" d="M132.7,127.8c-0.2,0.2-0.3,0.3-0.5,0.5c0,0,0,0,0,0c-0.6,0.3-1.3,0.4-2,0.5l0,0c-1.8,0.5-3.5,0.8-5.4,0.9
			c-3.3,0.1-6.5,0.4-9.8,0.3c-1.2,0-2.3-0.2-3.5-0.3c-0.4,0-0.9-0.2-1.1,0.1c-0.3,0.4,0.2,0.8,0.4,1.1c1.3,2,2.6,4.1,3.2,6.5
			c0.3,1.1,0.3,2.2-0.4,3.3c-0.8,1.2-2,1.6-3.4,1.3c-1.9-0.4-3.2-1.7-4.6-2.9c-0.2-0.2-0.3-0.6-0.6-0.4c-0.3,0.1-0.1,0.5-0.1,0.8
			c-0.1,1,0.2,1.9,0,2.9c-0.2,0.7-0.5,1.3-1.2,1.6c-0.4,0.2-0.5,0.5-0.6,0.9c-0.1,1.1-0.2,2.2-0.3,3.3c0,0.5-0.1,1,0.5,1.1
			c0.1,0.3,0.6-0.1,0.5,0.4c-1.3,0-1.4-0.1-1.4-1.3c0.1-1.2,0.2-2.3,0.2-3.5c0-0.6,0.2-1,0.8-1.2c0.7-0.3,1-0.9,1-1.7
			c0-0.9,0-1.9,0-2.8c0-0.3,0-0.6,0.3-0.8c0.4-0.2,0.6,0.1,0.8,0.3c1.1,1,2.3,2.1,3.7,2.7c1.2,0.5,2.4,0.8,3.5-0.1
			c1.1-0.9,1.3-2.1,1-3.5c-0.5-2.4-1.8-4.5-3.1-6.5c-0.1-0.1-0.2-0.3-0.3-0.4c-0.3-0.4-0.5-0.9-0.2-1.3c0.2-0.4,0.7-0.1,1.1,0
			c3.6,0.3,7.1,0.5,10.7,0.1c2.3-0.2,4.7-0.2,7-0.7C130.2,128.5,131.4,128.2,132.7,127.8z"/>
		<path class="st3" d="M103.8,149.7c-0.2-0.1-0.3-0.2-0.5-0.4c3,0.4,6.1,0,9.1,0.4c2.3,0.2,4.6,0.5,6.6,1.9c1.6,1.1,2.6,2.6,3.1,4.5
			c0.5,1.9,0.4,3.7-0.4,5.5c-1.4,2.9-3.8,4.7-6.8,5.6c-5.3,1.6-10.2,0.4-14.9-2.1c-0.3-0.2-0.6-0.3-0.7-0.7c0.4-0.2,0.6,0.1,0.8,0.3
			c3.3,1.9,6.9,3,10.8,2.8c3.5-0.2,6.6-1.2,9.1-3.9c3.1-3.4,2.7-8.8-0.9-11.6c-1.2-0.9-2.7-1.4-4.2-1.6c-0.4-0.1-0.8-0.1-1.2-0.2
			c-1.2-0.2-2.4-0.3-3.6-0.3c-2,0-4-0.1-6.1-0.1C103.9,149.7,103.9,149.7,103.8,149.7z"/>
		<path class="st6" d="M88,180.8c0-0.1,0-0.1,0-0.2c3.3-1.8,4.4-4.9,4.8-8.4c0.2-1.3,0.2-2.6,0.3-4c0.2-1.8,1.1-3.5,1.7-5.2
			c0.7-1.9,0.9-2,2.3-0.6c0.6,0.5,1.3,0.8,1.7,1.5c-1-0.2-1.6-0.9-2.2-1.5c-0.7-0.6-0.9-0.6-1.2,0.2c-0.6,1.6-1.4,3.3-1.7,5
			c-0.3,1.6-0.3,3.2-0.5,4.8c-0.2,2.6-1.3,4.9-2.9,6.9C89.7,180.1,89,180.7,88,180.8z"/>
		<path class="st4" d="M110.8,131c-0.3-0.1-0.3-0.3-0.5-0.6c-0.3-0.5-0.2-0.8,0.4-0.8c0.9,0,1.8,0.1,2.7,0.2
			c2.1,0.3,4.3,0.3,6.4,0.1c3.4-0.3,6.9-0.2,10.2-1.1c-0.2,0.3-0.5,0.3-0.8,0.3c-2,0.5-4,0.6-6.1,0.8c-3.2,0.2-6.4,0.3-9.5,0.2
			c-0.7,0-1.4-0.1-2.1-0.2c-0.4-0.1-0.9-0.3-1.1,0C110.3,130.2,110.8,130.6,110.8,131z"/>
		<path class="st4" d="M169.2,59.7c0.2-1.9,0.3-3.8,0-5.7c0.1,0.1,0.2,0.3,0.2,0.4C169.5,56.2,169.7,58,169.2,59.7z"/>
		<path class="st4" d="M168.2,64.2c0.3-1.5,0.6-2.9,1-4.4C169.1,61.4,168.7,62.8,168.2,64.2z"/>
		<path class="st6" d="M83.2,180.8c1.2,0.2,2.3,0.4,3.5,0.3C85.5,181.5,84.3,181.3,83.2,180.8z"/>
		<path class="st4" d="M167,68c0.1-0.7,0.3-1.4,0.7-2C167.6,66.7,167.4,67.4,167,68z"/>
		<path class="st4" d="M130.2,128.8c0.7-0.2,1.3-0.3,2-0.5C131.6,128.8,130.9,128.8,130.2,128.8z"/>
		<path class="st4" d="M167.7,66c0-0.6,0.2-1.1,0.5-1.7C168.2,65,167.9,65.5,167.7,66z"/>
		<path class="st4" d="M166.2,70.3c0.1-0.5,0.1-0.9,0.5-1.3C166.5,69.5,166.5,69.9,166.2,70.3z"/>
		<path class="st7" d="M49.8,93.8c-0.1-0.1-0.1-0.1-0.2-0.2c-1-1.3-1.4-2.5-1.2-4.3c0.5-3.6-0.7-6.8-3.2-9.5
			c-0.2-0.3-0.3-0.5-0.1-0.8c4.3-7.1,8-14.6,13.7-20.7c9.5-10.1,20.9-16.3,35-16.8c10.4-0.4,19.9,2.7,28.2,8.9
			c11.5,8.6,18.2,20.2,20.5,34.3c0.5,2.8,0.6,5.6,0.6,8.4c-0.1,7.8-0.7,15.6-1.9,23.3c-0.1,0.8-0.3,1.5-0.5,2.3
			c-0.1,0.4-0.3,0.6-0.6,0.8c-4.9,3.6-10.3,5.9-16.5,6.2c-3.5,0.1-7,0.6-10.5,0.1c-0.7-0.1-1.4-0.2-2.1-0.2
			c-1.4-0.1-2.7-0.3-3.3-1.9c-0.4-0.8-1.2-1.3-2-1.8c0-0.5,0.3-0.5,0.7-0.4c3.1,1.6,6.3,1.9,9.7,1.3c0.1,0,0.2,0,0.3-0.1
			c1-0.1,1.3,0.1,1.4,1.1c0.1,0.8,0.2,0.8,0.8,0.4c2.2-1.5,4.1-3.2,4.7-6c0.2-1.1,0.5-1.1,1.3-0.4c0.5,0.5,0.9,1,1.5,1.3
			c0.3-0.4,0.2-0.8,0.3-1.2c0-2.6,0.1-5.2-0.3-7.8c-0.1-0.9,0.2-1.1,1.1-0.9c0.4,0.1,0.8,0.3,1.3,0.4c0.2,0.1,0.3,0.2,0.5,0
			c0.2-0.2,0.1-0.4,0-0.5c-0.6-1.8-1.2-3.6-2-5.4c-1.2-2.6-2.7-4.9-4.7-6.9c-0.2-0.2-0.4-0.4-0.5-0.8c0-0.3,0.3-0.5,0.4-0.7
			c0.4-0.5,0.3-1.1,0-1.5c-0.4-0.5-0.9-0.7-1.5-0.4c-1.3,0.8-2.5,0.6-3.5-0.5c-0.8-0.8-1.7-1.4-2.8-1.8c-1.9-0.6-3.6-0.2-4.9,1.3
			c-1.8,2.2-2.9,4.8-3.1,7.7c0,0.3,0,0.6-0.2,0.9c-0.5,0-0.5-0.4-0.6-0.7c-0.2-0.7-0.3-1.4-0.6-2.1c-0.9-2.7-2-5.2-3.6-7.5
			c-2.4-3.4-5.5-5.6-9.7-5.8c-2.5-0.1-4.8,0.5-7.1,1.5c-2.7,1.3-5.2,2.9-7.5,4.9c-0.2,0.2-0.4,0.4-0.7,0.3c-0.1-0.2-0.1-0.3-0.1-0.5
			c1.1-1.8,1.7-3.8,2-5.8c0.1-0.9,0.1-1.9,0-2.8c-0.3-2.3-2-3.8-4.4-3.9c-0.8,0-1.5,0-2.3,0.1c-1.3,0.2-2.2-0.3-2.8-1.4
			c-0.4-0.7-0.9-1-1.5-0.8c-0.7,0.2-0.9,0.6-0.9,1.5c0,0.2,0.1,0.4,0,0.6c-0.2,0.3-0.6,0.3-1,0.4c-2.7,0.4-5.2,1.4-7.5,2.7
			c-1.8,1-3.6,2.2-5.2,3.6c-0.1,0.1-0.3,0.2-0.5,0.2c0.6,0.3,1.3,0.4,1.9,0.6c0.9,0.3,1,0.6,0.4,1.4c-0.6,0.8-1.3,1.6-1.9,2.4
			c-0.8,1-1.6,2-2.3,3.1C50.2,93.5,50.1,93.7,49.8,93.8z"/>
		<path class="st8" d="M142.4,70c-1.8-4.1-4-7.9-6.7-11.5c-0.4-0.5-0.1-0.5,0.3-0.6c4.4-1,8.9-1.9,13.4-2.6
			c3.9-0.7,7.9-1.3,11.9-1.5c0.9,0,1.8,0,2.7,0.1c0.9,0,1.2,0.5,1.3,1.3c0.2,1.4,0.1,2.9-0.2,4.3c-1.1,5.4-3,10.5-5.3,15.5
			c-2.1,4.4-4.2,8.9-6.3,13.3c-0.5,1.2-0.4,2,0.6,2.8c1,0.9,2.1,1.7,3.3,2.7c-1.1,0.2-2.1,0.4-3,0.6c-2.6,0.5-3.1,1.3-2.1,3.8
			c-0.9-0.3-1.7-0.5-2.5-0.8c-1-0.3-2-0.2-2.7,0.8c-0.1-1.2,0.1-2.2,0.1-3.3c0-2.6-0.2-5.1-0.3-7.6c0-0.2,0-0.4,0-0.7
			c0.4-1.1,1.2-1.8,1.9-2.7c3.2-4.6,6.2-9.2,8.6-14.2c1.4-2.8,2.5-5.6,3.3-8.6c0-0.1,0-0.2,0.1-0.2c0.3-1.2,0-1.4-1.1-1.2
			c-1.6,0.4-3,1-4.4,1.7c-2.8,1.4-5.6,2.8-8,4.8c-1.3,1.1-2.6,2.1-3.7,3.3C143.1,69.8,142.9,70.2,142.4,70z"/>
		<path class="st8" d="M55.2,56.5c-2.5,3-4.9,6.1-6.8,9.6c-1-1.5-2.7-1.3-4.1-2c0.1-0.3,0.4-0.3,0.7-0.5c1.1-0.7,1.3-2,0.4-3
			c-0.9-1-1.9-2-2.9-3c1.5-0.1,3-0.2,4.4-0.4c1.1-0.1,1.8-0.7,2-1.8c0.9-5.2,1.7-10.5,2.7-15.7c1-5.3,2.3-10.6,4.8-15.5
			c0.5-1,1.1-1.9,1.8-2.8c0.6-0.6,1.1-0.8,1.9-0.3c2.1,1.2,3.9,2.8,5.6,4.4c5,4.5,9.7,9.4,14.4,14.4c-1.3,0.5-2.5,0.9-3.7,1.4
			c-2.4,0.9-4.7,2.1-6.9,3.4c-0.5,0.3-1,0.5-1.4,0.8c-0.6-1-0.7-2.1-0.9-3.2c-0.8-3.6-2.4-6.9-4.2-10.1c-0.5-0.9-1-1.7-1.6-2.6
			c-0.3-0.4-0.6-0.9-1-1.2c-0.9-1-1.1-0.9-1.6,0.3c-1.6,4.1-2.3,8.4-2.8,12.7c-0.3,2.6-0.4,5.1-0.5,7.7c-0.1,2.1-0.1,4.2-0.1,6.3
			C55.4,55.9,55.3,56.2,55.2,56.5z"/>
		<path class="st9" d="M100.7,138c0,0.6,0,1.1,0,1.7c0.1,0.5-0.2,0.7-0.6,0.8c-3.4,0.5-6.8,1.1-10.2,1.6c-0.4,0.1-0.7,0-1-0.3
			c-0.8-0.7-1.7-1.4-2.6-2.1c-0.8-0.6-1.6-0.7-2.5-0.2c-1,0.6-1.9,1.1-2.9,1.7c-0.3,0.2-0.6,0.2-1,0.1c-3.3-1.1-6.7-2.3-10-3.4
			c-0.5-0.2-0.6-0.4-0.5-0.9c0.9-4,1.7-8,2.5-12c0.1-0.5,0.2-0.7,0.8-0.5c1,0.4,2.1,0.8,3.1,1.2c0.4,0.1,0.5,0.3,0.3,0.7
			c-0.3,0.5-0.5,1.1-0.7,1.6c-0.5,1.2-0.2,2.1,0.9,2.8c2.6,1.5,5.3,2.9,7.9,4.3c0.6,0.3,1.3,0.4,1.9,0.2c3-1,6-1.9,8.9-2.9
			c1.4-0.4,1.8-1.4,1.4-2.7c-0.1-0.4-0.2-0.9-0.3-1.3c-0.2-0.6-0.1-0.9,0.6-1c0.6-0.1,0.8,0,0.9,0.7c0.1,2,1.1,3.6,2.3,5.1
			c0.4,0.4,0.5,0.9,0.6,1.4C100.6,135.7,100.6,136.8,100.7,138z"/>
		<path class="st10" d="M142.4,70c1.1-0.7,1.9-1.6,2.8-2.5c4-3.7,8.7-6.1,13.8-7.9c0.6-0.2,1.4-0.6,1.9-0.1c0.5,0.5,0,1.2-0.1,1.8
			c-1.4,5.2-3.8,9.9-6.5,14.4c-2.2,3.6-4.5,7.2-7.1,10.6c-0.1,0.1-0.2,0.2-0.3,0.4c-0.2-1.2-0.4-2.3-0.6-3.5
			C145.5,78.6,144.1,74.3,142.4,70z"/>
		<path class="st10" d="M55.2,56.5c-0.1-4.3,0-8.5,0.4-12.8c0.3-3.8,0.9-7.6,1.9-11.3c0.4-1.5,0.9-2.9,1.4-4.3
			c0.3-0.8,0.6-0.9,1.3-0.2c0.8,0.7,1.4,1.6,2,2.6c2.8,4.5,5,9.2,5.9,14.5c0,0.2,0,0.4,0.1,0.7c-2.2,1.5-4.4,3-6.5,4.8
			C59.4,52.2,57.3,54.3,55.2,56.5z"/>
		<path class="st8" d="M49.8,93.8c1-2,2.5-3.6,3.9-5.3c0.3-0.4,0.6-0.8,0.9-1.2c0.3-0.4,0.2-0.5-0.2-0.7c-0.8-0.3-1.6-0.3-2.4-0.9
			c4.3-3.4,8.7-6.3,14.3-6.9c0.6,0.3,0.7,0.9,1.1,1.3c0.2,0.3,0.1,0.6-0.1,0.7c-1.5,1.1-2.2,2.8-2.7,4.5c-1.5,2.5-3.1,4.9-4.1,7.7
			c-1.3,3.9-0.8,7.8,0.8,11.5c0.5,1.2,1.4,2.1,2.4,3c0.2,0.2,0.5,0.3,0.6,0.6c0,0.5-0.3,0.4-0.5,0.4c-1.4-0.4-2.9-0.6-4.1-1.4
			c-2.2-2.2-4-4.8-5.8-7.3c-0.7-1-1.3-2-2-3c-0.1-0.3,0-0.7,0.1-1c0.2-0.5,0-0.7-0.5-0.7c-0.2,0-0.5,0.1-0.7-0.1
			C50.3,94.8,50.1,94.3,49.8,93.8z"/>
		<path class="st10" d="M106.5,121.7c-0.3,0-0.5,0-0.7,0.3c-1.4-0.7-2.9-0.9-4.5-0.5c-2-0.5-4.1-1-6.1-1.5c-1.7-0.5-3.3-1.2-5.1-1.6
			c-0.2,0-0.8-0.1-0.3-0.5c0.6-0.2,1.1-0.1,1.7,0c3.8,0.3,7.5-0.1,10.9-2.1c2.6-1.6,3.9-4,4-7c0-1.7,0.1-3.4-0.3-5.1
			c-0.1-0.3-0.1-0.7,0.1-1c0.2-0.3,0.3-0.1,0.4,0.1c0.2,0.3,0.3,0.7,0.5,1.1c1.7,4,6.7,4.6,9.8,1.9c0.7-0.6,1.4-1.3,1.9-2.1
			c0.2-0.2,0.3-0.6,0.7-0.5c0.1,0.2,0.2,0.4,0.2,0.6c-0.1,3.1-0.2,6.2-1.3,9.1c-1.2,3.1-3.3,5.5-6,7.4c-1.3,0.9-2.8,1.5-4.4,1.7
			C107.4,121.9,106.9,121.9,106.5,121.7z"/>
		<path class="st8" d="M69,120c-3.5-0.4-6.8-1.8-10.1-3.5c-5.1-2.7-9.1-6.7-12.6-11.2c-2.2-2.8-4-5.7-5.6-8.8
			c-0.2-0.5-0.3-0.6,0.3-0.8c1.2-0.3,2.4-0.7,3.6-1.1c0.6-0.2,0.9-0.1,1.3,0.4c2.2,3.5,4.6,6.9,7,10.3c3.3,4.7,7.6,8.3,12.6,11.1
			c1.2,0.7,2.3,1.4,3.4,2.1c0.3,0.2,0.5,0.3,0.7,0.6c0.2,0.2,0.7,0.5,0.6,0.8C70,120.2,69.6,120,69,120z"/>
		<path class="st9" d="M90,154.6c-1.6,0-3.2,0-4.8,0c-0.8,0-0.9-0.3-0.9-1c0.2-1.5,0.3-3,0.1-4.5c-0.2-1.4-0.7-2.7-1.6-3.8
			c-0.3-0.4-0.3-0.6,0.2-0.9c1.8-1.1,1.8-1.2,3.3,0.3c1.3,1.2,2.6,1.5,4.4,1.2c2.5-0.5,5-0.8,7.5-1.3c0.5-0.1,0.8,0,0.7,0.6
			c-0.2,2.9-0.6,5.8-1.2,8.7c-0.1,0.5-0.4,0.5-0.8,0.5C94.7,154.5,92.4,154.5,90,154.6C90,154.6,90,154.6,90,154.6z"/>
		<path class="st11" d="M89.9,118c0,0.3,0.3,0.2,0.4,0.2c3.1,0.9,6.1,2,9.3,2.7c0.6,0.1,1.4,0,1.8,0.6c-0.7,0.3-1.4,0.6-1.9,1.2
			c-0.3,0.3-0.6,0.4-0.9,0.3c-11.2-3.2-22.4-6.5-33.1-11.3c-2.3-1-4.2-2.7-5.9-4.5c1.3,0.4,2.6,0.8,4,1.1c0.2,0,0.5,0.4,0.6-0.1
			c0.3-0.1,0.4,0,0.6,0.2c2.3,1.7,4.9,2.8,7.6,3.8c2.1,0.8,4.3,1.4,6.5,2.2c0.3,0.1,0.6,0.1,0.9,0.1c1.2,0.4,2.3,1.1,3.5,1.5
			c1.9,0.7,3.8,1.2,5.7,1.6C89.3,117.6,89.7,117.5,89.9,118z"/>
		<path class="st10" d="M35.5,85.8c0-1.3,0.8-2.9,2.6-4c1.3-0.8,2.6-0.7,3.7,0.3c2.6,2.2,3.2,5.3,2.7,8.2c-0.1,0.3-0.3,0.4-0.5,0.5
			c-1.8,0.5-3.5,1.1-5.3,1.7c-0.3,0.1-0.5,0-0.7-0.2C36.6,91,35.5,88.5,35.5,85.8z"/>
		<path class="st10" d="M88.9,158.5c0.9,0,1.8,0,2.7,0c0.6,0,0.7,0.2,0.5,0.7c-0.7,2.2-1.6,4.3-2.4,6.5c-0.3,0.7-0.4,1.4-0.4,2.2
			c0,1.8-0.8,3.4-2.1,4.7c-0.8,0.8-1.6,0.6-2.1-0.4c-0.4-0.9-0.6-1.9-0.5-3c0.2-2.5,0.3-5,0.5-7.5c0.1-0.8,0.2-1.7,0.2-2.5
			c0-0.5,0.2-0.6,0.7-0.6C87,158.5,87.9,158.5,88.9,158.5C88.9,158.5,88.9,158.5,88.9,158.5z"/>
		<path class="st10" d="M73.8,150.4c0-0.5,0-1.1,0.2-1.6c0.1-0.4,0.3-0.8,0.6-1.1c1.2-0.8,2.5-1.1,3.9-0.7c1.2,0.3,1.6,1.4,1.9,2.5
			c0.3,1.3,0,2.6,0,4c-0.1,1.2-0.3,2.5-0.3,3.7c0,1.4-0.8,1.8-1.9,2.2c-0.6,0.3-2-0.6-2.4-1.3C74.9,156.4,73.9,152.4,73.8,150.4z"/>
		<path class="st12" d="M104.6,153.6c2.7,0,5.5-0.1,8.2,0.3c-0.2,0.3-0.5,0.3-0.8,0.2c-0.5,0-0.7,0.2-0.6,0.7
			c0.1,1.4,0.1,2.7-0.1,4.1c-0.2,1.3-0.7,2.5-1.2,3.6c-0.3,0.6-0.2,0.7,0.5,0.7c0.4,0,0.8-0.1,1.2,0.2c-1.7,0.3-3.4,0.1-5-0.3
			c0.3-0.7,0.7-1.3,1.1-2c0.7-1.3,1.1-2.8,1-4.3c0-0.6,0-1.2,0-1.7c0-1,0-1.1-0.9-1.1c-0.9,0-1,0.1-1,1.1c0,2-0.5,3.8-1.6,5.5
			c-0.4,0.6-0.8,1.2-1.5,1.5c-0.9-0.1-1.5-0.6-2.2-1.2c0.3-0.4,0.6-0.8,0.9-1.2c1.4-1.5,1.7-3.3,1.9-5.2
			C104.5,154.3,104.4,153.9,104.6,153.6z"/>
		<path class="st13" d="M113.3,154c0.6,0,1.2,0.1,1.7,0.3c1.6,0.3,2.7,1.2,3.1,2.8c0.5,1.7,0.1,3.3-1.2,4.5c-1.3,1.3-3,1.9-4.8,1.9
			c1.4-2,1.5-4.3,1.5-6.7C113.6,155.9,113.5,154.9,113.3,154z"/>
		<path class="st14" d="M113.3,154c0.4,0.3,0.5,0.7,0.5,1.1c0,2,0.3,3.9-0.3,5.9c-0.1,0.5-0.3,0.9-0.4,1.4c-0.1,0.5-0.4,0.9-0.9,1.1
			c-0.2,0-0.3,0-0.5,0c-0.6,0-1.3,0-1.9,0c-0.3,0-0.5-0.1-0.3-0.4c1.2-1.9,1.6-3.9,1.8-6.1c0-0.8,0-1.6-0.1-2.4
			c-0.1-0.5,0.1-0.6,0.6-0.6c0.4,0,0.8,0,1.2,0C113,154,113.2,154,113.3,154z"/>
		<path class="st7" d="M103.8,162.2c0.6-0.9,1.4-1.7,1.9-2.8c0.7-1.5,1-3,0.9-4.7c0-0.7,0.1-1,0.8-0.9c1.8,0.1,1.5-0.2,1.5,1.5
			c0,1.4,0.2,2.9-0.3,4.3c-0.5,1.3-1,2.6-2,3.6C105.7,162.9,104.7,162.6,103.8,162.2z"/>
		<path class="st7" d="M104.6,153.6c0.1,1.5-0.1,3-0.7,4.4c-0.5,1.2-1.2,2.2-2.3,3c-1.1-0.6-2.1-1.5-3-2.4c0-0.1,0.1-0.1,0.1-0.1
			c2-0.1,2.2-0.4,2.7-2.4c0.2-0.8,0.3-1.5,0.5-2.3c0.1-0.4,0.2-0.6,0.7-0.5C103.2,153.5,103.9,153.5,104.6,153.6z"/>
		<path class="st13" d="M101.5,127.6c0-0.7,0.1-1.2,0.4-1.6c0.5-1,1.8-1.1,2.7,0c0.9,1,1.2,2.3,1.2,3.6c0,0.8-0.9,1.4-1.5,2
			c-0.1,0.1-0.3,0-0.4-0.1C102.7,130.3,101.7,129.1,101.5,127.6z"/>
		<path class="st15" d="M85.8,128.8c-0.8-2.2-1.5-4.1-2.3-6.2c1.7,0.5,3.2,1,4.7,1.5c0.3,0.1,0.3,0.2,0.2,0.5
			C87.5,125.9,86.7,127.2,85.8,128.8z"/>
		<path class="st16" d="M70.1,148.2c-0.2-1.8,0-3.6,0.2-5.4c0-0.4,0.2-0.6,0.6-0.4c1,0.3,2.1,0.7,3.4,1.1
			C71.9,144.4,70.6,145.9,70.1,148.2z"/>
		<path class="st17" d="M89.7,129.9c0.7-1.2,1.3-2.2,2-3.3c0.2,0.8,0.4,1.5,0.6,2.1c0.1,0.3,0,0.4-0.3,0.5
			C91.3,129.4,90.6,129.6,89.7,129.9z"/>
		<path class="st18" d="M79.3,122.7c-0.8-0.3-1.6-0.6-2.3-0.9c-0.2-0.1-0.7-0.1-0.4-0.5c0.2-0.3,0.2-1,0.9-0.8
			C78.6,120.8,79.1,121.5,79.3,122.7z"/>
		<path class="st19" d="M80.5,162.9c0,0.7-0.1,1.3-0.7,1.6c-0.6,0.3-1.8,0-2.1-0.5c-0.2-0.3-0.2-0.4,0.2-0.4
			C78.7,163.4,79.6,163.3,80.5,162.9z"/>
		<path class="st17" d="M109.2,136.8c-0.7-0.7-1.4-1.3-2.1-2c-0.6-0.5,0.2-0.6,0.3-0.9c0.3-0.4,0.4,0,0.6,0.2c0.5,0.9,1,1.7,1.4,2.6
			C109.3,136.7,109.3,136.8,109.2,136.8z"/>
		<path class="st20" d="M81.7,129c-0.2-0.1-0.3-0.1-0.4-0.1c-1.8-0.9-1.8-0.9-0.7-2.7c0.1,0.2,0.2,0.4,0.2,0.5
			C81.1,127.5,81.4,128.2,81.7,129z"/>
		<path class="st5" d="M104,149.7c0.7,0,1.5,0,2.2,0c2.3,0,4.7-0.1,7,0.3c0.2,0,0.3,0,0.4,0.2c-3-0.2-6.1-0.3-9.1-0.3
			C104.4,149.8,104.2,149.7,104,149.7z"/>
		<path class="st21" d="M50.7,95.2c0.5-0.1,1.2-0.4,1.6,0c0.3,0.3-0.2,0.9-0.3,1.4c0,0.1-0.1,0.3-0.1,0.4
			C51.3,96.3,51,95.8,50.7,95.2z"/>
		<path class="st8" d="M89.9,118c-1.6-0.4-3.3-0.6-4.9-1.1c-1.8-0.6-3.6-1.3-5.3-2.2c-1.3-0.4-2.5-1.2-3.5-2.1
			c-2.2-1.7-4.2-3.7-5.4-6.3c-1.3-2.8-1.1-5.6,0.4-8.3c1.2-2.1,2.9-3.9,4.6-5.7c0.2-0.2,0.4-0.4,0.7-0.4c1.9-1.6,3.9-3.2,6.1-4.4
			c2.6-1.4,5.3-2.4,8.3-2.5c3.8-0.1,6.9,1.5,9.4,4.3c2.8,3.1,4.4,6.8,5.4,10.8c0.1,0.4,0.3,0.8,0.4,1.2c0.4,0.4,0.3,0.8,0.2,1.2
			c0.2,2,0.4,3.9,0.4,5.9c0,5-3,7.6-7.1,8.9c-2.8,0.9-5.6,1-8.5,0.7C90.7,118,90.3,118,89.9,118z"/>
		<path class="st8" d="M106.5,121.7c3.7,0.1,6.4-2,8.8-4.5c2.7-2.9,3.7-6.5,4-10.3c0.1-1.3,0.3-2.6,0.2-3.9c-0.2-0.3,0-0.5,0.1-0.8
			c0.6-1.4,0.7-2.9,0.3-4.4c-0.2-0.7,0-1.1,0.7-1.2c0.4-0.1,0.8-0.4,1.3-0.3c2.2,2.1,4,4.6,5.3,7.4c0.9,1.9,1.6,4,2.2,6
			c0.2,0.6,0,0.6-0.5,0.5c-0.6-0.2-1.1-0.4-1.7-0.5c-0.9-0.2-0.9-0.2-0.8,0.7c0.2,1.5,0.3,3,0.3,4.5c0,1.6,0.1,3.2-0.2,4.9
			c-0.8-0.4-1.3-1.1-1.9-1.7c-0.2-0.2-0.4-0.5-0.6-0.5c-0.3,0.1-0.2,0.5-0.3,0.7c-0.7,3.2-2.9,5-5.5,6.6c-0.4,0.2-0.5,0-0.5-0.3
			c-0.2-1.6-0.2-1.6-1.8-1.4c-0.5,0.1-0.9,0.1-1.4,0.2c-2.6,0.4-5.1-0.3-7.5-1.3C106.7,122,106.6,121.9,106.5,121.7z"/>
		<path class="st10" d="M76.5,91.9c-1.7,1.7-3.4,3.5-4.7,5.6c-2.3,3.4-2.1,6.8,0,10.1c1.9,3,4.6,5.1,7.6,6.8
			c0.1,0.1,0.2,0.2,0.3,0.2c-1,0.1-1.9-0.5-2.9-0.7c-1.7-0.5-3.4-1.2-5.1-1.8c-2.7-1-5.3-2.2-7.6-4c-2.2-1.4-3.3-3.6-4-6
			c-1.4-5-0.3-9.5,2.3-13.7c0.7-1.1,1.2-2.2,2-3.1c0.3,0.2,0.1,0.5,0.1,0.8c-0.1,2.4,0.5,4.5,2.2,6.3c1.9,2.1,5.8,2.2,7.8,0.5
			c0.5-0.4,0.9-0.7,1.3-1.2c0.1-0.2,0.3-0.4,0.6-0.3C76.5,91.6,76.5,91.8,76.5,91.9z"/>
		<path d="M121.8,96.3c-0.2,0.1-0.5,0.2-0.7,0.3c-0.4,0.2-1.1,0.1-1.2,0.5c-0.1,0.3,0.2,0.8,0.3,1.3c0.4,1.6-0.1,3.1-0.7,4.6
			c-0.8,1.1-1.5,2.1-2.5,3c-3.9,3-9.1,1.7-10.5-3.2c0-0.1-0.1-0.2-0.2-0.2c-0.3-0.4,0-0.8-0.2-1.2c0-3,0.9-5.7,2.7-8.1
			c1.8-2.5,4.2-3,6.8-1.4c0.7,0.4,1.4,1,2,1.6c0.6,0.6,1.8,0.7,2.5,0.3c1-0.6,1.7-0.5,2.2,0.2c0.5,0.7,0.4,1.5-0.5,2.2
			C121.9,96.2,121.9,96.3,121.8,96.3z"/>
		<path d="M76.5,91.5c-1.3,1.5-2.8,2.7-4.8,2.9c-3.2,0.3-5.8-1.4-6.8-4.5c-0.5-1.5-0.6-3-0.4-4.5c0.3-2,1.3-3.7,3-4.9
			c-0.5-0.5-0.9-1-1.2-1.6c-0.3-1.4,0-2.1,1-2.4c0.7-0.2,1.4,0.1,1.7,0.8c0.7,1.4,1.3,1.7,2.8,1.5c1.5-0.2,2.9-0.2,4.3,0.5
			c1.6,0.8,2.4,2.2,2.5,3.9C78.8,86.1,78.3,89,76.5,91.5z"/>
		<path class="st8" d="M115.3,79.2c2.8,0,5.1,2.2,5,4.9c0,2.6-2.2,4.6-4.9,4.6c-2.7,0-4.9-2.3-4.9-5
			C110.5,81.2,112.7,79.2,115.3,79.2z"/>
		<path class="st8" d="M78.8,77c-2.8,0-5-2.2-5-4.9c0-2.5,2.2-4.5,4.8-4.5c2.7,0,5.1,2.3,5,4.8C83.6,75,81.5,77,78.8,77z"/>
		<path class="st22" d="M82.8,106.9c0.1-0.9,0.1-1.8,0.2-2.7c0-0.5,0.2-0.8,0.7-1c0.5-0.2,0.9,0.1,1.2,0.4c2,2.4,4.5,3.3,7.5,2.4
			c0.4-0.1,0.8-0.1,1.1,0.3c0.3,0.4,0.3,0.8,0.1,1.2c-1.1,1.9-2.3,3.8-4,5.3c-0.3,0.2-0.6,0.5-0.9,0.7c-2,1.3-4,0.8-5-1.4
			C83,110.4,82.9,108.6,82.8,106.9z"/>
		<path d="M89.6,101.8c-1.8,0.3-3.7-3.1-3.4-4.6c0.2-0.7,0.6-1,1.2-1c2.3,0,4.4,0.7,6.2,2.1c0.7,0.6,0.7,1.6-0.1,2.3
			C92.6,101.4,91.2,101.6,89.6,101.8z"/>
		<path class="st23" d="M90.7,108.4c-1,1.4-1.9,2.8-3.4,3.6c-0.6,0.3-1.1,0.2-1.5-0.5c-0.8-1.4-0.8-3-0.9-4.5c0-0.4,0.2-0.4,0.5-0.2
			C86.9,107.8,88.7,108.3,90.7,108.4z"/>
	</g>
</g>
</svg>
