<?xml version="1.0" encoding="utf-8"?>
<!-- Generator: Adobe Illustrator 25.4.1, SVG Export Plug-In . SVG Version: 6.00 Build 0)  -->
<svg version="1.1" id="Capa_1" xmlns="http://www.w3.org/2000/svg" xmlns:xlink="http://www.w3.org/1999/xlink" x="0px" y="0px"
	 viewBox="0 0 200 200" style="enable-background:new 0 0 200 200;" xml:space="preserve">
<style type="text/css">
	.st0{fill:#FEFEFE;}
	.st1{fill:#F7F7F7;}
	.st2{fill:#41A2ED;}
	.st3{fill:#FB55A7;}
	.st4{fill:#FED5A1;}
	.st5{fill:#FCFE59;}
	.st6{fill:#DE5577;}
	.st7{fill:#DE5576;}
	.st8{fill:#FDD5A1;}
	.st9{fill:#FBD4A0;}
	.st10{fill:#080808;}
	.st11{fill:#42A3ED;}
	.st12{fill:#070707;}
	.st13{fill:#48B1FD;}
	.st14{fill:#F26286;}
	.st15{fill:#49B1FD;}
	.st16{fill:#977F65;}
	.st17{fill:#010100;}
	.st18{fill:#020101;}
</style>
<g>
	<g>
		<path d="M193.3,111.8c0.5,0.9,0.9,1.8,1.2,2.7c0.7,2,0.9,4.1,0.2,6.2c-0.8,2.4-2.5,3.7-4.9,4.1c-1.7,0.3-3.3,0-4.9-0.3
			c-0.3-0.1-0.7-0.1-1-0.2c-0.4-0.1-0.5,0-0.4,0.4c0.3,1.7,0.3,3.4,0.1,5c-0.1,0.4-0.1,0.8-0.3,1.2c-0.4,1.4-1.2,2.4-2.7,2.9
			c-0.5,0.2-1.1,0.3-1.6,0.5c-0.7,0.2-0.7,0.1-0.3,0.7c0.6,0.9,1.5,1.3,2.6,1.4c0.9,0.1,1.1,0.4,0.9,1.2c-1,4.7-2.6,9-5.2,13.1
			c-0.2,0.4-0.3,0.7-0.2,1c1.3,5.6,1.6,11.4,0.9,17.1c-0.1,0.7-0.3,1.4-0.6,2.1c-0.5,1-1.3,1.2-2.3,0.8c-0.2-0.1-0.3-0.1-0.4,0.1
			c0,0.1-0.1,0.2-0.1,0.2c-0.7,1.5-1.7,1.8-3,0.8c-0.3,0.5-0.6,1-1.1,1.3c-0.5,0.3-1,0.3-1.5,0c-0.3-0.2-0.4-0.1-0.6,0.2
			c-0.3,0.6-0.7,1.1-1.2,1.5c-1.3,1-2.7,1-4.1,0.5c-0.7-0.2-1.1-0.8-1.2-1.5c-0.2-0.9-0.2-1.9,0-2.8c0.6-2.5,0.7-5.1,0.7-7.6
			c0-0.4,0-0.6-0.5-0.4c-1.7,0.9-3.4,1.6-5.2,2.2c-0.4,0.1-0.5,0.2-0.3,0.7c0.4,1.2,0.2,2.3-0.5,3.2c-0.2,0.2-0.2,0.5-0.2,0.7
			c-0.1,0.9-0.5,1.6-1.4,1.8c-0.2,0.1-0.3,0.2-0.4,0.4c-0.3,0.8-1,1.2-1.8,1.2c-0.4,0-0.4,0.2-0.6,0.4c-0.4,1.1-1.1,1.5-2.3,1.3
			c-0.2,0-0.3,0-0.3,0.1c0,0.1-0.1,0.2-0.1,0.3c-1.3,2.4-2.9,2.8-5.6,1.8c-1.3-0.5-1.8-1.9-1.3-3.4c0.2-0.6,0.1-0.8-0.5-1
			c-2-0.6-2.9-2.6-2.2-4.6c-0.8-0.1-1.6-0.2-2.5-0.2c-5.4-0.7-10.4-2.5-15-5.5c-0.4-0.3-0.5-0.6-0.5-1.1c0-4.2,0-8.4,0-12.6
			c0-0.2,0-0.4,0-0.7c-2.4,1.2-4.7,1-6.9-0.5c-0.2,1-0.4,1.9-0.6,2.8c-0.2,1.1-0.8,2-2,2.4c-1.2,0.3-2.3,0.1-3.2-0.8
			c-0.3-0.3-0.4-0.3-0.8-0.1c-1.7,1-4.9,0.1-5.6-1.7c-0.3-0.8-0.8-1.3-1.5-1.7c-1.2-0.7-1.5-2-0.8-3.4c0.2-0.3,0.2-0.6-0.1-0.9
			c-0.5-0.7-0.6-1.6-0.3-2.4c0.1-0.3,0.1-0.4-0.2-0.6c-0.6-0.3-1.1-0.7-1.5-1.1c-0.2-0.2-0.3-0.2-0.6-0.1c-1.1,0.6-1.9,1.2-2,2.7
			c-0.1,1.4-1.1,2.3-2.4,2.7c0,0.3,0.3,0.4,0.4,0.5c1.3,1.3,2.5,2.8,3,4.7c0.1,0.4,0.2,0.8,0.1,1.3c-0.6,3.2-2.1,5.9-4.7,8
			c-0.7,0.6-1.1,0.5-1.6-0.2c-0.2-0.2-0.3-0.5-0.5-0.7c-0.1-0.2-0.3-0.4-0.4-0.7c-0.1,0-0.1,0-0.2,0c0,1.2,0,2.3,0,3.5
			c0,2.1-0.1,4.3-0.2,6.4c0,0.7-0.2,0.9-0.9,1.1c-4.5,0.9-9.1,1.3-13.7,1c-0.1,0-0.2,0-0.4,0c0.4,1.7,0.3,3.3-0.2,4.9
			c-0.5,1.5-1.3,2.1-2.9,1.8c-0.2,0-0.3,0.1-0.5,0.2c-0.6,0.6-1.2,0.8-2,0.5c-0.3-0.1-0.5-0.1-0.7,0.1c-1.2,0.8-2.5,0.8-3.8,0.1
			c-2.1-1.2-3.5-2.9-4.3-5.2c-0.6-1.6-0.8-3.3-0.9-5c0-0.4-0.1-0.6-0.5-0.7c-2.5-0.8-4.8-1.8-7-3.2c-0.3-0.2-0.5-0.2-0.7,0.1
			c-1.6,2.4-3.6,4.5-6.3,5.8c-0.3,0.2-0.3,0.4-0.3,0.7c0.1,1.2-0.3,2.2-1.3,3.1c-1.1,0.9-3.8,0-4.3-1.7c-0.1-0.4-0.3-0.7-0.8-0.7
			c-0.9,0-1.2-0.7-1.4-1.4c-0.2-0.4-0.2-0.9-0.2-1.4c0-0.2,0-0.3-0.3-0.3c-1.6,0.1-2.2-0.6-2.1-2.2c0-0.5-0.1-0.6-0.5-0.8
			c-0.9-0.4-1.3-1.1-1.2-2.1c0.1-1.7,0.7-3.2,1.4-4.7c1-2.1,2.2-4.2,3.6-6.1c0.3-0.4,0.3-0.6,0-1c-0.6-0.8-0.6-0.8-1.6-0.4
			c-4.4,1.7-8.8,1.4-13.2-0.3c-0.5-0.2-1.1-0.5-1.6-0.7c-0.5-0.2-0.7-0.5-0.8-1c-1.4-7.3-1.7-14.7-1.1-22.1c0.4-5.8,1.4-11.4,2.9-17
			c0.1-0.3,0.1-0.6-0.2-0.9c-7.2-5.6-12.6-12.7-17.1-20.5c-1-1.8-1.9-3.6-2.8-5.4c-0.3-0.5-0.2-0.9,0.1-1.4c3.5-5,8-8.8,13.3-11.7
			c1.9-1,3.8-1.9,5.8-2.7c0.2-0.1,0.5-0.2,0.6-0.4c0.9-2.1,2.7-3.2,4.7-4c0.2-0.1,0.3-0.1,0.5-0.2c0,0,0.1-0.1,0.1-0.1
			c-1-2.4-1.4-4.9-0.5-7.5c0.5-1.2,1.3-2.2,2.3-3.1c1.8-1.5,4.7-1.3,6.3,0.5c0.7,0.7,1.3,1.5,1.8,2.5c0.2,0,0.2-0.1,0.3-0.2
			c2.6-3.1,5.7-5.7,9.1-7.8c0.2-0.1,0.4-0.3,0.5-0.6c1.5-5.5,4.9-9.7,9.5-13c1.1-0.8,2.3-1.5,3.5-2.2c0.3-0.2,0.6-0.3,0.9-0.1
			c5.4,1.7,10.4,4.1,14.5,8.1c1.2,1.1,2.4,1.8,4,2.1c7,1.4,12.9,4.9,18.2,9.5c3.2,2.9,6,6.1,8.2,9.8c0.1,0.1,0.1,0.2,0.2,0.3
			c2-4,4.9-7.3,8.3-10.2c3.6-3.1,7.4-5.8,12.1-7.2c8.3-2.6,16.8-3.2,25.2-0.8c6,1.7,11.2,4.6,15.6,9.1c0.1,0.1,0.1,0.1,0.2,0.2
			c0.3-0.9,0.7-1.7,1.2-2.5c0.4-0.6,0.9-1,1.6-1.2c0.7-0.2,1.5-0.5,2.2-0.5c2-0.2,3.5,0.8,4.4,2.8c0.8,1.8,0.8,3.7,0.8,5.6
			c0,0.6,0,0.7,0.7,0.6c1.9-0.5,3.7-0.2,5.4,0.7c1,0.6,1.6,1.5,1.9,2.6c0.2,0.7,0.5,1.3,0.7,1.9c0.5,1.3,0.7,2.7,0.6,4
			c0,0.4,0.1,0.6,0.4,0.9c1.3,0.9,2.6,2,3.7,3.3c0.7,0.9,1.3,1.9,1.6,3c0.1,0.4,0,0.7-0.4,1c-1.9,1.4-4,2.1-6.4,2
			c-0.7-0.1-0.8,0.2-0.8,0.8c-0.1,1.6-0.2,3.2-0.8,4.7c-0.7,1.6-0.6,3.2-0.5,4.9c0.2,1.5,0.3,3,0.6,4.4c0.2,0.8,0.5,1.4,0.8,2.1
			c0.6,1.1,1.6,1.7,2.5,2.3c0.5,0.3,1,0.2,1.5,0.1c2.4-0.5,4.9-0.2,7.1,0.6c2.8,1.1,4.9,3.4,4.8,6.3c0,1.6-0.1,3.1-0.6,4.6
			c-0.9,2.5-2.7,3.7-5.2,4C193.7,111.8,193.6,111.8,193.3,111.8z"/>
		<ellipse class="st1" cx="120.7" cy="156.6" rx="0" ry="8.8"/>
		<path class="st2" d="M26.3,58.1c0.1-1.8,1-3.3,2.5-4.2c1.2-0.8,3.1-0.5,4,0.6c0.5,0.6,1,1.2,1.3,1.9c0.2,0.4,0.3,0.8,0.2,1.3
			c-0.1,0.4,0.1,0.7,0.5,0.9c0.4,0.2,0.7,0,1-0.4c1.5-2,3.2-3.9,5.1-5.5c5.1-4.4,11-7.3,17.4-9.1c4.2-1.2,8.5-1.3,12.9-1
			c5,0.3,9.9,1.4,14.3,3.7c7.9,4,14.2,9.7,18.4,17.7c1.5,2.9,2.5,6,2.9,9.3c0,0.3,0,0.6,0,0.9c0,0.9,0,1.9,0,2.8
			c0,0.6-0.1,1.1,0,1.7c-0.1,1.8-0.6,3.4-1.8,4.8c-0.3,0.3-0.5,0.4-0.9,0.2c-1.5-0.5-2.9-1.2-3.6-2.8c-0.2-0.5-0.9-0.6-1.3-0.1
			c-0.4,0.4-0.7,0.8-1,1.3c-0.7,1.1-1.7,1.2-2.8,1.1c-1.2-0.1-2.2-0.9-3-1.7c-0.6-0.6-1.1-1.3-1.6-1.9c-0.5-0.7-0.9-0.7-1.5-0.1
			c-0.9,1-1.8,2-3,2.8c-2.9,2-5.8,2-8.6-0.1c-0.2-0.2-0.5-0.4-0.7-0.5c-0.6-0.4-1-0.3-1.4,0.3c-0.2,0.4-0.4,0.9-0.7,1.3
			c-2,3.5-5.1,4.8-9,3.8c-0.6-0.2-1.2-0.3-1.7-0.5c-0.9-0.3-1.2-0.1-1.4,0.7c-0.3,1.2-0.6,2.3-1.1,3.4c-1.5,3.2-4,4.5-7.5,3.9
			c-0.8-0.1-1.6-0.3-2.3-0.6c-0.6-0.2-1.1-0.1-1.3,0.5c-0.1,0.7-0.1,1.4,0,2.1c0,1.2-0.3,2.4-0.9,3.5c-0.8,1.5-2.2,2.1-3.8,2.2
			c-0.5,0-1,0-1.6,0c-0.7,0-0.9,0.4-0.8,1c0.1,0.3,0.2,0.7,0.3,1c0.6,1.7,0.2,3.3,0,5c-0.1,0.4-0.2,0.4-0.5,0.3
			c-7.6-3-12.6-8.3-14.7-16.2c-1-3.8-1.2-7.6-1-11.5c0.1-2.2,0.3-4.4,0.7-6.5c0.2-1-0.2-1.3-1.2-1.1c-1,0.2-2,0.4-3.1,0.3
			c-2.2-0.1-3.6-1.7-3.2-3.9c0.5-3.1,2.5-4.8,5.4-5.7c0.3-0.1,0.6-0.2,0.8-0.2c0.7-0.2,0.8-0.8,0.4-1.3c-1-1-1.3-2.3-1.4-3.7
			C26.4,59,26.4,58.5,26.3,58.1z"/>
		<path class="st3" d="M182.1,60.3c-1,0.4-2,0.9-3,1.3c-1,0.4-1.9,0.9-2.8,1.5c-0.3,0.2-0.6,0.2-0.9,0.1c-2.2-0.9-4.4-1-6.7-0.9
			c-0.5,0-0.8,0.2-0.9,0.7c-0.2,1.7-0.2,3.5,0.3,5.2c0.2,0.8,0.6,1.5,1.2,2.1c0.2,0.3,0.2,0.4,0,0.6c-1.6,1.6-2.8,3.3-3.6,5.4
			c-0.3,1-0.2,1.2,0.7,1.6c2.4,0.9,4.8,1.1,7.3,0.4c0.1,0,0.2,0,0.3,0c0.1,0.2-0.1,0.4-0.1,0.5c-3.2,6.9-6.3,13.9-9.5,20.8
			c-0.2,0.4-0.3,0.5-0.8,0.5c-0.7-0.1-1.3,0.1-2,0.3c0-0.9,0-1.9,0-2.8c0-0.4,0-0.7,0-1.1c0-0.4,0-0.8-0.4-1c-0.4-0.2-0.7,0-1,0.2
			c-1,0.6-2,1.2-3.2,1.4c-1.7,0.4-2.9-0.1-3.7-1.8c-0.4-1-0.6-2-0.8-3c-0.1-1-0.4-1.2-1.4-0.9c-1.5,0.4-2.9,0.7-4.5,0.7
			c-2.8,0-4.8-1.4-5.8-4c-0.2-0.5-0.4-1.1-0.5-1.6c-0.2-0.9-0.7-1.1-1.5-0.5c-1.3,0.9-2.7,1.6-4.2,2c-2.4,0.6-4.5,0-6.3-1.5
			c-0.6-0.5-1.2-1.1-1.6-1.8c-0.6-0.8-0.9-0.8-1.6-0.1c-1.1,1.1-2.3,2.1-3.7,2.9c-2.8,1.6-5.2,1.2-7.4-1.1c-0.2-0.2-0.3-0.3-0.5-0.5
			c-0.5-0.5-1.2-0.4-1.4,0.3c0,0.1-0.1,0.3-0.1,0.4c-0.7,2.8-2.4,4-5.3,3.7c-1.2-0.1-1.3,0-1.4,1.2c-0.1,1.1-0.2,2.2-0.9,3.2
			c-0.3,0.4-0.7,1-1.4,0.8c-0.7-0.2-0.9-0.8-1.1-1.4c0-0.1,0-0.2,0-0.2c-0.1-0.4-0.2-0.8-0.2-1.2c0.1-0.5,0.7-0.4,1-0.6
			c1.1-0.8,1.4-2,1.6-3.3c0.2-1,0.2-2.1,0-3.1c0-0.2-0.1-0.5,0.3-0.4c0.3,0.1,0.5-0.2,0.8-0.4c1.6-1.3,2.3-3,2.6-5
			c0.8-5.5-0.1-10.8-2.5-15.8c-0.3-0.6-0.3-1,0-1.6c1.7-3.4,4-6.4,6.9-8.9c3.6-3.2,7.4-6.1,12-7.7c3.9-1.4,7.9-2.1,12-2.3
			c5.1-0.3,10.2,0.1,15,1.9c5.5,2,10.5,5,14.3,9.6c0.3,0.3,0.5,0.5,1,0.4c0.4-0.2,0.5-0.5,0.5-0.9c0-0.4-0.1-0.7,0-1.1
			c0.5-2.7,1.8-3.5,4.5-3.2c0.9,0.1,1.5,0.8,1.9,1.6c0.5,1.1,0.6,2.2,0.7,3.4c0.1,1.2,0,2.3,0,3.5c0,0.7,0.5,1.1,1.1,0.8
			c1.7-0.7,3.3-0.9,5-0.2C181.2,59.4,181.8,59.7,182.1,60.3z"/>
		<path class="st0" d="M152.4,115.2c-0.5,0.5-1.1,1.1-0.9,1.8c0.2,0.9-0.2,1.6-0.6,2.4c-0.4,0.7-0.4,1.4-0.1,2.2
			c0.1,0.3,0.1,0.5-0.1,0.8c-0.8,0.9-0.9,3.1-0.2,4.1c0.1,0.2,0.2,0.3,0.4,0.4c0.6,0.1,0.6,0.6,0.6,1.1c-0.1,2.4,0.3,4.8,0.9,7.1
			c0.1,0.5,0.4,0.7,0.9,0.8c4,0.8,8.1,1.1,12.2,0.9c0.9,0,1.8,0,2.7-0.2c2-0.4,3.3-1.7,4.2-3.4c0.2-0.4,0.3-0.5,0.7-0.1
			c0.9,0.8,2,1.3,3.2,1.5c0.4,0.1,0.6,0.2,0.8,0.6c0.6,1.4,1.7,2.5,3.3,2.8c0.3,0.1,0.3,0.2,0.3,0.5c-2.4,10.3-8.1,18.2-17.4,23.4
			c-5.6,3.1-11.6,5-18,5.8c-7.9,1-15.4-0.6-22.2-4.8c-0.4-0.2-0.5-0.5-0.5-0.9c0-4.5-0.1-9.1,0-13.6c0.1-4.8-0.1-9.6-0.4-14.3
			c-0.2-2.5-0.4-5-0.6-7.5c0-0.2,0-0.4-0.1-0.6c-0.2-0.4-0.5-0.5-0.9-0.4c-0.5,0.1-0.6,0.5-0.6,0.9c0.1,1.3,0.3,2.6,0.4,4
			c0.4,4.1,0.6,8.2,0.6,12.3c0,1.5,0,3,0.1,4.4c0,0.3-0.1,0.5-0.4,0.7c-1.7,0.9-3.4,1-5.2,0.1c-3.9-2.1-6.6-5.3-8.3-9.3
			c-0.4-0.9-0.8-1.9-1.1-2.9c-0.1-0.3-0.1-0.5,0.2-0.8c5.5-5.8,10.1-12.4,13.7-19.5c0.2-0.3,0.3-0.5,0.7-0.3c1.6,0.7,3.3,1.2,5,1.6
			c0.3,0.1,0.5,0.2,0.6,0.6c0.3,1.2,1,2.2,2,2.9c2.7,2,6.3,2.3,9,0.7c1.1-0.6,1.9-1.5,2.4-2.7c0.1-0.3,0.3-0.4,0.7-0.5
			c4-0.2,7.8-0.9,11.6-2.2C151.9,115.2,152.1,115.1,152.4,115.2z"/>
		<path class="st0" d="M95.4,140c0.3-3.6-0.2-7.1-0.9-10.7c-0.2-1.1-1.3-2.1-2.5-2.3c-0.5-0.1-0.5-0.2-0.5-0.6c0-0.9,0-1.7,0.1-2.6
			c0-0.6-0.3-0.9-0.8-0.9c-0.6,0-0.8,0.4-0.8,0.9c0,1-0.1,2-0.1,3c0,0.5-0.2,0.8-0.6,1c-2.4,1.6-4.5,3.5-5.9,6
			c-0.5,0.9-0.5,0.9-1.5,0.7c-1.2-0.3-2.4-0.2-3.6,0.2c-0.2,0.1-0.4,0.2-0.6-0.1c-1.3-2.2-3.3-3.6-5.6-4.8c-2.1-1.1-4.3-1.9-6.6-2.5
			c-1.1-0.3-2.3-0.4-3.5-0.1c-1.2,0.3-1.6,0.8-1.8,2c-0.1,0.8-0.4,1.6-0.6,2.4c-0.1,0.3-0.3,0.4-0.5,0.5c-5.9,4-11.7,8-17.6,12
			c-1.1,0.8-1.4,0.8-2.4-0.2c-1.9-1.9-3.3-4.1-4.7-6.4c-1.6-2.7-2.4-5.6-3.5-8.4c-0.3-0.7-0.5-1.4-0.8-2.2c-0.6-1.5,0.1-2.9,1.7-3.2
			c4.9-1.1,9.5-2.9,13.9-5.1c2.9-1.5,5.8-2.9,8.5-4.8c0.2-0.1,0.4-0.1,0.6,0c4.9,1.6,10,2.3,15.2,2.2c0.4,0,0.6,0.2,0.9,0.5
			c2.8,2.9,7,3.5,10.5,1.5c1.6-0.9,2.5-2.3,2.5-4.2c0-0.4,0.1-0.5,0.4-0.6c0.8-0.3,1.6-0.6,2.3-0.9c0.3-0.1,0.5-0.1,0.7,0.1
			c6.2,5.2,12.2,10.7,17.4,17c0.7,0.9,0.7,1.3,0,2.2c-2.6,3.2-5.6,6-9.1,8.2C95.8,139.8,95.7,140,95.4,140z"/>
		<path class="st4" d="M98.3,84.1c0.2,2,0.4,3.9,0.9,5.8c0.3,1.1,0.9,2.1,1.1,3.2c0.7,3.4-0.1,6.4-2.1,9.1c-2.4,3.2-5.5,5.5-9.1,7.2
			c-5.7,2.7-11.6,4.4-17.9,4.8c-5.2,0.3-10.3-0.4-15.3-1.9c-0.4-0.1-0.9-0.3-1.1-0.8c-0.3-0.5-0.7-0.5-1.3-0.3
			c-1.9,0.9-3.8,0.9-5.7-0.1c-1-0.5-2.2-2.8-2.1-4c0.1-0.4,0.1-0.8,0.2-1.2c0.1-0.7,0.5-1.3,1.3-1.5c0.7-0.2,1.2,0.2,1.6,0.6
			c0.3,0.3,0.5,0.6,0.7,0.9c0.2,0.3,0.5,0.5,0.9,0.3c0.4-0.1,0.5-0.5,0.5-0.8c-0.1-1.2-0.3-2.4-0.4-3.6c0-0.2,0-0.3,0.1-0.4
			c1.3-1.6,1.6-3.5,1.7-5.4c0-0.5,0.1-0.6,0.6-0.5c1.7,0.4,3.5,0.6,5.2,0.1c1.9-0.5,3.4-1.7,4.4-3.4c0.7-1.2,1.2-2.4,1.5-3.7
			c0.1-0.6,0.3-0.6,0.9-0.4c1.8,0.6,3.7,0.9,5.6,0.4c2.6-0.6,4.3-2.3,5.6-4.5c0.2-0.3,0.4-0.6,0.6-1c0.3,0.2,0.6,0.4,1,0.6
			c3.1,1.9,6.3,1.8,9.4-0.4c0.9-0.6,1.7-1.3,2.4-2.1c0.4-0.4,0.5-0.3,0.8,0.1c0.7,0.9,1.4,1.7,2.4,2.3
			C94.4,84.6,95.9,85.1,98.3,84.1z"/>
		<path class="st5" d="M51.9,113.4c-1.8,1.2-3.6,2.2-5.6,3.1c-0.2,0.1-0.4,0.1-0.5-0.1c-3-3.1-6.5-5.7-9.9-8.2
			c-0.6-0.4-1-0.4-1.3,0.1c-1.5,2.6-2.6,5.4-2.7,8.5c0,2.1,0.1,2.4,1.8,4.7c-0.7,0.2-1.4,0.4-2.1,0.5c-1.6,0.2-2.3,1.3-2.8,2.6
			c-0.2,0.5-0.4,0.6-0.9,0.5c-1.1-0.2-2.2,0-3.3,0.5c-1.1,0.5-1.7,1.7-1.3,2.9c0.1,0.2,0.1,0.3,0.2,0.6c-0.6,0.2-1.2,0.3-1.7,0.6
			c-0.8,0.5-1.3,1.1-1.4,2.1c-0.1,0.8-0.2,1.6-0.1,2.4c0.1,1.2,0.6,2.1,1.6,2.8c0.5,0.3,0.9,0.6,1.4,0.9c-0.5,0.4-1,0.8-1,1.5
			c-0.1,0.7,0.2,1.2,0.8,1.6c1.5,1,3.1,1.5,4.9,1.3c0.4,0,0.5,0,0.4,0.5c-0.3,1.3,0.2,2.4,1.2,3.2c0.5,0.4,1.2,0.3,1.8,0.2
			c1.1-0.2,1.1-0.2,1.6,0.7c0.5,0.9,1,1.8,1.5,2.7c0.3,0.4,0.2,0.6-0.2,0.8c-3.3,1.3-6.7,1.3-10,0.4c-1.1-0.3-2.1-0.7-3.1-1.1
			c-0.4-0.2-0.5-0.4-0.6-0.8c-0.7-4-1.1-7.9-1.2-12c-0.3-9,0.9-17.8,3.2-26.5c0.1-0.6,0.1-1-0.4-1.4c-6.5-5-11.7-11.3-16-18.3
			c-1.4-2.3-2.6-4.6-3.8-6.9c-0.2-0.4-0.2-0.7,0.1-1c4-5.5,9.3-9.4,15.4-12.2c0.6-0.3,1.2-0.5,1.8-0.8c-0.1,0.9-0.2,1.7,0,2.4
			c0.6,2.6,2.6,3.9,5.5,3.7c0.5,0,1-0.1,1.4-0.2c0.3-0.1,0.4,0,0.4,0.4c-0.5,3.3-0.7,6.7-0.5,10.1c0.3,5.3,1.4,10.3,4.2,14.8
			c2.9,4.5,7,7.5,11.9,9.6c0.5,0.2,1,0.4,1.5,0.6c0.1,0.1,0.3,0.2,0.4,0.1c0.8-0.3,1.3,0.3,1.8,0.7C47.9,113,49.8,113.7,51.9,113.4z
			"/>
		<path class="st4" d="M113.4,87.9c0.8,0.8,1.7,1.4,2.8,1.8c1.9,0.6,3.7,0.3,5.5-0.5c1.4-0.7,2.6-1.6,3.7-2.7
			c0.4-0.4,0.6-0.3,0.9,0.1c1.4,1.7,3.1,2.9,5.3,3.2c2,0.3,4-0.1,5.8-1c0.5-0.2,1-0.5,1.4-0.8c0.3-0.2,0.4-0.2,0.5,0.2
			c0.2,0.7,0.5,1.4,0.9,2c1.7,2.8,4.4,3.7,7.5,3.6c1-0.1,1.9-0.2,2.9-0.5c0.5-0.1,0.6-0.1,0.7,0.4c0.1,0.9,0.4,1.7,0.7,2.5
			c1,2.2,2.9,3.1,5.3,2.6c0.9-0.2,1.8-0.6,2.7-1c0,1.3,0,2.5,0,3.8c0,0.4,0,0.8,0.4,1c0.4,0.2,0.7,0,1-0.2c0.7-0.5,1.2-0.6,2-0.6
			c-0.1,0.3-0.2,0.6-0.4,0.8c-1.5,3.3-3,6.5-4.4,9.8c-0.2,0.4-0.3,0.5-0.7,0.3c-0.4-0.2-0.7-0.4-1.1-0.5c-0.6-0.2-1.2-0.2-1.8,0.1
			c-3.8,2-7.8,3.1-12,3.6c-6,0.7-12,0.5-17.9-1c-4.9-1.2-9.1-3.4-12.3-7.3c-1.7-2.1-2.9-4.4-3.7-6.9c-0.1-0.2-0.1-0.4-0.1-0.7
			c0.1-2.5-0.3-5-1.1-7.4c-0.1-0.2-0.3-0.5,0.3-0.5c2.5-0.2,4.1-1.4,5.1-3.7C113.3,88,113.3,88,113.4,87.9z"/>
		<path class="st3" d="M175.4,79.2c0.8,1.5,1.9,2.8,3.1,3.8c0.2,0.1,0.3,0.3,0.5,0.4c1.2,0.6,1.4,1.6,1.5,2.9
			c0.1,2.1,0.3,4.1,0.9,6.2c0.6,2.4,2.1,4,4.2,5.1c0.8,0.4,1.7,0.3,2.5,0.1c2.1-0.4,4.2-0.1,6.2,0.6c1.8,0.6,3.9,2.4,3.8,5.1
			c0,1.5-0.1,2.9-0.7,4.3c-0.9,2.2-3.2,2.7-4.8,2.5c-0.5-0.1-1-0.4-1.4,0.2c-0.4,0.6,0.1,1,0.4,1.4c1.2,2,2.2,4.1,2.1,6.5
			c-0.1,1.3-0.5,2.6-1.3,3.6c-0.7,0.9-1.8,1.1-2.9,1.3c-1.4,0.3-2.7-0.1-4.1-0.3c-0.8-0.1-1.7-0.3-2.5-0.4c-0.8-0.1-1.2,0.2-1,1.1
			c0.3,1.8,0.5,3.6,0.4,5.4c-0.2,2.8-1.4,3.7-4.4,3.9c-2.8,0.2-4.5-1.2-5.3-3.8c-0.5-1.7-0.7-3.4-0.7-5.2c0-0.7-0.2-1.2-0.6-1.8
			c-2.3-3.6-5.4-6.2-9.4-7.8c-0.5-0.2-0.7-0.5-0.5-1c0.1-0.2,0.1-0.4,0.2-0.7c0.2-1,0.8-1.6,1.8-2.1c4-1.8,4.6-5,4-8.7
			c-0.1-0.6-0.7-0.8-1.1-1.1c-0.4-0.2-0.4-0.4-0.2-0.8c3.1-6.8,6.2-13.6,9.3-20.4C175.2,79.6,175.3,79.4,175.4,79.2z"/>
		<path class="st0" d="M60.8,148.6c-1.2,0.8-2.3,1.6-3.3,2.6c-0.8,0.9-0.8,1-0.1,1.9c2,2.4,4.3,4.5,7.1,5.8c1.4,0.6,2.8,1,4.3,1.2
			c0.5,0.1,0.8-0.2,1.1-0.5c3.2-3.7,5.4-8,6.6-12.8c0.2-0.8,0.4-1.6,0.5-2.4c0.1-0.6,0.6-0.8,1.1-0.6c1.3,0.5,2.6,0.5,4,0.1
			c0.5-0.2,0.9,0.1,1,0.5c1.2,3.9,2.5,7.7,4.1,11.4c0.1,0.2,0.1,0.4,0.1,0.5c-0.1,4-0.3,7.9-0.4,11.9c0,0.4-0.1,0.6-0.5,0.6
			c-8.8,1.6-17.4,1-26-1.6c-9.6-2.9-17.4-8.4-23.4-16.5c-1.3-1.8-2.4-3.7-3.3-5.6c-0.2-0.3-0.2-0.6,0-0.9c0.5-0.8,1.2-1.3,2-1.7
			c0.3-0.2,0.4,0.1,0.5,0.2c0.6,0.8,1.3,1.7,2.1,2.4c0.5,0.4,1,0.8,1.6,1c0.7,0.3,1.4,0.2,1.9-0.3c1-0.9,2.2-1.5,3.3-2.3
			c1.6-1.1,3.2-2.2,4.8-3.3c0.4-0.3,0.6-0.2,0.9,0.1c1.3,1.2,2.6,2.2,4.2,3c0.9,0.5,1.9,0.8,2.9,1c0.3,0,0.4,0.2,0.4,0.5
			c0,0.5,0.1,1,0.2,1.5C58.9,147.5,59.5,148.2,60.8,148.6z"/>
		<path class="st0" d="M107.2,130.9c0.2-0.9-0.2-1.7-0.7-2.3c-0.8-1-1.7-2.1-2.6-3c-0.4-0.4-0.5-0.8-0.4-1.3
			c0.8-4.9,0.3-9.7-0.8-14.5c-0.1-0.3-0.1-0.4,0.1-0.7c2.2-1.7,3.7-4,5-6.5c0-0.1,0.1-0.2,0.1-0.3c0,0,0.1,0,0.1-0.1
			c0.6,1.5,1.3,2.9,2.1,4.3c2,3.1,4.6,5.5,7.9,7.3c0.4,0.2,0.4,0.4,0.2,0.7c-2.9,5.8-6.5,11.1-10.6,16
			C107.6,130.6,107.5,130.9,107.2,130.9z"/>
		<path class="st5" d="M170.6,63.8c1.7,0.1,3.4,0.3,5,1.1c0.3,0.2,0.6,0.1,0.9-0.1c1.7-1.3,3.7-2.1,5.7-2.9c0.3-0.1,0.5-0.1,0.6,0.2
			c0.7,1.7,1.1,3.4,0.8,5.2c-0.1,0.5,0.1,0.8,0.5,1.1c1.5,1,2.9,2.1,4,3.5c0.4,0.5,0.7,1,1,1.6c0.1,0.3,0.1,0.4-0.2,0.6
			c-1.7,1.1-3.6,1.5-5.6,1.2c-1.1-0.2-1.3,0-1.4,1.1c-0.2,1.9-0.3,3.9-0.9,5.7c-0.2,0.7-0.4,0.8-1,0.3c-1.8-1.5-3.2-3.2-4-5.5
			c-0.2-0.6-0.6-0.8-1.3-0.5c-2.3,0.9-4.6,1-7,0.3c-0.4-0.1-0.5-0.3-0.3-0.7c0.8-1.8,2.1-3.3,3.6-4.7c0.8-0.7,0.7-1,0-1.6
			c-1.1-0.9-1.5-2.2-1.7-3.6c-0.1-0.6,0-1.2-0.1-1.7c0-0.5,0.1-0.7,0.6-0.6C170.2,63.8,170.4,63.8,170.6,63.8z"/>
		<path class="st0" d="M161.7,115.9c3.2,1.4,5.7,3.5,7.7,6.3c0.5,0.7,0.8,1.5,0.8,2.4c0.1,2.1,0.4,4.1,1.2,6.1
			c0.1,0.1,0.1,0.3,0,0.4c-0.6,1.6-1.4,2.9-3,3.6c-0.7,0.3-1.4,0.3-2.1,0.3c-4,0.2-8.1,0.1-12.1-0.7c-0.4-0.1-0.6-0.2-0.6-0.6
			c-0.4-1.5-0.6-3.1-0.7-4.7c0-0.2,0-0.3,0-0.5c0.1-0.7,0.4-0.9,1.1-0.8c1.6,0.3,3.1,0.3,4.7-0.2c-0.2,0.8-1,2-1.9,2.9
			c-0.5,0.5-1.1,0.9-1.7,1.2c-0.6,0.3-0.8,0.7-0.5,1.1c0.2,0.4,0.7,0.5,1.2,0.2c2.2-1.1,3.6-2.9,4.5-5.1c0.9-2.2,1.3-4.5,1.4-6.9
			C161.9,119.4,161.8,117.7,161.7,115.9z"/>
		<path class="st4" d="M175.6,153c0.4,1.4,0.6,2.9,0.7,4.4c0.4,3.8,0.4,7.7-0.1,11.5c0,0.1,0,0.3,0,0.4c-0.1,0.4-0.1,1-0.5,1.1
			c-0.4,0.1-0.6-0.4-0.8-0.7c-0.2-0.3-0.5-0.5-0.9-0.4c-0.4,0.1-0.5,0.4-0.6,0.7c-0.1,0.5-0.2,0.9-0.3,1.4c-0.2,0.6-0.4,0.7-0.8,0.2
			c-0.2-0.2-0.3-0.5-0.5-0.7c-0.4-0.5-1.1-0.4-1.4,0.2c-0.2,0.5-0.3,0.9-0.5,1.3c-0.2,0.4-0.5,0.5-0.8,0.1c-0.1-0.1-0.2-0.2-0.2-0.3
			c-0.5-0.6-1.1-0.5-1.4,0.2c-0.3,0.6-0.6,1.3-1,1.8c-0.5,0.6-1.2,0.9-2,0.9c-0.8,0-1.1-0.3-1.3-1c-0.1-0.5-0.1-1,0-1.4
			c0.7-3,0.9-6,0.7-9c0-0.5,0.2-0.8,0.6-1c4.2-2.4,7.8-5.4,10.8-9.2C175.3,153.2,175.4,153.1,175.6,153z"/>
		<path class="st4" d="M37.6,153.9c1.2,1.4,2.4,2.7,3.7,4c2.2,2.1,4.6,3.9,7.2,5.5c0.4,0.2,0.4,0.4,0.2,0.7
			c-1.7,2.4-3.6,4.3-6.3,5.5c-0.5,0.2-0.7,0.5-0.5,1c0.1,0.5,0.2,0.9,0,1.4c-0.1,0.5-0.3,1.1-1,1.2c-0.6,0.1-1.4-0.5-1.7-1
			c-0.1-0.3-0.1-0.6-0.1-1c0-0.8-0.4-1.1-1.2-0.9c-0.8,0.3-0.9,0.2-1-0.7c-0.1-0.5,0-1.1,0.1-1.6c0.1-0.9-0.4-1.2-1.2-0.9
			c-0.4,0.2-0.8,0.5-1.1,0.2c-0.3-0.3-0.1-0.8,0-1.2c0.2-0.8,0.2-1.3-0.9-1.4c-0.9-0.1-0.9-0.3-0.8-1.1c0.2-1.6,0.8-2.9,1.5-4.3
			C35.3,157.4,36.3,155.6,37.6,153.9z"/>
		<path class="st6" d="M61.4,131.1c0.6,0.6,1.2,1.1,1.7,1.6c2.7,2.4,5.6,4.5,9.1,5.6c1.2,0.4,2.5,0.6,3.8,0.5c0.2,0,0.6-0.1,0.5,0.3
			c0,0.3,0.3,0.8-0.3,1c-1.4,0.5-2.8,0.6-4.2,0.2c-0.1,0-0.2-0.1-0.4-0.1c-0.5-0.1-0.8,0-1,0.5c-0.2,0.5,0.1,0.8,0.5,1
			c1.6,0.6,3.1,0.6,4.7,0.2c0.1,0,0.2-0.1,0.4-0.1c0.2,0,0.4-0.4,0.6,0c0.2,0.4,0,0.6-0.3,0.7c-1.4,0.9-2.9,1.6-4.4,2.2
			c-3.2,1.3-6.5,2-9.9,2.2c-0.3,0-0.5,0.1-0.8,0.1c-0.9,0.1-1.2-0.1-1.4-1c-0.2-1-0.3-2.1-0.3-3.2c0-3.5,0.6-7,1.3-10.4
			C61.3,132,61.3,131.6,61.4,131.1z"/>
		<path class="st5" d="M47.3,46.3c1.1-3.1,2.7-5.6,4.9-7.8c1.9-2,4.2-3.6,6.6-5c0.2-0.1,0.4-0.2,0.6-0.1c4.9,1.6,9.5,3.9,13.3,7.4
			c0.1,0.1,0.1,0.1,0.2,0.2c-4.5-0.3-8.8-0.5-13.2,0.5C55.4,42.6,51.3,44.1,47.3,46.3z"/>
		<path class="st5" d="M102,123.6c-0.8-0.8-1.4-1.6-2.2-2.2c-1.2-0.9-1.4-1.9-1.2-3.3c0.5-2.9,0-5.7-1.1-8.4
			c-0.2-0.5-0.6-0.6-1.1-0.6c-1.5,0.2-2.8,1-3.9,1.9c-0.6,0.5-1.1,1-1.6,1.6c-0.1,0.2-0.2,0.3-0.4,0.1c-0.5-0.4-1-0.9-1.6-1.3
			c2.2-0.9,4.2-2.1,6.1-3.6c2.7-2.1,5-4.4,6.3-7.6c0.4-1.1,0.7-2.2,0.8-3.4c0.7,0.3,1.4,0.4,2.2,0c0.2-0.1,0.2,0.1,0.3,0.2
			c0.5,1.2,1.3,2.2,2.3,3c0.2,0.2,0.2,0.3,0.1,0.5c-1.3,2.9-3,5.7-5.7,7.6c-0.4,0.3-0.5,0.7-0.4,1.1c0.7,2.6,1.1,5.3,1.3,8
			C102.4,119.3,102.4,121.3,102,123.6z"/>
		<path class="st6" d="M75.3,145c-0.3,1.6-0.7,3-1.2,4.4c-1.1,3.2-2.8,6.1-4.9,8.7c-0.3,0.3-0.5,0.4-1,0.3c-3.4-0.6-6.1-2.5-8.4-4.9
			c-1.3-1.4-1.3-1.4,0.2-2.5c1.3-1,2.7-1.8,4.1-2.6c0.6-0.3,1.2-0.2,1.8-0.3c3.1-0.5,6.1-1.5,8.9-2.9C75,145.1,75.1,145.1,75.3,145z
			"/>
		<path class="st4" d="M24.6,130.6c0.4,0,0.8,0,1.2,0.1c0.5,0.1,0.8-0.1,0.9-0.6c0.1-0.4-0.1-0.7-0.5-0.9c-0.4-0.2-0.8-0.4-1.1-0.7
			c-0.6-0.6-0.5-1.4,0.4-1.7c0.9-0.3,1.8-0.4,2.7-0.2c0.4,0.1,0.6,0.3,0.8,0.7c0.7,1.9,1.4,3.7,2.1,5.6c1,2.7,2.2,5.3,3.9,7.7
			c0.2,0.3,0.2,0.5-0.2,0.7c-1.2,0.6-2.1,1.4-2.6,2.7c-0.1,0.3-1.2,0.7-1.6,0.6c-0.4-0.1-0.8-0.7-0.8-1.2c0-0.7,0.3-1.3,0.7-1.9
			c0.2-0.4,0.4-0.8,0.1-1.1c-0.4-0.4-0.8-0.3-1.2-0.1c-1.8,0.9-3.6,0.4-5.2-0.5c-0.4-0.2-0.3-0.4,0-0.6c0.4-0.3,0.8-0.5,1.3-0.7
			c0.4-0.2,0.6-0.4,0.6-0.8c0-0.4-0.3-0.6-0.7-0.7c-1-0.2-1.8-0.8-2.6-1.4c-0.4-0.3-0.5-0.7-0.7-1.1c-0.1-0.5-0.2-1-0.1-1.5
			c0.1-1.5,0.8-2.2,2.3-2.2C24.3,130.6,24.4,130.6,24.6,130.6z"/>
		<path class="st4" d="M110.5,152.2c-0.7,0-1.3-0.3-1.6-1c-0.4-0.9-0.9-1-1.5-0.3c-1.1,1.1-2.8,1-3.8-0.2c-0.3-0.3-0.3-0.7-0.3-1.1
			c0.1-0.7-0.2-1-0.8-1c-0.6,0-1.1-0.4-1.5-0.8c-0.2-0.2-0.3-0.4-0.2-0.7c0.1-0.3,0.1-0.5,0.3-0.7c0.6-0.7,0.7-1.4-0.2-2.1
			c-0.5-0.4-0.4-1,0-1.6c0.4-0.6,0.7-1.1,1.2-1.6c0.8-1,1.8-1.6,3-2c0.5-0.1,0.7,0,0.9,0.4c1.4,2.9,3.2,5.5,5.9,7.5
			c0.7,0.5,0.9,1,0.6,1.8c-0.2,0.7-0.4,1.5-0.5,2.3C111.7,151.9,111.2,152.2,110.5,152.2z"/>
		<path class="st4" d="M160.2,119.1c0,2.2-0.1,4.4-0.7,6.5c-0.1,0.3-0.2,0.5-0.6,0.4c-0.2-0.1-0.4,0-0.6,0.1
			c-2.2,0.7-4.3,0.4-6.4-0.5c-0.4-0.2-0.3-0.5-0.4-0.8c-0.2-0.8,0.1-1.4,0.9-1.8c0.5-0.2,0.6-0.7,0.3-1.2c-0.8-1.2-0.7-1.8,0.2-2.9
			c0.3-0.4,0.5-0.7,0.2-1.2c-0.3-0.7-0.1-1.3,0.7-1.9c0.4-0.3,0.7-0.6,0.9-1.1c0.3-1,1.4-1.4,2.3-1c1.1,0.4,2.1,1,2.9,1.9
			c0.2,0.2,0.3,0.5,0.3,0.8C160.2,117.4,160.2,118.2,160.2,119.1z"/>
		<path class="st6" d="M93.5,132.5c0.4,2.3,0.5,4.6,0.4,6.9c-0.1,1.2-0.2,2.4-0.4,3.5c-0.2,1.5-1.1,2.1-2.6,1.9
			c-2.2-0.3-4.4-0.9-6.4-1.8c-0.5-0.2-0.6-0.4-0.4-0.9c0-0.1,0.1-0.2,0.1-0.2c0.1-0.6,0.3-0.7,0.9-0.6c1.5,0.4,2.7-0.3,3.7-1.4
			c0.3-0.3,0.3-0.7,0-1.1c-0.3-0.3-0.7-0.3-1.1,0c-0.6,0.5-1.2,0.9-2,0.9c-1,0-1.2-0.1-1.2-1.1c0-0.1,0-0.2,0-0.2c0-0.5-0.3-1,0-1.3
			c0.3-0.3,0.8-0.4,1.2-0.5C88.5,135.6,91,134.2,93.5,132.5z"/>
		<path class="st4" d="M143,175.7c0-0.6,0.3-1.2,0.6-1.8c0.4-0.8,0.1-1.3-0.7-1.3c-0.5,0-0.9-0.1-1.4-0.3c-0.8-0.3-1.3-1.1-1.2-1.9
			c0.1-0.8,0.5-1.2,1.3-1.2c4.3-0.1,8.5-0.9,12.6-2.2c0.6-0.2,0.7,0,0.8,0.5c0.1,0.8,0,1.4-0.6,2c-0.3,0.3-0.4,0.6-0.3,0.9
			c0.1,0.6-0.2,0.9-0.8,0.9c-0.6,0-0.8,0.3-0.9,0.8c-0.1,0.7-0.3,0.7-1,0.6c-0.9-0.2-1.1-0.1-1.3,0.8c0,0.1-0.1,0.3-0.1,0.4
			c-0.2,0.7-0.3,0.8-1,0.4c-0.7-0.4-1.1-0.3-1.4,0.5c-0.3,0.6-0.6,1.3-1,1.8c-0.8,0.8-2.6,0.9-3.4,0.1
			C143,176.4,143,176.1,143,175.7z"/>
		<path class="st6" d="M33.4,117.3c0-2.9,0.8-5.1,1.9-7.3c0.1-0.3,0.3-0.3,0.5-0.1c2.9,2.1,5.8,4.3,8.3,6.8c0.4,0.4,0.5,0.5-0.1,0.8
			c-2.6,1.4-5.4,2.3-8.1,3.3c-0.3,0.1-0.5,0-0.7-0.2C33.8,119.6,33.4,118.8,33.4,117.3z"/>
		<path class="st6" d="M84.9,144.8c1.7,0.6,3.2,1,4.7,1.3c0.1,0,0.2,0.1,0.3,0.1c1.7,1.3,3.3,2.8,4.2,4.8c0.3,0.7,0.4,1.4,0.2,2.2
			c-0.6,2.2-1.6,4.1-3.2,5.7c-0.3,0.3-0.5,0.3-0.7-0.1c-1.7-3-3-6.2-4.1-9.5C85.9,147.8,85.4,146.4,84.9,144.8z"/>
		<path class="st4" d="M59.6,168.6c1.9,0.6,3.7,1,5.6,1.4c1.9,0.4,3.8,0.7,5.8,0.9c0.6,0,0.8,0.3,0.9,0.8c0.3,1.4,0.1,2.8-0.3,4.2
			c-0.2,0.5-0.6,0.7-1.1,0.5c-0.2-0.1-0.3-0.1-0.5-0.2c-0.6-0.3-0.9-0.1-1.2,0.4c-0.1,0.2-0.2,0.6-0.6,0.5c-0.4-0.1-0.5-0.3-0.5-0.7
			c-0.2-1.2-0.8-2-1.7-2.7c-0.3-0.3-0.8-0.3-1.1,0.1c-0.3,0.4-0.3,0.7,0.1,1.1c0.5,0.5,1,1,1.1,1.7c0.2,0.7,0,1-0.7,1.1
			c-0.7,0.1-1.3-0.1-1.9-0.5c-1.5-1-2.5-2.3-3.1-4C60,171.7,59.7,170.2,59.6,168.6z"/>
		<path class="st6" d="M75.3,137.2c-2.1-0.1-4-0.8-5.8-1.8c-2.8-1.5-5.1-3.6-7.2-5.8c-0.4-0.4-0.2-0.9,0.4-1
			c0.8-0.2,1.6-0.2,2.4,0.1c3.3,0.9,6.5,2,9.3,4.2c0.9,0.7,1.6,1.5,2.3,2.5c0.4,0.6,0.3,1.2,0.1,1.8
			C76.2,137.3,75.7,137.1,75.3,137.2z"/>
		<path class="st6" d="M59.3,133.9c-0.2,1.2-0.4,2.3-0.5,3.4c-0.2,1.7-0.4,3.3-0.4,5c0,0.4-0.1,0.5-0.5,0.4
			c-0.7-0.2-1.3-0.4-1.9-0.7c-1.4-0.7-2.7-1.6-3.9-2.7c-0.2-0.1-0.4-0.3-0.1-0.5C54.4,137.2,56.8,135.6,59.3,133.9z"/>
		<path class="st6" d="M83.1,139.1c0,0.6-0.1,1.2-0.2,1.8c-0.1,0.7-0.5,1.1-1.2,1.3c-0.9,0.2-1.7,0.3-2.6,0.1
			c-0.3-0.1-0.5-0.2-0.6-0.5c-0.5-1.7-0.6-3.5-0.3-5.2c0-0.3,0.2-0.5,0.5-0.5c1.1-0.3,2.3-0.3,3.4,0c0.3,0.1,0.5,0.3,0.6,0.6
			C83,137.5,83.1,138.3,83.1,139.1z"/>
		<path class="st7" d="M84.2,135.6c0.6-1.5,1.5-2.6,2.5-3.7c1.1-1.2,2.4-2.2,3.7-3c0.3-0.2,0.6-0.3,1-0.3c0.6,0,1.3,0.4,1.5,0.8
			c0.2,0.5-0.1,1.8-0.5,2.1C89.9,133.1,87.2,134.5,84.2,135.6z"/>
		<path class="st7" d="M97.1,118.6c-1.7-1.6-3.4-3-5-4.5c-0.1-0.1-0.3-0.2-0.1-0.4c1.1-1.3,2.3-2.4,3.9-2.9c0.2-0.1,0.4-0.1,0.5,0.2
			C97.2,113.4,97.5,115.9,97.1,118.6z"/>
		<path class="st4" d="M137.9,117.6c-1.4,2.1-3.3,2.8-5.5,2.5c-2-0.3-3.8-1.1-4.8-3.2C131,117.4,134.4,117.6,137.9,117.6z"/>
		<path class="st4" d="M99.8,82.5c0.7,0.9,1.7,1.6,2.8,2.1c0.2,0.1,0.3,0.2,0.3,0.5c0.1,1.4,0.2,2.7-0.1,4.1
			c-0.1,0.6-0.3,1.1-0.8,1.5c-0.4,0.4-0.8,0.3-1-0.2c-0.6-1.3-0.8-2.6-0.9-4c-0.1-0.9-0.2-1.8-0.3-2.7c0-0.2,0-0.4-0.1-0.5
			C99.4,82.9,99.5,82.7,99.8,82.5z"/>
		<path class="st4" d="M72.8,115.7c3.3-0.3,6.4-0.9,9.5-1.9c0.3-0.1,0.3,0.1,0.3,0.3c-0.2,0.8-0.6,1.5-1.2,2
			C79.1,118,75.1,117.8,72.8,115.7z"/>
		<path class="st4" d="M161.5,109.7c1.2-2.5,2.2-4.9,3.3-7.3c0.1-0.1,0.1-0.4,0.3-0.3c0.3,0.1,0.6,0.2,0.7,0.6
			c0.3,2.3-0.1,4.3-2.1,5.8C163.1,109,162.4,109.4,161.5,109.7z"/>
		<path class="st8" d="M104.1,134.9c0.3,0.9,0.6,1.7,0.9,2.5c0.1,0.3-0.1,0.3-0.2,0.3c-1.8,0.4-3.3,1.5-4.3,3.1
			c-0.1,0.2-0.2,0.2-0.4,0.2c-0.5-0.2-1-0.5-1.3-0.9c-0.3-0.3,0.1-0.3,0.2-0.4c1.4-1,2.7-2.2,3.9-3.4
			C103.2,135.8,103.6,135.3,104.1,134.9z"/>
		<path class="st9" d="M107.2,98.3c-0.6-0.6-1.1-1.3-1.4-2.2c-0.1-0.2-0.2-0.4,0-0.6c0.4-0.5,0.6-1.1,0.9-1.9c0.4,1.4,0.6,2.7,0.7,4
			C107.4,97.9,107.6,98.1,107.2,98.3z"/>
		<ellipse class="st10" cx="121.2" cy="155.9" rx="0" ry="9.6"/>
		<path class="st11" d="M106.9,78.6c-0.2-0.1-0.1-0.3-0.1-0.5c0-1.2,0-2.4,0-3.6c0-0.2,0-0.3,0.1-0.5
			C107,75.6,107.1,77.1,106.9,78.6z"/>
		<ellipse class="st12" cx="18" cy="134.6" rx="0" ry="4.6"/>
		<path class="st13" d="M50.9,96.4c-0.2-0.7-0.1-1.4-0.1-2.1c0,0,0,0,0.1,0c0,0,0,0,0.1,0C50.9,95,51,95.7,50.9,96.4z"/>
		<path class="st14" d="M75.3,137.2c0.4-0.3,0.9-0.1,1.4-0.1C76.2,137.5,75.7,137.2,75.3,137.2z"/>
		<path class="st15" d="M26.3,58.1c0.2,0.5,0.2,0.9,0,1.4C26.2,59,26.2,58.5,26.3,58.1z"/>
		<path class="st16" d="M107.2,98.3c0.2-0.2,0-0.4,0.1-0.6c0.1,0.2,0.1,0.4,0.1,0.6C107.4,98.5,107.3,98.4,107.2,98.3z"/>
		<path d="M95.6,92c0,1.4-0.3,2.4-0.9,3.3c-0.9,1.3-2.6,1.6-3.9,0.7c-2.3-1.5-3.1-5.3-1.6-7.5c1.1-1.6,3-1.9,4.5-0.7
			C95,89,95.6,90.6,95.6,92z"/>
		<path d="M64.5,103.1c0,1.2-0.3,2.2-1,3c-0.9,1.1-2.3,1.3-3.5,0.7c-2.5-1.3-3.5-5.1-1.8-7.4c0.9-1.3,2.6-1.6,3.9-0.8
			C63.8,99.7,64.4,101.3,64.5,103.1z"/>
		<path class="st17" d="M79.8,107.7c-0.8,0-1.5-0.1-2.3-0.3c-0.5-0.1-0.7-0.4-0.6-0.9c0.1-0.5,0.5-0.7,0.9-0.6
			c0.5,0.1,0.9,0.2,1.4,0.2c2.2,0.3,3.7-0.8,4.3-2.9c0.1-0.2,0.1-0.5,0.1-0.7c0.1-0.4,0.4-0.7,0.8-0.6c0.5,0.1,0.7,0.4,0.6,0.8
			C84.7,105.6,83,107.7,79.8,107.7z"/>
		<path d="M145.6,102.5c0.1-1.4,0.7-3.1,2.3-4.2c1.6-1.1,3.5-0.7,4.5,0.9c1.5,2.4,0.7,5.9-1.7,7.4c-1.5,0.9-3.3,0.5-4.3-0.9
			C145.9,104.9,145.6,104,145.6,102.5z"/>
		<path d="M114,97.1c0.1-1.4,0.4-2.8,1.4-3.8c2.1-2.2,5.1-1.6,6,1.4c0.7,2.1-0.1,4.6-1.9,5.9c-1.8,1.3-3.9,0.9-4.9-1
			C114.1,98.8,113.9,98,114,97.1z"/>
		<path d="M131.6,111.1c-2.7,0-4.3-1.4-5.3-3.8c-0.2-0.4,0-0.8,0.4-1c0.4-0.2,0.7,0,1,0.3c0,0,0,0,0,0.1c1.5,3.3,4,3.3,6.6,2.2
			c0.2-0.1,0.4-0.2,0.6-0.2c0.4-0.1,0.8,0,1,0.5c0.2,0.4,0,0.7-0.4,0.9C134.2,110.6,132.9,111.1,131.6,111.1z"/>
		<path class="st18" d="M24.7,131.7c0.7,0,1.4,0.3,2,0.7c0.4,0.3,0.5,0.7,0.2,1.1c-0.3,0.4-0.7,0.4-1.1,0.1c-0.5-0.4-1-0.5-1.6-0.3
			c-0.5,0.1-0.8-0.1-0.9-0.6c-0.1-0.5,0.2-0.8,0.6-0.9C24.1,131.8,24.4,131.8,24.7,131.7z"/>
	</g>
</g>
</svg>
