<?xml version="1.0" encoding="utf-8"?>
<!-- Generator: Adobe Illustrator 25.4.1, SVG Export Plug-In . SVG Version: 6.00 Build 0)  -->
<svg version="1.1" id="Capa_1" xmlns="http://www.w3.org/2000/svg" xmlns:xlink="http://www.w3.org/1999/xlink" x="0px" y="0px"
	 viewBox="0 0 200 200" style="enable-background:new 0 0 200 200;" xml:space="preserve">
<style type="text/css">
	.st0{fill:#FEFEFE;}
	.st1{fill:#231F20;}
	.st2{fill:#CACACA;}
	.st3{fill:#FDF36C;}
	.st4{fill:#FDF26C;}
	.st5{fill:#5E5B5C;}
	.st6{fill:#D6D5D5;}
	.st7{fill:#D0C65C;}
	.st8{fill:#585232;}
</style>
<g>
	<g>

		<path class="st1" d="M53.7,144.4c0.2-1.4,0.5-2.8,0.7-4.2c0.1-0.6,0.1-1.2-0.4-1.4c-0.3-0.1-0.8,0.3-1.2,0.5
			c-4.2,2.6-8.4,5-12.9,7.1c-3,1.4-6.2,1.9-9.5,1.8c-1.9,0-2.7-0.9-2.9-2.8c-0.3-3.3,1-6.2,2.8-8.7c4.9-6.7,10.4-13,17.3-17.8
			c1.4-1,3-1.8,4.6-2.4c2-0.8,1.4-1.4,0.2-2.3c-2.4-1.7-4.4-3.8-6.3-5.8c-4.3-4.5-5.8-10.3-7.1-16.2c-2.3-10.4,0.6-19.8,5.6-28.7
			c1.8-3.2,1.9-5.8-0.3-8.8c-5.6-7.6-5.9-16.5-5.9-25.4c0-2.8,1.9-3.8,5-3.1c4.6,1,8.5,3.5,12.2,6.2c2.7,2,5.4,4.2,8,6.3
			c0.6,0.5,1.2,1.1,2,0.8c0.9-0.3,0.7-1.3,0.7-2c0.4-6.5,1.5-12.8,3.4-19c0.8-2.6,1.7-5.2,3.7-7.2c1.8-1.9,3.7-2,5.8-0.4
			c3,2.3,4.9,5.4,6.5,8.6c1.9,3.8,3.6,7.7,5.5,11.5c1.2,2.4,1.9,2.5,3.3,0.1c3.6-6.1,7.2-12.3,11.3-18.1c1.2-1.8,2.8-3.2,4.6-4.4
			c2.1-1.4,3.8-1.2,5.5,0.6c4.1,4.5,5.8,10,6.3,15.9c0.2,1.7,0,3.5,0.1,5.2c0,1.2-0.3,2.8,0.7,3.2c1.1,0.5,2.1-0.9,2.8-1.9
			c2.1-2.8,4.6-5.2,7.4-7.4c2.7-2.1,5.4-4.2,8.7-5.3c3.1-1,5.1,0,5.8,3.1c1.1,4.6,0.9,9.2,0.3,13.8c-0.7,5.3-1.7,10.6-2.6,15.9
			c-0.3,1.7,0,3.2,0.8,4.8c6.1,10.8,9.4,22.3,7.1,34.8c-0.5,2.5-0.7,4.9-1.1,7.4c-0.1,0.4-0.1,1,0.4,1.2c0.5,0.2,0.8-0.1,1.2-0.4
			c3.2-2.9,7-5,10.6-7.3c0.8-0.5,1.7-1,2.6-1.3c3.2-1.2,4.9,0,5,3.4c0.3,8-3,14.8-7.1,21.4c-4.9,7.9-11.4,14-19.3,18.8
			c-0.4,0.2-0.8,0.5-1.2,0.7c-3.8,1.9-4,1.9-2.7,5.9c3.2,9.8,4.5,19.8,4,30c-0.1,2,0.6,3.5,2.2,4.7c2.3,1.9,4.6,4,6.4,6.4
			c2.3,2.9,1.8,5.2-1.4,7.1c-1,0.6-2,1.2-3.1,1.3c-6.3,0.8-12.7,1.4-18.9-0.6c-5.8-1.8-6.3-5.9-4-10.5c1.5-2.9,1.6-2.9-1.6-3.8
			c-11-3-22.3-3.3-33.6-2.3c-4.6,0.4-9.1,1.5-13.6,2.7c-1.6,0.4-2.3,1.2-2,3.1c1.3,7.7,0.3,9.2-7.4,10.6c-7.1,1.3-14.3,1.7-21.4-0.2
			c-0.7-0.2-1.3-0.3-1.9-0.7c-1.8-0.9-3.7-1.9-3.9-4.3c-0.2-2.4,1.4-3.8,3.1-4.9c3.1-2.1,6.5-3.9,10-5.4c1.2-0.5,1.6-1.1,0.7-2.1
			c-2.5-2.8-2.9-6.4-3.3-9.9c-0.4-4.2-0.3-8.5,0.4-12.7C52.8,148.1,53.1,146.2,53.7,144.4z"/>
		<path class="st2" d="M53.7,144.4c-0.2,1.9-0.5,3.8-1.2,5.6C52.3,148,52.6,146.1,53.7,144.4z"/>
		<path class="st0" d="M121.6,171.8c-9.9-1.9-19.8-2.4-29.9-1.3c-6,0.6-11.8,2-17.6,3.3c-4.2,1-5.2,0-4.7-4.3
			c0.7-6.4,1.8-12.7,4.3-18.7c4.1-9.9,11.1-16.7,20.9-20.5c8.9-3.4,16.9-0.5,23.3,7.7c3.1,3.9,5.1,8.4,6.9,12.9
			c2.3,6,4.8,11.9,5.7,18.4c0.5,3.6-0.5,4.5-3.9,3.7C125,172.6,123.3,172.4,121.6,171.8z"/>
		<path class="st0" d="M92.8,81.1c0.7,6.1-1.7,12.2-7.1,17.2c-2.3,2.1-4.9,3.6-7.9,4c-5.6,0.8-11.2,1-16.3-1.5
			c-8.6-4.3-11.8-11.9-11.8-21.1c0-5.1,0.1-5.1,5.2-5.8c5.5-0.8,10.9-2,16.4-2.5c1.3-0.1,2-0.2,2.3,1.4c0.4,2.2,2.1,3.2,4.6,3.1
			c2.3-0.1,3.5-1.5,3.8-3.5c0.2-1.7,0.9-2.2,2.5-2.1c1.9,0.1,3.8-0.1,5.7-0.3c1.4-0.1,2,0.3,2.1,1.8C92.5,74.5,92.8,77.2,92.8,81.1z
			"/>
		<path class="st0" d="M104,82.5c-0.6-3.6-0.7-7.2-0.3-10.9c0.1-1.3,0.6-1.9,2-1.9c0.6,0,1.2,0,1.8-0.1c2.3-0.7,3.9-0.4,4.6,2.4
			c0.4,1.7,2.3,2.3,4.1,2.2c1.9-0.1,3.4-1.3,3.7-3.1c0.5-3,2.3-3.2,4.7-3.3c5-0.2,10-0.8,14.9-1.4c1.5-0.2,2.1,0.2,2.4,1.7
			c1,4.4,1.9,8.9,1.8,13.5c-0.1,7.4-6.3,14.9-13.6,16.3c-4.5,0.9-9.1,1-13.5,0c-5.9-1.4-9.4-5.7-11.4-11.2
			C104.7,85.3,104.5,83.8,104,82.5z"/>
		<path class="st3" d="M66.5,187.6c-5.8,1-11.6,0.8-17.3-0.4c-0.6-0.1-1.2-0.3-1.7-0.6c-1.8-0.9-1.9-1.9-0.7-3.4
			c1.1-1.3,2.7-2,4.1-2.7c2.2-1.1,4.6-2,6.8-3c0.8-0.4,1.6-0.5,2.4-0.3c3.3,0.7,6.7,1.2,10.1,0.5c1.6-0.3,2.4,0.3,2.4,2
			c0,1,0.2,2,0.3,2.9c0.1,1.7-0.3,3.2-2.2,3.7C69.4,186.9,67.9,187.1,66.5,187.6z"/>
		<path class="st3" d="M138.1,177.2c0.5,0,0.9,0,1.4-0.1c2.8-0.4,5.3,0,7.4,2.4c1.1,1.3,2.7,2.2,3.9,3.4c1.9,1.7,1.3,4.1-1.2,4.6
			c-5.8,1.1-11.7,1.2-17.6-0.2c-1.8-0.4-2.6-1.7-2.4-3.5c0.2-2.1,1.2-3.9,2.1-5.7c0.4-0.9,1.2-1,2.1-0.9
			C135.2,177.2,136.7,177.1,138.1,177.2C138.1,177.2,138.1,177.2,138.1,177.2z"/>
		<path class="st4" d="M99.6,94.4c1.4-0.1,2.6,0.7,3.6,1.5c3.1,2.5,5.8,5.3,7.4,9c0.4,1,1,2.2,0.1,2.9c-0.9,0.7-1.8-0.3-2.6-0.9
			c-1.9-1.4-3.8-3-5.7-4.5c-2.5-2-4-2-6.7,0c-1.9,1.4-3.8,2.7-5.7,4.1c-0.6,0.4-1.2,0.8-1.9,0.3c-0.6-0.5-0.4-1.3,0-1.9
			c2.3-3.4,4.5-6.8,7.7-9.4C96.9,94.8,98.2,94.4,99.6,94.4z"/>
		<path class="st4" d="M87.5,113.8c0-1.3,1-1.9,1.9-2.6c2.6-2,5-4.3,7.8-6.2c1.4-0.9,2.8-1,4.3-0.2c2.9,1.5,5.3,3.8,7.9,5.6
			c1.1,0.8,0.8,1.5-0.5,1.7c-1.1,0.2-2.3,0.3-3.4,0.2c-4.9-0.1-9.7,0.1-14.4,1.5C89.9,114.1,88.7,115.5,87.5,113.8z"/>
		<path class="st5" d="M121.6,171.8c1.7,0.2,3.5,0.4,5.1,1.3C124.9,173.2,123.2,172.8,121.6,171.8z"/>
		<path class="st6" d="M104,82.5c1,1.2,1.2,2.7,1.2,4.2C104.3,85.4,104,84,104,82.5z"/>
		<path class="st7" d="M66.5,187.6c1.2-0.9,2.7-1.1,4.2-1.2C69.5,187.3,68,187.5,66.5,187.6z"/>
		<path class="st8" d="M87.5,113.8c1.2,1.2,2.4-0.2,3.6,0.1C89.9,114.7,88.7,115.8,87.5,113.8z"/>
	</g>
</g>
</svg>
