<?xml version="1.0" encoding="utf-8"?>
<!-- Generator: Adobe Illustrator 25.4.1, SVG Export Plug-In . SVG Version: 6.00 Build 0)  -->
<svg version="1.1" id="Capa_1" xmlns="http://www.w3.org/2000/svg" xmlns:xlink="http://www.w3.org/1999/xlink" x="0px" y="0px"
	 viewBox="0 0 200 200" style="enable-background:new 0 0 200 200;" xml:space="preserve">
<style type="text/css">
	.st0{fill:#FEFEFE;}
	.st1{fill:#231815;}
	.st2{fill:#D0CECE;}
	.st3{fill:#FDE7A8;}
	.st4{fill:#67A1D4;}
	.st5{fill:#A67242;}
	.st6{fill:#C8C5C4;}
	.st7{fill:#E1DFDF;}
	.st8{fill:#D2D0CF;}
	.st9{fill:#B6B2B1;}
	.st10{fill:#B9B5B4;}
	.st11{fill:#251A17;}
</style>
<g>
	<g>
		
		<path class="st1" d="M54.5,118.3c-1.4,0.2-2.6-0.5-3.4-1.4c-3.1-3.4-6.1-2.6-9.6-0.5c-4.2,2.5-8.7,4.7-13.5,6
			c-1.7,0.5-4.5,2.7-5.5-0.1c-0.8-2.4,2.5-2.5,4.2-3.1c5.1-1.8,9.9-4.2,14.7-6.7c2.1-1.1,2.8-1.9,1.2-4.1c-2.1-2.9-3.7-6-4.8-9.4
			c-0.8-2.4-2.1-2.9-4.4-2.8c-5.2,0.4-10.5,0.7-15.7,0.7c-1.6,0-4.2,1.6-4.6-1c-0.3-2.6,2.5-2,4.2-2.3c5.1-1,10.2-0.5,15.3-0.5
			c2.3,0,3-0.4,2.7-3c-0.9-8.5-0.7-17,2.3-25.1c0.8-2.1-0.1-3.5-1-5.1c-5.4-9.6-9.5-19.5-10.4-30.7c-0.8-10.4,3.7-15,13.9-13.8
			c8.8,1.1,16.3,5.4,23.5,10.2c2.3,1.5,4,1.5,6.5,0.6c19.6-7.2,39.3-7.5,58.9-0.3c2.3,0.8,3.6,0.4,5.3-0.9
			c7.3-5.4,15.3-9.5,24.4-11.4c8-1.7,12.8,2.1,13.3,10.3c0.5,9-1.5,17.6-5.7,25.4c-4.2,7.7-5.9,15-3,23.6c1.6,4.8,1.1,10.1,0.4,15.2
			c-0.3,2.1,0,2.7,2.3,2.5c6.2-0.3,12.5-0.5,18.5,1.3c1.1,0.3,2.6,0.6,2.3,1.9c-0.3,1.4-1.7,1.1-2.9,0.9c-5.9-0.9-11.8-1.4-17.8-0.9
			c-2.3,0.2-3.8,0.9-4.7,3.4c-1,3.1-2.5,6-4.2,8.8c-1.3,2.1-0.7,2.8,1.2,3.8c5.5,3,11.2,5.4,17.1,7.4c1.5,0.5,4.1,0.5,3.4,2.7
			c-0.6,2-3,1-4.5,0.6c-6.1-1.5-11.6-4.4-17-7.5c-2.7-1.5-4.4-1.6-7,0.6c-8,6.8-17.3,11.1-27.6,13.2c-0.9,0.9-2.1,1.3-3.2,1.8
			c-12.4,2.5-24.7,3.3-37.1,0.1c-0.4-0.2-0.7-0.5-1.1-0.8c-0.9-1.3-1.2-3.1-2.7-4c-3.3-3.2-6-7-10.1-9.4c-1.5-1.5-3.4-2-5.5-1.9
			c-1.4,0-2.8,0.1-3.9,1.2C57.4,114.9,56.6,117.3,54.5,118.3z"/>
		<path class="st1" d="M54.5,118.3c0.8-2.1,2.3-3.6,3.8-5.1c1.5,0.1,2.8-1.1,4.3-0.8c2.3-0.1,4.5,0,6.3,1.7c4.8,1.4,7,5.8,10.2,9
			c0.9,1.1,1.4,2.6,2.5,3.5c0,0.3,0.1,0.7,0.1,1c2.2,3.3,5.2,5.6,9.3,6.1c7.6,0.9,15.2,1.2,22.6-1.5c2.5-1,4.9-2.2,6.4-4.6
			c0.8-0.9,1.8-0.7,2.8-0.6c1.1,3,4,4.6,5.9,7c3.6,4.5,7,9.2,9.5,14.4c1.9,4,2.4,7.9-0.4,11.5c-2.7,3.5-6.4,2.7-10,1.7
			c-2.3-0.8-2-2.6-1.8-4.5c0.1-0.6,0.3-1.1,0.5-1.7c0.5-1.8,0.2-3.7,0.3-5.3c0,0.5,0,1.3,0,2.2c0,1,0.1,2-0.3,3
			c-0.7,2.1-1.2,4.3,0.2,6.4c5.1,4.6,14.5,5,20.9,1.1c4.6-2.9,7.5-7.2,10-11.8c1.7-3.2,3.3-6.6,6.2-9c1.3-1.1,2.9-2.1,4.6-0.8
			c1.4,1.1,1.4,2.9,0.8,4.3c-4.9,10.7-11.5,20-22.5,24.8c-8.7,3.8-16.8,1.2-24.5-4.3c-1,3.3,0.6,5.7,1.8,8c4,7.8,1.5,12.1-7.3,12.6
			c-0.7,0-1.4,0-2.1,0c-11.1,0.1-11.1,0.1-12-10.9c-0.1-0.9,0-1.9-1.2-2.8c0,3,0,5.8,0,8.6c0,3-1.2,4.7-4.3,5.2
			c-4.8,0.8-9.6,1-14.3-0.2c-4.7-1.2-6.4-3.7-4.6-8.1c2.8-6.4,3.1-12.4-0.5-18.6c-1.1-1.9-1.7-4.4-1.6-6.5c0.2-4.3-1.7-6.8-5.3-9.1
			c-5.1-3.3-9.5-7.6-13.3-12.4C54.2,127.6,52.6,123.4,54.5,118.3z"/>
		<path class="st2" d="M126.7,157.4c-0.4,1.6-0.2,3,1.1,4.2c-0.4,0-0.7,0.1-1.1,0.1c-3-1.7-1.7-3.9-0.9-6.1
			C126.6,155.9,126.2,156.9,126.7,157.4z"/>
		<path class="st0" d="M130.1,104c-8.9,0-15.9-6.9-15.9-15.8c0-8.8,6.8-15.8,15.4-15.8c9.3-0.1,16.4,6.7,16.3,15.8
			C145.9,97.1,139.1,104,130.1,104z"/>
		<path class="st0" d="M86,88.9c0,9.5-6.5,16.3-15.7,16.4c-8.3,0.1-16-7.8-15.9-16.2c0.1-8.6,7.4-15.5,16.4-15.6
			C79.3,73.6,86,80.3,86,88.9z"/>
		<path class="st3" d="M60,32.8c-7.6,5.3-13.1,11.8-17,20.1c-4.3-7.4-8.6-14.4-8.8-22.9C34,25.4,36.3,23,40.6,24
			C47.5,25.5,53.8,28.7,60,32.8z"/>
		<path class="st3" d="M155.4,51.1c-4.2-6.8-8.9-12.5-14.9-17c-1.5-1.1-1.2-1.9,0-2.9c5-4.1,10.6-7,16.8-8.8c3.7-1,6.6,1.6,6.3,5.8
			C163.1,36.5,160.3,43.9,155.4,51.1z"/>
		<path class="st4" d="M120,127.5c1.4,0.9,0.6,1.6-0.2,2.3c-2,1.8-4.4,3-7,3.8c-8.6,2.6-17.2,2.7-25.8,0.1c-2.9-0.9-5.4-2.5-5.3-6.1
			C94.5,130.7,107.2,129.8,120,127.5z"/>
		<path class="st5" d="M99.2,109.7c-2.8-0.4-5.6-1.2-5.5-4.6c0.1-3.1,2.3-5.1,5.5-5.2c3.1-0.1,6.2,2.6,6,5.3
			C105.1,108.9,102,109.2,99.2,109.7z"/>
		<path class="st6" d="M68.9,114c-2.2-0.3-4.5-0.6-6.7-1c-0.2-0.8,0.2-1.1,0.8-1.4C65.2,111.6,67.8,111.1,68.9,114z"/>
		<path class="st7" d="M63,111.6c-0.3,0.5-0.5,1-0.8,1.4c-1.3-0.3-2.5,2.1-3.9,0.1C59.5,111.6,61.1,111.3,63,111.6z"/>
		<path class="st8" d="M81.6,126.6c-2.3-0.2-2.4-1.8-2.5-3.5C80.7,123.6,81.8,124.7,81.6,126.6z"/>
		<path class="st9" d="M126,152.4c-0.1-2.3-0.4-4.6,0.6-6.8c1.4,3.4,1.5,6.8,0.3,10.2C125.8,154.9,126.9,153.4,126,152.4z"/>
		<path class="st10" d="M125.5,143.1c-0.4-1.5-0.7-2.7-1.1-4.4C126.7,140.8,126.7,140.8,125.5,143.1z"/>
		<path class="st0" d="M126,152.4c1.4,0.9,0.2,2.4,0.9,3.5c-0.1,0.5-0.2,1-0.2,1.5c-0.3-0.6-0.6-1.2-0.8-1.8
			C125.9,154.5,126,153.4,126,152.4z"/>
		<path class="st11" d="M129.5,89.1c0.1,3.7-2.3,6.1-5.9,6.2c-3.2,0.1-6-2.7-6.1-6.2c-0.1-4.1,2.4-7,6.2-6.9
			C127.1,82.2,129.4,85,129.5,89.1z"/>
		<path class="st11" d="M82.5,89.9c0.1,3.6-2.7,6.6-6.3,6.6c-3.5,0-6.2-2.9-6.3-6.7c-0.1-3.6,2.4-6.4,5.8-6.6
			C79.4,83.1,82.4,86.1,82.5,89.9z"/>
	</g>
</g>
</svg>
