<?xml version="1.0" encoding="utf-8"?>
<!-- Generator: Adobe Illustrator 25.4.1, SVG Export Plug-In . SVG Version: 6.00 Build 0)  -->
<svg version="1.1" id="Capa_1" xmlns="http://www.w3.org/2000/svg" xmlns:xlink="http://www.w3.org/1999/xlink" x="0px" y="0px"
	 viewBox="0 0 200 200" style="enable-background:new 0 0 200 200;" xml:space="preserve">
<style type="text/css">
	.st0{fill:#FEFEFE;}
	.st1{fill:#5BC4EC;}
	.st2{fill:#51C1EB;}
	.st3{fill:#53C1EB;}
	.st4{fill:#50C1EB;}
	.st5{fill:#4FBFEA;}
	.st6{fill:#FADBEA;}
	.st7{fill:#F5F8FB;}
	.st8{fill:#59C4EB;}
	.st9{fill:#53C2EA;}
	.st10{fill:#4DC1EB;}
	.st11{fill:#73CDEE;}
	.st12{fill:#4DBFEB;}
	.st13{fill:#50BFEA;}
	.st14{fill:#F8DBE9;}
</style>
<g>
	<g>
		<path class="st0" d="M100,180.2c-32.7,0-65.5,0-98.2,0c-1.5,0-1.8-0.3-1.8-1.8C0,125.6,0,72.7,0,19.8C0,18.3,0.3,18,1.8,18
			c65.5,0,130.9,0,196.4,0c1.5,0,1.8,0.3,1.8,1.8c0,52.9,0,105.8,0,158.7c0,1.5-0.3,1.8-1.8,1.8C165.5,180.2,132.7,180.2,100,180.2z
			"/>
		<path class="st1" d="M164.4,103.3c-8-0.1-15.3-2.8-22-6.9c-2.4-1.5-4.7-3.1-7.1-4.8c-0.6,0.5-0.5,1.4-0.6,2
			c-0.3,4.2-2.8,7.1-6.1,9.4c-0.9,0.7-1.6,1.3-1.7,2.6c-0.4,4.2-2.5,7.7-5.1,10.7c0.3,0.5,0.6,0.4,0.9,0.3
			c5.5-3.3,11.6-3.1,15.6,0.4c4,3.5,5.3,11,2.8,16.4c-3.5,7.8-12.9,10.9-20.3,6.5c-1.7-1-2.3-1.2-2.8,1c-0.9,3.4-2.8,6.2-6.2,7.7
			c-4,1.8-7.4,0.1-7.7-4.3c-0.1-2-1.4-1.2-2.1-1.1c-3.2,0.4-6.4,0.8-9.6,0.8c-5.5-0.1-10.7-1.4-15.9-2.9c-1.7-0.5-3.1-0.4-4.6,0.2
			c-1.9,0.8-4,1.5-6.2,1.2c-2.6-0.4-3.9-1.9-4.1-4.6c-0.3-3.9,1.3-7.1,3.5-10.1c1.6-2.2,1.7-4.9,2.8-7.3c0.5-1-0.6-1-1.1-1.2
			c-2.5-0.9-4.6-2.2-5.5-4.9c-0.9-2.6,0.1-4.5,2.9-6c0.9-0.5,2.1-0.5,3-1.6c-6.6-2.4-13.3-4.7-14.3-13.5c-2.3,2.1-4.3,3.9-6.6,5.4
			c-5.5,3.8-11.3,7-17.9,8.2c-0.7,0.1-1.4,0.3-2.2,0.2c-1.3-0.3-2.6-0.3-3.9,0c-11.9-1.2-19.9-10-17.5-22
			c1.3-6.4,6.7-10.5,14.3-10.8c2.7-0.1,5.4-0.2,8.1,0.1c6.8,0.7,12.8-1.5,18.6-4.6c5.4-2.9,10.8-6.1,16.9-7.5c2.5-0.6,5-0.9,7.6-0.3
			c1.4,0.3,2.6-0.1,3.8-0.6c13.9-6.6,27.9-6.1,41.8-0.2c2.4,1,4.8,2.1,7.2,3.1c1.6,0.5,3.2,0.3,4.8,0.1c3.7-0.3,7.1,0.5,10.4,2
			c6.7,3,13.7,4.8,21.1,4.6c0.5,0,1,0.2,1.5,0.3c1.6,0.4,3.2,0.5,4.7,0c1.7-0.5,3.5-0.4,5.3-0.3c1.3,0.2,2.6,0.4,3.9-0.1
			c5.1-1.1,10-0.3,14.4,2.5c3.9,2.6,5.7,8.9,4.2,14c-2.3,7.7-8.2,11.8-15.2,14.5c-2.9,1.1-5.9,1.5-9,1.4
			C167.7,102.9,166.1,102.9,164.4,103.3z"/>
		<path class="st2" d="M128,64.4c-1.6,0.7-3.2,0.3-4.8,0.3c0,0-0.1-0.1-0.1-0.2c0-0.1,0.1-0.1,0.1-0.2
			C124.9,64.4,126.4,64.4,128,64.4z"/>
		<path class="st3" d="M165.8,71.3c-1.5,1-3.2,0.4-4.8,0.4c0,0-0.1-0.1-0.1-0.2c0-0.1,0.1-0.1,0.1-0.2
			C162.6,71.3,164.2,71.3,165.8,71.3z"/>
		<path class="st3" d="M174.9,70.9c0.1,0,0.2,0,0.2,0c0.1,0.1,0.2,0.2,0.3,0.3c-1.5,0.2-2.9,0.5-4.3-0.2
			C172.3,71,173.6,70.9,174.9,70.9z"/>
		<path class="st4" d="M164.4,103.3c1.6-0.7,3.2-0.7,4.8,0C167.7,103.3,166.1,103.3,164.4,103.3z"/>
		<path class="st5" d="M22.4,107.2c1.3-0.6,2.6-0.6,3.9,0C25,107.2,23.7,107.2,22.4,107.2z"/>
		<path class="st0" d="M120.2,100.2c-2.7,0.8-5.1,2.2-7,4.2c-1.8,1.9-4.3,1.5-6.6,1.8c-9.2,1.3-18.4,1.2-27.7,0.2
			c-4.9-0.5-9.7-1.4-14.3-3.1c-1.8-0.6-3.5-1.5-4.9-2.8c0.3-1.2,1.2-0.8,1.9-0.7c2.3,0.3,4.7,0.2,7,0.1c2.2-0.1,3.7-1.2,3.9-2.8
			c0.2-1.6-0.8-3.2-2.8-3.9c-3.1-1.2-6.3-1-9.4,0.2c-1.9,0.7-2.2,2.6-3.3,3.8c-0.8-0.6-0.6-1.7-1.2-2.4c-0.5-0.5-0.3-1.1-0.1-1.7
			c-0.1-5.1,2-9.7,3.9-14.3c-1.1-0.4-1.3,0.2-1.6,0.6c-0.7,1.2-1.5,2.4-2,3.7c-4.6,11.8-14.4,17.5-25.7,20.7
			c-7.3,2.1-14.6,0.6-20.2-5.2C5.6,94,6,83.9,10.8,79.5c1.2-1.1,2.7-1.7,4.3-2c3.1-0.7,6.2-0.8,9.3-0.5c9.4,0.9,17.8-2.1,25.8-6.9
			c4.6-2.8,9.4-5.4,14.9-6c1.5-0.2,1.7-0.2,3.4,0.4c-1,1.3-2.8,1.9-3.2,3.6c0.6,0.5,1.1,0.1,1.5-0.2c6.7-4.3,14-7.2,21.8-8.7
			c0.5-0.5,1.1-0.3,1.6-0.1c2.9,0,5.9,0,8.8,0c0.6-0.2,1.1-0.4,1.7,0.1c3.2,0.8,6.5,1.4,9.7,2.4c4.9,1.5,9.2,4,12.9,7.5
			c0.4,0.3,0.7,0.7,1.2,1c0.3,0.2,0.8,0.4,1,0.3c0.5-0.3,0.3-0.8,0.1-1.1c-0.3-0.6-0.7-1.3-1.2-2.1c4.4-0.5,8.4,0.1,12.3,1.4
			c4.5,1.5,8.8,3.6,13.5,4.3c7.8,1.2,15.7,1,23.6,0.5c2.6-0.2,5.1-0.4,7.7-0.1c8.5,0.9,12.5,9.1,8,16.5c-3.5,5.7-9,8.6-15.3,10.1
			c-11.2,2.6-21.3-0.5-30.9-6c-1.6-0.9-3.2-2.1-4.8-3c-3.3-2-5.5-4.7-6.7-8.3c-0.4-1.1-0.9-2.2-2.2-2.8c2.3,5.9,4.1,11.8,0.8,17.9
			c-1-0.2-0.8-1.1-0.9-1.7c-0.1-1.8-1.1-2.8-2.6-3.4c-3.2-1.3-6.4-1-9.6,0.2c-1.5,0.6-2.5,1.8-2.4,3.5c0.1,1.7,1.4,2.2,2.8,2.6
			C118.7,99.1,119.8,99,120.2,100.2z"/>
		<path class="st0" d="M116.2,139.5c-0.7,3.1-2.1,5.5-4.8,7c-1.5,0.8-3.1,1.3-4.3-0.5c-1.1-1.6-0.5-3.6,1.3-4.7
			c0.3-0.2,0.7-0.4,0.6-0.8c-0.1-0.5-0.7-0.5-1.1-0.5c-1.9,0.3-3.7,0.6-5.6,0.9c-8.7,1.5-17.1,0.6-25.4-2.1
			c-1.8-0.6-3.5-0.6-5.2,0.3c-2,1-4.3,2-6.2,0.3c-2-1.8-1-4.2-0.3-6.3c0.6-1.8,1.6-3.4,2.9-4.9c0.7-0.9,1.6-1.5,2.9-1.3
			c1.3,0.3,1.7,1.3,1.9,2.4c0.2,0.9,0.4,1.8,0.6,2.8c0.1,0.4,0.4,0.9,0.9,0.8c0.4-0.1,0.6-0.4,0.6-0.8c0-2.5-0.2-5-2.2-6.8
			c-0.5-0.4-1.1-0.9-1.8-0.7c-2.4,0.6-1.5-0.8-1.2-1.9c1-3.6,2.7-6.9,4.7-10.6c-2.1,1.1-3,2.6-3.8,4c-0.7,1.1-1.4,1.6-2.7,1.2
			c-1.9-0.5-3.6-1.4-4.3-3.4c-0.4-1.3,0-2.5,1.2-3.2c2.8-1.8,5.9-2.9,9.3-2.4c6.8,0.9,13.6,1.3,20.5,1.2c4.8-0.1,9.6-0.6,14.4-1
			c0.8-0.1,1.5-0.4,2,0.7c0.4,0.9,1.1,0.3,1.6-0.2c0.9-1,1.7-2.2,2.7-3.2c1.3-1.4,2.9-2.5,4.7-3.1c2.8-0.9,4.6,0.5,4.4,3.5
			c-0.1,1.6-0.7,3-1.6,4.3c-0.9,1.4-1.8,2.6-2.7,4c-1,1.4-1.9,3.1-3.4,0.5c-0.2-0.3-0.6-0.6-0.9-0.2c-0.4,0.4-0.2,0.8,0,1.2
			c1.2,2.5,2.2,5,2.6,7.8c0.8,5.7,0.3,10.9-4.3,15c-0.3,0.3-0.7,0.6-0.5,1.1C114,139.9,114.3,139.9,116.2,139.5z"/>
		<path class="st0" d="M120.7,123.4c0.3-0.5,0.5-1,0.8-1.5c2.3-4.4,6.4-6.4,11.1-5.3c4.4,1,7.1,4.5,7.3,9.4
			c0.3,6.6-2.4,10.7-8.8,13.2c-0.8,0.5-1.8-0.1-2.7,0.4c-2-0.3-4.1-0.3-6-1.2c-2.6-1.2-3-2-2.3-4.7c0.2-0.9,0.4-1.8,0.6-2.7
			c6,2.9,8.3,2.8,10.8-0.1c1.6-1.9,1.7-4.1-0.2-6.7c0,3.6-0.9,6.4-4.7,6.7c-2.9,0.2-4.8-1.4-5.9-3.9
			C120.3,125.7,120.1,124.6,120.7,123.4z"/>
		<path class="st6" d="M57,97.3c0.2-2.6,1.7-4.1,4.1-4.8c3.2-0.9,6.4-1,9.6,0.5c1.8,0.9,3,3,2.6,4.6c-0.6,2-2.1,3-4.1,3
			c-2.7,0-5.5,0.4-8.3-0.3c-0.4-0.1-0.9-0.1-1.2,0.3C58.4,99.8,57.4,98.8,57,97.3z"/>
		<path class="st6" d="M120.2,100.2c-0.9-0.3-1.8-0.6-2.7-0.8c-1.5-0.4-2.8-1-3-2.7c-0.3-1.7,0.4-3.3,1.9-4.1c4-1.9,8-2.2,12.1-0.1
			c1.3,0.7,1.8,1.8,1.8,3.2c0,0.6-0.2,1.3,0.3,1.9c-0.2,0.3-0.4,0.6-0.7,0.9c-1.9,2-4.2,2-6.6,1.6l0,0.2c-0.9,0.3-1.7,0.3-2.6,0
			C120.5,100.2,120.3,100.2,120.2,100.2z"/>
		<path class="st7" d="M123.3,100.1c2.3-0.3,4.6-0.4,6.6-1.6C127.8,101.6,127,101.8,123.3,100.1z"/>
		<path class="st3" d="M6.5,88c0,1.3,0,2.5,0,3.8c-0.1,0-0.1,0-0.2,0c0-1.3,0-2.5,0-3.8C6.4,88,6.4,88,6.5,88z"/>
		<path class="st8" d="M119.6,125.7c0,1.2,0,2.5,0,3.7c-0.1,0-0.1,0-0.2,0c0-1.2,0-2.5,0-3.7C119.5,125.7,119.6,125.7,119.6,125.7z"
			/>
		<ellipse class="st9" cx="130.3" cy="115.8" rx="2.5" ry="0.2"/>
		<path class="st3" d="M120.7,123.4c0,1.2-0.1,2.3-0.1,3.5C120,125.7,119.8,124.6,120.7,123.4z"/>
		<path class="st10" d="M120.6,100.3c0.9,0,1.7,0,2.6,0C122.4,100.9,121.5,100.9,120.6,100.3z"/>
		<path class="st11" d="M128.4,139.5c0.8-0.5,1.8-0.3,2.7-0.4C130.3,139.9,129.3,139.5,128.4,139.5z"/>
		<path class="st2" d="M90.3,59.1c-0.5,0-1.1,0.1-1.6,0.1C89.2,58.3,89.8,58.6,90.3,59.1z"/>
		<path class="st4" d="M100.8,59.2c-0.6,0-1.1-0.1-1.7-0.1C99.7,58.6,100.3,58.3,100.8,59.2z"/>
		<path class="st12" d="M55.7,93.3c0,0.6,0.1,1.1,0.1,1.7C54.9,94.4,55.2,93.8,55.7,93.3z"/>
		<path class="st1" d="M100.4,89.7c-1.4,1.1-1.7,2.8-2,4.4c-0.5,2.1-1.1,4.2-2.4,6c-1.5,1.9-2.9,1.9-4.4,0.1c-1.5-1.8-2-4-2.7-6.2
			c-0.5-1.4-0.7-3-2.6-3.4c-0.5-0.1-1-0.7-0.8-1.4c0.1-0.4,0.2-0.9,0.7-1.1c1-0.3,0.7,0.7,1,1c0.2,0.2,0.5,0.4,0.7,0.4
			c3.8,0,7.5,0.1,11.2-1.2C101,87.3,99.9,89.3,100.4,89.7z"/>
		<path class="st1" d="M118.8,84.8c0,1-0.2,1.9-0.6,2.7c-0.5,1.3-1.4,2.2-2.9,2.2c-1.5,0-2.5-0.8-3-2.1c-0.8-2.1-0.8-4.1,0.2-6.1
			c0.6-1.1,1.4-1.9,2.7-1.8c1.4,0,2.4,0.7,2.9,2C118.5,82.6,118.8,83.7,118.8,84.8z"/>
		<path class="st1" d="M74.7,84.7c0,2.3-0.2,3.9-1.7,5.1c-1.6,1.2-3.2,1-4.3-0.7c-1.2-2-1.1-5.4,0.3-7.2c0.7-0.9,1.5-1.8,2.9-1.5
			c1.4,0.4,2.2,1.4,2.5,2.7C74.7,83.8,74.6,84.6,74.7,84.7z"/>
		<path class="st13" d="M100.4,89.7c-0.7-0.2,0.1-1.9-1.4-1.3c0-0.6,0.3-1.1,0.9-0.8C100.9,88,100.8,88.9,100.4,89.7z"/>
		<path class="st14" d="M94.4,90.7c3-0.3,3.1-0.2,2.4,2.8c-0.4,1.8-1,3.5-1.9,5.1c-0.8,1.5-1.6,1.6-2.5,0.1c-1.2-2-1.6-4.4-2.3-6.6
			c-0.3-0.8,0.2-1,0.9-1.1C92.1,90.9,93.2,90.8,94.4,90.7z"/>
	</g>
</g>
</svg>
