<?xml version="1.0" encoding="utf-8"?>
<!-- Generator: Adobe Illustrator 25.4.1, SVG Export Plug-In . SVG Version: 6.00 Build 0)  -->
<svg version="1.1" id="Capa_1" xmlns="http://www.w3.org/2000/svg" xmlns:xlink="http://www.w3.org/1999/xlink" x="0px" y="0px"
	 viewBox="0 0 200 200" style="enable-background:new 0 0 200 200;" xml:space="preserve">
<style type="text/css">
	.st0{fill:#FEFEFE;}
	.st1{fill:#25170B;}
	.st2{fill:#FEFBFE;}
	.st3{fill:#F5B32E;}
	.st4{fill:#F39700;}
	.st5{fill:#FBFBEE;}
	.st6{fill:#FDFEFD;}
</style>
<g>
	<g>
		<path class="st0" d="M102.4,18c27.2,0,54.3,0,81.5,0c0.8,0,0.9,0.2,0.9,0.9c0,54,0,108.1,0,162.1c0,0.8-0.2,0.9-0.9,0.9
			c-54.3,0-108.6,0-163,0c-0.8,0-0.9-0.2-0.9-0.9c0-54,0-108.1,0-162.1c0-0.8,0.2-0.9,0.9-0.9C48.1,18,75.3,18,102.4,18z"/>
		<path class="st1" d="M150.1,144.7c-2.9,3.1-6,6.1-9.2,8.9c-9.8,8.4-20.4,15.3-32.8,19.3c-8.9,2.9-17.9,3.8-27.2,2.7
			c-11.6-1.4-21.9-5.7-30.9-13.2c-7.8-6.6-13.5-14.7-17.5-24c-3.5-8.1-5.4-16.5-5.8-25.3c-0.3-5.7-0.5-11.3-0.4-17
			c0-3.1,0.1-6.2,0.6-9.2c0.1-0.4-0.1-0.8-0.2-1.2c-0.8-3.1-1.3-6.2-0.6-9.3c0.6-2.6,2-4.8,3.4-7c0.5-0.9,1.2-1.7,1.8-2.5
			c0.4-0.5,0.6-1.1,0.7-1.8c1.7-9.4,5.2-18.1,11.3-25.5c6.5-7.9,14.8-12.8,24.9-14.6c10.3-1.8,20.6-1.6,30.7,1.5
			c14.6,4.5,23.7,14.2,27.4,29.1c1.1,4.5,1.5,9,1.5,13.6c0,0.9,0.3,0.9,1,0.8c2.8-0.7,5.6-0.8,7.9,1c2.2,1.8,3.6,4.2,4.1,7
			c0.4,2.1,0.3,4-0.8,5.9c-0.4,0.7,0.2,0.7,0.5,0.9c6.4,3.7,12.7,7.3,19.2,10.9c4.7,2.6,8.9,5.8,12.2,10.2c3.1,4.1,4.3,8.6,3.4,13.7
			c-0.8,4.8-1.3,9.7-1.8,14.6c-0.1,1,0.2,1.7,0.9,2.3c1.1,0.9,2.2,1.8,3.1,2.9c1.5,1.9,1.4,4-0.2,5.8c-1.9,2-4.3,2.8-7,3
			c-0.4,0-0.6,0-0.8,0.4c-2,3.8-6,4.8-10,3.7C155.6,150.9,152.7,148.1,150.1,144.7z"/>
		<path class="st2" d="M30.6,96.4c1,1.9,2,3.8,3.4,5.3c1.2,1.3,2.5,2.4,4.3,2.5c2.6,0.2,4.6-1.3,5.8-4.2c1.1-2.7,1.5-5.5,1.8-8.3
			c0.3-3,0.3-6,0.3-9c0-0.7,0.2-1.2,0.9-1.6c1.4-0.8,2.8-1.5,4.3-2.1c3-1.2,6-2.2,9-3.1c0.7-0.2,0.9,0,1.1,0.6c2,7.4,4,14.9,6,22.3
			c0.8,2.9,1.6,5.8,2.3,8.7c0.4,1.6,1,2,2.7,2c7.4,0,14.8,0,22.2,0c0.9,0,1.6,0.2,2.4,0.7c3.5,2.3,7,4.6,10.5,6.8
			c1.5,1,1.9,0.9,3.3-0.1c2.3-1.6,4.6-3.3,6.9-5c0.4-0.3,0.8-0.4,1.2-0.3c5.4,1.4,10.7,2.7,16,4.6c2.1,0.7,3.6,2.2,5.1,3.8
			c4.4,4.5,6.6,10.1,7.9,16.2c0.6,2.8,0.1,4.6-1.9,6.6c-6.4,6.5-13.3,12.3-21,17.2c-7.5,4.8-15.5,8.5-24.2,10.3
			c-15.7,3.3-30.5,0.8-44-8.2c-8.7-5.8-14.9-13.8-19.4-23.1c-3.1-6.4-5.3-13.2-6.1-20.2c-0.9-7.4-1-14.8-1-22.3
			C30.5,96.7,30.5,96.6,30.6,96.4z"/>
		<path class="st3" d="M68.6,87.2c-1.3-4.6-2.5-9.2-3.8-13.8c-0.5-2-1.4-2.5-3.4-1.9c-5,1.4-10.1,2.9-14.8,5.2
			c-0.7,0.4-1.4,0.8-2.1,1.3c-1.6,1.1-2.4,2.5-2.4,4.6c0.1,4.5,0,8.9-1,13.3c-0.3,1.2-0.6,2.5-1.3,3.5c-0.6,1-1.2,1.1-2.1,0.4
			c-1.2-1-2-2.2-2.7-3.6c-2.4-4.8-4.2-9.8-5.1-15.1c-0.6-3.5,0.9-6.4,2.9-9.1c0.5-0.7,1.3-1,2-1.4c4.5-2.6,9.1-4.8,13.8-7
			c0.4-0.2,0.9-0.4,1.3-0.6c1-0.6,1.4-1.7,0.9-2.6c-0.5-1-1.6-1.5-2.7-1c-2.9,1.4-5.9,2.8-8.8,4.2c-0.8,0.4-1.5,0.8-2.3,1.2
			c-0.3,0.1-0.5,0.2-0.8,0.1c-0.3-0.2,0-0.4,0.1-0.6c1.4-6.7,3.8-12.9,7.6-18.6c5.8-8.7,13.8-14.3,24.1-16.3c10-2,20-1.8,29.8,1.2
			c13.1,4,21.2,12.9,24.5,26.2c1.1,4.7,1.5,9.5,1.4,14.3c0,0.8-0.2,1.4-0.7,2c-2.9,3.6-3.4,7.8-2.5,12.2c0.6,3.4,2.5,6,5.6,7.8
			c1.1,0.6,2.2,1,3.4,1.2c2.4,0.3,4.4-0.3,5.9-2.3c0.7-1,1.4-2,1.8-3.1c0.3-0.8,0.6-0.8,1.3-0.4c4.8,2.8,9.6,5.5,14.4,8.3
			c3.1,1.8,6.3,3.3,9.2,5.4c3.2,2.3,5.9,5,7.9,8.4c1.7,3,1.8,6.2,1.3,9.5c-0.8,5-1.3,10.1-1.7,15.1c-0.1,1.7,0.6,3,1.8,4.1
			c0.9,0.8,1.8,1.7,2.8,2.5c0.6,0.5,0.5,0.9-0.1,1.4c-0.8,0.6-1.6,1-2.5,1.2c-0.8,0.2-1.6,0.1-2.2-0.8c-1.2-1.8-2.5-3.6-3.7-5.3
			c-0.3-0.4-0.4-0.8-0.5-1.3c-0.6-7-1.1-14-1.8-21c-0.4-3.7-2.2-6.4-4.9-8.7c-4.2-3.5-9.1-5.6-14.3-7.2c-1.5-0.5-2.6,0.1-2.9,1.4
			c-0.3,1.1,0.3,2.1,1.7,2.5c3.9,1.2,7.6,2.8,11.1,5.1c1.2,0.8,2.2,1.7,3.2,2.7c1.3,1.4,2,3,2.1,4.9c0.6,7,1.1,14.1,1.7,21.1
			c0.1,0.9,0.3,1.7,0.9,2.5c1.3,1.8,2.6,3.6,3.9,5.4c0.4,0.6,0.4,1,0,1.6c-0.8,1.3-2.2,2-3.8,1.7c-3.9-0.6-6.7-2.9-8.7-6.2
			c-0.9-1.5-0.8-3.3-1.2-5c-0.8-3.2-1.2-6.5-2.5-9.6c-2.2-5.3-5.5-9.7-10-13.3c-1.6-1.3-3.6-1.9-5.6-2.5c-5-1.7-10.2-3-15.3-4.3
			c-0.9-0.2-1.6,0-2.3,0.5c-2.2,1.6-4.5,3.2-6.7,4.8c-0.5,0.4-0.8,0.4-1.3,0c-3.4-2.2-6.8-4.4-10.3-6.7c-0.8-0.5-1.5-0.7-2.4-0.7
			c-1.9,0-3.7,0-5.6,0c-3-1.1-5.5-3-8.1-4.8c-3.4-2.4-6.5-5.1-9.4-8.1C71.4,90.9,69.7,89.3,68.6,87.2z"/>
		<path class="st3" d="M124.3,81.5c0-0.6,0-1.2,0.1-1.8c0.9-5,3.4-6.2,8.6-6.1c0.8,0,1.4,0.4,1.9,1c1.3,1.5,2.1,3.2,2.2,5.3
			c0,1.1-0.3,2.1-1.4,2.7c-0.6,0.3-0.9,0.9-1.1,1.6c-0.4,1.8-1.3,3.5-2.4,5c-0.5,0.6-1.1,0.8-1.9,0.8c-2.7-0.2-5.2-2.7-5.8-5.6
			C124.4,83.4,124.3,82.5,124.3,81.5z"/>
		<path class="st4" d="M68.6,87.2c2,2.4,3.9,4.8,6.2,7c4.5,4.3,9.4,8,14.9,10.9c0.2,0.1,0.4,0.3,0.7,0.5c-5.4,0-10.8,0-16.2,0.1
			c-0.5,0-0.7-0.3-0.8-0.7C71.8,99,70.2,93.1,68.6,87.2z"/>
		<path class="st5" d="M43.4,55.4c0.4-2.7,1.1-5.5,2.8-8c4-6,9.2-10.8,15.7-14c1.6-0.8,3.3-1.3,5.1-1.5c0.7-0.1,1.4,0,1.7,0.7
			c0.3,0.8-0.3,1.2-0.8,1.6c-2.4,1.6-4.9,3.1-7.3,4.7c-3.4,2.3-5.7,5.5-8,8.8c-1.9,2.9-3.8,5.8-6.2,8.3c-0.3,0.4-0.7,0.7-1.1,0.9
			c-0.4,0.2-0.9,0.6-1.4,0.3C43.6,56.9,43.4,56.5,43.4,55.4z"/>
		<path class="st1" d="M93,45.8c3,0,4.9,0.4,6.7,1c0.1,0,0.2,0.1,0.3,0.1c0.9,0.4,1.8,0.9,1.9,2c0.1,1.1-0.8,1.7-1.7,2.1
			c-3.5,1.7-7.2,3-11,3.8c-1.8,0.3-3.5,0.5-5.3,0.7c-0.6,0-1.2,0-1.8-0.1c-1.3-0.3-1.7-1.2-1-2.3c0.9-1.5,2.1-2.8,3.5-3.9
			C87.3,46.9,90.4,45.8,93,45.8z"/>
		<path class="st1" d="M74.3,51.1c-1,0-1.7-0.1-2.1-0.8c-0.4-0.7-0.1-1.4,0.3-2c1.8-2.4,4.2-3.9,7.1-4.8c0.9-0.3,1.8-0.2,2.4,0.7
			c0.6,0.8,0.3,1.7-0.2,2.4C80,49.3,77.3,50.8,74.3,51.1z"/>
		<path class="st1" d="M102.1,38.6c0.9,0,1.9,0.1,3,0.4c0.6,0.2,1.1,0.4,1.7,0.8c0.6,0.4,0.8,0.9,0.7,1.6c-0.1,0.7-0.5,1.1-1.1,1.3
			c-2.7,0.7-5.4,0.5-8.1-0.4C97.6,42,97,41.5,97,40.6c0-0.8,0.6-1.2,1.4-1.5C99.5,38.6,100.7,38.6,102.1,38.6z"/>
		<path class="st6" d="M98.1,49.3c-4.2,2.5-8.5,4-13.4,3.7C86.1,49.5,92.1,47.7,98.1,49.3z"/>
	</g>
</g>
</svg>
