<?xml version="1.0" encoding="utf-8"?>
<!-- Generator: Adobe Illustrator 25.4.1, SVG Export Plug-In . SVG Version: 6.00 Build 0)  -->
<svg version="1.1"
	 id="svg5637" xmlns:cc="http://creativecommons.org/ns#" xmlns:dc="http://purl.org/dc/elements/1.1/" xmlns:inkscape="http://www.inkscape.org/namespaces/inkscape" xmlns:rdf="http://www.w3.org/1999/02/22-rdf-syntax-ns#" xmlns:sodipodi="http://sodipodi.sourceforge.net/DTD/sodipodi-0.dtd" xmlns:svg="http://www.w3.org/2000/svg"
	 xmlns="http://www.w3.org/2000/svg" xmlns:xlink="http://www.w3.org/1999/xlink" x="0px" y="0px" viewBox="0 0 1000 576.7"
	 style="enable-background:new 0 0 1000 576.7;" xml:space="preserve">
<style type="text/css">
	.st0{fill:#FFFFFF;}
	.st1{fill:#231F20;}
	.st2{fill:#FBE559;}
	.st3{fill:#F8BDD5;}
	.st4{fill:#CBE541;}
	.st5{fill:#F799BC;}
	.st6{fill:#FBE58C;}
	.st7{fill:#7A6132;}
	.st8{fill:#8893B7;}
	.st9{fill:#FDDD04;}
	.st10{fill:#F7F23A;}
</style>
<sodipodi:namedview  bordercolor="#666666" borderopacity="1.0" fit-margin-bottom="0.5" fit-margin-left="0.5" fit-margin-right="0.5" fit-margin-top="0.5" id="base" inkscape:current-layer="layer1" inkscape:cx="767.40241" inkscape:cy="156.17415" inkscape:document-units="px" inkscape:pageopacity="0.0" inkscape:pageshadow="2" inkscape:window-height="969" inkscape:window-maximized="0" inkscape:window-width="1058" inkscape:window-x="858" inkscape:window-y="-21" inkscape:zoom="0.52636719" pagecolor="#ffffff" showgrid="false">
	</sodipodi:namedview>
<g>
	
		<sodipodi:namedview  bordercolor="#666666" borderopacity="1.0" fit-margin-bottom="0.5" fit-margin-left="0.5" fit-margin-right="0.5" fit-margin-top="0.5" id="base" inkscape:current-layer="layer1" inkscape:cx="767.40241" inkscape:cy="156.17415" inkscape:document-units="px" inkscape:pageopacity="0.0" inkscape:pageshadow="2" inkscape:window-height="969" inkscape:window-maximized="0" inkscape:window-width="1058" inkscape:window-x="858" inkscape:window-y="-21" inkscape:zoom="0.52636719" pagecolor="#ffffff" showgrid="false">
		</sodipodi:namedview>
	
		<g id="layer1_00000034802075304755605030000006534598992190660753_" transform="translate(-165.52731,225.7055)" inkscape:groupmode="layer" inkscape:label="Layer 1">
		
			<g id="g3467_00000130623722045756908790000001752355955415466635_" transform="matrix(14.22196,0,0,-14.22196,382.54172,157.27814)">
			<path id="path3469_00000170976262217210236200000007793041739543761831_" inkscape:connector-curvature="0" class="st0" d="
				M2.7,0.7C2.4,0.4,2.3-0.1,2-0.4C1.6-0.8,1.2-1.1,0.7-1.1C0.3-1.1-0.2-1-0.4-0.6c0.1,0.5,0.2,1.1,0,1.6c0,0-0.1,0.1,0,0.1
				c0.2,0,0.1-0.2,0.2-0.3c0.1-0.5,0.1-1-0.1-1.4c0.1-0.1,0.2-0.1,0.3-0.2c0.2-0.1,0.4,0,0.6,0.1C0.9-0.4,0.8,0,0.7,0.2
				C0.4,0.9-0.1,1.5-0.6,2c0,0,0.1,0,0.1,0c0.9,0.2,1.7,0.6,2.4,1.3c0,0,0,0,0.1,0c0-0.2-0.1-0.3,0-0.5c0-0.2,0.1-0.4,0.3-0.5
				c0.1-0.1,0.3-0.1,0.4-0.2c0,0,0,0,0,0c0-0.4,0.1-0.8,0.3-1.1C2.9,0.9,2.8,0.8,2.7,0.7"/>
		</g>
		
			<g id="g3471_00000099623992894714857470000004857978529943771817_" transform="matrix(14.22196,0,0,-14.22196,345.32148,140.23738)">
			<path id="path3473_00000031201506890156435790000017176120083666690470_" inkscape:connector-curvature="0" class="st0" d="
				M3.1,0.5c0.3-0.4,0.6-0.8,0.8-1.2C4-0.9,4-1.1,4-1.4c0,0,0.1,0.1,0.1,0.1C4.2-1.1,4.3-1,4.4-0.8c0.1,0.2,0.3,0.5,0.5,0.7
				c0,0,0,0,0,0c0,0.2-0.1,0.3-0.1,0.5c-0.1,0-0.2,0.1-0.2,0.1C4.4,0.7,4.2,0.8,4.1,1C3.8,0.8,3.5,0.7,3.1,0.5 M3.4-2.9
				c0,0-0.1,0-0.1,0C2.5-2.9,2-2.6,1.7-2.2C1.6-2,1.6-1.9,1.6-1.7c0.1,0.5,0.1,0.9,0,1.2c-0.2,0.3-0.1,0.6,0,0.7
				c0,0-0.1,0.1-0.1,0.1C1.5,0.5,1.4,0.6,1.4,0.8c0,0.2,0.1,0.3,0.2,0.4C1.7,1.4,1.9,1.4,2,1.4C2.9,1.6,3.6,2,4.1,2.5
				c0.2,0.2,0.5,0.2,0.7,0.1l0,0c0.2-0.1,0.4-0.4,0.3-0.7c0-0.1,0-0.2,0-0.3c0-0.1,0-0.1,0.1-0.1c0,0,0.1,0,0.1,0
				c0.3,0,0.5-0.3,0.5-0.6c0,0,0,0,0,0C5.9,0.5,6,0.2,6.2,0c0.1-0.2,0.1-0.4,0-0.6C6-0.8,5.9-0.9,5.7-0.9c0,0,0,0,0,0
				C5.6-1,5.5-1.2,5.4-1.4C5.3-1.6,5.2-1.8,5.1-2C4.6-2.6,4-2.9,3.4-2.9"/>
		</g>
		
			<g id="g3475_00000093157843403335820580000001236847869207218058_" transform="matrix(14.22196,0,0,-14.22196,1065.0991,213.37376)">
			<path id="path3477_00000065785794442081370560000001451237343364863138_" inkscape:connector-curvature="0" class="st0" d="
				M-5.1,1.3C-5.6,3-6.9,3.7-6.9,3.7C-7,3.8-7.2,3.9-7.3,3.9c-0.5,0.2-1,0.3-1.6,0.3c-1,0-2-0.4-2.7-0.7c-0.1,0.1-0.3,0.1-0.4,0.2
				c-0.1,0-0.3,0.1-0.3,0.1c-0.1,0-0.1,0-0.2,0.1c-0.4,0.1-0.7,0.2-1.1,0.2c-0.6,0-1.1-0.1-1.6-0.4c-0.4-0.2-0.8-0.5-1.1-0.9
				c-0.1-0.1-0.2-0.1-0.1,0.1c0.1,0.4,0.1,0.9,0,1.3c-0.1,0.4-0.4,0.7-0.7,1v0c0,0,0,0,0,0c-0.4,0.3-0.8,0.4-1.4,0.4
				c-0.4,0-0.8-0.1-1.1-0.3c0,0,0,0,0,0c-0.3-0.2-0.6-0.4-0.8-0.7c-0.2-0.3-0.3-0.7-0.3-1.1c0-0.4,0.1-0.8,0.3-1.1
				c0.1-0.1,0.2-0.3,0.3-0.4c-0.1-0.2-0.2-0.3-0.3-0.5c-0.3,0.6-0.9,1-1.6,1.1c-0.2,0-0.4,0-0.6,0c-0.3,0-0.7,0-1,0
				C-23.9,2.8-24,3-24.1,3.1c-0.4,0.3-0.9,0.5-1.4,0.5c-0.3,0-0.7-0.1-1-0.2c-0.8-0.3-1.3-1.1-1.3-1.9c0-0.1,0-0.2,0-0.3
				c-0.2,0.2-0.4,0.5-0.7,0.7c0,0-0.1,0-0.1,0c-0.2,0.1-0.3,0.1-0.5,0.1c-0.3,0-0.7-0.1-0.9-0.3c-0.3-0.3-0.5-0.5-0.7-0.8
				C-30.9,0.9-31,1-31,1.2c-0.2,0.4-0.5,0.6-0.9,0.7c0,0-0.1,0-0.1,0c-0.1,0-0.2,0-0.3,0c-0.7,0-1.1-0.5-1.3-0.7
				c-0.2-0.2-0.4-0.4-0.5-0.6c-0.1-0.1-0.2,0-0.1,0.1c0,0.1,0.1,0.3,0.1,0.4c0,0,0,0,0,0c0.1,0.8-0.3,1.5-0.9,1.9
				c-0.5,0.3-1.2,0.5-1.9,0.5c-0.7,0-1.4-0.2-2-0.5c0,0,0,0,0,0c-0.5-0.3-1-0.7-1.4-1.2C-40.7,1.4-41,1-41.2,0.6
				c-0.5,0.6-1.2,0.9-1.7,1.1c-0.1,0-0.2,0.1-0.2,0.1c0,0,0,0-0.1,0C-43.6,2-44,2.2-44.4,2.3l-0.1,0c-0.3,0.1-0.6,0.2-1,0.4
				l-0.2,0.1h0c0.2,0.1,0.3,0.2,0.5,0.2c0,0,0,0,0.1,0c0.4,0.1,0.8,0.2,1.1,0.2c0.1,0,0.3,0,0.4-0.1c0,0,0,0,0.1,0
				c0,0,0.2-0.1,0.3-0.2c0.1-0.1,0.2-0.2,0.3-0.3c0,0,0,0,0,0c0.6-0.4,1.5-0.4,2.1,0c0,0,0,0,0,0c0.4,0.3,0.7,0.6,0.9,1.1
				c0.1,0.4,0.2,0.9,0,1.3c-0.1,0.4-0.3,0.8-0.7,1.1c0,0,0,0,0,0c-0.8,0.7-1.8,1-3,1c-0.3,0-0.6,0-0.9-0.1c-1.5-0.2-2.9-0.7-4.1-1.5
				c-1.3-0.8-2-2.1-1.8-3.4v0c0.1-0.7,0.4-1.3,1.1-1.8c0.3-0.2,0.6-0.4,1-0.6c-0.4,0-0.8-0.1-1.1-0.3c-0.4-0.2-0.7-0.5-0.9-0.9
				c0,0,0,0,0,0c-0.2-0.4-0.3-0.9-0.3-1.4c0-0.4,0.1-0.8,0.3-1.2c0.4-0.7,1.1-1.3,1.9-1.7c0.7-0.3,1.5-0.4,2.4-0.4
				c0.1,0,0.2,0,0.4,0c0,0,0,0,0,0c1.1,0.1,2,0.4,2.7,0.9c0,0,0,0,0,0c0.5,0.3,1,0.7,1.4,1.1c0,0,0.2,0.1,0.3,0.1c0,0,0,0,0.1,0
				c0.1-0.2,0.3-0.4,0.4-0.6c0,0,0,0,0.1-0.1c0.6-0.5,1.3-0.8,2.1-0.8c0.4,0,0.7,0.1,1.1,0.2c0,0,0,0,0,0c0.4,0.2,0.8,0.5,1.2,0.8
				c0.2-0.3,0.5-0.7,1-1c0,0,0,0,0.1,0c0.5-0.2,1.1,0,1.6,0.4c0,0,0,0,0,0c0.3,0.3,0.5,0.6,0.7,0.9c0,0,0,0,0.1,0
				c0.1,0,0.2,0,0.2-0.1c0.1-0.2,0.2-0.4,0.4-0.6c0.3-0.6,0.8-0.7,1.1-0.7c0,0,0,0,0.1,0c0.4,0,0.8,0.2,1,0.4c0,0,0,0.1,0.1,0.1
				c0.2,0.3,0.4,0.7,0.6,0.9c0,0,0.1,0,0.2,0c0,0,0.1,0,0.1,0c0.3-0.5,1-1.5,2.2-1.5c0.1,0,0.3,0,0.4,0c0.9,0.2,1.5,0.9,1.9,1.5
				c0,0,0.1,0.1,0.1,0.1c0.1,0.2,0.4,0.2,0.5-0.1c0,0,0,0,0,0c0.1-0.4,0.4-0.7,0.7-1c0,0,0,0,0.1-0.1c0.6-0.4,1.4-0.5,2.1-0.4
				c0.5,0.1,1,0.3,1.5,0.5c0.4-0.4,1-0.6,1.7-0.6c0.3,0,0.6,0.1,1,0.1c0.4,0.1,0.8,0.3,1.3,0.5c0.2-0.2,0.4-0.4,0.6-0.6c0,0,0,0,0,0
				c0.4-0.3,0.8-0.7,1.3-0.9h0c0.4-0.2,0.9-0.3,1.4-0.3c0.3,0,0.7,0,1,0.1c1,0.2,1.9,0.6,2.9,1.3c0.7,0.5,1.4,1.1,1.9,1.7
				c0,0,0,0,0,0c0.6,0.7,1,1.4,1.2,2c0.1,0.3,0.2,0.6,0.3,1c0,0,0,0.1,0,0.1l0,0.2C-5-0.2-5,0.1-5,0.4C-5,0.7-5,1-5.1,1.3"/>
		</g>
		
			<g id="g3479_00000129169432052944897170000001318312164790713014_" transform="matrix(14.22196,0,0,-14.22196,1159.348,72.960345)">
			<path id="path3481_00000049221114876772850110000008572676046438092719_" inkscape:connector-curvature="0" class="st0" d="
				M-6.2-0.3c0,0.1,0.1,0.1,0.1,0.2c0,0,0,0.1,0,0.1c0.1,0.4,0.3,1.1,0.1,1.8c-0.1,0.7-0.5,1.3-1,1.7c0,0,0,0,0,0
				c-0.4,0.3-0.9,0.6-1.5,0.7c-0.8,0.1-1.6-0.1-2.2-0.5c-0.1,0.2-0.3,0.4-0.4,0.6c-0.4,0.4-0.9,0.7-1.3,0.9c0,0.1,0,0.2,0,0.3
				c-0.2,0.8-0.4,1.5-0.6,2c0,0.1-0.1,0.2-0.1,0.3c0,0,0,0.1,0,0.1c0,0,0,0,0,0c0.1,0.3,0.2,0.5,0.4,0.9c0.7,2,0.9,2.9,0.5,3.5
				c-0.2,0.3-0.6,0.5-1,0.4c0,0-0.1,0-0.1,0c-0.5-0.2-1-0.4-1.4-0.7c-0.1-0.1-0.2-0.1-0.3-0.2c0,0-0.1-0.1-0.1-0.1
				c-0.1,0.7-0.2,1.4-0.6,1.8c0,0.1-0.1,0.1-0.2,0.1c-0.5,0.3-1,0.2-1.5-0.2c-0.4-0.4-0.9-0.8-1.3-1.3c0,0,0,0.1,0,0.1
				c-0.3,1-0.5,1.9-1.3,1.9c0,0-0.1,0-0.1,0c-0.8-0.1-1.2-0.6-1.5-1.2c-0.3-0.5-0.6-0.9-0.8-1.4c-0.1-0.1-0.2,0-0.2,0.1
				c0,0.4,0,0.9-0.3,1.3c0,1-0.2,2-0.6,3.2c0,0,0,0,0,0.1c0,0,0,0.1,0,0.1c-0.1,0.3-0.4,1-1.2,1c0,0,0,0,0,0c0,0,0,0-0.1,0
				c-1.2-0.1-2.2-0.6-3.1-1c-0.1-0.1-0.3-0.1-0.4-0.2c0,0,0,0,0,0c-0.1,0.2-0.2,0.3-0.4,0.5l0,0c-0.9,0.8-1.8,1-2.7,0.7
				c0,0,0,0-0.1,0c-0.9-0.4-1.2-1.3-1.4-1.9l0,0c0-0.1-0.1-0.2-0.1-0.3c-0.6,0-1.3,0-2,0c-0.3,0-0.5,0-0.8-0.1c-0.2,0-0.4,0-0.6-0.1
				c-0.5,0.6-1.2,1.1-2.1,1.6c0,0,0,0,0,0c-0.1,0-0.2,0.1-0.3,0.2c-0.4,0.2-0.8,0.4-1.3,0.4c-0.1,0-0.3,0-0.4,0
				c-0.1,0-0.2-0.1-0.3-0.1c-1.3-1-2-2.6-1.9-4.4c0,0,0,0,0-0.1l0-0.3c0-0.2,0.1-0.4,0.1-0.6c-0.2-0.3-0.5-0.6-0.7-0.9
				c-0.6,0.6-1.3,0.9-2.3,0.9c-0.1,0-0.3,0-0.4,0c0,0.8,0,1.7-0.2,2.3c-0.2,0.7-0.7,1.2-1.3,1.4c-0.7,0.3-1.4,0.3-2.1-0.1
				c-0.8-0.4-1.4-1.1-1.9-2.2c-0.4-0.9-0.8-2.5-1.1-3.8c-0.3-0.1-0.5-0.3-0.7-0.5c-0.3-0.3-0.4-0.8-0.3-1.2c0,0,0,0,0,0
				c0-0.1,0-0.1,0.1-0.2c-0.6-0.6-1.1-1.3-1.5-2c-0.5,0.1-1,0.2-1.5,0.2c0,0,0,0,0,0h0c-1,0-1.9-0.2-2.7-0.5
				c-0.2,0.2-0.5,0.3-0.7,0.4c0,0,0,0,0,0l-0.1,0.1c-0.4,0.2-1,0.4-1.6,0.4c-0.3,0-0.5-0.1-0.8-0.2c0,0-0.1,0-0.1,0
				c-0.8-0.5-0.7-1.4-0.7-1.8l0-0.1c0,0,0-0.1,0-0.1c0.2-0.8,0.4-1.6,0.9-2.4c0,0,0-0.1,0-0.1c0,0,0-0.1,0-0.1c0,0,0,0,0-0.1
				c-0.1-0.5-0.1-0.9-0.1-1.4c-0.4,0-0.8,0-1.2-0.1c-0.4-0.1-0.6-0.5-0.6-0.8c0-0.2,0.1-0.4,0.4-0.6c0.1-0.1,0.3-0.1,0.5-0.1
				c0.5,0,0.9,0.1,1.3,0.1c0-0.1,0.1-0.2,0.1-0.3c-0.1,0-0.2-0.1-0.3-0.1c-0.1,0-0.2-0.1-0.3-0.1c-0.2-0.1-0.3-0.1-0.5-0.2
				c-0.1-0.1-0.2-0.1-0.3-0.2c-0.1-0.2-0.2-0.3-0.2-0.5c0-0.2,0.1-0.5,0.4-0.6c0.1-0.1,0.3-0.1,0.5-0.1c0.6,0.1,1.1,0.4,1.5,0.6
				c0,0,0.1,0,0.1,0.1c0-0.2,0-0.4,0.1-0.5c0,0,0,0,0-0.1c0.3-0.6,0.8-1.2,1.6-1.7c0-0.5,0.2-0.9,0.4-1.3c0-0.1,0-0.1,0-0.2
				c0,0,0-0.1-0.1-0.1c-0.1-0.2-0.2-0.5-0.2-0.9c0.1-0.4,0.3-0.7,0.8-0.9c0,0,0.1,0,0.1,0c0.5-0.1,1.1-0.1,1.6,0c0,0,0.1,0,0.1,0
				c0.2,0.1,0.4,0.2,0.5,0.4c0.1-0.1,0.3-0.1,0.5-0.1c0.1,0,0.1,0,0.2,0c0.1-0.2,0.3-0.3,0.5-0.3c0.3,0,0.4,0.1,0.6,0.3
				c0,0,0.1,0.1,0.1,0.1c0.1,0.2,0.2,0.4,0.2,0.7c0.7-0.1,1.4,0.1,1.9,0.5c0.1-0.1,0.2-0.2,0.2-0.3c0,0,0.1-0.1,0.1-0.1
				c0.1-0.1,0.2-0.3,0.3-0.4c1.8-2.5,6.5-3.3,11.4-3.3c0.1-0.5,1,0.8,1.3,0.1c0.1-0.2,0.3-0.2,0.9-0.2c0.6,0,0.6-2,1.3-1.6
				c0.3,0.1,0.9,0.4,1,0.4c0.1-0.1,0.2-0.3,0.3-0.4c0.2-0.4,0.6-1,1.2-1c0.3,0,0.5,0.1,0.8,0.3c0,0,0,0,0,0c0.1,0,0.2,0,0.3,0
				c0.5,0,0.9,0.7,1.3,1c0.2,0.1,0.6,0.5,0.8,0.5c0.2,0,0.6-1,0.9-1.2c0.4-0.3,0.9-0.6,1.4-0.6c0.4,0,0.9,0.2,1.3,0.9c0,0,0,0,0,0.1
				c0.4,1.1,0.6,2,0.7,3l9.7,2.5c0.3-0.2,0.6-0.3,1-0.3c0,0,0,0,0,0c0.5-0.1,1.1,0.1,1.5,0.3c0,0,0.1,0,0.1,0.1
				c0.1,0.1,0.2,0.2,0.3,0.3c0.1,0,0.2,0,0.3-0.1c0.1,0,0.1,0,0.2,0c0-0.1,0-0.1,0.1-0.2c0,0,0-0.1,0.1-0.1c0,0,0-0.1,0.1-0.1
				c0.1-0.2,0.3-0.6,0.6-0.8c0.1,0,0.1-0.1,0.2-0.1c0.3-0.1,0.5,0,0.7,0c0.2-0.3,0.6-0.6,1.2-0.5c0,0,0.1,0,0.1,0
				c0.1,0.1,0.3,0.1,0.4,0.2c0,0,0,0,0,0c0.1-0.1,0.3-0.2,0.5-0.3c0.1,0,0.2-0.1,0.3-0.1h0c0.3,0,0.5,0.1,0.7,0.2
				c0.4,0.3,0.6,0.8,0.6,1.4c0,0,0,0.1,0,0.1C-8-7.7-8-7.5-8-7.3C-7.8-7.2-7.6-7.1-7.4-7l0.1,0.1C-7-6.8-6.7-6.6-6.5-6.4
				c0,0,0.1,0.1,0.1,0.1C-6.3-6.2-6.1-6-6.1-5.7c0,0,0,0,0,0.1C-6-5.3-6.2-5-6.4-4.8c0,0.1,0,0.2,0,0.2c0,0,0,0.1,0,0.1
				c0,0.2-0.1,0.5-0.4,0.6c0.2,0.4,0.4,0.8,0.4,1.2c0,0,0,0,0,0c0,0.3,0,0.7,0,1l0,0.1c0,0,0,0,0,0c0,0.2-0.1,0.4-0.1,0.5
				c0,0,0,0,0,0.1c0,0,0.1,0.1,0.1,0.1C-6.4-0.6-6.3-0.4-6.2-0.3"/>
		</g>
		
			<g id="g3483_00000078043529509367317880000003809335363872998288_" transform="matrix(14.22196,0,0,-14.22196,1025.4754,192.68081)">
			<path id="path3485_00000176009684836892504800000000792257744609021110_" inkscape:connector-curvature="0" class="st0" d="
				M-4.7,1.1C-4.7,1.1-4.7,1.1-4.7,1.1C-4.7,1.1-4.7,1.1-4.7,1.1L-4.7,1.1z"/>
		</g>
		
			<g id="g3487_00000128468041097178569920000000703237456606036888_" transform="matrix(14.22196,0,0,-14.22196,1019.5306,187.23664)">
			<path id="path3489_00000089545866072841065140000005256424984209340549_" inkscape:connector-curvature="0" class="st1" d="
				M-4.6,1c-0.6-0.1-1.3-0.2-1.6,0.4C-6.3,1.8-6.3,2-6.3,2.3c-0.8-0.1-2.2,0.3-3.1,0.3c-1.4-0.2-1.9-0.5-3-0.5
				c0.2-0.3,0.4-0.7,0.2-1.1c-0.3-0.3-1.1-0.3-1.7-0.3c-0.6,0.1-1.4,0.1-1.4,0.6c0.1,0.6,0.6,0.9,1.4,1.1c0,0.1-0.1,0.1-0.1,0.2
				c-0.4,0.8-0.3,1.9,0,2.8c-0.4,0.2-0.7,0.7-0.7,1.2c0.1,0.8,0.5,1.5,1,2.1C-14.2,8.9-14.7,9-15,9.4c-1.2,1.1-1.4,2.7-1.2,4.2
				c0.1,0.7,0.5,1.3,0.8,1.9c-0.2,0.6-0.2,0.3-0.3,1.8c0,0.7-0.1,1.6,0.1,2.3c0,0.2,0.2,0.4,0.5,0.2c0.9-0.5,1.5-1.2,2.3-1.8
				c0.4,0.8,0.7,1.7,1.2,2.5c0.4,0.6,0.6,0.9,1.1,0.9c0.4,0,0.5-0.8,0.9-2c0.1-0.4,0.2-0.8,0.3-1c0.4,1,1.2,1.7,2,2.5
				c0.2,0.2,0.5,0.3,0.8,0.2c0.4-0.5,0.4-1.7,0.5-2.6c0.3,0.2,0.7,0.5,1.1,0.7c0.6,0.3,1,0.6,1.6,0.8c0.9,0.2,0.1-2-0.2-3
				c-0.2-0.4-0.3-0.7-0.4-1.1c0-0.1,0.1-0.3,0.1-0.4c0.2-0.6,0.5-1.2,0.7-2.2C-3.1,12.2-3.4,11-4,10c-0.4-0.5-0.9-1-1.4-1.2
				c0.5-0.2,1-0.6,1.1-1.1c0.2-0.6,0-1.5-0.6-1.9c0-0.3,0.2-0.7,0.2-1c0.1-0.7,0.3-1.7-0.4-2.1c0.4-0.2,0.5-0.3,0.9-0.5
				C-3.9,2-3.7,1.7-3.8,1.4C-4.1,1.2-4.2,1.1-4.6,1"/>
		</g>
		
			<g id="g3491_00000159446931960831699780000007309861241715242150_" transform="matrix(14.22196,0,0,-14.22196,999.89141,180.19392)">
			<path id="path3493_00000023271360906690436620000011974850263223121335_" inkscape:connector-curvature="0" class="st2" d="
				M-4.4,1c-0.2,0.3-0.2,0.6-0.1,0.9c0.2,0.4,0.7,0,1-0.1c0.2-0.1,0.8-0.4,0.6-0.6C-3.1,0.7-4.2,0.7-4.4,1"/>
		</g>
		
			<g id="g3495_00000027603299629036290850000004914676333382084531_" transform="matrix(14.22196,0,0,-14.22196,995.33618,120.7376)">
			<path id="path3497_00000057145052636804691330000011280717152272365710_" inkscape:connector-curvature="0" class="st0" d="
				M-4.3,0.3c-0.2-0.1-0.3-0.1-0.4-0.1c0,0.1,0.1,0.1,0.2,0.1c0.6,0.1,0.7,0.4,1,0.5c0,0,0.1-0.1,0-0.1C-3.8,0.5-3.9,0.4-4.3,0.3"/>
		</g>
		
			<g id="g3499_00000167355224674135406370000012879875598018065336_" transform="matrix(14.22196,0,0,-14.22196,1001.4615,15.559148)">
			<path id="path3501_00000129196786824599537640000003153554462664812723_" inkscape:connector-curvature="0" class="st0" d="
				M-4.4-0.9c-0.7-0.2-0.8-0.2-1.3-0.2C-6.5-1-7.2-0.7-7.7,0c0,0.1-0.1,0.1-0.2,0.4C-8.1,0.9-8,1.2-8,1.7c0.5,0.1,0.6,0,1.2,0.1
				c0.2-0.5,0.5-0.6,0.9-0.6c0.4,0.1,0.5,0.4,0.5,0.7C-4.6,1.9-4.2,2-3.4,2C-3,1.1-3,0.3-3.8-0.5C-3.9-0.7-4.1-0.8-4.4-0.9"/>
		</g>
		
			<g id="g3503_00000168092327492260747170000009633971346668807058_" transform="matrix(14.22196,0,0,-14.22196,984.14201,160.04141)">
			<path id="path3505_00000111161590753715922070000004048411606900729276_" inkscape:connector-curvature="0" class="st0" d="
				M-4.2,0.7C-5.1,0.7-6,0.9-6.9,1C-8,0.9-9,0.5-10,0.5c-0.1,0-0.2,0-0.2,0.1c0.1,0.8,0.3,1.9,0.7,2.7c0.2,0.1,0.3,0.1,0.6,0.2
				c0.3,0.1,0.5,0.2,0.8,0.3C-7.7,4-7.4,4.1-7.1,4.3c0,0-0.1-0.2-0.1-0.5c0.2-0.5,0.7-1,1.9-1c0.3,0,0.6,0,0.8,0
				c0.1-0.3,0.1-0.3,0.2-0.5c0-0.1,0-0.2,0-0.2C-4.1,1.7-4,1.3-3.9,0.8C-3.9,0.9-3.8,0.7-4.2,0.7"/>
		</g>
		
			<g id="g3507_00000098938956829929021340000009655018922509788842_" transform="matrix(14.22196,0,0,-14.22196,949.12903,92.084672)">
			<path id="path3509_00000157988214448999126700000005513111911562152369_" inkscape:connector-curvature="0" class="st0" d="
				M-3.8,0C-3.9-0.1-4-0.1-4-0.2c0,0-0.1,0-0.1,0C-4,0.1-3.7,0.2-3.4,0.1C-3.5,0-3.6,0.1-3.8,0"/>
		</g>
		
			<g id="g3511_00000153674500863678310120000003008154476996997270_" transform="matrix(14.22196,0,0,-14.22196,938.72709,54.113403)">
			<path id="path3513_00000021825757266953059090000003587278050315904420_" inkscape:connector-curvature="0" class="st2" d="
				M-3.7-0.5c-0.9,0.1-0.9,0.1-1.6,0.1C-4.9,0-4.4,0.4-4,0.5c0.2,0.1,0.6,0.1,1-0.1c0.3-0.1,0.4-0.2,0.4-0.2
				C-2.5-0.1-2.9-0.3-3.7-0.5"/>
		</g>
		
			<g id="g3515_00000072243535487805073370000010710345980921312438_" transform="matrix(14.22196,0,0,-14.22196,927.64385,33.753245)">
			<path id="path3517_00000005959807645707486870000000297051329456721334_" inkscape:connector-curvature="0" class="st2" d="
				M-3.5-0.7c-0.2-0.1-1-0.6-1.3-1c0.2,0.9,0.6,1.7,1.5,2c0.4,0.1,1-0.7,1.4-1.2C-2.3-0.7-2.9-0.4-3.5-0.7"/>
		</g>
		
			<g id="g3519_00000067957874611453650680000007958373621258294927_" transform="matrix(14.22196,0,0,-14.22196,955.30989,63.515598)">
			<path id="path3521_00000070831013847160549490000005217489243409496253_" inkscape:connector-curvature="0" class="st0" d="
				M-3.9-0.4c-0.4,0.2-0.9,0.2-1.2,0.2c-1.1-0.1-1.4-0.4-2.2-0.7C-7.4-1-8-1.6-7.4-1.2C-6.5-0.6-6-0.4-5.2-0.3
				C-4.7-0.3-4-0.2-3.5-0.8c0.4-0.6,0.2-0.8,0.1-1c0.1,0,0.1,0,0.2,0.1C-3.1-1.1-3.4-0.6-3.9-0.4"/>
		</g>
		
			<g id="g3523_00000096036383126791589230000005546630986550712981_" transform="matrix(14.22196,0,0,-14.22196,902.70002,19.613772)">
			<path id="path3525_00000093161169946628633960000004422548725787015863_" inkscape:connector-curvature="0" class="st0" d="
				M-3.3-0.9c-0.6-0.2-1.4-0.3-2.1-0.1c-0.8,0.3-1.3,0.8-1.4,1.6c0,0.1-0.1,0.2-0.1,0.5c0,0.2,0,0.4,0.1,0.8c0.8,0,0.9,0,1.4,0
				C-4.8,2-5,2-4.5,2c0-0.2,0.1-0.5,0.3-0.7c0.9-0.3,1,0.5,1.1,0.6c0.4,0,0.4,0,1,0C-1.9,1.4-2,0.6-2.2,0C-2.5-0.4-2.8-0.7-3.3-0.9"
				/>
		</g>
		
			<g id="g3527_00000161596112276269469080000015028166995600386726_" transform="matrix(14.22196,0,0,-14.22196,878.08886,185.91684)">
			<path id="path3529_00000183933033007656828470000012277688331018616733_" inkscape:connector-curvature="0" class="st2" d="M-3,1
				C-3.7,1-5,0.9-5,1.1c0,0,0,0.2,0,0.2c0.2,0.6,2,0.8,2.1,0.6C-2.7,1.7-2.4,1.1-3,1"/>
		</g>
		
			<g id="g3531_00000177456173470532411800000008281439308981776264_" transform="matrix(14.22196,0,0,-14.22196,884.03364,120.63952)">
			<path id="path3533_00000127027064788434875730000016812620516223136918_" inkscape:connector-curvature="0" class="st0" d="
				M-3,0.3c-0.2,0-0.5,0.1-0.6,0.2c0.2,0,0.4,0,0.7,0C-2.9,0.4-2.9,0.3-3,0.3"/>
		</g>
		
			<g id="g3535_00000031177916840250158460000004540351938577166745_" transform="matrix(14.22196,0,0,-14.22196,1045.8355,141.9042)">
			<path id="path3537_00000012465065905962136040000000310153930579666584_" inkscape:connector-curvature="0" class="st0" d="
				M-4.9,0.5C-4.5,0.5-4,0.4-3.6,0.3c0.6-0.1,1.1-0.1,1.7-0.2C-1.7-0.3-1.5-0.6-1.4-1C-1.3-1.5-1-2.1-1-2.7c-0.6,0-1.1,0.1-1.7,0.2
				C-3.9-2.3-5-2-6.1-1.8c-0.1,0.1,0,0.3,0,0.4C-6-1-6.5-1.4-6.7-1c0,0-0.2,0-0.3,0C-7-1-7.1-1.1-7.1-1.1c-0.2-0.1-0.4,0.4-0.6,0.3
				C-7.9-0.6-8-1-8.1-0.8C-7.9-0.4-7,0.7-6.8,1C-6.2,0.9-5.5,0.7-4.9,0.5"/>
		</g>
		
			<g id="g3539_00000129911429586875111070000017565250206913538443_" transform="matrix(14.22196,0,0,-14.22196,1013.8645,132.27878)">
			<path id="path3541_00000143597978853769559050000011983311760822061738_" inkscape:connector-curvature="0" class="st3" d="
				M-4.5,0.4l0.8-0.2c-0.2-0.4-0.9-1.7-0.9-1.8C-6.8-2.3-5.7-2-5.9-1.4C-5.8-1.2-5,0-4.5,0.4"/>
		</g>
		
			<g id="g3543_00000070104306555846263320000009581460845775801728_" transform="matrix(14.22196,0,0,-14.22196,1047.5023,140.68111)">
			<path id="path3545_00000147926111562724460400000000811120896292059023_" inkscape:connector-curvature="0" class="st3" d="
				M-4.9,0.5l1-0.2c0-0.5,0-2.2-0.1-2.8l-1.8,0.4C-5.6-1.6-5.3-0.3-4.9,0.5"/>
		</g>
		
			<g id="g3547_00000172439378119290581140000005253896676223653038_" transform="matrix(14.22196,0,0,-14.22196,1097.8352,148.69513)">
			<path id="path3549_00000181065722487564759630000009528616689040244648_" inkscape:connector-curvature="0" class="st3" d="
				M-5.5,0.6c0,0,1.1-2.1,0.8-2.9l-0.4,0l-1.1,0.1C-5.9-1-6.3,0.7-6.3,0.7L-5.5,0.6z"/>
		</g>
		
			<g id="g3551_00000140703579555718226980000012662692032439718065_" transform="matrix(14.22196,0,0,-14.22196,1111.1684,196.09692)">
			<path id="path3553_00000078745381377422597470000004102574068394260372_" inkscape:connector-curvature="0" class="st1" d="
				M-5.6,1.1c-0.6,0-1.1,0.1-1.7,0.2C-8.5,1.5-9.6,1.8-10.7,2c-0.1,0.1,0,0.3,0,0.4c0,0.4-0.3,0-0.4,0.4c0,0-0.3-0.1-0.4-0.1
				c-0.1,0-0.4,0.1-0.4,0c-0.2-0.1-0.7,0.1-1,0.1C-13,3-12.6,2.8-12.7,2.9c0.2,0.4,1.1,1.6,1.3,1.9c0.6-0.2,1.2-0.4,1.9-0.5
				c0.4-0.1,0.8-0.2,1.3-0.2C-7.6,4-7.1,4-6.5,3.9C-6.3,3.5-6.1,3.2-6,2.8C-5.9,2.3-5.6,1.7-5.6,1.1 M-3.7,8.2
				c0.1,0.2,0.2,0.5,0.4,0.7c0.1,0.5,0.2,1,0.1,1.5c-0.1,0.5-0.4,1-0.8,1.3c-0.4,0.3-0.7,0.5-1.2,0.6c-0.8,0.1-1.5-0.2-2.1-0.7
				c0,0-0.2-0.2-0.3-0.4c-0.1,0.5-0.3,0.9-0.6,1.3c-0.4,0.4-0.9,0.7-1.5,0.8c-0.5,0-1.1-0.1-1.6-0.4c-0.3-0.2-0.6-0.5-0.8-0.9
				c-0.3-0.5-0.4-1.2-0.3-1.8c0-0.1,0.1-0.3,0.1-0.4c-0.1-0.1-0.3-0.3-0.4-0.4C-12.8,9.3-12.9,9.1-13,9c-0.1-0.1-0.1-0.3-0.2-0.4
				c-0.1-0.2-0.1-0.4-0.2-0.7c0-0.2,0-0.4,0-0.6c0-0.3,0.1-0.6,0.2-0.8c-0.1-0.1-0.1-0.2-0.1-0.2c-0.2,0-0.4,0-0.5-0.1
				c-0.2-0.1,0-0.4-0.1-0.5c-0.2-0.1-0.5-0.1-0.6-0.2c-0.1-0.2,0-0.4,0.1-0.5c0.2-0.2,0.3-0.4,0.5-0.6c0.1-0.1,0.9-0.7,1-0.9
				c-0.1-0.1-0.2-0.5-0.3-0.6c-0.1-0.2-0.5-0.3-0.5-0.3c0-0.1,0.1-0.1,0.1-0.2c0-0.4-0.4-0.2-0.2-0.5c0.1-0.3,0.3-0.5,0.6-0.7
				C-13,1-12.7,1-12.5,0.9c0.4,0,0.8,0,1.1,0.2c0.2,0.2,0.3,0.3,0.5,0.5c0.5-0.1,0.9-0.2,1.4-0.3c0-0.2,0.1-0.4,0.1-0.6
				c0.1-0.2,0.2-0.5,0.5-0.6c0.3-0.1,0.5,0.1,0.8,0.1l0,0c0.2-0.2,0.4-0.6,0.8-0.6c0.3,0.1,0.5,0.3,0.8,0.4C-6.3,0-6.1-0.3-5.9-0.3
				l0,0h0.1c0.1,0,0.2,0,0.3,0.1c0.2,0.2,0.3,0.5,0.3,0.8C-5.3,1-5.3,1.5-5.4,1.9l0,0C-5.2,1.9-5.1,2-5,2c0.3,0.1,0.5,0.2,0.8,0.3
				C-4,2.4-3.7,2.6-3.5,2.8C-3.5,2.9-3.4,3-3.3,3.1c0,0.3-0.3,0.4-0.5,0.5l0,0c0,0.1,0.1,0.3,0.1,0.4c0,0.3-0.4,0.2-0.5,0.3
				c0,0.1,0,0.2,0,0.4c0.3,0.4,0.5,0.9,0.6,1.4c0,0.3,0,0.6-0.1,0.9c0,0.2-0.1,0.4-0.2,0.7c0,0.1,0,0.1-0.1,0.2
				C-3.9,8-3.7,8.1-3.7,8.2"/>
		</g>
		
			<g id="g3555_00000070107398060988303910000003015183723399618223_" transform="matrix(14.22196,0,0,-14.22196,1057.6682,1.3229658)">
			<path id="path3557_00000018916707646368602130000008893628227446975394_" inkscape:connector-curvature="0" class="st0" d="
				M-5-1.1c0.2-0.1,0.4-0.3,0.5-0.5c0.1-0.2,0.2-0.4,0.3-0.6c0.1-0.3,0.1-0.7,0.1-1.1c0-0.3-0.1-0.5-0.2-0.7
				c-0.1-0.2-0.2-0.5-0.5-0.7c-0.4-0.3-0.8-0.5-1.3-0.5c-0.4,0-0.8,0.1-1.2,0.3c-0.2,0.1-0.5,0.3-0.6,0.6C-8.3-3.7-8.4-3-8.2-2.4
				C-8.1-2-7.9-1.6-7.6-1.3C-7.3-1-6.8-0.8-6.4-0.8C-5.9-0.7-5.4-0.8-5-1.1"/>
		</g>
		
			<g id="g3559_00000157276861266909342450000004887288534704991879_" transform="matrix(14.22196,0,0,-14.22196,1125.0845,14.545065)">
			<path id="path3561_00000081628357724267398320000001967036654595865015_" inkscape:connector-curvature="0" class="st0" d="
				M-5.8-0.9C-5.5-1-5.2-1.2-5-1.4c0.2-0.2,0.3-0.4,0.4-0.6c0.1-0.2,0.1-0.3,0.1-0.5c0-0.3,0-0.5,0-0.8C-4.6-3.6-4.6-3.8-4.7-4
				C-4.8-4.1-4.8-4.4-5-4.5c-0.2-0.2-0.3-0.3-0.5-0.4C-5.6-4.9-5.8-5-5.9-5c-0.3,0-0.6,0-0.8,0C-7-4.9-7.2-4.9-7.4-4.8
				c-0.3,0.1-0.5,0.3-0.7,0.4C-8.2-4.3-8.3-4.1-8.3-4c-0.1,0.1-0.1,0.3-0.2,0.4c0,0.2-0.1,0.4-0.1,0.6c0,0.2,0.1,0.4,0.1,0.7
				C-8.4-2-8.3-1.7-8-1.4C-7.7-1.2-7.4-1-7.1-0.9C-6.7-0.8-6.2-0.8-5.8-0.9"/>
		</g>
		
			<g id="g3563_00000063631552516088127630000015037881524992291503_" transform="matrix(14.22196,0,0,-14.22196,1056.2517,28.738582)">
			<path id="path3565_00000096025124293913039600000018181427904973818021_" inkscape:connector-curvature="0" class="st1" d="
				M-5-0.8C-4.8-0.8-4.7-1-4.6-1.2c0-0.1,0.1-0.3,0-0.4c0-0.1-0.1-0.2-0.2-0.3C-5-2-5.2-2-5.3-2c-0.1,0-0.3,0.1-0.3,0.2
				c-0.1,0.1-0.1,0.3-0.1,0.4c0,0.2,0.1,0.3,0.2,0.5c0.1,0.1,0.1,0.1,0.2,0.1C-5.3-0.7-5.1-0.7-5-0.8"/>
		</g>
		
			<g id="g3567_00000069363890481507870190000006702559475421403827_" transform="matrix(14.22196,0,0,-14.22196,1097.0289,38.044067)">
			<path id="path3569_00000003790769968602279100000015628057346149960377_" inkscape:connector-curvature="0" class="st1" d="
				M-5.5-0.7c0.1,0,0.2-0.1,0.3-0.2C-5-1-5-1.2-5-1.4c-0.1-0.2-0.2-0.4-0.4-0.5c-0.2-0.1-0.4,0-0.5,0C-6-1.7-6.1-1.7-6.2-1.5
				c-0.1,0.2-0.1,0.4,0,0.6C-6.1-0.8-6-0.7-5.8-0.7C-5.7-0.7-5.6-0.6-5.5-0.7"/>
		</g>
		
			<g id="g3571_00000037693728461660128500000001159396680722206082_" transform="matrix(14.22196,0,0,-14.22196,1049.5573,136.79283)">
			<path id="path3573_00000063591300430392373160000008211860357512819592_" inkscape:connector-curvature="0" class="st4" d="
				M-4.9,0.5c-0.1,0-0.2,0.1-0.3,0.1c-0.4,0.1-0.9,0.2-1.3,0.4C-7,1-7.4,1.2-7.7,1.4c-0.2,0.2-0.4,0.4-0.6,0.6
				c-0.2,0.2-0.3,0.5-0.4,0.8c0,0.2,0,0.4,0,0.6c0,0.3,0.1,0.6,0.2,0.9c0.1,0.3,0.3,0.5,0.4,0.7C-8,5.2-7.9,5.3-7.8,5.4l0,0
				C-7.7,5.1-7.5,5-7.4,4.8c0.1-0.1,0.2-0.2,0.3-0.3c0.2-0.1,0.4-0.2,0.6-0.3c0.1-0.1,0.3-0.1,0.4-0.1c0.5,0,0.9,0,1.4,0.1
				C-4.4,4.3-4.2,4.5-4,4.7C-3.8,4.8-3.7,5-3.6,5.2h0c0-0.1,0.1-0.3,0.1-0.4c0.1-0.2,0.2-0.4,0.3-0.6C-3,3.9-2.8,3.8-2.6,3.6
				c0.2-0.1,0.3-0.1,0.5-0.2c0.3-0.1,0.6-0.2,1-0.2c0.2,0,0.4,0,0.6,0.1C-0.3,3.3-0.1,3.4,0,3.5c0,0,0.1-0.1,0.1-0.1
				C0.3,3,0.3,2.6,0.3,2.2c0-0.2,0-0.4-0.1-0.6c-0.1-0.4-0.3-0.7-0.6-1c-0.1-0.1-0.3-0.2-0.5-0.3C-1.1,0.1-1.5,0-1.8,0
				c-0.3,0-0.6,0.1-1,0.1c-0.5,0.1-1.1,0.1-1.6,0.3L-4.9,0.5z"/>
		</g>
		
			<g id="g3575_00000171686518010647908920000012075822293294742461_" transform="matrix(14.22196,0,0,-14.22196,987.57235,112.57135)">
			<path id="path3577_00000168081414665143960380000000478076155337235864_" inkscape:connector-curvature="0" class="st4" d="
				M-4.2,0.2C-4.1,0-3.9-0.2-3.7-0.4C-3.5-0.6-3.3-0.7-3-0.9c-0.1-0.2-0.3-0.5-0.5-0.7C-3.7-1.7-3.8-2-4-2.2c-0.1-0.1-0.1-0.1-0.1,0
				c-0.3,0.2-0.7,0.6-1,0.9C-5.2-1.2-5.4-1-5.5-0.8c0,0-0.1,0.1,0,0.1C-5.4-0.6-5.2-0.6-5-0.6c0.1,0,0.1,0.1,0.2,0.2
				c0,0.1-0.1,0.4,0,0.4c0,0.1,0.3,0,0.4,0C-4.3,0-4.3,0.2-4.2,0.2"/>
		</g>
		
			<g id="g3579_00000016777225744480527850000010540400452678919581_" transform="matrix(14.22196,0,0,-14.22196,1113.7511,176.38961)">
			<path id="path3581_00000070106134985418868090000010972757961389017236_" inkscape:connector-curvature="0" class="st4" d="
				M-5.7,0.9C-5.7,0.9-5.6,0.9-5.7,0.9c0.5,0,0.9,0.2,1.3,0.4c0.2,0.1,0.5,0.3,0.5,0.4c0,0.1-0.3,0.2-0.4,0.3
				c-0.1,0.2,0.1,0.4,0.1,0.5c-0.1,0.1-0.3,0.1-0.4,0.1c-0.1,0-0.1,0.1-0.1,0.1c0,0.1,0,0.2,0,0.2c-0.3-0.2-0.6-0.4-1-0.5
				c-0.2-0.1-0.4-0.1-0.6-0.1l0,0C-6.1,2.1-6,1.9-5.9,1.5C-5.8,1.3-5.7,1.1-5.7,0.9"/>
		</g>
		
			<g id="g3583_00000107580662828915310720000008794712096688927633_" transform="matrix(14.22196,0,0,-14.22196,1099.9742,201.27804)">
			<path id="path3585_00000123416167750183094250000011081582519732177039_" inkscape:connector-curvature="0" class="st4" d="
				M-5.5,1.2c0.3,0,0.5,0,0.7-0.1c0.1-0.2,0-0.4,0-0.6c0-0.1-0.1-0.2-0.2-0.2c-0.3,0.1-0.5,0.4-0.8,0.5c-0.3,0.1-0.5-0.2-0.7-0.3
				c-0.1,0-0.1-0.1-0.2-0.1C-6.9,0.6-7,1-7.4,1C-7.5,1-7.7,1-7.9,0.9c-0.1,0-0.1,0-0.2,0c-0.2,0.2-0.3,0.5-0.3,0.8c0,0,0,0,0,0
				C-7.4,1.4-6.5,1.3-5.5,1.2"/>
		</g>
		
			<g id="g3587_00000144321661952206167890000011191570851344350909_" transform="matrix(14.22196,0,0,-14.22196,1103.9734,111.93136)">
			<path id="path3589_00000021118471650058820640000010753977306837582778_" inkscape:connector-curvature="0" class="st5" d="
				M-5.6,0.2c0,0.4,0.3,0.7,0.7,0.7c0.4,0,0.7-0.3,0.7-0.7s-0.3-0.7-0.7-0.7C-5.2-0.5-5.6-0.2-5.6,0.2"/>
		</g>
		
			<g id="g3591_00000153673909459123591550000008774940291620264321_" transform="matrix(14.22196,0,0,-14.22196,994.14153,87.919002)">
			<path id="path3593_00000150066542138311935400000006818679700482546053_" inkscape:connector-curvature="0" class="st5" d="
				M-4.3-0.1c0,0.4,0.3,0.7,0.7,0.7c0.4,0,0.7-0.3,0.7-0.7c0-0.4-0.3-0.7-0.7-0.7C-4-0.8-4.3-0.5-4.3-0.1"/>
		</g>
		
			<g id="g3595_00000069387535257881331710000004451434405841105811_" transform="matrix(14.22196,0,0,-14.22196,1095.2796,125.61152)">
			<path id="path3597_00000127027051869598012800000018437930506118632378_" inkscape:connector-curvature="0" class="st1" d="
				M-5.5,0.3L-5.5,0.3C-6.9-0.4-8-0.4-8-0.4h0l0,0c0,0-1.1,0.6-1.9,1.8c-0.1,0.1,0,0.2,0,0.2c0.1,0.1,0.2,0,0.2,0
				C-9,0.5-8.2,0-8-0.1c0.2,0,1.2,0.1,2.4,0.7c0.1,0,0.2,0,0.2-0.1C-5.3,0.5-5.4,0.4-5.5,0.3"/>
		</g>
		
			<g id="g3599_00000178899734368541405230000003323691474796590762_" transform="matrix(14.22196,0,0,-14.22196,866.42264,166.04171)">
			<path id="path3601_00000018939575870221106620000009773635531967374506_" inkscape:connector-curvature="0" class="st0" d="
				M-2.8,0.8c0,0,0.6-0.3,1.4-0.2c0.6,0.1,0.2-0.6,0.2-0.6l-1.1-1.4l-0.9,0.3L-2.8,0.8z"/>
		</g>
		
			<g id="g3603_00000017495418525859869930000006646786042756518030_" transform="matrix(14.22196,0,0,-14.22196,353.02831,187.70881)">
			<path id="path3605_00000053502783069873577920000004050645889903119011_" inkscape:connector-curvature="0" class="st0" d="M3,1
				C3,1,3,1,2.5,1c0,0,0.1,1.1,0,1.5C2.5,2.8,2.2,3.3,2.5,3.3c0.3,0,0.6-0.3,0.6-1C3.1,1.7,3,1,3,1"/>
		</g>
		
			<g id="g3607_00000113331351764938915930000006047656969435630766_" transform="matrix(14.22196,0,0,-14.22196,241.37887,127.36219)">
			<path id="path3609_00000106138746386150581210000016071630776916832402_" inkscape:connector-curvature="0" class="st0" d="
				M4.3,0.4c0,0-0.3,0.1-0.3,0.3c-0.1,0.2,0.5,1,1.6,0.5c1-0.5,1.6-1.6,1.5-1.8c0-0.1-0.7-0.3-0.8,0c-0.1,0.4-0.5,1.1-1,1
				C4.8,0.4,4.3,0.4,4.3,0.4"/>
		</g>
		
			<g id="g3611_00000147898450988630042660000013158916365001363849_" transform="matrix(14.22196,0,0,-14.22196,392.95936,-15.774675)">
			<path id="path3613_00000097470165325892786850000004706778128357833131_" inkscape:connector-curvature="0" class="st1" d="
				M2.6-1.3c0.3-0.6,0.1-1.3,0-1.9C2.3-3.8,2.1-4.3,1.8-4.8C1.9-5.3,2-5.7,2.1-6.2c0-0.3,0-0.7-0.1-1l0,0c0.6,0,1.3,0.1,1.8-0.1
				c0,0,0.1-0.1,0-0.1l-0.1,0C3.2-7.5,2.5-7.4,2-7.5C1.9-7.7,1.8-7.9,1.7-8C1.6-8.2,1.5-8.5,1.4-8.7C2-9,2.6-9.3,3.2-9.5
				c0,0,0.1-0.1,0.1-0.1c-0.1-0.2-0.3,0-0.5,0C2.2-9.4,1.7-9.1,1.2-8.9c-0.7-0.7-1.5-1-2.4-1.3c0,0-0.1,0-0.1,0
				c0.6-0.5,1-1.1,1.3-1.7c0.1-0.3,0.1-0.7-0.1-0.9C-0.3-13-0.5-13.1-0.7-13c-0.1,0-0.2,0.1-0.3,0.2c0.2,0.4,0.1,1,0.1,1.4
				c-0.1,0.1,0,0.3-0.2,0.3c0,0,0-0.1,0-0.1c0.2-0.5,0.1-1.1,0-1.6c0.2-0.3,0.7-0.4,1.1-0.5c0.5,0,1,0.3,1.3,0.7
				c0.3,0.3,0.4,0.8,0.7,1.1c0.1,0.1,0.3,0.2,0.4,0.2c0.1-0.1,0.1-0.2,0.1-0.3c-0.2-0.7-0.8-1.3-1.3-1.8c-0.5-0.4-1.2-0.5-1.8-0.3
				c-0.3,0.1-0.5,0.2-0.7,0.4c-0.1-0.4,0.2-0.7,0.3-1.1c0-0.1,0-0.3-0.1-0.4C-1.5-15-1-14.5-1.4-14.5c-0.2,0-0.7-0.1-0.8,0
				c-0.1,0.3-0.6,0.3-0.7,0.6c0,0,0,0.1-0.1,0.1c0,0-0.1,0-0.1-0.1c0-0.3,0-0.5,0-0.8c0-0.1-0.1-0.2-0.2-0.3c-0.4-0.1-0.9-0.1-1.3,0
				c-0.1,0.1-0.4,0.1-0.4,0.3c0,0.3,0.1,0.5,0.2,0.8c0,0.2,0,0.4,0,0.6c-0.2,0.4-0.4,0.9-0.4,1.5c-0.6,0.4-1.3,1-1.7,1.7
				c-0.1,0.2-0.1,0.6,0.1,0.8C-6.5-9.1-6.3-9-6-9c0.6-0.1,1.1-0.8,1.4-1.2c0,0,0.1,0,0.2,0l0,0c-0.3,0.5-0.7,1-1.2,1.2
				c-0.2,0.1-0.6,0.2-0.8,0c-0.2-0.1-0.4-0.3-0.4-0.4l0,0C-7-9.3-7.2-9.2-7.4-9.1C-8-9.3-8.6-9.7-9.3-9.8c0,0-0.1,0-0.1,0.1
				c0,0,0,0.1,0,0.1c0.2,0.1,0.5,0.2,0.7,0.3c0.3,0.1,0.7,0.3,1,0.5c-0.3,0.4-0.4,0.7-0.6,1.2l-0.1,0c-0.6,0-1.2,0-1.8-0.1
				c0,0-0.1,0-0.1,0.1c0,0.1,0.1,0.1,0.1,0.1c0.5,0.1,1.2,0.1,1.7,0.1c-0.1,0.6-0.1,1.3,0,1.9c0.1,0.2,0.1,0.4,0.2,0.5
				c-0.5,0.7-0.8,1.6-1,2.4c0,0.5-0.1,1,0.4,1.3C-8-0.9-7.3-1.3-6.7-1.5c0.3-0.2,0.6-0.4,0.9-0.6C-4.9-1.7-4-1.6-2.9-1.6
				c0.8,0,1.7-0.2,2.4-0.5C0.2-1.5,1-1.1,1.9-1C2.2-1,2.4-1.1,2.6-1.3"/>
		</g>
		
			<g id="g3615_00000174562265659099689680000004754542292761417890_" transform="matrix(14.22196,0,0,-14.22196,382.1947,-6.1634741)">
			<path id="path3617_00000063607517781087562010000006444126873861168556_" inkscape:connector-curvature="0" class="st6" d="
				M2.7-1.2C2.9-1.4,2.8-1.7,2.8-2C2.6-2.5,2.4-2.9,2.2-3.4h0C1.8-2.8,1.4-2.3,0.9-1.9l0,0c0.4,0.4,0.9,0.6,1.4,0.8
				C2.4-1.1,2.6-1,2.7-1.2"/>
		</g>
		
			<g id="g3619_00000058561879197360081530000011496167950097891464_" transform="matrix(14.22196,0,0,-14.22196,225.96226,-3.0389663)">
			<path id="path3621_00000007430860580760660860000013449946971928847542_" inkscape:connector-curvature="0" class="st6" d="
				M4.5-1.1c0.3-0.2,0.6-0.3,0.9-0.5l0,0C5.1-1.8,4.9-2.1,4.7-2.3C4.4-2.6,4.2-2.9,4.1-3.2h0C3.7-2.6,3.3-2,3.4-1.3
				c0,0.2,0.1,0.3,0.3,0.3C3.9-0.9,4.2-1,4.5-1.1"/>
		</g>
		
			<g id="g3623_00000151534359428096332580000001568546488026651282_" transform="matrix(14.22196,0,0,-14.22196,356.68199,70.876884)">
			<path id="path3625_00000016045748374696073050000016371384567093422754_" inkscape:connector-curvature="0" class="st0" d="
				M3-0.3c0.2-0.3,0.2-0.8,0.1-1.1C2.9-1.8,2.5-2.1,2.1-2.2c-0.5-0.1-0.9,0-1.2,0.4C0.6-1.4,0.5-0.8,0.7-0.4C0.9,0,1.4,0.3,1.8,0.3
				C2.3,0.3,2.7,0.1,3-0.3"/>
		</g>
		
			<g id="g3627_00000114768886180396498370000001432361418183312797_" transform="matrix(14.22196,0,0,-14.22196,276.54408,75.419379)">
			<path id="path3629_00000078741775992020959360000006799466010484463293_" inkscape:connector-curvature="0" class="st0" d="
				M3.9-0.2C4-0.7,3.9-1.1,3.7-1.5C3.4-1.8,2.9-2,2.5-2C2-1.9,1.6-1.5,1.5-1C1.3-0.5,1.5,0,1.9,0.3c0.3,0.3,0.8,0.3,1.3,0.2
				C3.5,0.4,3.8,0.1,3.9-0.2"/>
		</g>
		
			<g id="g3631_00000049208283537892266940000007293247567001975718_" transform="matrix(14.22196,0,0,-14.22196,336.07152,78.238171)">
			<path id="path3633_00000099646251302936645920000002721635601074645429_" inkscape:connector-curvature="0" class="st1" d="
				M3.2-0.2c0.1-0.2,0.1-0.4,0-0.6C3.1-0.9,2.9-1,2.8-1C2.6-1,2.4-0.8,2.3-0.7c-0.1,0.2,0,0.4,0.1,0.6C2.6,0,2.7,0.1,2.9,0
				C3,0,3.2-0.1,3.2-0.2"/>
		</g>
		
			<g id="g3635_00000053510895862424345670000001086132889736421763_" transform="matrix(14.22196,0,0,-14.22196,271.336,79.196731)">
			<path id="path3637_00000156575910152162904400000008657158259123715257_" inkscape:connector-curvature="0" class="st1" d="
				M3.9-0.2C4-0.4,4.1-0.6,4-0.7C3.9-0.9,3.7-1,3.6-1C3.4-1,3.3-1,3.2-0.9C3-0.7,3-0.5,3.1-0.2C3.1-0.1,3.3,0,3.5,0
				C3.7,0.1,3.8,0,3.9-0.2"/>
		</g>
		
			<g id="g3639_00000052813819851506801700000011454476090930921403_" transform="matrix(14.22196,0,0,-14.22196,303.71087,103.23753)">
			<path id="path3641_00000008842202839872470670000011524657531237448359_" inkscape:connector-curvature="0" class="st7" d="
				M3.6,0.1c0-0.1,0-0.2,0-0.3C3.4-0.4,3.2-0.4,3-0.4c-0.1,0-0.2,0.1-0.3,0.2C2.6,0,2.7,0.2,2.8,0.3C3,0.4,3.2,0.4,3.3,0.3
				C3.4,0.3,3.5,0.2,3.6,0.1"/>
		</g>
		
			<g id="g3643_00000087377017849033295160000002049367103826870948_" transform="matrix(14.22196,0,0,-14.22196,273.57169,136.58371)">
			<path id="path3645_00000101078504421088677240000008177033249077751942_" inkscape:connector-curvature="0" class="st8" d="
				M3.9,0.5c0.8-0.2,2.3-0.1,3.1,0.1c0,0-0.2-0.3-0.5-0.4C6.3,0,5.8-0.2,5.2-0.1c-0.3,0-0.6,0-1,0.2C3.9,0.2,3.7,0.5,3.8,0.5
				C3.9,0.5,3.9,0.5,3.9,0.5"/>
		</g>
		
			<g id="g3647_00000054961142969326888680000011763985885963414688_" transform="matrix(14.22196,0,0,-14.22196,512.81772,118.2516)">
			<path id="path3649_00000027574893626396622190000014671868864549521799_" inkscape:connector-curvature="0" class="st1" d="
				M1.2,0.3"/>
		</g>
		
			<g id="g3651_00000141450037985605481610000001674802238665514886_" transform="matrix(14.22196,0,0,-14.22196,523.34481,-33.759766)">
			<path id="path3653_00000003812970746641572260000013066308993153488800_" inkscape:connector-curvature="0" class="st1" d="
				M1.1-1.5c0.1,0.7,0.1,1.3,0.1,1.8c0,0.4,0.1,0.7,0.1,1C1,2.5,0.1,3.2-1.2,3.3c-0.3,0-0.7,0-1-0.1c0,0-0.1,0-0.1,0
				C-2.2,4-2.2,5.3-2.4,6c-0.1,0.5-0.5,0.8-0.9,1c-0.5,0.2-1,0.2-1.6-0.1C-5.5,6.7-6,6.1-6.4,5.1c-0.6-1.2-1.2-4-1.3-5.3
				c-1.5-0.9-2.6-2.8-2.6-4.4c0-0.3,0-0.6,0.1-0.9C-9.9-6.9-9-7.7-7.5-8.3c0,0,0,0,0-0.1c-0.1-0.1-0.2-0.1-0.3-0.2
				C-8-8.7-8.1-8.9-8.3-8.9c-0.1,0-0.1-0.1-0.1-0.2C-8.2-9.3-8-9.5-7.7-9.7c0,0,0-0.1,0-0.1C-7.9-10-8-10.4-7.9-10.7
				c0-0.2,0.1-0.4,0.3-0.5c0.1-0.1,0.3-0.1,0.4-0.2c0,0,0,0,0,0c0-0.5,0.1-0.9,0.3-1.2c0,0,0,0,0-0.1c0-0.1,0-0.4,0-0.7
				c0-0.2,0-0.5,0-0.6c-0.1-0.2-0.2-0.7,0-1.1c0.3-0.5,1-0.7,1.2-0.7c0.7-0.1,1.4,0,1.8,0.3c0.1,0.1,0.2,0.2,0.2,0.3c0,0,0,0,0,0
				c0.1-0.2,0.4-0.4,0.7-0.5c0.6-0.2,1.8,0,2.2,0.5c0.3,0.3,0.5,1,0.2,1.5c0,0-0.1,0.3-0.1,0.5c-0.1,0.3-0.1,0.5-0.2,0.8
				c0,0,0,0.1,0,0.1c0.1,0.2,0.1,0.3,0.1,0.5c0,0,0,0,0,0c0.1-0.1,0.2-0.1,0.3-0.2c0.3-0.2,0.7-0.1,0.9-0.1c0.2,0.1,0.4,0.3,0.5,0.5
				C1-11.3,0.9-11,0.8-10.7c-0.1,0.3-0.4,0.4-0.7,0.5c0,0,0,0,0,0.1C0-10-0.2-9.7-0.4-9.5c0,0,0,0,0,0c0.1,0.1,0.2,0.2,0.2,0.2
				C-0.1-9.2-0.1-9.1-0.3-9c-0.1,0-0.2,0.1-0.3,0.2c0,0-0.1,0.1-0.1,0.1c0,0,0,0,0,0c0.6,0.2,1.2,0.5,1.8,0.9
				c0.5,0.4,1.2,1.4,1.3,2.6c0,0.1,0,0.2,0,0.4C2.4-3.9,2.1-2.7,1.1-1.5"/>
		</g>
		
			<g id="g3655_00000018212471984168278610000014181126414500927674_" transform="matrix(14.22196,0,0,-14.22196,361.58424,56.168533)">
			<path id="path3657_00000108306200125944437380000012973641493519733403_" inkscape:connector-curvature="0" class="st0" d="
				M2.9-0.5c-0.2,0.6,0,1.2,0.2,1.5c0.5,0.8,1.3,1.3,2.6,1.5c1.5,0.2,3.1-0.1,3.7-0.4c1.3-0.5,2-1.1,2.2-1.9
				c0.2-0.6,0.1-1.7-1.1-2.2c0,0,0,0,0,0C9-2.4,7.7-2.3,7.2-2.2c-0.5,0.1-1,0.1-1.4,0.2c0,0,0,0,0,0c0,0,0,0.1,0,0.1
				c0,0.3-0.3,0.4-0.5,0.3C5.1-1.7,5-1.7,4.9-1.9c0,0,0,0-0.1,0C4.5-1.8,4.3-1.7,4.1-1.7C3.5-1.4,3.1-1,2.9-0.5"/>
		</g>
		
			<g id="g3659_00000069383868976207649160000005059032143953605801_" transform="matrix(14.22196,0,0,-14.22196,404.86166,112.63961)">
			<path id="path3661_00000083056345275372662200000014047789287101472428_" inkscape:connector-curvature="0" class="st3" d="
				M2.4,0.2C2.7,0.3,2.9,0.5,3,0.8C3.1,1,3.1,1.3,3,1.5c0,0,0,0,0,0c0.1,0,0.2,0,0.3,0c0,0,0,0,0,0C3.3,1.2,3.1,0.8,2.9,0.5
				c0,0-0.1-0.2-0.2-0.4c0,0,0,0-0.1,0C2.6,0.1,2.5,0.1,2.4,0.2C2.4,0.2,2.4,0.2,2.4,0.2"/>
		</g>
		
			<g id="g3663_00000029046050858721026180000002482828424462438573_" transform="matrix(14.22196,0,0,-14.22196,375.87594,90.530154)">
			<path id="path3665_00000096028377520783557960000006354818881503275161_" inkscape:connector-curvature="0" class="st3" d="
				M2.8-0.1C2.9,0,3,0.1,3,0.2c0,0,0,0,0,0c0,0,0,0,0-0.1C2.9-0.1,2.9-0.4,3-0.7c0,0,0,0,0,0c0,0,0,0-0.1,0C2.6-0.6,2.5-0.5,2.4-0.4
				C2.5-0.3,2.6-0.2,2.8-0.1"/>
		</g>
		
			<g id="g3667_00000178175306490925847580000009991979165343195273_" transform="matrix(14.22196,0,0,-14.22196,374.76515,121.64075)">
			<path id="path3669_00000175306456685385417150000003941328688980005530_" inkscape:connector-curvature="0" class="st0" d="
				M2.8,0.3c0,0.3,0.1,0.7,0.3,0.9c0,0,0.1,0.1,0.1,0.1c0,0,0,0,0,0c0.1-0.2,0.3,0,0.2,0.1C3.2,1.6,3.2,1.9,3.3,2.2
				c0.1,0.2,0.3,0.3,0.5,0.3c0-0.1,0.1-0.1,0.2,0c0.1,0.1,0.2,0.2,0.3,0.3c0.1,0,0.2,0,0.2-0.1c0-0.1,0-0.2,0-0.3
				c0-0.1,0.1-0.2,0.2-0.1C4.9,2,5,1.7,4.9,1.5C4.8,1.2,4.5,1,4.3,1c-0.2,0-0.2-0.2,0-0.2h0c0-0.4-0.3-0.9-0.7-1
				c-0.2,0-0.4,0-0.6,0.1C2.9,0,2.8,0.1,2.8,0.3"/>
		</g>
		
			<g id="g3671_00000097500270865085222520000017304964242565086392_" transform="matrix(14.22196,0,0,-14.22196,441.26283,180.5282)">
			<path id="path3673_00000134230094044799854290000012323651975357103233_" inkscape:connector-curvature="0" class="st0" d="M2,1
				c0,0.1,0,0.2,0.1,0.4c0-0.1,0.1-0.2,0.1-0.3C2.1,1,2.1,1,2,1C2,0.9,2,0.9,2,1"/>
		</g>
		
			<g id="g3675_00000182488744378159606550000016460701927389330352_" transform="matrix(14.22196,0,0,-14.22196,494.04052,105.58416)">
			<path id="path3677_00000033354295851767227550000011281765808832831152_" inkscape:connector-curvature="0" class="st0" d="
				M1.4,0.1c0.2-0.2,0.4-0.4,0.5-0.6C1.7-0.5,1.8-0.7,2-0.7c0.2,0,0.5,0,0.7-0.3c0.1-0.2,0.1-0.5,0-0.7c0-0.1-0.1-0.3-0.4-0.4
				C2.2-2.1,1.9-2.1,1.6-2C1.5-1.9,1.4-1.8,1.3-1.6c0,0,0,0.1,0,0.1c0,0.4-0.1,0.8-0.2,1C1-0.3,0.8-0.3,0.9-0.6
				C1.1-1.2,1-2.4,0.7-2.8C0.5-3.1,0.7-3.2,0.9-3c0,0,0,0,0,0C0.9-3.2,1-3.4,1-3.5C1.1-3.8,1.1-4,1.1-4.1C1.4-4.5,1.2-5,1-5.3
				C0.7-5.7-0.3-5.8-0.9-5.7c-0.2,0.1-0.5,0.2-0.6,0.6c0,0.2,0,0.6,0.3,0.8C-1-4.2-1.1-4-1.3-4.1c-0.1,0.2-0.2,0.4-0.3,0.6
				c0,0-0.1,0.1-0.1,0.1c-0.1,0-0.1,0-0.1-0.1C-1.9-3.7-1.9-3.9-2-4.1c-0.2,0-0.3-0.1-0.1-0.2c0.2-0.1,0.2-0.3,0.3-0.5
				c0-0.3-0.2-0.6-0.3-0.7c-0.3-0.2-0.9-0.3-1.5-0.2c-0.1,0-0.8,0.2-0.9,0.6c-0.1,0.2,0,0.6,0.1,0.9c0,0.1,0,0.3,0,0.7
				c0,0.1,0,0.2,0,0.3c0,0,0,0,0,0c0,0,0,0,0.1-0.1c0.2-0.1,0.3,0.1,0.2,0.2c-0.3,0.3-0.6,0.9-0.6,1.5c0,0,0,0,0.1,0.1
				C-4.3-1.5-4-1.1-3.9-0.7c0,0,0,0,0,0c0.2,0,0.3-0.1,0.4-0.1c0.1,0,0.1,0,0.1,0.1l0.2,0.5c0.2,0.4,0.4,0.8,0.4,1c0,0,0,0,0.1,0
				c0.1,0,0.2,0,0.4,0c0.1,0,0.3,0,0.5,0c0,0,0.1,0,0.1,0c0-0.1,0.1-0.3,0.2-0.4C-1.3,0-1.1-0.5-1-0.7c0,0,0.1-0.1,0.1-0.1
				C-0.1-0.8,0.8-0.3,1.4,0.1C1.4,0.1,1.4,0.1,1.4,0.1"/>
		</g>
		
			<g id="g3679_00000087375128727202113120000014047791124960251029_" transform="matrix(14.22196,0,0,-14.22196,487.98481,89.932832)">
			<path id="path3681_00000111911612523129566190000006969975121861933980_" inkscape:connector-curvature="0" class="st3" d="
				M1.5-0.1c0.1-0.1,0.2-0.2,0.3-0.3c0.1-0.1,0.1-0.1,0.2-0.2C1.6-0.8,0.5-1.6-0.4-1.6c-0.1,0.2-0.3,0.7-0.4,1
				c0,0.1-0.1,0.2-0.1,0.3c0,0,0,0,0,0C-0.2-0.3,0.6-0.3,1.5-0.1C1.4-0.1,1.5-0.1,1.5-0.1"/>
		</g>
		
			<g id="g3683_00000023982154246047896250000012338443348292270248_" transform="matrix(14.22196,0,0,-14.22196,539.95606,26.975059)">
			<path id="path3685_00000000194425896053969790000006913685294904435858_" inkscape:connector-curvature="0" class="st3" d="
				M0.9-0.8c-0.1-1.1-0.7-2-1.2-2.4c-0.2-0.2-0.5-0.4-0.8-0.5C-0.6-3-0.6-2.2-0.7-1.8c-0.2,0.9-1,1.5-2.4,2.1
				C-3.7,0.6-5.4,1-6.9,0.7C-8.2,0.6-9.2,0-9.7-0.8c-0.2-0.4-0.4-1.1-0.2-1.7C-9.8-2.8-9.7-3-9.6-3.2c-0.8,0.5-1.3,1.2-1.5,2.1
				c-0.4,1.7,0.7,4,2.4,5c0,0,0.1,0.1,0.1,0.1c0.1,1.2,0.8,4,1.3,5.3c0.4,0.9,0.8,1.4,1.4,1.7c0.4,0.2,0.9,0.2,1.3,0.1
				c0.3-0.1,0.6-0.4,0.7-0.8c0.2-0.7,0.2-2.1,0.1-2.9c0,0,0-0.1-0.1-0.1c-1.1-0.5-1.8-1.5-2.1-2.5c-0.1-0.5,0-0.9,0.2-1.3
				c0.2-0.3,0.7-0.6,1.2-0.6c1.2-0.1,2.5,0.5,3,1.7C-1.4,4.9-1.7,5-1.9,4.7C-2.4,3.6-3.4,3-4.5,3.1c-0.4,0-0.8,0.2-0.9,0.5
				c-0.2,0.3-0.2,0.6-0.1,1c0.3,1.3,1.7,2.6,3.2,2.6c1.1-0.1,1.9-0.6,2.2-1.7C-0.1,4.9,0.3,4,0,2.7c0-0.1-0.4-0.1-0.4-0.1
				C0.5,1.6,1,0.4,0.9-0.8"/>
		</g>
		
			<g id="g3687_00000158713779792716772680000007041197380768342412_" transform="matrix(14.22196,0,0,-14.22196,454.65275,173.37455)">
			<path id="path3689_00000088840869664989417410000014810467137636797119_" inkscape:connector-curvature="0" class="st1" d="
				M1.9,0.9C1.7,0.8,1.8,0.6,2,0.7c0.2,0.1,0.5,0.1,0.8,0c0.2,0,0.2,0.1,0.1,0.2C2.5,1.1,2.1,1,1.9,0.9"/>
		</g>
		
			<g id="g3691_00000023985463288091233310000009631696020786259116_" transform="matrix(14.22196,0,0,-14.22196,413.68076,172.56959)">
			<path id="path3693_00000153662954115172114030000010033180805736630438_" inkscape:connector-curvature="0" class="st1" d="
				M2.3,0.9c-0.2,0-0.1-0.2,0-0.2c0.2,0,0.7,0,0.9-0.1c0.2-0.1,0.2,0.1,0.1,0.2C3.1,0.9,2.6,0.9,2.3,0.9"/>
		</g>
		
			<g id="g3695_00000109711077008857554520000003024092399220917659_" transform="matrix(14.22196,0,0,-14.22196,381.93165,22.197959)">
			<path id="path3697_00000038398998539974203090000004737735529890421385_" inkscape:connector-curvature="0" class="st1" d="
				M2.7-0.8c-0.4-0.3-0.5-1-0.3-1.3C2.6-2.5,3-2.5,3.2-2.3C3.4-2.1,3.6-1.4,3.4-1C3.3-0.7,2.9-0.7,2.7-0.8"/>
		</g>
		
			<g id="g3699_00000055690412793603792350000017691340709438273183_" transform="matrix(14.22196,0,0,-14.22196,490.63715,30.863342)">
			<path id="path3701_00000140002012477267688430000013685349982339863714_" inkscape:connector-curvature="0" class="st1" d="
				M1.4-0.7c0.3-0.3,0.3-1.1,0.1-1.3c-0.3-0.3-0.6-0.2-0.8,0c-0.2,0.2-0.2,0.9,0,1.3C0.9-0.5,1.2-0.5,1.4-0.7"/>
		</g>
		
			<g id="g3703_00000012434617736448187870000002569080704851594375_" transform="matrix(14.22196,0,0,-14.22196,434.59694,74.001392)">
			<path id="path3705_00000024691592404407406120000006136921317208481968_" inkscape:connector-curvature="0" class="st1" d="
				M2.1-0.2C2.1-0.3,2-0.4,2-0.4c-0.1,0-0.1,0.1-0.1,0.2c0,0.1,0.1,0.2,0.1,0.2C2-0.1,2.1-0.2,2.1-0.2"/>
		</g>
		
			<g id="g3707_00000071523722831728070250000003154022785111905697_" transform="matrix(14.22196,0,0,-14.22196,425.15219,49.100219)">
			<path id="path3709_00000054962115116131847690000000060143063587351727_" inkscape:connector-curvature="0" class="st1" d="
				M2.2-0.5C2.2-0.8,2.4-1,2.7-1C3-1,3.3-0.9,3.3-0.6v0c0,0.1,0,0.2-0.1,0.3C3.1-0.2,2.9-0.2,2.8-0.1C2.5-0.1,2.2-0.3,2.2-0.5"/>
		</g>
		
			<g id="g3711_00000033330750313641707260000000623618855694174389_" transform="matrix(14.22196,0,0,-14.22196,434.18029,54.252778)">
			<path id="path3713_00000067936922259152263030000008530645295080740272_" inkscape:connector-curvature="0" class="st9" d="
				M2.1-0.5c-0.2,0-0.4,0.1-0.4,0.3C1.7,0,1.9,0.1,2.1,0C2.2,0,2.4,0,2.4-0.1c0,0,0.1-0.1,0.1-0.2C2.5-0.4,2.3-0.5,2.1-0.5"/>
		</g>
		
			<g id="g3715_00000028289916997035702180000011628009828390988453_" transform="matrix(14.22196,0,0,-14.22196,391.98658,214.91542)">
			<path id="path3717_00000164474384557645861300000005308957336057097614_" inkscape:connector-curvature="0" class="st0" d="
				M2.6,1.4c0,0-5.4,0.3-4.2,2.2c1.2,1.9,2.8,2.4,4,2.2c1.2-0.2,4.9-2.2,4.9-2.2L5.3,1L2.6,1.4z"/>
		</g>
		
			<g id="g3719_00000090974818516850943270000017993875342405941179_" transform="matrix(14.22196,0,0,-14.22196,364.43147,-69.883545)">
			<path id="path3721_00000114065573426711623330000010531131116861965189_" inkscape:connector-curvature="0" class="st1" d="
				M2.9-1.9C2.7-2.1,2.7-2.3,2.7-2.5c0,0,0,0,0,0C2.8-2.8,2.9-3,3.1-3.1C2.9-3.2,2.8-3.4,2.8-3.7c0-0.1,0-0.2,0-0.3
				c0-0.2,0.1-0.3,0.2-0.4c0.2-0.2,0.4-0.3,0.7-0.2c0.3,0,0.6,0.1,0.8,0.4c0.2-0.2,0.4-0.3,0.7-0.3c0.3,0,0.5,0,0.7,0.2
				C6.1-4.3,6.1-4,6.1-3.8c0,0.1,0,0.1,0,0.2c0,0.2-0.2,0.4-0.3,0.5C6-3,6.1-2.8,6.1-2.5c0,0.1,0,0.2,0,0.3c0,0.1-0.1,0.3-0.2,0.4
				C5.7-1.6,5.5-1.6,5.1-1.6c-0.3,0-0.6-0.2-0.7-0.3C4.2-1.7,4-1.6,3.7-1.6C3.3-1.5,3.1-1.7,2.9-1.9"/>
		</g>
		
			<g id="g3723_00000013871877622442269250000012382441385476850572_" transform="matrix(14.22196,0,0,-14.22196,378.47287,-27.051324)">
			<path id="path3725_00000183223464376491739720000003723705423051840166_" inkscape:connector-curvature="0" class="st0" d="
				M2.7-1.4c-0.2,0-0.4,0.1-0.5,0.2C2.1-1.1,2-0.9,2-0.7c0,0.2,0.2,0.4,0.3,0.5c0,0,0.1,0.1,0.1,0.1c0,0,0,0.1-0.1,0.1
				C2.2,0.1,2,0.3,2,0.5c0,0.1,0,0.3,0.1,0.5c0.2,0.2,0.5,0.2,0.6,0.2c0.3,0,0.5-0.2,0.6-0.4c0,0,0.1-0.1,0.1-0.1c0,0,0.1,0,0.1,0
				C3.6,1,3.9,1.2,4.2,1.2c0.2,0,0.4,0,0.6-0.2c0.1-0.1,0.2-0.3,0.2-0.5c0-0.2-0.2-0.4-0.3-0.5c0,0-0.1-0.1-0.1-0.1c0,0,0-0.1,0-0.1
				c0.2-0.2,0.3-0.4,0.4-0.6c0-0.2,0-0.3-0.2-0.4C4.6-1.3,4.5-1.4,4.2-1.4C4-1.3,3.7-1.2,3.6-1c0,0-0.1,0-0.1,0c0,0-0.1,0-0.1,0
				C3.2-1.3,3-1.4,2.7-1.4"/>
		</g>
		
			<g id="g3727_00000134972395800396429820000017114653124665896866_" transform="matrix(14.22196,0,0,-14.22196,380.37577,-48.579048)">
			<path id="path3729_00000057132663453329869740000014651819624535921580_" inkscape:connector-curvature="0" class="st1" d="
				M2.7-1.6c0-0.1,0.1-0.2,0.2-0.3C3-2.1,3.1-2.2,3.3-2.2c0.3,0,0.6,0.3,0.6,0.5c0,0.1-0.1,0.2-0.2,0.3C3.6-1.2,3.5-1.1,3.3-1.1
				C3-1.1,2.7-1.4,2.7-1.6"/>
		</g>
		
			<g id="g3731_00000100381320000728207700000010936955393277073562_" transform="matrix(14.22196,0,0,-14.22196,390.72219,-42.968542)">
			<path id="path3733_00000006695265400089697300000000036237244522355328_" inkscape:connector-curvature="0" class="st10" d="
				M2.6-1.6c-0.1,0-0.2,0-0.3,0.1C2.2-1.4,2.1-1.3,2.1-1.2c0,0.2,0.2,0.4,0.4,0.4c0.1,0,0.2,0,0.3-0.1c0,0,0.1-0.1,0.1-0.2
				c0,0,0,0,0-0.1C3-1.4,2.8-1.6,2.6-1.6"/>
		</g>
		
			<g id="g3735_00000121982513312722548720000015723126277028488381_" transform="matrix(14.22196,0,0,-14.22196,779.14668,89.54315)">
			<path id="path3737_00000160190472641646368870000007816689260158043271_" inkscape:connector-curvature="0" class="st1" d="
				M-1.8-0.1C0.2,0.3,2,1,3.3,2.7c0.1,0,0.1,0,0.2,0c0.5-0.1,1.1,0,0.4,0.3C3.8,3.1,3.6,3.1,3.6,3.3c0.2,0.5,0.3,1,0.6,1.4
				c0.3,0,0.5-0.1,0.8-0.2c0.3-0.1,0.7-0.3,0.9-0.2c0.1,0.1,0,0.2,0,0.2C5.4,4.8,5,4.9,4.5,5.1c-0.1,0-0.3,0.1-0.3,0.2
				c0,0.5,0.2,1,0.2,1.6C4.4,6.9,4.5,7,4.6,7c0.9,0,1,0.3,0,0.4c-0.1,0-0.1,0-0.1,0.1C4.2,8.8,4,10,3.3,11c-0.1,0.2-0.4,0.4-0.4,0.7
				c0.2,0.6,0.5,1.5-0.1,2.1c0,1.1-0.2,2.2-0.6,3.2c-0.1,0.3-0.2,0.7-0.6,0.7c-1.1-0.1-2-0.5-2.9-1c-0.3-0.1-0.5-0.3-0.8-0.4
				c-0.3,0.2-0.4,0.6-0.7,0.9c-0.5,0.5-1.3,0.8-2,0.6c-0.6-0.3-0.9-1-1.1-1.5c-0.1-0.3-0.2-0.8-0.4-0.7c-0.7,0-1.6,0-2.3,0
				c-0.6,0-1.2-0.1-1.7-0.1c-0.6,0.7-1.4,1.2-2.1,1.6c-0.5,0.3-1,0.7-1.6,0.5c-1.2-1-1.7-2.4-1.7-3.9c0-0.4,0.1-0.8,0.1-1.2
				c-1.7-2-2.3-4.4-2.1-7c-0.1-0.2-0.4-0.2-0.6-0.3c-0.6,0-1-0.3-1.5-0.5C-19.9,4.6-20,4.5-20,4.3c0-0.1,0.1,0,0.2,0
				c0.6,0.4,1.3,0.6,2.1,0.7c0,0,0.1-0.1,0.1-0.1c0.2-0.5,0.3-1,0.5-1.4c0.6-0.8-0.7-0.7-1-1.2c0-0.1,0-0.1,0-0.1
				c0.5,0.1,0.9,0.4,1.4,0.4c0.4-0.4,0.7-0.9,1.2-1.3c0,0,0-0.1,0-0.1c-0.3-0.5-0.9-0.7-1-1.3c0-0.1,0.1-0.1,0.1-0.1
				c0.4,0.4,0.7,0.7,1.1,1c0.1,0,0.1,0,0.2,0c0.9-0.5,1.9-0.8,2.9-1c0.1,0,0.2,0,0.2-0.1c-0.8-0.7-1.7-1.5-2.4-2.4
				c-0.3-0.1-0.6-0.2-0.8-0.3c-0.4-0.2-0.5-0.6-0.5-1c0-0.3,0.2-0.5,0.4-0.8c0.1-0.3,0.1-0.6,0.1-0.9c0.1-0.6,0.9-1.1,1.4-1.3
				C-13.5-7-13.2-7-13-7.1c0.1-0.3,0-0.6,0-1c0-1.8-0.1-2.6,0.7-4.2c0.3-0.7,2.7,0.9,3.4,0.8c0.9,0,0.9-1.9,1.9-1.2
				c0.2,0.1,0.2,0.2,0.4,0.2c0.5-0.5,1.7,0.6,2.4,0.6c1.1,0,2.4-1.9,3.1-0.4c0.7,1.9,0.7,3,0.5,5.2c0,0-0.2,1.7-0.6,2.7
				C-1.7-3.2-2.1-1.7-2.1-1l0,0.8C-2.2-0.2-1.9-0.1-1.8-0.1"/>
		</g>
		
			<g id="g3739_00000091007534873903303990000012743891417376167592_" transform="matrix(14.22196,0,0,-14.22196,609.24693,-181.90993)">
			<path id="path3741_00000094599781873432076850000017761106355765117103_" inkscape:connector-curvature="0" class="st0" d="
				M0.1-3.2C0.5-3.5,1-3.9,1.2-4.4c0.2-0.1,0.3-0.1,0.5-0.1c1.3,0.3,2.6,0.4,3.8,0.2c0.2-0.1,0-0.4,0.1-0.6C5.5-5.7,5.4-6.6,6-7.1
				c0.8-0.6,1.9-0.2,2.7,0C8.9-7.3,9-7.5,9.2-7.6C9.6-7.9,10-8,10.4-8c0.2-0.2,0.3-0.6,0.5-0.9c0.2-0.4,0.7-0.9,1.2-1.1
				c1.1-0.1,1.8,1,2.4,1.8c0.2,0,0.3-0.3,0.4-0.4c0.5-0.9,0.8-1.8,0.8-2.9c0-0.1,0-0.1-0.1-0.1c-0.6-0.1-1.3-0.2-1.8-0.5
				c-0.1-0.1-0.1-0.1,0-0.2c0.2-0.1,0.4,0,0.7,0.1c0.4,0.1,0.9,0.2,1.3,0.1c0.1-0.1,0.1-0.3,0.1-0.5c-0.1-0.4,0-0.8-0.2-1.1
				c-0.5,0-1,0.1-1.4-0.1c-0.1-0.1,0-0.1,0-0.2c0.4-0.2,0.9,0,1.2-0.2c0.1-0.1,0.1-0.2,0-0.3c-0.1-0.4-0.3-0.8-0.6-1.1
				c-0.3-0.1-0.6,0-0.9,0.1c-0.1,0-0.2,0.1-0.3,0c-0.1-0.1-0.1-0.2,0-0.2c0.3-0.2,0.7-0.1,0.9-0.3c-0.7-1.1-1.9-1.6-3-2
				c-3-1-6.6-0.9-9.8-0.7c-1.4,0.2-3,0.1-4.2,0.9c-0.1,0-0.1,0.1-0.1,0.2c0.2,0.3,0.5,0.3,0.6,0.6c-0.1,0.1-0.2,0-0.3,0
				c-0.3-0.1-0.5-0.5-0.9-0.4c-0.4,0.3-0.8,0.7-1,1.1c0,0.1,0.1,0.1,0.2,0.2c0.3,0.2,0.8,0.1,1,0.3c-0.2,0.2-0.6,0.1-0.8,0.1
				c-0.2-0.1-0.5-0.3-0.7,0c-0.2,0.6-0.4,1.2-0.5,1.8c0,0,0,0.1,0.1,0.1c0.5,0.1,1.1,0.1,1.6,0.1c0.1,0,0,0.1,0,0.1
				c-0.5,0.2-1.1,0.2-1.7,0.1c0,0-0.1,0.1-0.1,0.1c-0.2,2.4,0.3,4.6,2,6.4c0.3,0.3,0.8,0.5,0.8,1C-2.4-6-2.6-6-2.8-6.1
				c-0.1,0-0.1-0.1-0.2,0c-0.2,0.2-0.1,0.7-0.2,1C-3-4-2.8-2.9-1.8-2.2C-1.1-2.3-0.5-2.7,0.1-3.2"/>
		</g>
		
			<g id="g3743_00000053504265287659867600000000772817217534617226_" transform="matrix(14.22196,0,0,-14.22196,769.31362,-180.4792)">
			<path id="path3745_00000097473354178272685580000009155042205355141812_" inkscape:connector-curvature="0" class="st3" d="
				M-1.7-3.2c0.1-0.3,0.3-0.6,0.3-0.9c-0.2-0.1-0.4-0.4-0.6-0.3c-0.3,0.2-0.7,0.3-1,0.1c-0.2-0.1-0.4-0.4-0.4-0.7
				c0-0.2,0.1-0.4,0.2-0.6c0.2-0.2,0.4-0.2,0.5-0.4c0-0.2,0.1-0.5-0.1-0.6c-0.6-0.2-1.4-0.5-2-0.1c-0.6,0.5-0.3,1.4-0.2,2
				C-4.9-3.8-4.8-3-4.4-2.3C-4.2-2-4-1.7-3.6-1.7C-2.8-1.7-2.1-2.4-1.7-3.2"/>
		</g>
		
			<g id="g3747_00000123410341205925297930000015120909619826034599_" transform="matrix(14.22196,0,0,-14.22196,840.5059,-195.02121)">
			<path id="path3749_00000034052049994499757620000003381253483371759284_" inkscape:connector-curvature="0" class="st0" d="
				M-2.6-3.3c0.2-0.8,0.5-1.6,0.5-2.4c-0.1-0.1-0.2,0-0.4-0.1c-0.6,0.1-1.2,0-1.7,0C-4.4-5.6-4.7-5.3-5-5.2C-5.2-5.1-5.5-5.1-5.8-5
				C-6-4.9-6.1-4.6-6-4.4c0.9,0.7,1.9,1.2,3,1.4C-2.7-2.9-2.6-3.2-2.6-3.3"/>
		</g>
		
			<g id="g3751_00000151508590604805267990000008747702892962674615_" transform="matrix(14.22196,0,0,-14.22196,759.47919,-153.89699)">
			<path id="path3753_00000154403424552881665110000013309786686979871113_" inkscape:connector-curvature="0" class="st3" d="
				M-1.6-2.9c0-0.1-0.1-0.1-0.1-0.2c-0.1-0.2-0.1-0.3-0.2-0.4c-0.1,0-0.1,0-0.2,0c-0.2,0.1-0.2,0.3-0.2,0.5c0,0.2,0.2,0.2,0.3,0.2
				C-1.9-2.7-1.7-2.7-1.6-2.9"/>
		</g>
		
			<g id="g3755_00000163770788082010585590000002386617137365721245_" transform="matrix(14.22196,0,0,-14.22196,801.20073,-151.09094)">
			<path id="path3757_00000137835885066351885870000009345284688595275432_" inkscape:connector-curvature="0" class="st3" d="
				M-2.1-2.8c0.3-0.4,0.4-0.8,0.3-1.3c-0.1-0.5-0.5-1.1-1.1-1.2c-0.5,0-0.9,0-1.2,0.3c-0.3,0.3-0.4,0.7-0.4,1.2
				c0.1,0.5,0.4,1.1,1,1.3C-3-2.3-2.5-2.5-2.1-2.8"/>
		</g>
		
			<g id="g3759_00000131340466722759130990000005591756753001864880_" transform="matrix(14.22196,0,0,-14.22196,854.53308,-136.77227)">
			<path id="path3761_00000034082663347317258440000012678983341857169285_" inkscape:connector-curvature="0" class="st3" d="
				M-2.7-2.7c0.3-0.8-0.2-1.6-0.6-2.3c-0.5-0.6-0.9-1.5-1.8-1.4C-5.8-6.2-6-5.5-6.3-4.9c0.1,0.3,0.4,0.4,0.6,0.6
				c0.3,0,0.5-0.3,0.8-0.3c0.3,0.1,0.4,0.3,0.5,0.5c0.1,0.4-0.1,0.7-0.3,0.9C-4.8-3.1-4.9-3-5-2.9c0,0.2-0.1,0.5,0.1,0.6
				c0.6,0.2,1.3,0.1,1.9-0.1C-2.9-2.5-2.8-2.6-2.7-2.7"/>
		</g>
		
			<g id="g3763_00000104705779600560616020000017026532142704611492_" transform="matrix(14.22196,0,0,-14.22196,819.56265,-119.91071)">
			<path id="path3765_00000040577114190743024480000016277540612978495905_" inkscape:connector-curvature="0" class="st3" d="
				M-2.3-2.5c0-0.1,0.1-0.2,0-0.3c-0.1-0.1-0.2-0.2-0.3-0.1c-0.1,0-0.2,0.2-0.2,0.3c0,0.1,0.1,0.2,0.2,0.3C-2.5-2.3-2.4-2.4-2.3-2.5
				"/>
		</g>
		
			<g id="g3767_00000005263569035418675480000018408465645501448852_" transform="matrix(14.22196,0,0,-14.22196,712.70316,19.280978)">
			<path id="path3769_00000142162114167544962640000016580080758519985792_" inkscape:connector-curvature="0" class="st1" d="
				M-1.1-0.9C-1-1.1-1-1.3-1-1.5C-1.1-1.9-1.5-2-1.9-2c-0.5,0-0.9,0-1.2,0.4C-3.2-1.3-3.1-1-2.9-0.8c0.5,0.4,1.1,0.4,1.6,0.1
				C-1.2-0.7-1.1-0.8-1.1-0.9"/>
		</g>
		
			<g id="g3771_00000163763551028899919120000016360360758480280491_" transform="matrix(14.22196,0,0,-14.22196,708.92581,22.877769)">
			<path id="path3773_00000143584644007306340190000003030882420553895098_" inkscape:connector-curvature="0" class="st9" d="
				M-1-0.8C-1-1-1-1.1-1.1-1.3c-0.3-0.3-0.7-0.2-1.1-0.2c-0.1,0-0.3,0.2-0.3,0.3c-0.1,0.2,0,0.3,0.1,0.4C-2.1-0.5-1.3-0.4-1-0.8"/>
		</g>
		
			<g id="g3775_00000133509929213614308430000015215483633790064531_" transform="matrix(14.22196,0,0,-14.22196,653.09324,97.432129)">
			<path id="path3777_00000068638673898517719980000017348581226242418096_" inkscape:connector-curvature="0" class="st8" d="
				M-0.4,0c0,0,0-0.1,0.1-0.1c0.1-0.4,0.2-0.8,0.3-1.2c0.1-0.2,0.4-0.1,0.6-0.2c1.2,0,2.3,0,3.5,0.1c0.1,0,0.2,0.1,0.2,0.2
				C4.4-0.8,4.4-0.4,4.5,0c0,0.1,0.1,0.1,0.1,0.1C5.1,0.2,5.5,0.2,6,0.3c0.1,0,0.1-0.1,0.1-0.1C6-2.3,7.4-4,7.6-6.3
				c0-0.2,0-0.3,0-0.5c0.1-0.9,0.1-1.7,0.1-2.5c-0.1-0.5-0.7-0.5-1-0.6c-1.4-0.2-2.6,0-3.9-0.1c-0.4,0-0.6,1-1.1,0.4
				c-0.2-0.7-1-0.5-1.6-0.5c-1.2,0.1-2.5,0-3.6,0.3c-0.2,0.2-0.2,0.4-0.2,0.7c-0.1,2.1,0.3,4.1,1,6C-2.3-2.1-2-1.1-1.9,0
				c0.1,0.2,0.4,0.1,0.6,0.1C-1,0.1-0.7,0.2-0.4,0"/>
		</g>
		
			<g id="g3779_00000164479890156042976890000015608053365786903957_" transform="matrix(14.22196,0,0,-14.22196,726.59085,95.613083)">
			<path id="path3781_00000005981620303735748190000016066109725254432189_" inkscape:connector-curvature="0" class="st3" d="
				M-1.3,0C-1.2,0-1.2,0-1.3,0c0.1-0.4,0-0.7,0-1.1c0,0,0-0.1-0.1-0.1c-1.1,0-2.3-0.1-3.4,0C-5-0.9-5-0.5-5.1-0.1c0,0,0,0.1,0,0.1
				C-3.8,0-2.5-0.1-1.3,0"/>
		</g>
		
			<g id="g3783_00000101091353392757864970000000966894810863166114_" transform="matrix(14.22196,0,0,-14.22196,616.20432,112.91836)">
			<path id="path3785_00000176762364488452812820000001703786643946166707_" inkscape:connector-curvature="0" class="st3" d="
				M0,0.2c-0.1-0.6-0.2-1.1-0.4-1.6c-0.1-0.1-0.2-0.1-0.2,0C-1-1.2-1.4-1-1.8-0.7c0,0,0,0.1,0,0.1C-1.2,0-0.7,0.6,0,1
				C0.1,0.8,0,0.4,0,0.2"/>
		</g>
		<g id="g3787_00000023253895751839213920000004615631175864062137_" transform="matrix(14.22196,0,0,-14.22196,654.44,128.33497)">
			<path id="path3789_00000122681007765226198700000009185226491210736296_" inkscape:connector-curvature="0" class="st1" d="
				M-0.4,0.4c0.2-0.2,0.2-0.7,0.1-0.9C-0.5-0.8-0.7-1-1.1-1c-0.3,0-0.6,0.1-0.7,0.3C-1.9-0.4-2-0.1-1.9,0.2c0.1,0.3,0.4,0.4,0.7,0.5
				C-0.9,0.7-0.6,0.6-0.4,0.4"/>
		</g>
		
			<g id="g3791_00000145046008781688234200000014122827468552010425_" transform="matrix(14.22196,0,0,-14.22196,650.92581,132.89032)">
			<path id="path3793_00000034785908184377122850000016009014595213732262_" inkscape:connector-curvature="0" class="st0" d="
				M-0.4,0.4c0.1-0.2,0.1-0.5-0.1-0.7C-0.6-0.4-0.8-0.4-1-0.4c-0.2,0.1-0.4,0.3-0.5,0.5c0,0.2,0.1,0.3,0.2,0.4
				c0.1,0.1,0.4,0.2,0.5,0.1C-0.6,0.6-0.5,0.5-0.4,0.4"/>
		</g>
		
			<g id="g3795_00000143612778836077935860000007294744226351887279_" transform="matrix(14.22196,0,0,-14.22196,755.20259,125.47351)">
			<path id="path3797_00000176020637009937883980000015875561459686780074_" inkscape:connector-curvature="0" class="st1" d="
				M-1.6,0.3C-1.4,0.2-1.3,0-1.3-0.3c0-0.3-0.2-0.6-0.5-0.8c-0.2-0.1-0.6-0.1-0.9,0C-2.9-0.9-3-0.6-3-0.3C-3,0-2.8,0.2-2.6,0.4
				C-2.3,0.6-1.8,0.5-1.6,0.3"/>
		</g>
		
			<g id="g3799_00000118370612832199974840000002184963957642943417_" transform="matrix(14.22196,0,0,-14.22196,603.21819,150.83411)">
			<path id="path3801_00000168824089345595010630000014240025923958233241_" inkscape:connector-curvature="0" class="st0" d="
				M0.2,0.6c0.1-0.1,0-0.2,0-0.4C-0.1-0.5-0.3-1.3-0.5-2c-0.3-0.3-0.7,0-0.9,0c-0.7,0.3-1,1-0.9,1.7c-0.2,0.3-0.4,0.6-0.3,1
				c0.1,0.5,0.7,0.3,1,0.5c0.1,0.1,0.2,0.3,0.3,0.4C-0.8,1.3-0.3,1,0.2,0.6"/>
		</g>
		
			<g id="g3803_00000046334815884258469030000000162617885114040998_" transform="matrix(14.22196,0,0,-14.22196,751.14648,129.29216)">
			<path id="path3805_00000168831703199114643250000011653279071784842422_" inkscape:connector-curvature="0" class="st0" d="
				M-1.5,0.4C-1.4,0.3-1.3,0.2-1.3,0c0-0.1,0-0.3-0.2-0.4C-1.6-0.6-1.8-0.6-2-0.6c-0.1,0-0.3,0.1-0.4,0.3c-0.1,0.2-0.1,0.4,0.1,0.6
				C-2.1,0.5-1.8,0.5-1.5,0.4"/>
		</g>
		
			<g id="g3807_00000086672108182095029030000016318494567688026557_" transform="matrix(14.22196,0,0,-14.22196,866.92177,56.293686)">
			<path id="path3809_00000147899292194578985410000009181264169472526498_" inkscape:connector-curvature="0" class="st1" d="
				M-2.9-0.5C-3.5,0.4-4.7,0.1-5.1,0C-5.3,0.1-5.7,0.3-6.3,0C-6.8-0.2-6.9-0.8-7-1.2c0-0.1,0-0.1,0-0.1c-0.3-0.2-1-0.5-1.7-0.8
				c0,0,0,0,0,0c-0.1,0-0.2-0.1-0.2-0.2c0,0,0-0.1,0-0.3c0-0.3,0-1,0.2-1.9c0.3-1.3,0.6-1.7,0.6-1.7c0.1-0.1,0.2-0.1,0.3-0.1
				c0,0,0.3,0.1,2.7,1.3c2,1,2.6,2.1,2.7,2.8C-2.2-1.6-2.4-1-2.9-0.5"/>
		</g>
		
			<g id="g3811_00000158008799608418429420000009121322205162158480_" transform="matrix(14.22196,0,0,-14.22196,866.75543,85.113067)">
			<path id="path3813_00000150093049127665519910000009277110259617891201_" inkscape:connector-curvature="0" class="st0" d="
				M-2.8-0.1C-3-0.7-3.5-1.6-5.3-2.6l-1.4,2.8c0.1,0.1,0.2,0.1,0.2,0.2c0,0,0.1,0.1,0.1,0.2c0,0,0,0,0,0c0,0,0,0.1,0,0.2
				c0,0.2,0.1,0.6,0.4,0.8c0.4,0.2,0.8-0.1,0.8-0.1c0.1-0.1,0.2-0.1,0.3,0c0,0,1.2,0.5,1.8-0.2C-3,1-2.8,0.6-2.8,0.1
				C-2.8,0-2.8,0-2.8-0.1"/>
		</g>
		
			<g id="g3815_00000123400868541322667990000008463542527677698994_" transform="matrix(14.22196,0,0,-14.22196,775.86857,122.22385)">
			<path id="path3817_00000057837876466390027830000005369549551502352293_" inkscape:connector-curvature="0" class="st3" d="
				M-1.8,0.3C-2,1.1-2,1.7-2,2c0,0,0,0,0,0.1c0.4,0.1,0.9,0.4,1.2,0.5l1.4-2.8c-1.2-0.6-1.7-0.8-2-0.9C-1.5-0.9-1.6-0.4-1.8,0.3"/>
		</g>
		
			<g id="g3819_00000078027505957164124090000003161129541829154224_" transform="matrix(14.22196,0,0,-14.22196,413.48586,185.13896)">
			<path id="path3821_00000133513947295787060610000012383552344132184981_" inkscape:connector-curvature="0" class="st0" d="
				M2.3,1c0-0.9-0.7-1.6-1.6-1.6S-0.8,0.1-0.8,1s0.7,1.6,1.6,1.6S2.3,1.9,2.3,1"/>
		</g>
		
			<g id="g3823_00000121996181103267436090000003420441781135370152_" transform="matrix(14.22196,0,0,-14.22196,486.87402,208.72181)">
			<path id="path3825_00000088134552925781199440000018198171278880606629_" inkscape:connector-curvature="0" class="st0" d="
				M1.5,1.3c0-0.9-0.8-1.6-1.7-1.6C-1.2-0.3-2,0.4-2,1.3c0,0.9,0.8,1.6,1.7,1.6C0.7,2.9,1.5,2.2,1.5,1.3"/>
		</g>
		
			<g id="g3827_00000163057089532410904650000008002665716189365919_" transform="matrix(14.22196,0,0,-14.22196,1059.8626,163.90273)">
			<path id="path3829_00000130612117401601746470000015323267480915850391_" inkscape:connector-curvature="0" class="st0" d="
				M-5.1,0.8C-6,0.8-6.7,0-6.7-0.9c0-0.9,0.7-1.6,1.6-1.6c0.9,0,1.6,0.7,1.6,1.6C-3.4,0-4.1,0.8-5.1,0.8"/>
		</g>
		
			<g id="g3831_00000055693159337945700340000014399243805434973357_" transform="matrix(14.22196,0,0,-14.22196,1065.0991,213.37376)">
			<path id="path3833_00000062907341171124703290000012255385542553377453_" inkscape:connector-curvature="0" class="st0" d="
				M-5.1,1.3C-5.6,3-6.9,3.7-6.9,3.7C-7,3.8-7.2,3.9-7.3,3.9c-0.5,0.2-1,0.3-1.6,0.3c-1,0-2-0.4-2.7-0.7c-0.1,0.1-0.3,0.1-0.4,0.2
				c-0.1,0-0.3,0.1-0.3,0.1c-0.1,0-0.1,0-0.2,0.1c-0.4,0.1-0.7,0.2-1.1,0.2c-0.6,0-1.1-0.1-1.6-0.4c-0.4-0.2-0.8-0.5-1.1-0.9
				c-0.1-0.1-0.2-0.1-0.1,0.1c0.1,0.4,0.1,0.9,0,1.3c-0.1,0.4-0.4,0.7-0.7,1v0c0,0,0,0,0,0c-0.4,0.3-0.8,0.4-1.4,0.4
				c-0.4,0-0.8-0.1-1.1-0.3c0,0,0,0,0,0c-0.3-0.2-0.6-0.4-0.8-0.7c-0.2-0.3-0.3-0.7-0.3-1.1c0-0.4,0.1-0.8,0.3-1.1
				c0.1-0.1,0.2-0.3,0.3-0.4c-0.1-0.2-0.2-0.3-0.3-0.5c-0.3,0.6-0.9,1-1.6,1.1c-0.2,0-0.4,0-0.6,0c-0.3,0-0.7,0-1,0
				C-23.9,2.8-24,3-24.1,3.1c-0.4,0.3-0.9,0.5-1.4,0.5c-0.3,0-0.7-0.1-1-0.2c-0.8-0.3-1.3-1.1-1.3-1.9c0-0.1,0-0.2,0-0.3
				c-0.2,0.2-0.4,0.5-0.7,0.7c0,0-0.1,0-0.1,0c-0.2,0.1-0.3,0.1-0.5,0.1c-0.3,0-0.7-0.1-0.9-0.3c-0.3-0.3-0.5-0.5-0.7-0.8
				C-30.9,0.9-31,1-31,1.2c-0.2,0.4-0.5,0.6-0.9,0.7c0,0-0.1,0-0.1,0c-0.1,0-0.2,0-0.3,0c-0.7,0-1.1-0.5-1.3-0.7
				c-0.2-0.2-0.4-0.4-0.5-0.6c-0.1-0.1-0.2,0-0.1,0.1c0,0.1,0.1,0.3,0.1,0.4c0,0,0,0,0,0c0.1,0.8-0.3,1.5-0.9,1.9
				c-0.5,0.3-1.2,0.5-1.9,0.5c-0.7,0-1.4-0.2-2-0.5c0,0,0,0,0,0c-0.5-0.3-1-0.7-1.4-1.2C-40.7,1.4-41,1-41.2,0.6
				c-0.5,0.6-1.2,0.9-1.7,1.1c-0.1,0-0.2,0.1-0.2,0.1c0,0,0,0-0.1,0C-43.6,2-44,2.2-44.4,2.3l-0.1,0c-0.3,0.1-0.6,0.2-1,0.4
				l-0.2,0.1h0c0.2,0.1,0.3,0.2,0.5,0.2c0,0,0,0,0.1,0c0.4,0.1,0.8,0.2,1.1,0.2c0.1,0,0.3,0,0.4-0.1c0,0,0,0,0.1,0
				c0,0,0.2-0.1,0.3-0.2c0.1-0.1,0.2-0.2,0.3-0.3c0,0,0,0,0,0c0.6-0.4,1.5-0.4,2.1,0c0,0,0,0,0,0c0.4,0.3,0.7,0.6,0.9,1.1
				c0.1,0.4,0.2,0.9,0,1.3c-0.1,0.4-0.3,0.8-0.7,1.1c0,0,0,0,0,0c-0.8,0.7-1.8,1-3,1c-0.3,0-0.6,0-0.9-0.1c-1.5-0.2-2.9-0.7-4.1-1.5
				c-1.3-0.8-2-2.1-1.8-3.4v0c0.1-0.7,0.4-1.3,1.1-1.8c0.3-0.2,0.6-0.4,1-0.6c-0.4,0-0.8-0.1-1.1-0.3c-0.4-0.2-0.7-0.5-0.9-0.9
				c0,0,0,0,0,0c-0.2-0.4-0.3-0.9-0.3-1.4c0-0.4,0.1-0.8,0.3-1.2c0.4-0.7,1.1-1.3,1.9-1.7c0.7-0.3,1.5-0.4,2.4-0.4
				c0.1,0,0.2,0,0.4,0c0,0,0,0,0,0c1.1,0.1,2,0.4,2.7,0.9c0,0,0,0,0,0c0.5,0.3,1,0.7,1.4,1.1c0,0,0.2,0.1,0.3,0.1c0,0,0,0,0.1,0
				c0.1-0.2,0.3-0.4,0.4-0.6c0,0,0,0,0.1-0.1c0.6-0.5,1.3-0.8,2.1-0.8c0.4,0,0.7,0.1,1.1,0.2c0,0,0,0,0,0c0.4,0.2,0.8,0.5,1.2,0.8
				c0.2-0.3,0.5-0.7,1-1c0,0,0,0,0.1,0c0.5-0.2,1.1,0,1.6,0.4c0,0,0,0,0,0c0.3,0.3,0.5,0.6,0.7,0.9c0,0,0,0,0.1,0
				c0.1,0,0.2,0,0.2-0.1c0.1-0.2,0.2-0.4,0.4-0.6c0.3-0.6,0.8-0.7,1.1-0.7c0,0,0,0,0.1,0c0.4,0,0.8,0.2,1,0.4c0,0,0,0.1,0.1,0.1
				c0.2,0.3,0.4,0.7,0.6,0.9c0,0,0.1,0,0.2,0c0,0,0.1,0,0.1,0c0.3-0.5,1-1.5,2.2-1.5c0.1,0,0.3,0,0.4,0c0.9,0.2,1.5,0.9,1.9,1.5
				c0,0,0.1,0.1,0.1,0.1c0.1,0.2,0.4,0.2,0.5-0.1c0,0,0,0,0,0c0.1-0.4,0.4-0.7,0.7-1c0,0,0,0,0.1-0.1c0.6-0.4,1.4-0.5,2.1-0.4
				c0.5,0.1,1,0.3,1.5,0.5c0.4-0.4,1-0.6,1.7-0.6c0.3,0,0.6,0.1,1,0.1c0.4,0.1,0.8,0.3,1.3,0.5c0.2-0.2,0.4-0.4,0.6-0.6c0,0,0,0,0,0
				c0.4-0.3,0.8-0.7,1.3-0.9h0c0.4-0.2,0.9-0.3,1.4-0.3c0.3,0,0.7,0,1,0.1c1,0.2,1.9,0.6,2.9,1.3c0.7,0.5,1.4,1.1,1.9,1.7
				c0,0,0,0,0,0c0.6,0.7,1,1.4,1.2,2c0.1,0.3,0.2,0.6,0.3,1c0,0,0,0.1,0,0.1l0,0.2C-5-0.2-5,0.1-5,0.4C-5,0.7-5,1-5.1,1.3"/>
		</g>
		
			<g id="g3835_00000023264035314809064600000001629025928286276752_" transform="matrix(14.22196,0,0,-14.22196,523.7758,236.94387)">
			<path id="path3837_00000168824981257870929980000002799220118699753143_" inkscape:connector-curvature="0" class="st0" d="
				M1.1,1.6C0.8,1.4,0.7,1.2,0.5,1C0.4,0.9,0.4,0.8,0.3,0.8c0,0,0,0,0,0C0.2,0.6,0.1,0.4-0.1,0.2c0.1,0.3,0.2,0.6,0.4,1
				c0.2,0.3,0.4,0.5,0.5,0.5c0,0,0,0,0,0c0,0,0,0,0,0C1,1.6,1,1.6,1.1,1.6"/>
		</g>
		
			<g id="g3839_00000071522779177582055520000015864754833655630266_" transform="matrix(14.22196,0,0,-14.22196,1011.0727,248.02699)">
			<path id="path3841_00000146464441118170286090000003745996426014675896_" inkscape:connector-curvature="0" class="st3" d="
				M-4.5,1.7c0.2,0.3,0.2,0.9,0,1.2C-4.7,3.2-5,3.4-5.3,3.3C-6,3.2-6.5,2.9-7.1,2.6c-0.5-0.3-1.1-0.8-1.8-0.5
				c-0.4,0.3-0.5,0.7-0.5,1.1c-0.1,0.1-0.1,0.1-0.2,0.1c-0.3,0-0.6-0.2-0.8-0.4c-0.3-0.6-0.2-1.4,0-2c0.2-0.7,0.6-1.4,1.2-1.9
				C-9-1.2-8.6-1.2-8.3-1.2C-7.5-0.9-6.7-0.5-6.1,0c0.4,0.3,0.8,0.7,1.2,1.1C-4.7,1.3-4.6,1.5-4.5,1.7 M-2.2,2
				c-0.1-0.3-0.2-0.6-0.3-0.8c-0.2-0.6-0.6-1.2-1.1-1.8C-4-1.2-4.6-1.7-5.3-2.2C-6-2.7-6.9-3.1-7.8-3.3c-0.6-0.1-1.3-0.1-1.9,0.1
				c-0.4,0.1-0.7,0.4-1.1,0.7c-0.3,0.3-0.6,0.7-0.8,1.1c0,0-0.1,0-0.1,0c-0.6-0.3-1.3-0.5-1.9-0.7c-0.6-0.2-1.4-0.1-1.9,0.4
				c-0.1,0.1-0.1,0.2-0.2,0.2c0,0-0.1,0-0.1,0C-16.4-1.7-17-2-17.7-2.1c-0.5-0.1-1,0-1.4,0.3c-0.2,0.2-0.4,0.4-0.5,0.6
				c-0.1,0.4-0.1,0.8-0.1,1.2c0,0.7,0.1,1.3,0.1,2c0,0.1-0.1,0.2-0.2,0.2c-0.1,0-0.3,0-0.5,0c-0.1,0-0.2,0-0.3,0c0,0,0,0,0,0
				C-20.8,1.1-21.1,0-21.7-1C-22-1.5-22.4-2.1-23-2.2c-0.7-0.2-1.3,0.6-1.7,1.1c-0.3,0.4-0.5,0.7-0.8,1.1c-0.1,0.1-0.1,0.1-0.2,0.1
				c-0.1,0-0.2-0.1-0.2-0.2c-0.4-0.6-0.8-1.3-1.2-1.9c-0.1-0.1-0.2-0.1-0.3-0.1c-0.2,0-0.3,0.1-0.3,0.3c-0.4,0.6-0.7,1.3-1,1.9
				c0,0.1-0.1,0.1-0.2,0.1C-29,0.1-29,0-29.1-0.1C-29.6-0.7-30-1.4-30.5-2c-0.2-0.2-0.4-0.3-0.6-0.2c-0.5,0.2-0.7,0.7-1,1.1
				c-0.1,0.1-0.2,0.3-0.3,0.4c-0.1,0-0.2-0.1-0.3-0.2c-0.4-0.5-0.9-1-1.4-1.2c-0.7-0.3-1.6-0.1-2.2,0.4c-0.4,0.5-0.6,1.1-0.7,1.7
				c0,0.8,0.1,1.6,0.4,2.3c0.3,0.9,1,1.8,1.9,2.3c0.8,0.5,2.1,0.5,3,0c0.4-0.2,0.6-0.6,0.5-1c0-0.4-0.3-0.8-0.7-0.9
				c-0.5-0.1-0.9,0.2-1.4,0.3c-0.5,0.1-1-0.3-1.2-0.8c-0.3-0.5-0.5-1.1-0.5-1.7c0-0.2,0.1-0.4,0.3-0.5c0.1-0.1,0.3,0,0.4,0
				c0.4,0.3,0.7,0.7,0.9,1c0.3,0.3,0.5,0.7,0.8,0.9c0.2,0.1,0.4,0.1,0.5,0c0.3-0.2,0.4-0.5,0.6-0.7c0.1-0.2,0.2-0.4,0.4-0.5
				c0.1,0,0.2,0.1,0.3,0.2c0.6,0.7,1.1,1.4,1.7,2.2c0.2,0.2,0.4,0.4,0.7,0.3c0.2-0.1,0.3-0.2,0.4-0.4c0.3-0.4,0.5-0.9,0.8-1.3
				c0,0,0.1-0.1,0.1-0.1c0.1,0,0.1,0.1,0.2,0.1c0.4,0.5,0.7,1.1,1.2,1.6c0.1,0.1,0.3,0.1,0.5,0.1c0.3-0.2,0.4-0.5,0.7-0.8
				c0.4-0.6,0.8-1.3,1.3-1.9c0.1,0,0.1-0.1,0.2-0.1c0.2,0.1,0.2,0.3,0.3,0.4c0.2,0.4,0.3,0.8,0.4,1.3c0,0,0,0.1-0.1,0.1
				c-0.5,0.2-0.8,0.8-0.8,1.3c0,0.5,0.3,0.9,0.8,1.1c0.5,0.2,1.1,0.2,1.5-0.1c0.2-0.2,0.3-0.4,0.4-0.6c0,0,0,0,0,0
				c0.7,0,1.4,0.1,2.1,0c0.4,0,0.7-0.3,0.9-0.6c0.1-0.4,0.1-0.8,0.1-1.2c0-0.6-0.1-1.2-0.1-1.8c0,0,0-0.1,0-0.2c0-0.1,0-0.2,0.1-0.2
				c0.1-0.1,0.3-0.1,0.4,0c0.3,0.1,0.6,0.3,0.9,0.4c0,0,0,0,0,0c0,1,0,2,0.1,2.9c0,0.3,0.3,0.6,0.6,0.7c0.4,0.1,0.8,0.1,1.1-0.2
				c0.2-0.2,0.2-0.4,0.2-0.6c0-0.9-0.1-1.9-0.1-2.8c0-0.2,0-0.3,0.2-0.4c0.2-0.1,0.4,0,0.6,0.1c0.2,0.1,0.5,0.2,0.7,0.3
				c-0.1,0.9-0.2,1.9,0,2.8c0.2,0.8,0.8,1.6,1.6,2c0.6,0.3,1.5,0.3,2.1,0.1C-8.5,5.4-8.2,5.2-7.9,5c0,0,0.1,0,0.1,0
				c1.2,0.6,2.6,1.2,3.9,0.6C-2.9,5.1-2.1,4-2.1,2.8C-2.1,2.5-2.1,2.2-2.2,2"/>
		</g>
		
			<g id="g3843_00000043445234137760190540000003526226138849181850_" transform="matrix(14.22196,0,0,-14.22196,848.33936,192.23572)">
			<path id="path3845_00000021098748614967121780000014193743196186855063_" inkscape:connector-curvature="0" class="st3" d="
				M-2.6,1.1c-0.4-0.2-1-0.3-1.4,0c-0.4,0.2-0.7,0.6-0.7,1.1C-4.7,2.6-4.4,3-4,3.2c0.4,0.2,1.1,0.2,1.5-0.1c0.4-0.3,0.6-0.8,0.5-1.3
				C-2.2,1.5-2.4,1.3-2.6,1.1"/>
		</g>
		
			<g id="g3847_00000170988879610504626070000007108617760821897656_" transform="matrix(14.22196,0,0,-14.22196,451.12433,178.55555)">
			<path id="path3849_00000107558827150335603100000009526610029171662219_" inkscape:connector-curvature="0" class="st3" d="
				M1.9,0.9c-0.3-0.2-0.8-0.2-1.1,0C0.5,1.1,0.3,1.4,0,1.6c-0.7,0.3-1.5,0.1-2.1-0.1C-2.7,1.3-3.2,1-3.7,0.6
				c-0.1-0.1-0.2-0.3-0.2-0.5c0-0.2,0.2-0.3,0.4-0.4c0.3-0.2,0.6-0.2,0.8-0.4c0.7-0.3,1.5-0.6,2.3-0.8C0.3-1.7,0.9-2,1.4-2.5
				C1.7-3,1.9-3.6,1.8-4.3c-0.1-1.1-1.1-2.1-2-2.7C-1-7.4-1.8-7.6-2.6-7.7c-0.8,0-1.6,0.1-2.3,0.3c-0.6,0.2-1.1,0.7-1.4,1.2
				c-0.2,0.5-0.4,1.2,0,1.7c0.3,0.6,0.9,0.8,1.5,0.7c0.3,0,0.6-0.2,0.7-0.5c0.2-0.3,0-0.7,0.2-1c0.3-0.6,1-0.5,1.5-0.5
				c0.8,0.1,1.6,0.5,2.1,1.3c0.1,0.2,0.2,0.5,0,0.6c-0.3,0.3-0.7,0.4-1.1,0.6c-0.9,0.3-1.9,0.7-2.8,1c-0.8,0.3-1.9,0.9-2,1.9
				c-0.2,1.1,0.5,2,1.4,2.5C-3.8,3-2.6,3.5-1.2,3.6c1.2,0.1,2.4,0,3.2-0.7C2.4,2.6,2.6,2,2.4,1.5C2.3,1.3,2.1,1.1,1.9,0.9"/>
		</g>
		
			<g id="g3851_00000111187870926412878970000017741058819276699827_" transform="matrix(14.22196,0,0,-14.22196,566.62224,134.72347)">
			<path id="path3853_00000075146435133503978090000005674714846896805556_" inkscape:connector-curvature="0" class="st1" d="
				M0.6,0.4C0.3,0.4,0,0.3-0.2,0.1c-0.4-0.2-0.5-0.6-0.5-1c0-0.3,0.2-0.5,0.4-0.8c0.1-0.3,0.1-0.6,0.1-0.9C0-3.1,0.7-3.6,1.3-3.8
				c0.1-0.1,0.4-0.1,0.5-0.1l0.3,0.4l0.3,0.1l0.7,3L1.3,0.8L0.6,0.4z"/>
		</g>
		
			<g id="g3855_00000019654564367175692380000002257800806324700554_" transform="matrix(14.22196,0,0,-14.22196,603.21819,150.83411)">
			<path id="path3857_00000036968084900804868730000000411888209323935156_" inkscape:connector-curvature="0" class="st0" d="
				M0.2,0.6c0.1-0.1,0-0.2,0-0.4C-0.1-0.5-0.3-1.3-0.5-2c-0.3-0.3-0.7,0-0.9,0c-0.7,0.3-1,1-0.9,1.7c-0.2,0.3-0.4,0.6-0.3,1
				c0.1,0.5,0.7,0.3,1,0.5c0.1,0.1,0.2,0.3,0.3,0.4C-0.8,1.3-0.3,1,0.2,0.6"/>
		</g>
		
			<g id="g3859_00000106144385601032383510000003947834342592060317_" transform="matrix(14.22196,0,0,-14.22196,1056.6825,190.54182)">
			<path id="path3861_00000052797197037945604830000009055914424770226353_" inkscape:connector-curvature="0" class="st3" d="
				M-5,1.1v0.3h0.2c0.1,0,0.2,0,0.2-0.2c0-0.2-0.1-0.2-0.2-0.2H-5z M-5,0.9h0.2l0.3-0.4h0.2L-4.7,1c0.2,0,0.3,0.1,0.3,0.3
				c0,0.2-0.1,0.3-0.4,0.3h-0.4v-1H-5C-5,0.5-5,0.9-5,0.9z M-4.8,0.1c0.5,0,0.9,0.4,0.9,0.9c0,0.5-0.4,0.9-0.9,0.9
				c-0.5,0-0.9-0.4-0.9-0.9C-5.7,0.5-5.3,0.1-4.8,0.1 M-5.6,1c0,0.4,0.3,0.7,0.7,0.7c0.4,0,0.7-0.3,0.7-0.7c0-0.4-0.3-0.7-0.7-0.7
				C-5.2,0.3-5.6,0.6-5.6,1"/>
		</g>
		
			<g id="g3863_00000020363011206775262810000004512684861499064212_" transform="matrix(14.22196,0,0,-14.22196,604.4555,-17.55242)">
			<path id="path3865_00000072975515427843482700000016864199173113542556_" inkscape:connector-curvature="0" class="st1" d="
				M0.1-1.3c0.3-0.3,0.3-0.8,0.2-1.2C0.3-2.7,0.2-2.9,0-3C-0.2-3-0.4-3-0.5-2.9c-0.4,0.3-0.4,1-0.2,1.4c0.1,0.2,0.2,0.3,0.4,0.3
				C-0.1-1.1,0-1.2,0.1-1.3"/>
		</g>
		
			<g id="g3867_00000082338295258932060040000005438528824689956764_" transform="matrix(14.22196,0,0,-14.22196,802.61724,-20.35699)">
			<path id="path3869_00000142857651976795935680000007532618902434616510_" inkscape:connector-curvature="0" class="st1" d="
				M-2.1-1.3C-1.8-1.6-1.8-2-1.9-2.4C-1.9-2.6-2-2.9-2.2-3c-0.1-0.1-0.3-0.1-0.4,0C-3-2.9-3-2.5-3.1-2.2c0,0.3,0,0.8,0.4,0.9
				C-2.5-1.2-2.3-1.2-2.1-1.3"/>
		</g>
	</g>
</g>
</svg>
