<?xml version="1.0" encoding="utf-8"?>
<!-- Generator: Adobe Illustrator 25.4.1, SVG Export Plug-In . SVG Version: 6.00 Build 0)  -->
<svg version="1.1" id="Capa_1" xmlns="http://www.w3.org/2000/svg" xmlns:xlink="http://www.w3.org/1999/xlink" x="0px" y="0px"
	 viewBox="0 0 200 200" style="enable-background:new 0 0 200 200;" xml:space="preserve">
<style type="text/css">
	.st0{fill:#FEFEFE;}
	.st1{fill:#1D1D1B;}
	.st2{fill:#70706E;}
	.st3{fill:#B2B2B1;}
	.st4{fill:#B3B3B3;}
	.st5{fill:#5E5E5D;}
	.st6{fill:#B1B1B0;}
	.st7{fill:#BBCB1C;}
	.st8{fill:#E21520;}
	.st9{fill:#BBCB1B;}
	.st10{fill:#E01520;}
	.st11{fill:#F6F3F3;}
	.st12{fill:#7B841B;}
	.st13{fill:#86901B;}
	.st14{fill:#4B4B4A;}
	.st15{fill:#6A6A69;}
	.st16{fill:#858F1B;}
	.st17{fill:#565C1B;}
	.st18{fill:#4C501B;}
	.st19{fill:#52571B;}
	.st20{fill:#3E411B;}
	.st21{fill:#575D1B;}
	.st22{fill:#8B961B;}
	.st23{fill:#52581B;}
	.st24{fill:#EFA29F;}
	.st25{fill:#1C1C1B;}
	.st26{fill:#F8CFD1;}
</style>
<g>
	<g>
		<path class="st1" d="M35.4,82.7C37,77.1,39.5,72,43,67.4c0.9-1.1,0.9-2,0.3-3.2c-4.5-10-4.8-20.1,0.1-30
			c6.7-13.7,18-20.2,33.2-20.2c2.1,0.2,4.2,0.3,6.2,1c11.1,2.8,18.9,9.5,23.8,19.8c0.9,0.1,0.7-0.9,1.2-1.2c6.8-11.9,17-18,30.7-18
			c2.3,0.3,4.7,0.5,7,1.1c14.4,3.4,24.9,16.4,25.5,31c0.3,8.3-1.8,15.8-6.8,22.4c-0.5,0.7-0.9,1.3-0.2,2.2
			c4.9,6.1,6.7,13.3,7.2,20.9c0.3,3.9,0,7.8-0.7,11.6c-0.4,1.2-0.7,2.4-1.1,3.5c-2.8,9-9.2,14.6-17.4,18.9c2.6,1.6,5.2,3.1,7.6,4.7
			c4.2,2.9,7.9,6.3,10.2,10.9c2.2,4.4,0.4,7.8-4.5,8.3c-1.2,0.1-1.8,0.5-2,1.7c-0.7,3.5-3,5.6-6.5,6.1c-1.2,0.2-1.3,0.6-1.2,1.6
			c0.2,1.6,0.6,3.3,0,4.9c-0.3,0.8,0.4,1.1,0.9,1.5c1.8,1.5,3.4,3,4.5,5.2c1.5,2.9,1,5.6-0.9,8.1c-2.6,3.4-7.5,4.8-11.6,3.5
			c-1.9-0.6-3.7-1.4-5.4-2.4c-1.1-0.7-2-0.5-3,0.4c-2.9,2.6-6.1,4.2-10.1,2.8c-1.4-0.5-2.4-1.5-3.4-2.4c-0.9-0.8-1.6-1-2.4,0.3
			c-2.6,3.6-6.4,3.6-10.3,3c-3.9-0.7-6-3.4-7-7.1c-0.5-1.9-0.7-3.8-0.5-5.7c0.1-1-0.2-1.5-1.3-1.5c-6.9-0.4-13.8-1.3-20.6-2.1
			c-0.9-0.1-1.3,0.1-1.7,1c-4.8,11.7-18.4,14.9-27.6,10.9c-5.7-2.5-9.1-7.1-10.9-12.9c-0.7-2.2-1.4-4.4-1.3-6.8
			c0.2-4.7,3.8-7.5,8.4-6.5c0.9,0.2,1.6,0.6,2.3-0.5c0.6-1.1,0.9-1.6-0.7-2.1c-7.8-2.6-15.1-6.2-21.3-11.8c-0.7-0.6-1.3-1.3-1.8-1.9
			c-2.3-2.9-1.9-6.1,1.1-8.3c1.5-1,2.5-2.2,2.9-4c0.9-3.7,3.5-6,7.1-7.1c1.2-0.4,1.5-0.6,0.6-1.7c-7.2-8.8-9-18.9-7.1-29.9
			C34.6,85.6,34.9,84.1,35.4,82.7z"/>
		<path class="st2" d="M145.5,16.5c-2.4-0.2-4.7-0.4-7-1.1C140.9,15.4,143.2,15.5,145.5,16.5z"/>
		<path class="st3" d="M82.8,15c-2.1-0.3-4.2-0.7-6.2-1C78.7,13.7,80.8,13.9,82.8,15z"/>
		<path class="st4" d="M35.4,82.7c-0.2,1.5-0.5,2.9-1.1,4.3C34.1,85.4,34.5,84,35.4,82.7z"/>
		<path class="st5" d="M169.3,108.2c0.1-1.3,0.2-2.5,1.1-3.5C170.4,105.9,170.1,107.1,169.3,108.2z"/>
		<path class="st6" d="M107.7,33.5c-0.2,0.6,0,1.6-1.2,1.2C106.9,34.3,107.3,33.9,107.7,33.5z"/>
		<path class="st7" d="M107.3,64.3c6.6,13.5,20.4,20.7,35.5,18.5c5.5-0.8,10.4-3,14.8-6.3c1.3-1,2-0.9,2.8,0.5
			c5,8,5.7,16.7,4.6,25.7c-0.3,1.2-0.4,2.4-1,3.5c-2.4,7.2-7.5,12.1-14.2,15.5c-1.3,0.7-2.7,1.2-4,1.8c-1,0.4-2.1,0.7-3.1,1.1
			c-1.3,0.3-2.5,0.6-3.8,0.8c-2.2,0.5-4.4,0.7-6.6,1.1c-5.9,0-11.9,0-17.8,0c0-0.1-0.1-0.2-0.1-0.3c2.6-1.5,5.2-3,7.8-4.6
			c3.6-2.3,7.2-4.7,10.8-7c0.9-0.6,1.1-1.2,0.4-2.2c-3-4-1.8-3.8-5.4-1.5c-7.4,4.8-14.7,9.7-22.9,13.2c-2.5,1-4.8,1-7.2,0.1
			c-9-3.5-17.2-8.4-25.4-13.3c-1.2-0.7-1.8-0.8-2.5,0.5c-2.3,4.2-3,2.9,1.2,5.5c5,3.1,10.2,6,15.5,8.7c0.4,0.2,0.7,0.4,1.2,0.7
			c-0.5,0.5-1,0.3-1.5,0.3c-5.8-0.1-11.6,0.3-17.5-0.4c-13.3-1.5-25.4-11.4-28.6-23.4c-0.7-1.5-0.7-3.1-1-4.7
			c-0.4-8.8,1.8-17,6.4-24.5c0.2-0.3,0.4-0.6,0.6-1c0.7-1.4,1.3-1.4,2.4-0.2c9.7,10.5,21.5,14.2,35.3,10.5
			c10.2-2.7,17.5-9.2,22.1-18.7C106.6,63.7,107,63.6,107.3,64.3z"/>
		<path class="st0" d="M103.2,55.4c-2.8,11.2-9.5,18.8-20.6,21.9c-10.8,3-20.6,0.4-28.5-7.7c-14.1-14.5-9.9-38.3,8.4-47.2
			c13.3-6.5,30.2-1.1,37.4,11.9c1.5,2.6,2.6,5.4,3.3,8.3C104.2,47,104.2,51.2,103.2,55.4z"/>
		<path class="st0" d="M143.5,21.9c14.8,3.6,24.2,17.7,21.3,32.7c-3.5,18.3-23,28.2-39.4,20.1c-19.1-9.5-21.4-35.4-4.3-48.1
			c3.1-2.3,6.6-3.9,10.4-4.8C135.5,20.8,139.5,20.9,143.5,21.9z"/>
		<path class="st0" d="M117.8,132.4c4-0.3,7.9-0.3,11.9,0c1.8,1.3,2.6,3.3,3.8,5c4.9,7.6,9.9,15.1,14.8,22.6c0.6,0.9,1.4,1.8,1.4,3
			c-2.4,1.6-5.1,1.9-7.8,2.1c-5.8,0.5-11.7,0.8-17.5,0.5c-0.9-0.8-0.9-1.9-1.1-2.9c-0.4-1.9-0.8-3.8-1-5.8c0-1.8-0.3-3.5-1-5.1
			c-1.4-4.6-1.8-9.4-3-14.1c-0.1-0.2-0.1-0.4-0.1-0.6C118,135.7,117.1,134.1,117.8,132.4z"/>
		<path class="st7" d="M48.6,160.4c0.4-0.4,0.9-0.4,1.4-0.3c4.8,0.9,6.5,0.1,8.8-4c1.4-2.4,1.4-2.4,4-1.3c1,0.5,2.1,0.9,3.3,1.1
			c3.4,0.9,6.2-0.4,7.9-3.4c1-1.8,1.9-1.8,2.9,0c1.1,2,1.5,4.4,1.8,6.6c0.5,4.5-2.2,12.4-7.6,15.2c-7.7,4-18.1,2.5-21.4-7.8
			c-0.3-0.9-0.6-1.8-0.9-2.7C48.6,162.7,47.9,161.6,48.6,160.4z"/>
		<path class="st8" d="M122.7,157c0.5,2.9,1.1,5.8,1.6,8.7c-9.4,0.1-18.8-0.4-28.1-1.5c-0.9-2-0.2-4.2-0.1-6.2
			c0.1-3.1,0.5-6.1,0.9-9.2c1.2-2.1,3.4-2.9,5.3-3.9c1-0.6,1.9,0.3,2.7,1.1c1.8,1.7,3.7,3.4,6,4.5c2.7,1.2,4.3,0.6,5.6-2
			c1.2-2.5,1.4-5.1,1.5-7.8c0-1-0.3-2.1,0.5-2.9c1.3,3.8,1.5,7.8,2.6,11.7c0.2,0.9,0.4,1.7,0.5,2.6
			C122.2,153.6,122.3,155.3,122.7,157z"/>
		<path class="st9" d="M58.9,129.6c1.6,0.5,3.2,1,4.9,1.5c-2.1,3.5-4.1,6.9-5.4,10.6c-0.4,1.1-0.9,2.2-1.1,3.3
			c-0.3,1.6-0.9,2.2-2.7,1.5c-6.5-2.4-12.7-5.3-18.2-9.7c-0.4-0.4-0.8-0.8-1.3-1.1c-1.2-0.9-1-1.5,0.2-2.3c1.9-1.2,3.1-3,3.5-5.3
			c0.3-1.8,1.3-3.1,3.1-3.8c1.3-0.5,2.7-0.8,3.8-1.8c0.7-0.6,1.1,0.1,1.6,0.5c2.7,2.2,5.7,3.9,8.8,5.4
			C57.1,128.9,58,129.3,58.9,129.6z"/>
		<path class="st0" d="M97.3,148.5c-0.4,5.2-0.7,10.5-1.1,15.7c-3.5-0.4-7-0.8-10.5-1.1c-1.2-0.1-1.4-0.6-1.3-1.7
			c0.2-4.2-0.7-8.2-2.7-12c-1.1-2.1-2.8-3.4-5.1-4.1c-0.4-0.3-0.4-0.7-0.3-1c0.8-3.1,1.3-6.3,2.7-9.3c0.5-2.2,1.9-2.7,4-2.6
			c2.6,0.2,5.3,0,8,0.1c0.5,0,1.4-0.4,1.3,0.8c-3.2,3.4-3.9,7.6-3.7,12.1c0.2,3.4,2.2,4.8,5.5,3.7C95.1,148.8,96.1,147.9,97.3,148.5
			z"/>
		<path class="st7" d="M141.6,170.9c2.4-0.4,5-0.5,7.3-1.4c0.5-0.2,1-0.2,1.5,0.1c1.6,1.1,3.3,2.2,4.6,3.8c1.3,1.6,1.1,2.8-0.6,4
			c-2.6,1.8-4.9,0.5-7.2-0.5c-1-0.4-1.9-1-2.9-1.4c-2.9-1.3-5.5-0.7-7.7,1.5c-0.5,0.5-1.1,1-1.8,1.4c-1.3,0.8-2.5,1-3.8-0.2
			c-1.9-1.7-4-3-6.7-2.8c-2,0.1-3.4,0.9-4.4,2.5c-1.5,2.4-5.5,2.2-7-0.2c-0.6-1.6-0.9-3.2-1-4.8c0-1.2,0.3-1.6,1.5-1.5
			c3.3,0.1,6.6,0,9.9,0.4c2,0.2,4,0,5.9,0C133.3,171.3,137.5,171.6,141.6,170.9z"/>
		<path class="st8" d="M79.3,135.4c-0.9,3.3-1.8,6.6-2.7,10c-3.5-0.2-6.3,0.9-7.7,4.4c-0.2,0.6-0.7,0.7-1.3,0.6
			c-1.9-0.1-3.3-1.4-5-2c-0.6-0.2-0.2-0.8-0.1-1.2c1.1-4.4,3.3-8.3,5.6-12.1c0.4-0.7,0.9-1.4,1.3-2.1c0.4-0.6,0.9-1.1,1.7-1
			c2.9,0.5,5.8,0,8.6,0.3C80.1,133.5,79.9,134.5,79.3,135.4z"/>
		<path class="st7" d="M157.4,152c-1.9,1.9-2.9,1.6-3.6-0.9c-2.2-7.2-6.4-13.3-11.1-19.1c-1-1.3-0.6-1.5,0.6-1.8
			c0.6-0.1,1.1-0.2,1.7,0.1c5.8,2.8,11.6,5.7,16.2,10.4c0.9,0.9,1.7,2.1,2.5,3.2c0.6,1,0.7,1.7-0.9,1.7c-2,0-3.8,0.5-4.7,2.6
			C157.8,149.4,157.9,150.7,157.4,152z"/>
		<path class="st8" d="M149.7,163.1c-5.4-8.3-10.8-16.5-16.2-24.8c-1.3-2-2.5-4-3.8-5.9c0.1,0,0.2-0.1,0.4-0.1c4.2-1.2,6.7,1,9,4.2
			c4,5.5,8,11.1,9.6,17.8c0.6,2.3,0.9,4.6,1.2,7C150,161.9,150.3,162.6,149.7,163.1z"/>
		<path class="st10" d="M117.8,132.4c0.2,1.7,0.5,3.4,0.7,5.1c-0.5,0-0.6-0.3-0.9-0.6c-1.8-2.2-3.2-2.6-5.8-1.5
			c-2.5,1.1-4.8,2.5-7,4c-1.2,0.8-2.1,0.8-3-0.3c-1.2-1.5-3.1-2.3-3.9-4.1c0.1-0.9-0.2-1.9,0.7-2.5
			C105,132.2,111.4,132.2,117.8,132.4z"/>
		<path class="st11" d="M98.6,132.4c0,0.9,0.1,1.9-0.3,2.8c-0.2,0.1-0.4,0.2-0.5,0.1c-1.8-1.2-4-0.9-5.8-1.8c0.3-0.6,0-0.8-0.6-0.8
			c-3.3,0-6.6,0-9.9,0c-0.8,0-1.2,0.4-1.3,1.1c-0.2,0.6-0.1,1.3-0.8,1.6c0.2-1,0.4-2,0.6-3C86.2,132.1,92.4,132.1,98.6,132.4z"/>
		<path class="st12" d="M129.3,171.9c-5.2,0.3-10.3-0.4-15.5-0.4c-1.5,0-2,0.5-1.8,1.9c0.2,1.4,0.5,2.9,0.8,4.3
			c-1.3-1.7-1.2-3.7-1.1-5.7c0-1.1,0.9-0.9,1.6-0.9c5.4,0.1,10.7,0.3,16.1,0.4c0.1,0.1,0.2,0.2,0.1,0.2
			C129.3,171.9,129.3,171.9,129.3,171.9z"/>
		<path class="st13" d="M129.3,171.9c0-0.1,0-0.2,0-0.4c4.1-0.2,8.2-0.5,12.3-0.7c-0.9,0.2-1.8,0.6-2.8,0.7
			C135.6,171.7,132.4,171.8,129.3,171.9z"/>
		<path class="st14" d="M143.5,21.9c-4-0.6-8-0.7-11.9,0c2.6-1.3,5.4-1.3,8.1-0.9C141,21.1,142.5,20.7,143.5,21.9z"/>
		<path class="st15" d="M103.2,55.4c0.7-4.2,0.6-8.5,0-12.7C104.6,47,104.6,51.2,103.2,55.4z"/>
		<path class="st16" d="M132.3,126.5c2.1-0.7,4.4-0.9,6.6-1.1C136.8,126.3,134.6,126.6,132.3,126.5z"/>
		<path class="st17" d="M39.3,98.1c0.6,1.5,0.7,3.1,1,4.7C39.3,101.3,39.2,99.7,39.3,98.1z"/>
		<path class="st18" d="M164,106.2c0.2-1.2,0.4-2.4,1-3.5C165.1,104,165,105.2,164,106.2z"/>
		<path class="st19" d="M157.4,152c0.1-1.3,0.1-2.6,0.7-3.9C158,149.4,158.5,150.8,157.4,152z"/>
		<path class="st20" d="M48.6,160.4c0.1,1.1,0.2,2.3,0.2,3.4C48,162.8,47.7,161.7,48.6,160.4z"/>
		<path class="st21" d="M142.7,124.6c0.9-0.7,2-1,3.1-1.1C144.9,124.3,143.9,124.6,142.7,124.6z"/>
		<path class="st22" d="M58.9,129.6c-1.1,0.1-2-0.4-2.7-1.1C57.2,128.5,58.1,129,58.9,129.6z"/>
		<path class="st23" d="M107.3,64.3c-0.4-0.3-0.7-0.4-1.1-0.1c0-0.4,0.1-1,0.7-0.9C107.3,63.4,107.3,63.9,107.3,64.3z"/>
		<path class="st24" d="M56.6,89.6c5.8,0,10,4.3,10,10.1c-0.1,5.4-4.6,9.9-10,9.9c-5.6,0-10.1-4.6-10-10.2
			C46.6,93.9,51,89.3,56.6,89.6z"/>
		<path class="st24" d="M158.9,99.7c0,5.4-4.5,10-9.9,9.9c-5.9-0.1-9.9-4.3-9.9-9.9c0-5.8,3.8-9.7,9.9-9.9
			C154.4,89.7,158.8,94.2,158.9,99.7z"/>
		<path class="st25" d="M87.9,49.3c-5.4,0-9.6-4.2-9.7-9.5c0-5.3,4.4-9.8,9.7-9.8c5.3,0,9.6,4.4,9.7,9.6
			C97.6,45.1,93.4,49.3,87.9,49.3z"/>
		<path class="st25" d="M124.9,50.5c-5.1,0-9-3.9-9-8.9c0-4.9,4.1-8.9,8.9-8.9c4.9,0,8.9,4,8.9,8.9
			C133.7,46.6,129.9,50.4,124.9,50.5z"/>
		<path class="st1" d="M92,133.5c2.4-0.5,4.4,0.4,6.4,1.7c1.4,1.2,2.8,2.4,4,3.7c0.7,0.7,1.1,0.7,1.9,0.2c2.3-1.5,4.6-3,7.1-4.1
			c3.6-1.6,5.4-0.9,7.1,2.5c0,0,0,0.2,0,0.2c0.2,3.9,0,7.7-1.7,11.3c-1.2,2.5-3.2,3.3-5.8,2.2c-2.7-1.1-4.8-2.9-6.7-5
			c-1-1-1.8-1.4-3-0.3c-1.2,1-2.6,1.8-4,2.7c-1.7,0.4-3.2,1.5-5.1,1.5c-2,0-3.1-0.9-3.8-2.6C86.9,143.5,88.7,136.2,92,133.5z"/>
		<path class="st26" d="M122.7,157c-0.7-1.6-0.9-3.3-1.1-5.1C122.6,153.5,122.7,155.3,122.7,157z"/>
	</g>
</g>
</svg>
