<?xml version="1.0" encoding="utf-8"?>
<!-- Generator: Adobe Illustrator 25.4.1, SVG Export Plug-In . SVG Version: 6.00 Build 0)  -->
<svg version="1.1" id="Capa_1" xmlns="http://www.w3.org/2000/svg" xmlns:xlink="http://www.w3.org/1999/xlink" x="0px" y="0px"
	 viewBox="0 0 200 200" style="enable-background:new 0 0 200 200;" xml:space="preserve">
<style type="text/css">
	.st0{fill:#FEFEFE;}
	.st1{fill:#656563;}
	.st2{fill:#696968;}
	.st3{fill:#535351;}
	.st4{fill:#CECFCC;}
	.st5{fill:#545452;}
	.st6{fill:#555555;}
	.st7{fill:#CACAC9;}
	.st8{fill:#5B5B5A;}
	.st9{fill:#616160;}
	.st10{fill:#D1D1D0;}
	.st11{fill:#686866;}
	.st12{fill:#D4D5D4;}
	.st13{fill:#CECECD;}
	.st14{fill:#90908F;}
	.st15{fill:#CFCFCE;}
	.st16{fill:#C2C2C2;}
	.st17{fill:#C6C6C5;}
	.st18{fill:#B3B3B1;}
	.st19{fill:#585858;}
	.st20{fill:#C9C9C9;}
	.st21{fill:#D4D4D2;}
	.st22{fill:#444443;}
	.st23{fill:#C6C6C4;}
	.st24{fill:#323232;}
	.st25{fill:#343434;}
	.st26{fill:#404040;}
	.st27{fill:#B2B2B2;}
	.st28{fill:#CCCDCA;}
	.st29{fill:#939492;}
	.st30{fill:#CCCCCC;}
	.st31{fill:#DDDDDC;}
	.st32{fill:#626260;}
	.st33{fill:#868684;}
	.st34{fill:#555556;}
	.st35{fill:#565656;}
	.st36{fill:#B6B6B6;}
	.st37{fill:#3B3B3A;}
	.st38{fill:#3E3E3E;}
	.st39{fill:#5A5A5A;}
	.st40{fill:#A5A5A4;}
	.st41{fill:#A6A6A6;}
	.st42{fill:#393939;}
	.st43{fill:#ADADAD;}
	.st44{fill:#5A5A59;}
	.st45{fill:#5E5E5D;}
	.st46{fill:#D3D3D2;}
	.st47{fill:#545453;}
	.st48{fill:#424243;}
	.st49{fill:#3B3C3A;}
	.st50{fill:#666665;}
	.st51{fill:#666664;}
	.st52{fill:#646464;}
	.st53{fill:#515151;}
	.st54{fill:#353534;}
	.st55{fill:#3D3D3E;}
	.st56{fill:#3F3F3F;}
	.st57{fill:#424242;}
	.st58{fill:#464646;}
	.st59{fill:#434344;}
	.st60{fill:#686868;}
	.st61{fill:#E40045;}
	.st62{fill:#F3B3CE;}
	.st63{fill:#4A4A49;}
	.st64{fill:#595957;}
	.st65{fill:#4C4C4B;}
	.st66{fill:#494949;}
	.st67{fill:#565655;}
	.st68{fill:#525251;}
	.st69{fill:#4D4D4C;}
	.st70{fill:#50504F;}
	.st71{fill:#F6B9D5;}
	.st72{fill:#575757;}
	.st73{fill:#525252;}
	.st74{fill:#F2004B;}
	.st75{fill:#565654;}
	.st76{fill:#575756;}
	.st77{fill:#F7004A;}
	.st78{fill:#FA004C;}
	.st79{fill:#F7014B;}
	.st80{fill:#F9014D;}
	.st81{fill:#535352;}
	.st82{fill:#515150;}
	.st83{fill:#4F4F4E;}
	.st84{fill:#F6014B;}
	.st85{fill:#F6024E;}
	.st86{fill:#FEE002;}
	.st87{fill:#F2B3CD;}
	.st88{fill:#E30543;}
	.st89{fill:#F8BFD7;}
	.st90{fill:#F2BED4;}
</style>
<g>
	<g>
		<path d="M189.8,79.9c0,0.1,0,0.3,0,0.4c0.5,0.9,0.2,1.7-0.8,1.8c-2.6,0.3-5.3,0.4-7.9,0.2c-2.1-0.2-4.1-0.1-6.2,0.3
			c-0.7,0.1-1.1,0.5-1.1,1.2c0.1,2.9-0.5,5.8-0.7,8.7c0,0.1,0,0.3,0,0.4c0.1,0.2,0.1,0.5,0.4,0.7c1,0.9,2.4,0.8,3.6,1
			c2.6,0.5,5.2,1.2,7.6,2.2c0.7,0.2,1,0.8,1,1.5c0,0.6-0.3,1-0.9,1.1c-1.9,0-3.8,0-5.7,0c-0.4,0-0.7,0-1.1,0
			c-1.6-0.2-3.3-0.3-4.9-0.3c-1,0-1.5,0.3-1.8,1.2c-0.7,2.4-1.8,4.7-2.7,7c-0.2,0.6-0.8,1.2-0.4,1.9c0.1,0.1,0.2,0.3,0.3,0.5
			c2.1,1.4,4.5,2.2,6.8,3.4c1.1,0.6,2.3,1.1,3.3,1.9c0.6,0.6,1.3,1,1.8,1.7c0.5,1.5-0.7,2.8-2.2,2.5c-1.2-0.2-2.2-0.7-3.3-1.1
			c-0.6-0.3-1.2-0.6-1.9-0.8c-1.5-0.8-3-1.4-4.6-1.9c-0.3-0.3-0.7-0.3-1-0.4c-0.3,0-0.5-0.1-0.8-0.3c-0.2-0.1-0.5-0.2-0.8-0.3
			c-0.7-0.2-1.1,0-1.6,0.5c-2.9,3.4-6.1,6.3-9.8,8.7c-1.7,1-3.5,2.1-5.3,3.1c-2.7,1.5-5.5,2.5-8.3,3.6c-5.1,1.6-10.3,2.7-15.6,3.8
			c-0.3,0.1-1,0-0.8,0.7c0.1,0.8,0.3,1.5,0.3,2.3c0.2,0.7,0.4,1.4,0.5,2.1c0.7,2.4,1.3,4.8,2,7.2c0.2,0.8,0.7,0.5,1.1,0.4
			c1-0.4,2-0.7,3-1c6.1-1.6,12-1.4,17.7,1.7c0.2,0.2,0.6,0.2,0.8,0.4l0,0c0.3,0.3,0.6,0.5,1,0.6c0.1,0.1,0.2,0.1,0.2,0.2
			c0.3,0.1,0.4,0.4,0.7,0.5c0.2,0.2,0.5,0.3,0.7,0.4c0.5,0.4,1,0.8,1.5,1.3c1.2,1,2.3,2.2,3,3.6c0.5,1.4,1.5,2.6,2.1,4.1
			c0.8,2.1,1.4,4.2,1.7,6.3c0.2,2,0,3.9,0.1,5.9c0,0.6,0,1.1,0,1.7c-0.1,1.3-0.4,2.6-0.7,3.8c-1.1,3.3-2.7,6.4-5.1,9
			c-2.7,3-6.2,4.9-10.1,5.9c-2.9,0.8-5.8,1.3-8.8,1.3c-0.4,0-0.9,0.1-1.3,0.2c-2.5,0.1-4.9,0.2-7.4,0.3c-2.2,0.1-4.5,0.1-6.7,0.1
			c-0.7-0.1-1.3-0.1-2-0.1c-12,0-23.9,0-35.9,0c-0.7-0.2-1.3-0.1-2-0.1c-2.8,0.1-5.6-0.2-8.4-0.6c-0.8-0.1-1.5,0.1-2.2,0.1
			c-3.8,0-7.5,0.1-11.3,0c-3.6-0.1-7.2-0.3-10.8-1c-0.6-0.1-1.1-0.3-1.7-0.4c-1.6-0.3-3.1-0.8-4.6-1.4c-2.7-0.9-4.5-3-6.2-5.2
			c-2-3.9-2-9.4,0-12.7c1.2-1.5,2.6-2.8,4-4l0,0c1.4-0.7,2.8-1.5,4.3-2.2c2.3-0.9,4.6-1.4,7.1-1.8c0.5-0.1,0.9-0.2,1.4-0.2
			c1.1,0,2.1-0.4,3.2-0.5c0.9-0.1,1.4-0.9,1.8-1.7c0.9-2.5,1.8-5,3.2-7.3c0.5-0.6,0.9-1.3,1.2-2c0.1-0.4,0.4-0.8,0.6-1.2
			c0.2-0.2,0.3-0.4,0.4-0.6c0.7-1.1,1.3-2.1,2-3.2c0.3-0.4,0.7-0.7,0.8-1.2c0.2-0.3,0.4-0.7,0.6-1c0.3-0.3,0.5-0.6,0.6-1
			c1.8-3,3.3-6,4.2-9.4c0.2-0.6,0.3-1.2,0.2-1.9c-0.3-1.2-1.3-1.4-2.3-1.6c-0.9-0.2-1.8-0.3-2.7-0.6c-1.8-0.5-3.7-1-5.5-1.5
			c-0.6-0.2-1.1-0.3-1.7-0.5c-0.7,0-1.2-0.5-1.9-0.7c-3-1.1-6-2.3-8.8-3.9c-2.1-1.2-4.2-2.6-6.1-4.1c-0.6-0.4-1.1-0.8-1.7-1.2
			c-0.2-0.1-0.3-0.2-0.5-0.3c-0.5-0.4-1-0.2-1.5,0c-2.2,0.9-4.2,2.1-6.2,3.4c-1.5,1-3.1,2-4.6,3c-1.1,0.7-2.2,1-3.4,0.8
			c-0.3,0-0.5-0.2-0.6-0.4c0-0.1,0-0.1,0-0.2c-0.3-1.3,0-2.3,1-3.3c1.1-1,2.3-1.8,3.4-2.8c2.2-1.4,4.6-2.6,6.7-4.2
			c0.9-0.7,0.9-0.9,0.2-1.8c-0.4-0.5-0.8-0.9-1-1.5c-0.1-0.5-0.4-1-0.8-1.4c-0.3-0.4-0.6-0.8-0.8-1.2c-0.3-0.8-0.7-1.4-1.2-2
			c-0.7-1.3-2-1.9-3.3-1.5c-2.2,0.6-4.6,0.5-6.8,1.1c-1,0.3-1.7-0.1-2.2-1c-0.4-0.7-0.1-1.7,0.5-2.3c0.1-0.1,0.2-0.1,0.2-0.2
			c2.1-1.2,4.6-1.6,6.9-2.4c1.3-0.4,1.4-0.6,1-1.9c-0.8-2.8-1.4-5.7-2-8.6c-0.4-1.1-0.7-1.4-2-1.5c-1.8-0.1-3.6,0.4-5.4,0.4
			c-2.8,0.1-5.5,0.3-8.3,0.1l0,0c-0.2-0.2-0.4-0.4-0.6-0.6c-0.3-1.2,0.2-2.1,1.4-2.8c1.1-0.6,2.3-0.9,3.5-1.1
			c2.1-0.3,4.3-0.5,6.5-0.8c0.8-0.1,1.5,0,2.3-0.1c1.3,0,1.9-0.6,1.9-1.9c0-1.4-0.1-2.9,0.1-4.3c0.1-2.1,0.4-4.1,0.7-6.2
			c1.1-5.5,3-10.7,5.5-15.6c0.1-0.1,0.1-0.2,0.2-0.3c0.3-0.2,0.3-0.5,0.4-0.8l0,0c0.2-0.3,0.5-0.6,0.6-1c0.5-1,0.1-2-0.2-2.9
			c-1.9-5.5-2.6-11.2-2.1-17c0.4-4.9,2-9.5,4.5-13.7c0.3-0.2,0.5-0.6,0.6-1l0,0c0.4-0.5,1-1,1.2-1.6c0.2-0.2,0.3-0.4,0.5-0.6
			c0.2-0.2,0.6-0.4,0.8-0.6c0.1-0.1,0.1-0.1,0.2-0.2c0.4-0.2,0.7-0.3,1-0.6c1.2-0.6,2.5-0.9,3.8-1C48,13.8,53,15.4,58,17
			c4.1,1.3,8.2,2.9,12,5c0.7,0.4,1.3,0.4,2,0.2c7.4-2,15-2.2,22.6-2c1.5,0,2.6-0.1,3.1-1.7c0.5-0.6,0.9-1.3,1.2-2l0,0
			c0.3-0.3,0.5-0.6,0.6-1c0.1-0.2,0.3-0.4,0.4-0.6c0.2-0.2,0.2-0.4,0.4-0.6l0,0c0.4-0.5,1-1,1.2-1.6c0.1-0.1,0.1-0.1,0.2-0.2
			c0.3-0.4,0.7-0.7,1-1.1c0.7-1,1.7-1.7,2.6-2.6c0.4-0.3,0.7-0.7,1.1-1c4.9-3.6,10.4-3.9,15.3-0.8c0.3,0.4,0.8,0.6,1.2,0.8l0,0
			c0.4,0.3,0.7,0.7,1.1,1c1.3,1.1,2.4,2.4,3.6,3.6c0.9,1.1,1.7,2.1,2.3,3.4c0.4,0.8,0.9,0.9,1.7,0.5c4.9-2.3,10.1-4,15.4-5.3
			c3.6-0.9,7.3-1.1,10.9-0.9c1.1,0.1,1.9,0.6,2.7,1.3c2.2,1.8,3,4.4,3.8,6.9c0.4,1.1,0.7,2.3,0.9,3.5c0.4,2.1,1,4.2,0.9,6.4
			c0,0.9,0.7,1.4,1.4,1.8c1,0.7,1.8,1.7,2.6,2.6c0.6,0.9,0.9,1.8,1.2,2.8c0.2,2.5,0,5,0.1,7.5c0,0.4,0,0.8,0,1.2
			c-0.4,3.9-1.9,7.5-3.8,10.9c-0.2,0.3-0.4,0.6-0.3,1c0,0.2,0.1,0.4,0.2,0.5c0,0.5,0.3,1,0.5,1.4c0.4,1.3,1.2,2.5,1.5,3.8
			c1,3,1.9,5.9,2.6,9c0.4,1.8,1,3.6,1,5.5c0.2,0.7,0.5,1.3,1.4,1.4c2.9,0,5.9,0.1,8.8,0.1c1.9,0,3.8,0.3,5.5,1.3
			C189.3,79.3,189.5,79.6,189.8,79.9z"/>
		<path class="st1" d="M82.8,193c10.1,0,20.2,0,30.3,0c2.5,0,5.1,0,7.6,0c2.1,0.3,4.1,0.1,6.2,0c0.5,0,1.1,0,1.6-0.1
			c1.1,0,2.1,0.1,3.2-0.1c1.1-0.2,2.2,0,3.3-0.2c0.6-0.2,1.2-0.1,1.7-0.1c0.5,0,1,0.1,1.5-0.1c0.3-0.1,0.5-0.1,0.8-0.1
			c0.4,0,0.9,0,1.3-0.2c0.8,0,1.5-0.2,2.3-0.3c0.4-0.1,0.9-0.2,1.3,0.1c-0.2,0.8-0.9,0.7-1.5,0.7c-0.6,0.1-1.3-0.1-1.9,0.1
			c-2.7,0.5-5.5,0.4-8.2,0.6c-3.5,0.3-7,0.3-10.6,0.1c-11-0.7-21.9-0.1-32.9-0.3c-4.3-0.1-8.6,0.2-12.9-0.2
			c-6.6-0.6-13.3-0.1-19.9-0.3c-1.1,0-2.2-0.5-3.4-0.4c-0.9-0.2-1.8,0-2.7-0.1c-0.6,0-1.3-0.1-1.8-0.5c-0.2-0.1-0.3-0.3-0.1-0.5
			c2.9,0.5,5.8,0.7,8.8,0.9c3.4,0.3,6.9,0.1,10.3,0.2c1.8,0,3.7-0.3,5.5-0.1c3.2,0.5,6.3,0.6,9.5,0.6
			C82.4,192.9,82.6,192.9,82.8,193z"/>
		<path class="st2" d="M173.5,93.6c-0.2,0-0.3-0.2-0.5-0.3c-0.3-1.4,0.1-2.7,0.2-4.1c0.1-1.4,0.4-2.7,0.3-4.1c0-0.3,0-0.5,0-0.8
			c0.1-1.4,0.3-1.6,1.6-1.8c2.3-0.5,4.7-0.4,7-0.2c2.2,0.2,4.4-0.1,6.6-0.2c0.4,0,0.7-0.5,1.2-0.4c-0.1,0.5-0.5,0.7-0.9,0.8
			c-2.2,0.3-4.4,0.5-6.6,0.4c-2.4-0.2-4.7-0.1-7.1,0.1c-0.9,0.1-1.3,0.5-1.4,1.4c0,1.1,0,2.3-0.1,3.4
			C173.8,89.7,173.4,91.6,173.5,93.6z"/>
		<path class="st3" d="M190,81.7c-1.2,0.9-2.7,0.6-4.1,0.8c-2.5,0.2-5.1-0.2-7.6-0.2c-1.3,0-2.4,0.3-3.7,0.4c-0.9,0.1-1,0.9-1,1.5
			c0.1,3-0.7,6-0.7,8.9c-0.6-0.8-0.2-1.6-0.1-2.4c0.2-2.3,0.6-4.6,0.5-6.9c0-0.9,0.3-1.5,1.3-1.7c2-0.4,4-0.5,6-0.3
			c2.6,0.2,5.3,0.1,7.9-0.1c1-0.1,1.4-0.6,1.1-1.6C190.4,80.7,190.2,81.2,190,81.7z"/>
		<path class="st4" d="M40.6,118.3c1.7,1.2,3.4,2.5,5.2,3.7c3.1,2,6.2,3.7,9.7,4.8c0.6,0.2,1.2,0.5,1.7,0.8c0.1,0.1,0.1,0.1,0,0.2
			c-3.6-1.1-7-2.7-10.3-4.6c-2-1.2-3.8-2.5-5.5-3.9c-1.1-0.9-2.2-0.7-3.3-0.1c-1.5,0.9-3,1.7-4.6,2.6c-0.1-0.1-0.1-0.2-0.1-0.3
			c0.2-0.7,0.7-0.9,1.2-1.1c0.6-0.2,1-0.6,1.5-0.9c0.1-0.1,0.2-0.1,0.2-0.1c0.7-0.2,1.3-0.8,2.1-1c0.1,0,0.2-0.1,0.3-0.1
			C39.4,118,40,118.1,40.6,118.3z"/>
		<path class="st5" d="M19.7,102.6c-0.1,0.5-0.7,0.6-0.8,1.1c-0.3,1.3,0.7,2.5,2.1,2.1c2.3-0.6,4.8-0.5,7.1-1.1
			c1.4-0.4,3,0.7,3.1,1.9c-0.1,0-0.2,0-0.2-0.1c-0.6-0.9-1.4-1.2-2.4-0.9c-2.6,0.8-5.4,0.7-8.1,0.8c-0.7,0-1.1-0.3-1.6-0.7
			C18.3,104,18.5,103.2,19.7,102.6z"/>
		<path class="st6" d="M9.8,88.8c4.5,0.1,9-0.5,13.5-0.8c1.5-0.1,2.1,0.5,2.2,1.8c-0.3-0.8-0.9-1-1.8-1c-4.3,0.1-8.5,0.2-12.8,0.3
			C10.6,89,10.1,89.2,9.8,88.8z"/>
		<path class="st7" d="M140.4,192.8c0.8-0.3,1.7,0,2.5-0.3c0.3-0.1,0.7-0.1,1-0.4c0.1-0.1,0.2-0.2,0.3-0.3c2.8-0.5,5.2-1.7,7.5-3.2
			c0.3-0.2,0.6-0.4,0.7-0.7c0.1-0.1,0.1-0.2,0.2-0.2c1.1-0.6,1.9-1.6,2.7-2.5c0.1-0.1,0.3-0.3,0.4-0.4c0.3-0.1,0.5-0.5,0.9-0.4
			c-0.6,1.6-2,2.5-3.2,3.6c-2.1,1.9-4.5,3.1-7.1,3.8C144.5,192.4,142.5,193.2,140.4,192.8z"/>
		<path class="st8" d="M124.4,137.3c-0.1-0.8-0.5-1.6-0.5-2.4c0.2-0.5,0.7-0.7,1.2-0.8c2.9-0.5,5.7-1.3,8.6-1.9
			c1.2-0.2,2.3-0.7,3.5-0.8c0.1,0.1,0.1,0.2,0.1,0.3c-0.5,0.8-1.4,0.8-2.2,1c-1.8,0.4-3.6,0.6-5.4,1.2c-0.6,0.2-1.2-0.1-1.8,0.2
			c-0.4,0.1-0.9,0.2-1.3,0.4c-2.2,0.6-2.2,0.6-2.1,2.9C124.5,137.4,124.4,137.4,124.4,137.3z"/>
		<path class="st9" d="M137.2,131.7c0-0.1,0-0.1,0-0.2c1.1-0.6,2.3-0.7,3.4-1.1c1.6-0.8,3.3-1.2,4.9-1.9c0.9-0.4,1.7-1,2.7-1.2
			c0.1,0,0.2,0,0.3,0.1c-0.1,0.7-0.8,0.8-1.2,1.1c-0.3,0.2-0.7,0.2-1,0.4c-1.9,0.9-3.9,1.2-5.7,2.3c-0.8,0.5-1.7,0.5-2.5,0.6
			C137.8,131.8,137.5,131.8,137.2,131.7z"/>
		<path class="st10" d="M184.9,99.2c0.9-0.8,0.9-1.4-0.2-2.4c1.1,0.1,1.1,1,1.1,1.7c0,0.9-0.6,1.1-1.4,1.1c-3.2,0-6.3,0-9.5,0
			c-2.8,0-2.9,0.1-3.7,2.6c-0.4-0.4-0.2-0.9-0.2-1.3c0-0.1,0.1-0.2,0.1-0.3c0.6-1,1.4-1.5,2.6-1.5c1.7,0,3.4,0.2,5.2,0.2
			c1.7,0,3.3,0,5,0C184.3,99.3,184.6,99.4,184.9,99.2z"/>
		<path class="st11" d="M171.4,44.2c0-0.4,0-0.8,0.1-1.1c0.1-0.1,0.1-0.1,0.2,0c0.2,2.8-0.2,5.5-1.4,8.1c-0.1,0.2-0.1,0.4-0.2,0.6
			c-0.4,1.2-0.8,2.4-1.8,3.3c-0.1-0.1-0.1-0.2-0.2-0.3c0.1-1,0.8-1.7,1.1-2.6c0.7-1.8,1.4-3.6,1.9-5.5c0.2-0.3,0.1-0.7,0.2-1.1
			C171.4,45.1,171.3,44.6,171.4,44.2z"/>
		<path class="st12" d="M18.9,105.6c0.8,0.6,1.8,0.7,2.8,0.6c2.3-0.2,4.6-0.1,6.8-0.8c1.4-0.4,2.1,0,2.5,1c-0.9-1-2-1-3.1-0.5
			c-1.4,0.6-2.8,0.3-4.3,0.5c-1,0.2-2.1,0-3.2,0C19.7,106.5,19.2,106.3,18.9,105.6z"/>
		<path class="st8" d="M160.5,172.8c0-2.6,0-5.2,0-7.8c0.3,0.3,0.2,0.6,0.2,0.9c0,2.9,0,5.8-0.1,8.7c0,0.8-0.1,1.7-0.5,2.4
			c-0.2,0.2-0.2,0.7-0.6,0.4c-0.1-0.3,0.1-0.5,0.2-0.7C160.1,175.5,160.4,174.2,160.5,172.8z"/>
		<path class="st13" d="M168.2,115.2c1.6,0.6,3.2,1,4.7,1.9c0.1,0.1,0.1,0.2,0,0.3c-1.6-0.6-3.1-1.4-4.7-1.8
			c-0.5-0.1-1.1-0.2-1.7-0.3c-0.8-0.1-1.5,0.1-2,0.8c-0.2,0.3-0.6,0.5-0.9,0.8c-0.1-0.1-0.2-0.3-0.1-0.5c0.8-1.4,1.6-1.8,3.1-1.5
			c0.2,0,0.4,0,0.6,0.1C167.5,114.9,167.9,115,168.2,115.2z"/>
		<path class="st14" d="M159.6,177.5c0.3,0,0.3-0.4,0.6-0.4c-0.5,2.2-1.3,4.2-2.7,6.1c-0.3,0.4-0.5,0.8-0.8,1.2
			c-0.3,0.2-0.5,0.4-0.8,0.6c-0.4-0.9,0.5-1.2,0.8-1.7c0.4-0.3,0.6-0.8,0.9-1.2c0-0.1,0.1-0.2,0.1-0.2c0.7-1,1.2-2.1,1.5-3.3
			C159.3,178.1,159.3,177.8,159.6,177.5z"/>
		<path class="st15" d="M174.7,117.9c1,0.4,2,0.7,3.1,1.1c0.9,0.3,1.5-0.2,2.1-0.8c0.5-0.5,0.7-1,0.2-1.7c-0.1-0.1-0.1-0.3,0-0.4
			c1,1,0.5,2.6-0.8,3.1c-1.3,0.5-2.5-0.2-3.6-0.6c-0.4-0.1-0.8-0.4-1.2-0.6C174.5,117.9,174.6,117.8,174.7,117.9z"/>
		<path class="st16" d="M137.2,131.7c0.3,0,0.5,0,0.8,0c-0.9,0.7-1.9,1-2.9,1.2c-1.5,0.3-3.1,0.6-4.6,1c-0.9,0.2-1.7,0.3-2.6,0.2
			c2.2-0.5,4.4-0.9,6.6-1.4C135.5,132.4,136.5,132.3,137.2,131.7z"/>
		<path class="st17" d="M146.3,128.8c0.7-0.6,1.6-0.7,2.3-1.4c0.1-0.5,0.6-0.6,0.9-0.8c1.1-0.5,2.1-1,3.1-1.7
			c0.2-0.2,0.5-0.3,0.8-0.2c0.1,0,0.2,0.1,0.2,0.2c-1.2,1.2-2.8,1.6-4.2,2.5c-0.7,0.4-1.4,0.8-2.1,1.2
			C147,128.8,146.7,128.9,146.3,128.8z"/>
		<path class="st18" d="M159.8,120.4c-1.5,1.7-3.3,3-5.2,4c-0.1,0.1-0.3,0.1-0.4,0c-0.1-0.5,0.3-0.5,0.5-0.7c1.4-1,2.8-1.8,4-3.1
			c0.4-0.2,0.5-0.7,0.9-0.8c0.1,0,0.3,0,0.4,0.1C160.1,120.1,159.9,120.2,159.8,120.4z"/>
		<path class="st19" d="M28.1,118.7c-0.3,0.6-0.7,0.9-1.2,1.2c-1.2,0.7-2.1,1.8-3,2.8c-0.5,0.6-0.1,1.4-0.2,2
			c-0.4-0.9-0.5-1.8,0.1-2.5C25,120.8,26.5,119.6,28.1,118.7z"/>
		<path class="st20" d="M35.8,184.5c0.8,0.8,1.5,1.6,2.3,2.4c1.1,1.2,2.4,2,3.8,2.7c-0.1,0.1-0.2,0.1-0.3,0.1c-0.8,0-1.4-0.4-2-0.9
			c-1.3-1-2.4-2.2-3.6-3.5C35.9,185.1,35.7,184.8,35.8,184.5z"/>
		<path class="st21" d="M168.2,55c0.8-1,1.1-2.2,1.8-3.3c0.3,1.2-0.7,1.8-1,2.8c-0.1,0.3-0.3,0.6-0.5,0.8c-0.6,0.8-0.8,1.7-0.2,2.7
			c-0.1,0.1-0.2,0.1-0.2,0c-0.4-0.4-0.6-0.9-0.6-1.4C167.4,55.9,167.6,55.3,168.2,55z"/>
		<path class="st22" d="M167.8,30.3c-1.6-0.6-1.6-1.9-1.6-3.2c-0.1-1.3-0.4-2.5-0.6-3.8c-0.1-0.5-0.2-1-0.1-1.5
			c0.6,1.6,0.9,3.4,1,5.1c0.1,1.3,0.2,2.4,1.5,3.1C167.9,30.1,167.9,30.2,167.8,30.3z"/>
		<path class="st23" d="M159.8,120.4c0.1-0.2,0.1-0.3,0.2-0.5c0-0.3,0.2-0.5,0.4-0.8c0.8-0.8,1.6-1.7,2.5-2.5
			c0.2-0.2,0.4-0.5,0.8-0.4c0,0.1,0,0.3,0,0.4C162.4,118,161.3,119.4,159.8,120.4z"/>
		<path class="st24" d="M39.8,167.8c-1.2,1.5-2.5,2.9-4,4C36.8,170.2,38.2,168.9,39.8,167.8z"/>
		<path class="st25" d="M24.9,77.2c0,1.6,0.1,3.2,0,4.8c0,0.9-0.6,1.4-1.5,1.5c-0.9,0-1.9,0-2.8,0c0.7-0.3,1.5-0.1,2.2-0.2
			c1.4-0.1,1.9-0.6,1.9-2C24.8,80,24.7,78.6,24.9,77.2z"/>
		<path class="st13" d="M23.7,125c0.2,0.1,0.4,0.2,0.5,0.3c0.1,0,0.3,0.1,0.4,0.2c1.1,0.3,2.1,0.3,3.1-0.5c0.4-0.4,0.9-0.8,1.6-0.6
			c0.1,0,0.2,0.1,0.2,0.2c-1.4,1-2.7,2-4.6,1.6C24.4,125.9,23.9,125.7,23.7,125z"/>
		<path class="st26" d="M127.6,12.5c-1.4-1-2.5-2.3-3.7-3.5c-0.1-0.1-0.1-0.2,0.1-0.3C125.3,9.7,126.7,10.9,127.6,12.5z"/>
		<path class="st27" d="M66.4,130.4c1.4,0.1,2.8,0.5,4.1,0.9c0.6,0.2,1,0.7,0.9,1.4c-0.9-1.5-2.5-1.4-3.9-1.8
			C67.1,130.8,66.6,130.9,66.4,130.4z"/>
		<path class="st28" d="M29.6,124.4c-0.1,0-0.2,0-0.3,0c0-0.1,0-0.2,0-0.2c1.2-1.2,2.6-2.2,4.2-2.7c0,0.1,0,0.2,0,0.3
			C32.4,122.8,31,123.6,29.6,124.4z"/>
		<path class="st29" d="M171.3,100.8c0,0.5,0,0.9,0,1.4c-0.4,1.3-1,2.4-1.6,3.6c-0.2-0.1-0.2-0.4-0.2-0.6c0.1-0.7,0.5-1.4,0.8-2.1
			c0.2-0.3,0.3-0.6,0.4-0.9c0.1-0.5,0.4-0.9,0.4-1.4C171.1,100.8,171.2,100.8,171.3,100.8z"/>
		<path class="st30" d="M41.6,189.6c0.1,0,0.2,0,0.3-0.1c1.5,0.5,3,1.1,4.6,1.4c0,0,0.1,0.1,0.1,0.1c0,0.1,0,0.1,0,0.1
			c0,0-0.1,0-0.1,0.1C44.7,190.9,43.1,190.5,41.6,189.6z"/>
		<path class="st30" d="M48,191.4c0.6,0.6,1.4,0.7,2.2,0.8c0.8,0.1,1.7-0.1,2.5,0.2c-2.2,0.3-4.3-0.1-6.3-1.2c0,0,0.1-0.1,0.1-0.1
			c0.5-0.1,0.9,0,1.3,0.2C47.9,191.3,48,191.3,48,191.4z"/>
		<path class="st31" d="M156.7,154.6c-1-1.2-2-2.4-3-3.6c1.1,0.3,1.6,1.3,2.2,2C156.2,153.4,156.9,153.8,156.7,154.6z"/>
		<path class="st24" d="M44.1,165.6c-1.3,1-2.8,1.6-4.3,2.2C41.1,166.8,42.5,166.1,44.1,165.6z"/>
		<path class="st24" d="M57.5,161.4c-0.2,1.1-1,1.7-2,1.8c-1,0.1-2,0.6-3,0.4c0.7-0.2,1.5-0.5,2.2-0.5
			C56,163.1,56.8,162.4,57.5,161.4z"/>
		<path class="st32" d="M171.6,43.1c-0.1,0-0.1,0-0.2,0c0-2.6,0-5.1,0-7.7c0.3,0.1,0.2,0.4,0.2,0.6
			C171.7,38.4,171.8,40.7,171.6,43.1z"/>
		<path class="st33" d="M169.6,105.2c0,0.2,0,0.4,0,0.6c0,0.7-0.2,1.3-0.6,1.8c-0.5,0.6-0.7,1.2-0.6,1.9c-0.1-0.1-0.3-0.1-0.4-0.2
			c-0.2-0.3-0.2-0.6-0.1-0.8c0.4-1.1,1-2.2,1.4-3.3C169.4,105.2,169.5,105.2,169.6,105.2z"/>
		<path class="st34" d="M105.4,8.8c-0.7,1.1-1.9,1.6-2.6,2.6c-0.1,0.1-0.2,0.1-0.3,0c0.8-1.1,1.8-2,2.9-2.9
			C105.5,8.7,105.5,8.8,105.4,8.8z"/>
		<path class="st35" d="M167.8,30.3c0-0.1,0-0.2,0-0.3c1.1,0.6,1.9,1.5,2.4,2.6C169.3,32,168.6,31,167.8,30.3z"/>
		<path class="st31" d="M34,111.3c0.4,0.5,0.9,1,1.3,1.5c0.6,0.8,0.5,1.2-0.5,1.7c0.7-0.6,0.6-1.2-0.1-1.8
			C34.3,112.3,33.9,111.9,34,111.3z"/>
		<path class="st36" d="M168,58c0.1,0,0.2,0,0.2,0c0.5,1.3,1.4,2.4,1.4,3.8C169.1,60.5,168.5,59.3,168,58z"/>
		<path class="st37" d="M61.9,152.1c-0.1,0.9-0.5,1.5-1.2,2C61,153.4,61.4,152.7,61.9,152.1z"/>
		<path class="st38" d="M99,16.5c-0.1,0.8-0.5,1.5-1.2,2C98.1,17.8,98.5,17.1,99,16.5z"/>
		<path class="st39" d="M101.6,12.7c0,0.9-0.7,1.2-1.2,1.6C100.7,13.6,101.1,13.1,101.6,12.7z"/>
		<path class="st40" d="M57.3,127.8c0-0.1,0-0.1,0-0.2c0.7,0,1.2,0.6,1.8,0.8C58.4,128.6,57.9,128.1,57.3,127.8z"/>
		<path class="st41" d="M174.7,77.7c-1,0-1.5-0.4-1.4-1.4C173.7,76.8,173.9,77.5,174.7,77.7z"/>
		<path class="st19" d="M36.4,17.1c0.1,0.9-0.7,1.2-1.2,1.6C35.4,18.1,35.9,17.6,36.4,17.1z"/>
		<path class="st42" d="M180.1,116.1c0,0.1,0,0.3,0,0.4c-0.6-0.5-1.2-1-1.6-1.6c0.3,0,0.5,0.3,0.8,0.4
			C179.6,115.6,179.9,115.8,180.1,116.1L180.1,116.1z"/>
		<path class="st43" d="M174.7,117.9c-0.1,0-0.2,0-0.3,0.1c-0.6-0.1-1-0.5-1.6-0.6c0-0.1,0-0.2,0-0.3
			C173.6,117.2,174.1,117.5,174.7,117.9z"/>
		<path class="st44" d="M124.4,137.3c0.1,0,0.1,0,0.2,0c0.3,0.6,0.5,1.3,0.4,2C124.7,138.6,124.5,138,124.4,137.3z"/>
		<path class="st45" d="M65.8,145.9c0.1,0.7-0.3,0.9-0.8,1.2C65.1,146.6,65.4,146.2,65.8,145.9z"/>
		<path class="st46" d="M32.4,108.6c0.4,0.3,0.7,0.7,0.8,1.2C32.7,109.6,32.4,109.2,32.4,108.6z"/>
		<path class="st47" d="M105.4,8.8c0-0.1,0-0.2,0-0.3c0.3-0.3,0.6-0.6,1-0.8C106.2,8.3,105.8,8.6,105.4,8.8z"/>
		<path class="st42" d="M124,8.6c0,0.1,0,0.2-0.1,0.3c-0.3-0.4-0.8-0.6-1-1.1C123.4,7.9,123.7,8.3,124,8.6z"/>
		<path class="st48" d="M102.6,11.4c0.1,0,0.2,0,0.3,0c-0.3,0.4-0.5,0.8-1,1C101.9,12,102.2,11.7,102.6,11.4z"/>
		<path class="st49" d="M123,7.8c-0.6,0-1-0.2-1.2-0.8C122.2,7.2,122.7,7.4,123,7.8z"/>
		<path class="st50" d="M67,143.9c0.1,0.5-0.2,0.8-0.6,1C66.4,144.5,66.7,144.1,67,143.9z"/>
		<path class="st51" d="M35.2,18.7c0.1,0.5-0.2,0.8-0.6,1C34.6,19.3,34.9,19,35.2,18.7z"/>
		<path class="st52" d="M38.8,15.1c-0.2,0.4-0.5,0.7-1,0.6C38.1,15.4,38.4,15.1,38.8,15.1z"/>
		<path class="st45" d="M152.1,149.7c-0.4,0.1-0.6-0.1-0.8-0.4c-0.1-0.1-0.1-0.2,0-0.3C151.7,149.2,152,149.4,152.1,149.7z"/>
		<path class="st53" d="M189.8,79.9c-0.4-0.2-0.6-0.5-0.8-0.8C189.4,79.1,189.7,79.4,189.8,79.9z"/>
		<path class="st15" d="M180.1,116.1c-0.3-0.2-0.6-0.5-0.8-0.8C179.8,115.4,180.1,115.7,180.1,116.1z"/>
		<path class="st17" d="M154.1,124.4c0.1,0,0.3,0,0.4,0c-0.3,0.3-0.6,0.4-1,0.4c0,0-0.1-0.1-0.1-0.1
			C153.6,124.4,153.7,124.2,154.1,124.4z"/>
		<path class="st54" d="M37.6,15.9c0,0.5-0.4,0.6-0.8,0.6C36.9,16.1,37.3,16,37.6,15.9z"/>
		<path class="st55" d="M99.6,15.5c0.1,0.5-0.1,0.8-0.6,1C99.1,16.1,99.3,15.8,99.6,15.5z"/>
		<path class="st56" d="M32.4,53.3c0.1,0.5-0.2,0.8-0.6,1C31.9,53.9,32.1,53.6,32.4,53.3z"/>
		<path class="st57" d="M150.5,148.5c-0.5,0-0.8-0.2-1-0.6C149.9,148,150.3,148.2,150.5,148.5z"/>
		<path class="st58" d="M149.5,147.9c-0.3,0-0.7,0-0.8-0.4C149,147.5,149.4,147.6,149.5,147.9z"/>
		<path class="st52" d="M100.4,14.3c0.1,0.3,0,0.6-0.4,0.6C100,14.6,100.1,14.4,100.4,14.3z"/>
		<path class="st59" d="M9.2,88.2c0.3,0.1,0.5,0.3,0.6,0.6C9.4,88.8,9.2,88.6,9.2,88.2z"/>
		<path class="st26" d="M151.3,149.1c0,0.1,0,0.2,0,0.3c-0.3-0.1-0.5-0.3-0.6-0.6C151,148.7,151.2,148.9,151.3,149.1z"/>
		<path class="st56" d="M31.8,54.3c0,0.3,0,0.7-0.4,0.8C31.4,54.8,31.5,54.5,31.8,54.3z"/>
		<path class="st60" d="M63,150.3c0.1,0.3,0,0.6-0.4,0.6C62.6,150.7,62.7,150.5,63,150.3z"/>
		<path class="st0" d="M163.1,60.6c1.3,2,2,4.1,2.8,6.2c1.1,3.2,1.8,6.5,2.2,9.9c0.1,1-0.3,1.6-1.3,1.8c-2.2,0.4-4.4,0.7-6.6,1.4
			c-0.5,0.2-1.1,0.2-1.4,0.6c-0.5,0.6-0.8,1.2-0.5,1.9c0.4,0.7,1.5,1.3,2.5,1.2c1.9-0.3,3.8-0.5,5.7-0.8c1.4-0.2,1.7,0,1.7,1.3
			c0.2,2.8-0.4,5.5-0.8,8.3c-0.1,0.9-0.9,0.9-1.6,0.9c-1.1-0.1-2.2,0.1-3.3,0.3c-0.7,0.1-1.3,0.5-1.4,1.2c-0.1,0.7,0.4,1.2,1,1.5
			c0.7,0.5,1.5,0.6,2.2,0.8c1.7,0.4,1.8,0.7,1.2,2.3c-0.8,2.4-1.9,4.7-3.2,6.9c-0.4,0.6-0.9,0.9-1.5,0.9c-0.7,0-1.3-0.1-2-0.2
			c-0.7-0.1-1.4-0.3-2.1-0.2c-0.8,0.1-1.4,0.4-1.6,1.2c-0.3,0.9,0.1,1.5,0.8,2c0.5,0.4,1.1,0.6,1.7,0.9c1.2,0.6,1.3,0.6,0.4,1.8
			c-2.6,3.3-6,5.6-9.5,7.7c-5.7,3.4-12,5.4-18.5,6.9c-11.1,2.5-22.2,2.5-33.4,1.9c-9.3-0.6-18.5-1.7-27.6-3.9
			c-8-1.9-15.6-4.9-22.3-9.7c-1.2-0.9-1.2-1.2,0.1-2c0.9-0.5,1.9-0.9,2.7-1.6c0.6-0.5,1-1.1,0.6-1.9c-0.4-0.7-0.9-1.3-1.9-1.1
			c-1.5,0.2-2.9,0.7-4.2,1.3c-1.8,0.8-2.9,0.5-4.1-1.1c-1.4-1.8-2.8-3.7-3.8-5.8c-0.4-0.8-0.2-1.2,0.7-1.5c1.3-0.4,2.7-0.9,4-1.3
			c0.6-0.2,1.1-0.6,1-1.3c-0.1-0.7-0.5-1.2-1.2-1.4c-0.8-0.2-1.6,0-2.4,0c-1,0.1-2.1,0.2-3.1,0.2c-0.5,0-1-0.1-1.2-0.6
			c-1.2-2.8-2.2-5.7-2.3-8.9c0-1.3,0-1.4,1.4-1.4c1.8,0,3.7,0.1,5.5,0.1c0.4,0,0.7,0,1.1-0.1c0.8-0.2,1.3-0.7,1.4-1.4
			c0.1-0.8-0.5-1.3-1.2-1.6c-1.7-0.7-3.5-0.8-5.2-1.1c-0.7-0.1-1.5-0.2-2.2-0.3c-1.3-0.1-1.7-0.7-1.7-2c0.3-11.6,3.7-22.2,10.5-31.6
			c0.5-0.8,1.1-1.5,1.1-2.5c0-1.4-1.4-2.5-2.7-1.9c-0.2,0.1-0.4,0.2-0.6,0.3c-1.3,0.8-1.3,0.8-1.9-0.7c-1.4-3.3-1.6-6.7-1.2-10.1
			c0.4-3.8,1.3-7.5,3.2-10.9c2.1-3.6,4.1-4.5,8.2-3.9c6,0.9,11.7,3,17.1,5.6c1.2,0.6,2.4,1.1,3.5,1.8c1.8,1.2,3.8,1.4,5.8,0.8
			c6.8-1.9,13.7-2,20.6-1.8c0.8,0,0.8,0.3,0.6,0.9c-1.3,4.7-2,9.5-0.8,14.4c1.5,6,6.3,10.1,12.5,10.6c4.7,0.4,9.1-0.6,13.4-2.3
			c0.9-0.4,1.3-0.2,2,0.5c3.8,4.2,8.6,5.9,14.2,4.8c0.7-0.1,1.1,0,1.4,0.7c1.5,3.1,3.3,5.8,6.1,7.8c6.2,4.4,13.5,3.6,19-2.1
			C162.6,61.2,162.8,60.9,163.1,60.6z"/>
		<path class="st61" d="M96.8,134.7c1.6,0,3.3,0,4.9,0.1c1,0,1.6,0.7,2.1,1.5c1.4,2.2,2.9,4.3,4.6,6.2c2.5,2.8,5.7,4.5,9.2,5.7
			c1.1,0.4,2.3,0.8,3.5,1.1c0.6,0.2,0.9,0.5,1,1c0.9,3.3,1.5,6.6,2,10c1.3,8.2,1.9,16.4,2,24.7c0,1.6-0.2,1.9-1.8,2
			c-4.3,0.5-8.6,0.3-13,0.4c-6.5,0.2-12.9,0.2-19.4,0.1c-5.6-0.1-11.3-0.2-16.8-1.2c-3.6-0.6-6.9-1.9-9.4-4.6c-4-4.3-5-9.5-3.7-15.1
			c1-4.3,3.2-8.1,5.2-11.9c2-3.7,4.3-7.3,6.2-11c1.7-3.2,3.1-6.5,4-9.9c0.2-0.7,0.5-1,1.3-0.9c5.3,1,10.7,1.5,16.1,1.7
			c0.1,0,0.3,0.1,0.4,0.1C95.7,134.9,96.3,134.8,96.8,134.7z"/>
		<path class="st0" d="M154.7,169.1c0,9.1-6.1,15.9-15.1,16.9c-2.1,0.2-4.2,0.4-6.3,0.4c-1.6,0-1.6-0.1-1.7-1.6
			c-0.2-5.6-0.3-11.2-0.8-16.8c-0.4-4.2-1.1-8.4-1.7-12.6c-0.4-2.5-0.4-2.7,2-3.6c9.4-3.7,19.6,0.1,22.8,11.3
			C154.5,165,154.7,167,154.7,169.1z"/>
		<path class="st61" d="M106,47.5c-4.4-0.4-7.6-3.5-8.4-8.2c-0.6-3.6,0.1-7.2,0.9-10.7c1.5-6.2,4.4-11.7,9.1-16.1
			c1.7-1.6,3.7-2.7,6.1-3c0.8,0.2,1.6,0.1,2.4,0c2.7,0.4,4.7,1.9,6.6,3.8c2.8,2.8,4.6,6.3,5.9,10c0.6,1.7,0.6,1.6-1,2.4
			c-1.5,0.8-2.6,0.7-4-0.3c-2.7-1.9-5.8-1.9-8.7-0.3c-2.9,1.6-4.5,4.2-4.6,7.5c-0.1,4.3,2.5,7.8,6.7,8.8c0.6,0.1,0.9,0.4,1,0.9
			c0.1,0.8,0.3,1.6,0.5,2.4c0.1,0.4,0.2,0.6-0.3,0.8c-2.6,0.9-5.2,1.8-8.1,2C108.7,47.5,107.4,47.5,106,47.5z"/>
		<path class="st61" d="M157.8,32c1.6,0,3.6,0.2,5.6,0.7c2.3,0.5,3.6,2.1,3.9,4.4c0.6,5.9-0.9,11.2-4,16.1c-1.6,2.5-3.3,4.9-5.7,6.6
			c-4.1,3-8.4,2.8-12.3-0.4c-1.8-1.5-3.1-3.3-4.1-5.4c-0.3-0.6-0.3-1.1,0.4-1.4c0.1,0,0.2-0.1,0.2-0.2c0.8-1,1.5-0.9,2.6-0.2
			c2.6,1.7,6,1.4,8.4-0.5c2.6-2,3.6-5.2,2.7-8.4c-0.8-2.9-3.5-5.1-6.6-5.4c-0.7-0.1-1.1-0.2-1.1-1c-0.1-0.8-0.3-1.5-0.6-2.2
			c-0.2-0.6,0-0.9,0.6-1.1C150.9,32.6,154.1,32,157.8,32z"/>
		<path class="st61" d="M122.2,39.5c-0.1-4.3,3.5-8.9,7.9-10c4.5-1.1,9.4,0.7,11.8,4.4c2.6,4,2.4,9.1-0.4,12.8
			c-3.8,5.1-11.3,5.6-16.1,1.2c-1.9-1.8-3.1-4.1-3.2-6.8C122.3,40.5,122.3,40,122.2,39.5z"/>
		<path class="st0" d="M160.5,27.7c-4.4-0.4-9-0.1-13.3,1.5c-1.9,0.7-3.1,0.6-4.5-0.9c-2.1-2.2-5-3.2-8-3.5
			c-1.3-0.1-1.1-1.1-1.4-1.7c-0.3-0.8,0.4-0.9,0.8-1.1c2.9-1.5,6-2.7,9.1-3.8c3.4-1.2,7-1.9,10.5-2.3c0.9-0.1,1.8,0,2.7,0.2
			c0.6,0.1,1.1,0.5,1.5,1.1c1.6,2.3,2.2,4.9,2.8,7.6c0.2,0.8,0.3,1.7,0.5,2.6C161.4,27.7,161.2,27.8,160.5,27.7z"/>
		<path class="st0" d="M61.3,186.2c-5.7,0.5-11.2,0.7-16.4-1.4c-1.7-0.7-3.3-1.6-4.2-3.2c-1.7-2.9-1.2-6.1,1.2-8.7
			c1.7-1.8,4-2.7,6.4-3.2c2.2-0.5,4.4-0.8,6.7-0.8c0.7,0,0.9,0.1,0.8,0.8c-0.3,4.1,0.4,8.1,2.3,11.9
			C58.8,183.2,59.9,184.7,61.3,186.2z"/>
		<path class="st62" d="M117.7,135.1c0.5,0.2,0.6,0.7,0.8,1.1c0.9,2.1,1.4,4.2,1.9,6.4c0.2,0.9,0,1-0.8,0.8
			c-4.2-1.2-7.4-3.8-9.9-7.2c-0.3-0.4-0.6-0.9,0.2-1.1c1.7,0.1,3.4,0,5.2,0C115.9,135,116.8,135.1,117.7,135.1z"/>
		<path class="st61" d="M119.5,28.6c0.4,0,0.7,0.1,1.1,0.2c1.3,0.5,1.3,0.6,0.4,1.7c-1.4,1.7-2.4,3.7-2.9,5.9
			c-0.1,0.5-0.2,0.8-0.8,0.6c-1.6-0.6-2.9-2.7-2.7-4.4c0.3-2.2,1.8-3.8,3.7-4C118.7,28.6,119.1,28.7,119.5,28.6z"/>
		<path class="st61" d="M151.5,45.7c-0.1,1.1-0.7,2.1-1.8,2.8c-1.1,0.6-2.1,0.5-3.1-0.2c-0.4-0.3-0.6-0.5-0.3-1.1
			c0.8-1.3,1.3-2.8,1.6-4.3c0.1-0.6,0.5-0.7,1-0.6C150.2,42.5,151.5,44,151.5,45.7z"/>
		<path class="st63" d="M156.9,183.3c-0.4,0.5-0.9,0.9-1,1.6c-0.1,0.1-0.2,0.2-0.3,0.2c-0.9,0.9-1.8,1.9-2.8,2.7l0,0
			c-1.6,1.2-3.3,2.3-5.2,3c-1.1,0.4-2.2,0.8-3.3,1.2c-0.1,0-0.2,0-0.3,0.1c-1.3-0.2-2.4,0.5-3.7,0.4c-0.4,0.2-0.8,0-1.2,0.2
			c-0.3,0-0.5,0-0.8,0c-0.4,0.3-1-0.1-1.4,0.2c-0.6,0-1.2,0-1.8,0c-0.1,0-0.1-0.1-0.1-0.1c0,0,0-0.1,0.1-0.1c1.3-0.4,2.6-0.2,4-0.4
			c5-0.6,9.7-1.8,13.7-5c2.9-2.4,5-5.5,6.4-9c0.2-0.6,0.5-1.2,0.7-1.7c0.1,0.1,0.1,0.3,0,0.4c-0.1,0.2-0.1,0.4-0.2,0.6
			c-0.1,0.3-0.1,0.7-0.2,1c-0.4,1.2-1,2.3-1.6,3.4l0,0C157.4,182.4,157.2,182.8,156.9,183.3z"/>
		<path class="st64" d="M82.8,193c-3.3,0-6.7,0.1-10-0.5c-1-0.2-2.1-0.1-3.1,0c-3.4,0.3-6.8,0.3-10.2,0.1c-3.8-0.2-7.7-0.3-11.4-1.1
			c0,0,0,0,0,0c-0.1-0.1-0.1-0.1,0-0.2c0,0,0-0.1,0.1-0.1c7.6,1.2,15.2,1,22.8,0.9c2.3,0,4.5,0.5,6.8,0.6c1.3,0.1,2.7,0.1,4,0.1
			C82,192.9,82.4,192.8,82.8,193z"/>
		<path class="st58" d="M140.6,130.4c-1,0.7-2.3,0.7-3.4,1c-4,1.1-8,2-12.1,2.8c-0.5,0.1-0.8,0.5-1.2,0.6c-0.4-0.7,0.1-0.8,0.6-0.9
			c3.3-0.7,6.6-1.4,9.9-2.2c1.6-0.4,3.1-0.8,4.7-1.3c0.5-0.1,0.9-0.4,1.4-0.4C140.7,130.2,140.7,130.3,140.6,130.4
			C140.7,130.4,140.7,130.4,140.6,130.4z"/>
		<path class="st65" d="M24.5,125.4c-0.1-0.1-0.1-0.1-0.2-0.2c2,0.3,3.5-0.9,5-1.9c2.6-1.7,5.2-3.5,8.1-4.8c0.5-0.2,1-0.4,1.5-0.6
			c0.5-0.2,1-0.2,1.5,0.2c-0.5,0.3-1.2-0.1-1.7,0.5l0,0c-0.9,0.1-1.5,0.7-2.2,1l0,0c-0.6,0.3-1.1,0.6-1.7,0.9
			c-1.4,0.7-2.6,1.8-3.9,2.5c-1.3,0.7-2.4,1.6-3.7,2.3C26.3,125.9,25.4,125.7,24.5,125.4z"/>
		<path class="st66" d="M159.6,120c-0.3,0.2-0.3,0.7-0.8,0.8c-1.3,1-2.5,1.9-3.9,2.8c-0.2,0.1-0.3,0.2-0.5,0.3
			c-0.2,0-0.3-0.1-0.3-0.3c1.3-1.2,3-2,4.3-3.3c1.9-1.7,3.7-3.4,5.3-5.3c0.5-0.6,1-1.2,1.9-0.7c-0.1,0.2-0.4,0.3-0.6,0.4
			c-1.2,0.7-2,1.9-3,2.8C161.2,118.3,160.5,119.2,159.6,120z"/>
		<path class="st67" d="M171.4,44.2c0,0.5,0,1,0,1.5c-0.2,0.3,0.1,0.7-0.2,1c-0.5,2.2-1.3,4.3-2.2,6.3c-0.3,0.6-0.5,1.2-0.8,1.7
			c-0.3,0.5-0.5,1.1-1,1.5c-0.3-0.3-0.2-0.5,0-0.8C169.3,51.9,170.7,48.2,171.4,44.2z"/>
		<path class="st68" d="M169.6,105.2c-0.4,1.5-1.4,2.7-1.6,4.2c-0.6-0.3-0.4-0.7-0.2-1.2c0.9-2.2,1.8-4.3,2.7-6.5
			c0.2-0.5,0.3-0.9,0.5-1.4c0.1,0.2,0.1,0.3,0,0.5c-0.1,0.5-0.2,1-0.2,1.5c-0.4,0.2-0.2,0.6-0.4,0.8
			C170.2,103.9,169.9,104.6,169.6,105.2z"/>
		<path class="st69" d="M140.6,130.4c0-0.1,0-0.1,0-0.2c1.2-0.8,2.6-1,3.9-1.6c1.4-0.7,2.9-1.3,4.4-2c0.1-0.1,0.2-0.1,0.3,0
			c0,0.6-0.6,0.5-0.8,0.8C145.8,128.5,143.3,129.6,140.6,130.4z"/>
		<path class="st70" d="M135,192.6c0,0.1,0,0.1,0,0.2c-1.1,0.2-2.3,0.2-3.4,0.2c-1,0.3-2-0.1-3,0.2c-1.9,0.1-3.7-0.1-5.6,0.1
			c-0.7,0.1-1.6,0.2-2.3-0.3C125.5,193.1,130.3,192.7,135,192.6z"/>
		<path class="st71" d="M117.7,135.1c-0.1,0.2-0.1,0.5-0.4,0.4c-2.2-0.4-4.5-0.2-6.7-0.1c-0.3,0-0.6,0.1-0.7-0.3
			C112.5,134.8,115.1,134.8,117.7,135.1z"/>
		<path class="st72" d="M159.6,120c1.3-1.4,2.7-2.8,4-4.3c0.4-0.4,0.7-1.1,1.4-1.2c0.5-0.2,1-0.1,1.5,0c0.3,0.1,0.5,0.2,0.8,0.3
			c0.1,0,0.1,0.1,0.1,0.1c0,0,0,0.1-0.1,0.1c-1.4-0.1-2.8-0.1-3.6,1.4c-1.2,1.2-2.4,2.4-3.6,3.6C159.8,119.9,159.7,119.9,159.6,120z
			"/>
		<path class="st73" d="M171.1,100.9c0-0.2,0-0.3,0-0.5c0.3-1.3,0.6-1.6,1.9-1.6c1.7,0,3.4,0,5,0.4c-1.4,0.3-2.9,0.1-4.4,0.1
			c-1.2,0-1.9,0.5-2.3,1.5c0,0,0,0,0,0C171.2,100.8,171.1,100.9,171.1,100.9z"/>
		<path class="st69" d="M149.1,126.6c-0.1,0-0.1,0-0.2,0c1.7-1,3.5-2,5.2-3c0.1,0.1,0.2,0.1,0.2,0.2c0,0.4-0.4,0.4-0.6,0.5
			c-1.3,0.7-2.5,1.6-3.9,2.2C149.6,126.7,149.4,126.8,149.1,126.6z"/>
		<path class="st29" d="M171.3,100.8c0.2-1.1,0.9-1.6,2-1.6c1.5,0,3.1,0,4.6,0c0.3,0,0.6,0,1,0.1c0.1,0,0.1,0,0.1,0.1
			c0,0,0,0.1,0,0.1c-1.6,0-3.2,0.1-4.7,0C172.9,99.3,171.9,99.7,171.3,100.8z"/>
		<path class="st74" d="M106,47.5c1.3-0.3,2.7-0.3,4,0C108.7,47.7,107.4,47.7,106,47.5z"/>
		<path class="st73" d="M178.9,99.4c0,0,0-0.1,0-0.1c2,0,4,0,6,0c-0.3,0.4-0.7,0.2-1.1,0.2C182.2,99.4,180.5,99.4,178.9,99.4z"/>
		<path class="st75" d="M159.8,176.9c0-0.1,0-0.3,0-0.4c0.3-1.2,0.5-2.5,0.8-3.7C160.6,174.2,160.3,175.6,159.8,176.9z"/>
		<path class="st76" d="M167.2,56.2c0.3-0.5,0.5-1.1,1-1.5c0,0.1,0,0.1,0,0.2c-0.3,0.5-0.6,1.1-0.8,1.6
			C167.2,56.5,167.2,56.4,167.2,56.2z"/>
		<path class="st5" d="M38.6,118.6c0.4-0.7,1.1-0.5,1.7-0.5c0.1,0,0.3,0.1,0.3,0.2C39.9,118.2,39.3,118.3,38.6,118.6z"/>
		<path class="st77" d="M116.1,9.5c-0.8,0.3-1.6,0.3-2.4,0C114.5,9.4,115.3,9.4,116.1,9.5z"/>
		<path class="st78" d="M119.5,28.6c-0.4,0.3-0.8,0.3-1.2,0C118.7,28.4,119.1,28.4,119.5,28.6z"/>
		<path class="st79" d="M96.8,134.7c-0.6,0.4-1.2,0.1-1.8,0.2c0,0,0.1-0.1,0.2-0.2C95.7,134.6,96.3,134.6,96.8,134.7z"/>
		<path class="st1" d="M48.1,191.2c0,0.1,0,0.1,0,0.2c-0.5-0.1-1-0.2-1.5-0.3c0-0.1,0-0.1,0-0.2C47,190.9,47.6,191,48.1,191.2z"/>
		<path class="st80" d="M122.2,39.5c0.3,0.5,0.3,1.1,0,1.6C122.2,40.5,122.2,40,122.2,39.5z"/>
		<path class="st81" d="M166.5,114.5c-0.5,0-1,0-1.5,0c0.2-0.2,0.4-0.2,0.6-0.2C165.9,114.3,166.2,114.3,166.5,114.5z"/>
		<path class="st81" d="M167.2,114.9c0-0.1,0-0.1,0-0.2c0.3,0.1,0.8,0,1,0.4C167.9,115.1,167.5,115,167.2,114.9z"/>
		<path class="st82" d="M128.6,193.2c1-0.4,2-0.1,3-0.2C130.6,193.5,129.6,193.1,128.6,193.2z"/>
		<path class="st47" d="M136.8,192.8c0.4-0.4,0.9-0.1,1.4-0.2C137.8,193,137.3,192.7,136.8,192.8z"/>
		<path class="st47" d="M139,192.6c0.4-0.3,0.8-0.1,1.2-0.2C139.9,192.7,139.4,192.5,139,192.6z"/>
		<path class="st83" d="M24.5,125.4c2,0.4,3.4-0.8,5-1.7c1.8-1.1,3.4-2.6,5.4-3.4c0.1,0,0.1,0.1,0.1,0.1c0,0.1,0,0.1,0,0.1
			c-0.4,0.3-1,0.4-1.2,0.9c-1.4,0.9-3,1.7-4.3,2.9c-0.7,0.2-1.3,0.6-1.9,1C26.7,126,25.3,126,24.5,125.4z"/>
		<path class="st5" d="M36.4,119.6c0.6-0.6,1.3-1.1,2.2-1C37.8,118.8,37.3,119.5,36.4,119.6z"/>
		<path class="st5" d="M34.8,120.6c0-0.1,0-0.2,0-0.2c0.5-0.4,1-0.7,1.6-0.8C36,120.1,35.4,120.4,34.8,120.6z"/>
		<path class="st47" d="M144.3,192c0.6-0.6,1.5-0.9,2.2-1c2.2-0.6,4-1.8,5.9-3c0.1-0.1,0.2-0.1,0.4-0.1c0,0.4-0.4,0.6-0.7,0.8
			C149.7,190.2,147.2,191.5,144.3,192z"/>
		<path class="st70" d="M152.8,187.8c0.9-1,1.7-2,2.8-2.7C154.8,186.2,154,187.3,152.8,187.8z"/>
		<path class="st53" d="M149.1,126.6c0.9-0.2,1.6-0.7,2.3-1.2c0.9-0.6,2-1,2.9-1.7c1.2-1,2.7-1.7,3.8-2.9c0.2-0.2,0.4-0.2,0.7-0.1
			c-1.3,1.6-3.1,2.4-4.7,3.6c-0.3,0-0.5,0.1-0.6,0.3c-1.7,0.9-3.3,1.8-5,2.7c-0.1,0-0.2,0-0.2,0
			C148.6,127.1,148.8,126.9,149.1,126.6z"/>
		<path class="st32" d="M171.2,46.7c0-0.3-0.1-0.7,0.2-1C171.4,46,171.6,46.4,171.2,46.7z"/>
		<path class="st75" d="M157.8,182c0.3-1.3,1.1-2.3,1.6-3.4C159.1,179.8,158.7,181,157.8,182z"/>
		<path class="st75" d="M156.9,183.3c0-0.6,0.4-1,0.8-1.4C157.6,182.5,157.4,182.9,156.9,183.3z"/>
		<path class="st73" d="M170.4,103.3c0-0.3-0.2-0.7,0.4-0.8C170.7,102.7,170.7,103.1,170.4,103.3z"/>
		<path d="M100.6,109.9c-2.3,0-4.4-0.6-6.3-1.5c-1.8-0.9-2.8-2.3-2.9-4.3c-0.1-2.2,0.6-4.1,2.5-5.3c3.6-2.3,9-2,12.3,0.7
			c2.8,2.3,2.6,6.9-0.5,9C104.1,109.5,102.3,109.9,100.6,109.9z"/>
		<path d="M67.2,91.4c0,1.7-0.2,3.2-0.9,4.6c-1,1.9-2.6,2.6-4.6,2.6c-2.1-0.1-3.6-1-4.5-3c-1.3-3.1-0.7-7.6,1.4-9.6
			c2.5-2.5,6.5-1.7,7.9,1.5C67.1,88.8,67.2,90.1,67.2,91.4z"/>
		<path d="M130,91.9c0-1.2,0.1-2.5,0.6-3.6c1-2.4,2.7-3.5,5.1-3.3c2.3,0.1,3.9,1.5,4.5,4c0.6,2.3,0.4,4.6-0.6,6.8
			c-0.8,1.9-2.2,3.2-4.4,3.1c-2.2,0-3.8-1.2-4.7-3.2C130,94.4,130,93.1,130,91.9z"/>
		<path d="M108.4,163.6c0.5,1,1.3,1.8,1.8,2.9c2.4,5.6-0.4,11.5-6.3,13.4c-0.4,0.1-0.9,0.3-1.2,0.7c-4.4,5.3-10,6.5-16.4,4.7
			c-4.5-1.3-8.2-3.8-10.2-8.1c-1.6-3.4-2.3-7-2.6-10.8c-0.5-6.3,0.5-12.4,2.7-18.2c2-5.3,5.4-9.5,10.8-11.7c7.1-2.9,15,0.3,18.7,7
			c2.5,4.6,3,9.6,2.9,14.7c0,1.2,0,2.3,0,3.5C108.6,162.3,108.6,163,108.4,163.6z"/>
		<path class="st84" d="M108.8,154.9c0,0.9,0,1.8,0,2.7c0,0-0.1,0-0.1,0C108.7,156.6,108.7,155.7,108.8,154.9
			C108.8,154.8,108.8,154.8,108.8,154.9z"/>
		<path class="st85" d="M108.4,163.6c0-0.7,0-1.3,0-2C108.7,162.3,109,163,108.4,163.6z"/>
		<path class="st86" d="M99.9,106.7c-1.1,0.1-2.1-0.2-3.1-0.7c-0.9-0.4-1.7-1-1.8-2.1c0-1.1,0.6-2,1.5-2.6c1.9-1.2,5.5-0.7,7.1,1
			c1.2,1.3,0.9,3-0.6,3.8C102,106.5,100.9,106.7,99.9,106.7z"/>
		<path class="st0" d="M88.5,161.8c4.6,0.1,9.2,0.2,13.7,0.7c1.3,0.1,1.4,0.2,1.2,1.5c-0.1,1,0.1,1.8,0.9,2.6
			c1.5,1.5,2.3,3.4,1.7,5.6c-0.3,1.3-1.1,2.3-2.4,2.5c-2.3,0.4-3.8,1.6-5.4,3.4c-3,3.6-8.1,4.2-12.4,1.8c-4.2-2.3-6.5-6-7.4-10.6
			c-0.4-2.1-0.4-4.2-0.4-6.3c0-0.7,0.3-1,0.9-1.1c0.5-0.1,1-0.1,1.5-0.1C83.1,161.8,85.8,161.8,88.5,161.8z"/>
		<path class="st62" d="M101.8,147.3c0.6,1.1,0.9,2.3,1.1,3.5c-0.3,0.6-0.9,0.4-1.4,0.4c-2.7,0.1-5.4-0.3-8.1-0.2
			c-3.8,0.1-7.5-0.3-11.3-0.2c-0.4,0-0.9,0-1.2-0.4c0.4-1.2,1-2.4,1.7-3.5c1.2-0.6,2.5-0.3,3.7-0.3c1.2,0.1,2.3,0.2,3.5,0.1
			c3.6-0.1,7.3,0.2,10.9,0.2C101.1,147,101.5,147,101.8,147.3z"/>
		<path class="st62" d="M103.3,154.1c0.2,0.8,0,1.5,0.1,2.3c0,0.5-0.1,0.7-0.6,0.6c-2.7-0.2-5.4-0.4-8-0.6c-0.5-0.3-1-0.1-1.6-0.1
			c-4.3-0.2-8.7-0.3-13-0.1c-0.6,0-0.7-0.2-0.7-0.8c0.1-0.7,0.1-1.3,0.4-1.9c0.3-0.2,0.7-0.2,1.1-0.2c4.5-0.1,9,0.3,13.6,0.2
			c0.1,0,0.2,0,0.4,0.1c1.9,0.3,3.8,0.1,5.7,0.1C101.5,153.8,102.5,153.4,103.3,154.1z"/>
		<path class="st61" d="M103.3,154.1c-0.9,0-1.8-0.1-2.7-0.1c-1.1-0.3-2.1,0-3.2-0.1c-0.9,0-1.8,0.1-2.7-0.1l0,0
			c-0.1-1,0.7-0.3,1-0.6c-5.1,0.7-10.2,0.1-15.3,0.2c0.5-0.6,1.2-0.2,1.9-0.4c-0.8,0.1-1.5-0.3-2.1,0.3c-0.2,0.1-0.2,0.1-0.2-0.6
			c0.1-0.8,0.4-1.5,0.7-2.2c4.6,0.1,9.3,0.2,13.9,0.3c2.3,0.1,4.7,0.1,7,0.1c0.4,0,0.7,0.1,1.1-0.1
			C103.1,151.9,103.3,153,103.3,154.1z"/>
		<path class="st61" d="M101.8,147.3c-6.4-0.1-12.9-0.3-19.3-0.4c0.6-1.3,1.5-2.5,2.6-3.5c0.5-0.2,1-0.2,1.5-0.2
			c4-0.1,7.9,0.3,11.9,0.2c0.4,0,0.8,0.1,1.2,0.3C100.7,144.6,101.3,145.9,101.8,147.3z"/>
		<path class="st87" d="M99.6,143.7c-3.8,0.1-7.6-0.2-11.4-0.2c-1,0-2.1,0-3.1-0.1c3.1-3.6,8.6-4.1,12.9-1.2
			C98.6,142.7,99.2,143.1,99.6,143.7z"/>
		<path class="st88" d="M80.1,152.7c0.2,0-0.3,0.5,0.3,0.3c0.8-0.3,1.7,0,2.5,0.2c-0.7,0-1.4,0-2.1,0c5.2,0.3,10.3,0.2,15.6,0
			c-0.5,0.6-1.3-0.1-1.5,0.7c-5,0-9.9-0.2-14.9-0.3C79.8,153.2,79.9,152.9,80.1,152.7z"/>
		<path class="st89" d="M93.2,156.3c0.6-0.3,1.2-0.1,1.8-0.1c0,0,0,0.1,0,0.1c-0.1,0-0.1,0.1-0.2,0.1
			C94.2,156.4,93.7,156.4,93.2,156.3z"/>
		<path class="st90" d="M101.6,150.7c-1,0-2,0-3,0c0,0,0-0.1,0-0.1C99.6,150.6,100.6,150.6,101.6,150.7
			C101.6,150.6,101.6,150.7,101.6,150.7z"/>
		<path class="st88" d="M94.8,153.8c1.1-0.2,2.3,0.3,3.4-0.3c0,0,0.8,0.4,1,0.2c0.7-0.6,1-0.2,1.5,0.2C98.6,154,96.7,154,94.8,153.8
			z"/>
	</g>
</g>
</svg>
