<?xml version="1.0" encoding="utf-8"?>
<!-- Generator: Adobe Illustrator 25.4.1, SVG Export Plug-In . SVG Version: 6.00 Build 0)  -->
<svg version="1.1" id="Capa_1" xmlns="http://www.w3.org/2000/svg" xmlns:xlink="http://www.w3.org/1999/xlink" x="0px" y="0px"
	 viewBox="0 0 200 200" style="enable-background:new 0 0 200 200;" xml:space="preserve">
<style type="text/css">
	.st0{fill:#FEFEFE;}
	.st1{fill:#3F1A05;}
	.st2{fill:#44210E;}
	.st3{fill:#E3DDDA;}
	.st4{fill:#785E50;}
	.st5{fill:#5C5A58;}
	.st6{fill:#3E1905;}
	.st7{fill:#5B5957;}
	.st8{fill:#FDFDFD;}
	.st9{fill:#EC8DB0;}
	.st10{fill:#EA8DAE;}
	.st11{fill:#391300;}
	.st12{fill:#411D0B;}
	.st13{fill:#544D49;}
	.st14{fill:#3A1400;}
	.st15{fill:#514640;}
	.st16{fill:#310B00;}
	.st17{fill:#340E00;}
	.st18{fill:#350F00;}
	.st19{fill:#381200;}
	.st20{fill:#320C00;}
	.st21{fill:#F2ACC3;}
	.st22{fill:#5E5752;}
	.st23{fill:#FAB0C8;}
	.st24{fill:#5D5551;}
	.st25{fill:#55514D;}
	.st26{fill:#917D77;}
	.st27{fill:#3F1A06;}
	.st28{fill:#472518;}
	.st29{fill:#523224;}
	.st30{fill:#D6CECB;}
	.st31{fill:#4A281B;}
	.st32{fill:#5B3D30;}
	.st33{fill:#533428;}
	.st34{fill:#4C2A1C;}
	.st35{fill:#765B51;}
	.st36{fill:#411D0D;}
	.st37{fill:#482619;}
	.st38{fill:#340F00;}
	.st39{fill:#ED8EB1;}
	.st40{fill:#EE8FB2;}
	.st41{fill:#DBD4D2;}
	.st42{fill:#5C5957;}
	.st43{fill:#605C5A;}
	.st44{fill:#361000;}
	.st45{fill:#EDA8BE;}
	.st46{fill:#43200F;}
	.st47{fill:#3C180D;}
</style>
<g>
	<g>
		<path class="st1" d="M56.9,135.8c2,1.4,3.7,0.3,5.3-0.9c1.4-1,3.9-1.7,4-3.1c0.1-1.2-2.6-1.6-4.1-2.3c-11.8-6-17-16.1-18.3-28.8
			c-0.5-5-0.3-9.9,1.1-14.8c0.4-1.3,0-1.9-1.3-2.2c-3.4-0.8-6.6-2.1-9.9-3.1c-1.7-0.5-2.5-1.4-2.9-3.1C28.8,68.3,27,59,25.4,49.7
			c-0.8-4.5-1.5-9-2.3-13.6c-0.2-1.1-0.4-1.7-1.9-1.8c-3.7-0.1-6.3-3.3-6-6.9c0.3-3.5,3.5-6.1,7.1-5.8c3.4,0.3,6.2,3.4,5.6,7
			c-0.3,2,0.5,2.5,2,3c12.9,4.2,25.7,8.7,38.3,13.7c3.3,1.3,6.7,2.2,5.5,7.2c3.9-1.3,7.2-2.7,10.7-3.5c10.2-2.5,20.4-3.1,30.7-0.9
			c1.5,0.3,2.3,0.2,1.8-1.5c-1.2-4.6,1-7,4.8-9.3c11.4-6.9,22.9-13.6,34.5-20.1c1.3-0.7,1.9-1.2,1.5-3c-0.9-3.6,1.4-7,4.9-7.7
			c3.4-0.7,6.8,1.6,7.6,5.2c0.7,3.3-1.5,6.8-5,7.4c-1.3,0.2-1.6,0.7-1.7,2c-1.2,15.1-2.5,30.1-3.6,45.2c-0.2,2.4-1.1,4-3.3,4.9
			c-1.6,0.6-3.2,1.6-4.8,2.2c-1.3,0.5-1.4,1-0.8,2.2c4.6,9.8,5.6,20.1,2.5,30.5c-3.2,10.8-10.9,17.9-20.5,23.2
			c-0.7,0.4-1.5,0.6-2.1,1.5c2,1.3,4.1,2.6,6.1,3.9c0.8,0.6,1.2-0.1,1.7-0.4c2.7-2,5.8-1.6,7.6,0.9c1.6,2.3,1,5.5-1.2,7.1
			c-2.5,1.8-5.6,1.1-7.4-1.7c-0.5-0.8-1-1.2-1.9-1.1c-1.3,0-2.6,0-4.1,0c1.5,2.9,2.2,5.9,1.3,9.1c-0.1,0.5,0.2,0.8,0.4,1.2
			c3.3,5,1.1,10.8-4.7,11.9c-1.8,0.4-2.1,1.1-2.3,2.5c-0.4,3.1-1.7,6.1-1.2,9.4c0.1,0.8,0.2,1.3,0.9,1.8c3.2,2.1,4.3,5.2,3.7,8.9
			c-0.6,3.7-3.2,5.7-6.5,6.6c-6.4,1.7-12.7,1.7-18.8-1.2c-4.1-1.9-6.6-4.8-5.3-9.9c0.3-1.1-0.2-2.2-0.5-3.3
			c-1.2,1.7-2.1,3.6-1.6,5.5c1.2,4.8-1.3,7.9-4.8,9.6c-6.5,3.1-13.3,3.5-20,1.1c-7.1-2.5-8.2-9.9-2.3-15.1c0.2-1.2-0.5-0.5-0.9-0.4
			c-7.7,1.8-14-1.1-19.6-6c-1.1-1-1.7-1.4-3.1-0.5c-1.5,1-2.4,0.5-2.5-1.3c-0.3-4.1-0.4-8.1-0.4-12.2c0-1.7,0.7-2.5,2.4-2.3
			c3.9,0.6,7.9,1.1,11.8,1.8c1.6,0.3,1.8,1.3,0.8,2.6c-0.5,0.6-0.9,1.1-1.4,1.7c-0.4,0.6-0.4,1.2,0.1,1.8c1.1,1.6,2.2,3.2,3.6,4.5
			c2,1.9,4.3,2.8,7,2.4c0.9-0.1,2.4-0.2,2.2-1.2c-0.2-1.3,0-3.1-2.2-3.5c-4.6-0.8-7.2-4-7.1-8.2c0-0.5,0-1.2,0.3-1.5
			c1.9-2.1,1.4-4.6,1.3-7c0-1.8,0.3-3.5,1.4-5c0.7-0.8,1.3-1.4-0.4-1.5c-1.7-0.1-3.2,0-3.9,2c-0.4,0.3-0.8,0.7-1.2,1
			c-1.6,0.7-3.2,0.7-4.7,0c-1.4-0.3-1.9-1.3-2.1-2.6c-0.3-1.1-0.3-2.3,0-3.4c0-2.1,1.8-2.2,3-3C55.1,135.5,56,135.5,56.9,135.8z"/>
		<path class="st2" d="M59.2,143.8c0.7-1.9,3-3,4.7-2.1c1.2,0.7,0.5,1.3-0.4,1.7c-0.1-0.5,0.8-1.1,0.1-1.3c-1.1-0.2-2.3-0.5-3.3,0.4
			C59.9,142.9,59.9,143.6,59.2,143.8z"/>
		<path class="st2" d="M53.3,144.8c1.6,0.3,3.2,0.3,4.7,0C56.4,145.9,54.9,145.9,53.3,144.8z"/>
		<path class="st3" d="M68.9,177.2c0.6-0.4,1.1-1.2,2.1-0.7c-0.1,0.6-0.5,1-1.2,1.1C69.5,177.5,69.2,177.3,68.9,177.2z"/>
		<path class="st2" d="M51.2,138.8c0,1.1,0,2.3,0,3.4C50.5,141.1,50.5,139.9,51.2,138.8z"/>
		<path class="st2" d="M56.9,135.8c-0.9,0-1.8,0-2.7,0C55.1,135.4,56,135.2,56.9,135.8z"/>
		<path class="st4" d="M57,162.9c-0.7-0.6-1.2-1.1-0.1-1.8C57,161.8,57,162.4,57,162.9z"/>
		<path class="st5" d="M74.3,130.5c-15.4-3.9-24.5-11.6-27.1-28c-0.8-5.1-0.6-10.2,0.6-15.2c0.3-1.2,0.6-2.3,2.3-1.8
			c0.9,0.3,1.8,0.1,2-1.1c0.2-1.3-0.5-1.8-1.7-2.1C45.6,81,40.7,79.7,36,78c-1.3-0.5-2-1.1-2.3-2.6c-2.4-11.3-4.4-22.7-6.4-34.2
			c-0.3-1.9-0.6-3.8-0.9-5.7c-0.2-1.3,0.1-1.8,1.5-1.3c7.2,2.5,14.4,4.9,21.5,7.4c6.5,2.3,12.8,4.9,19.3,7.3
			c1.5,0.5,1.9,1.4,2.1,2.9c0.3,3.3,0.3,6.5,0.4,9.7c0,1.2,0.4,2.4,1.8,2.3c1.4-0.1,1.7-1.2,1.7-2.4c0-1-0.2-2.1-0.3-3.1
			c-0.3-1.7,0.4-2.6,2.1-3.3c7.2-3,14.8-4.5,22.5-5c0.4,0,0.7-0.1,1.1-0.2c1.8-0.4,3.6-0.5,5.3,0c2.8,0.4,5.5,0.6,8.3,1.2
			c9.9,1.9,18.5,6.7,25.6,13.6c8.8,8.5,13.2,19.1,12.7,31.5c-0.2,5.4-1.6,10.5-4.3,15.2c-0.3,0.6-0.4,1.5-1.4,1.2
			c-0.6-0.7-0.3-1.4-0.2-2.1c0.4-5.3,0-10.5-2.7-15.3c-4.1-7.2-10.4-11.4-18.2-13.4c-1.5-0.4-2.9,0-4.3,0.6c-3.7,1.8-7,4.1-10.4,6.4
			c-2.2,1.5-4.3,1.9-6.9,1.2c-5-1.2-9.9-2.4-14.9-3.5c-2.1-0.5-4.1-0.2-6,0.7c-6.1,3-10.9,7.2-13.9,13.5c-4.2,8.8-1.9,20.5,5.6,26.8
			c0.7,0.6,1.4,1.1,1.8,1.9C76.4,131.3,75.2,130.7,74.3,130.5z"/>
		<path class="st0" d="M144.4,107.6c-0.3,2-0.5,3.9-1,5.9c-1.4,6.1-6,9.3-11,12.3c-8,4.8-16.8,6.2-25.8,7c-2.7,0.3-5.4,0.4-8.2,0.5
			c-5.4,0.3-10.7,0.2-15.7-2.4c-0.9,0.5-1.4-0.3-2-0.6c-0.6-0.8-1.6-1.1-2.4-1.6c-6.3-4.6-10.3-10.5-10.4-18.4
			c-0.1-8.5,4.2-14.7,11-19.5c1.1-0.8,2.4-1.5,3.6-2.2c2-1.1,4-1.4,6.2-0.8c2.7,0.7,5.5,1.3,8.2,1.9c0.2,0,0.4,0.1,0.7,0.2
			c2.4,0.7,4.9,1.1,7.3,1.7c2.1,0.5,3.9-0.4,5.6-1.5c3.3-2.3,6.6-4.5,10.2-6.3c1.8-0.9,3.5-1.2,5.3-0.6c6.6,2.3,12.3,5.9,15.9,12.1
			C144.1,99.2,145.1,103.3,144.4,107.6z"/>
		<path class="st0" d="M123.1,154.9c0.9,0.2,0.8,0.9,0.8,1.6c0.1,4.5-0.3,8.9-1.9,13.1c-0.4,1-0.9,1.9,0.2,2.8
			c0.6,0.5,0.5,1.2-0.3,1.6c-1.7,1.1-0.7,1.8,0.4,2.3c2,0.8,3.7,1.9,4.4,4c1.1,3.1,0.2,6.1-2.8,7.3c-7,2.6-13.9,2.5-20.4-1.5
			c-1.9-1.2-2.6-3.1-2-5.2c0.8-2.9-0.2-5.4-1.4-7.9c-0.8-1.6-1.9-1.7-2.8-0.2c-2,3.2-3.8,6.5-2.8,10.6c0.6,2.3-0.4,4-2.9,5.4
			c-4.4,2.6-9.2,2.9-14.2,2.4c-1.5-0.1-2.9-0.5-4.3-0.9c-2.2-0.8-4.1-2.1-4.3-4.8c-0.2-2.8,0.9-4.9,3.3-6.3c0.6-0.3,1.2-0.6,1.8-0.9
			c1-0.5,1.1-1.2,0.4-1.9c-0.3-0.3-0.7-0.5-0.6-0.8c0.7-3.3-0.5-6.2-1.7-9.1c-0.5-1,0.1-1.4,0.9-1.8c3.2-1.4,4.8-4,5.3-7.3
			c0.2-0.3,0.5-0.3,0.8-0.2c1.4,1.9,2.9,3.5,5.5,2.8c0.8-0.1,1.6-0.3,2-1.2c0.2-0.4,0.5-0.9,0.8-1.2c0.9-1.4,0.7-2.8,0.1-4.3
			c-0.1-0.2-0.1-0.4-0.2-0.6c0.2-1.7,2-1.8,2.9-2.8c2.9-1.8,5.8-3.8,8.7-5.7c1.1-0.8,2.3-1.4,3.7-0.8c4.2,1.8,8.6,3.1,12.5,5.4
			c0.4,0.6,0.1,1.2,0,1.9c-0.2,0.6-0.3,1.1-0.3,1.7c0,0.7,0.1,1.3,0.5,1.9c0.1,0.2,0.2,0.3,0.3,0.5c0.2,0.5,0.7,0.8,1.1,1.1
			c0.2,0.1,0.5,0.3,0.7,0.4c1.6,0.7,3.1,0.8,4.4-0.5C122.2,155.2,122.5,154.7,123.1,154.9z"/>
		<path class="st5" d="M160.4,19c-0.2,2.9-0.3,5.7-0.5,8.5c-0.5,6.4-1.1,12.8-1.7,19.2c-0.6,6.5-1.2,12.9-1.7,19.4
			c-0.1,1-0.5,1.6-1.4,2c-1.9,0.8-3.7,2.2-5.7,2.4c-2.5,0.3-2.9-2.6-4.1-4.1c-6.2-7.3-13.7-12.5-22.6-15.9c-1.7-0.6-2.2-1.6-2.4-3.4
			c-0.3-3.5,0.8-5.6,3.9-7.5c10.5-6.2,21-12.4,31.6-18.4C157.3,20.5,158.6,19.4,160.4,19z"/>
		<path class="st5" d="M65,139.4c-1.2,0-2.5,0-3.7,0c-0.1-0.2-0.1-0.4-0.2-0.6c3-1.9,6-3.8,8.9-5.7c0.6-0.4,1.2,0,1.7,0.2
			c9.1,2.7,18.5,3.9,27.9,3.3c9.2-0.6,18.4-1,27.1-4.6c0.6-0.3,1.1-0.1,1.7,0.2c2.4,1.3,4.7,2.7,7.1,4c-0.9,1.2-2,0.6-3.1,0.4
			c-1,0-2.1,0-3.1,0c-0.9,0.4-1.9,0.1-2.9,0.2c-0.8-0.3-1.6-0.1-2.4-0.1c-0.3,0-0.6,0-0.9-0.1c-2.8-0.4-3-0.3-3.4,2.5
			c-0.3,2-0.8,4.1-1.3,6.1c-0.4,1.9-1,2.2-2.8,1.5c-4.1-1.7-8.3-3.2-12.3-5c-1.7-0.7-3-0.7-4.5,0.4c-3.9,2.6-7.6,5.4-11.8,7.5
			c-2.1,1-2.6,0.9-3.8-1c-1.4-2.3-2.8-4.5-4.1-6.9c-0.7-1.3-1.7-1.9-3.2-1.9c-2.3,0-4.5-0.5-6.8-0.4C67.7,139.5,66.3,139.8,65,139.4
			z"/>
		<path class="st6" d="M80.9,130c0.6,0.3,1.2,0.6,1.8,0.9c-0.3,0.7-0.7,0.7-1.3,0.3c-1.2-0.8-2.5-1.2-4-0.7
			c-0.9,0.3-1.2-0.7-1.8-0.9c-4-3.3-6.9-7.2-8.6-12.1c-3-9.1,0.5-20.2,8-26.1c2.1-1.6,4.3-2.9,6.4-4.3c3.5-2.2,7.1-1.2,10.7-0.3
			c4.4,1.1,8.7,2.1,13.1,3.2c1.6,0.4,2.9-0.3,4.1-1.1c3.7-2.5,7.3-5,11.3-7c1.6-0.8,3.3-1,4.9-0.5c11,3.4,18.9,9.9,20.8,21.9
			c0.5,3.1,0.4,6.3-0.3,9.5c-0.7-0.3-0.7,1-1.3,0.7c-0.8-0.4-0.7-1.1-0.5-1.9c0.2-1.2,0-2.5,0-3.8c-0.2-1.7-0.3-3.4-0.6-5
			c-2-10.4-9.2-15.7-18.5-18.8c-1.4-0.5-2.6-0.1-3.8,0.5c-3.4,1.8-6.8,3.8-9.9,6.2c-2.6,2-5.2,2.6-8.3,1.6c-1.9-0.7-4-1.1-5.9-1.6
			c0.4-0.4,1-0.2,1.6-0.3c-0.7,0-1.2-0.1-1.6,0.3c-3.2-0.7-6.3-1.4-9.5-2.1c-1-0.2-1.9-0.4-2.8,0c-8.5,3.7-14.7,9.3-16.2,18.9
			c-1.1,7.4,1.5,13.7,6.9,18.7c1,0.9,2,1.7,3,2.6C79.3,129.3,80.3,129.4,80.9,130z"/>
		<path class="st6" d="M69.4,139.4c2.4,0,4.7,0,7.1,0c1.4,0,2.3,0.6,3,1.9c1.4,2.6,3,5.1,4.4,7.7c0.7,1.2,1.2,1.2,2.4,0.6
			c4.5-2.3,8.5-5.3,12.7-8.1c1.4-0.9,2.4-1,3.9-0.4c4.4,1.9,8.8,3.7,13.2,5.6c1.1,0.5,1.5,0.4,1.7-0.9c0.4-2.5,1-4.9,1.4-7.4
			c0.3-2,1.1-3,3.2-2.2c0.5,0.2,1,0.1,1.5,0.2c0.7,0.5,1.6,0,2.3,0.4c1,0,2,0,3,0.1c-0.9,0.8-2.1,0.3-3.1,0.4
			c-0.6,0.1-1.3-0.1-0.9,0.9c-0.1,0.3-0.3,0.6-0.6,0.7c-3.3-0.1-3,2.5-3.4,4.6c0,0.2-0.1,0.4-0.1,0.6c-0.5,1.5-0.3,2.8,1.3,3.6
			c0.6,1.4,1.9,2.4,1.9,4.1c0.1,0.1,0,0,0-0.2c0-0.9-0.9-2.2,0.1-2.5c1.1-0.3,1.1,1.2,1.4,2.1c0.2,0.5,0.4,0.9,0.6,1.4
			c0.2,0.5,0.2,1.1,0.2,1.6c0,0.8,0,1.7,0.1,2.5c0,0.2,0,0.4,0,0.6c-0.1,0.4-0.3,0.8-0.7,1c-0.4,0.1-0.9,0.3-0.9-0.4
			c0-0.9,0-1.7-0.2-2.6c-0.6,2.7,0.1,5.4-0.8,8c0.2-2.7,0-5.3,0-8c0-0.4,0.2-1.1-0.3-1.2c-0.6-0.2-0.7,0.6-1,1
			c-0.3,0.3-0.6,0.6-0.9,1c-1.7,1.2-3.5,1-5.4,0.5c-0.1-0.1-0.3-0.2-0.4-0.2c-0.3-0.6-0.9-1-1.3-1.5l0,0c-0.2-0.8-0.5-1.5-0.8-2.3
			c0-0.6-0.3-1.3,0.2-1.8c0.5-0.5,0.9-1,0.5-1.7c-4.1-1.7-8.2-3.3-12.2-5c-1.2-0.5-2.2-0.4-3.2,0.3c-3,2.1-6,4.3-9.2,6
			c-0.7,0.4-1.4,0.7-2.1,1.1c-0.5,0.3-1.2,0.7-0.5,1.5l0,0c0.8,1.7,1,3.5,0,5.2c-0.2,0.4-0.4,0.7-0.6,1.1c-0.6,0.6-1.4,0.8-2.1,1.3
			c-2.9,0.8-4.8-0.1-5.8-2.8c-0.6-1.1-0.3-2.2-0.4-3.4c0-0.5,0-1,0.3-1.4c0.5-0.6,1.1-1,1.5-1.6c0.5-0.7,0.2-1.4-0.2-2
			c-1.2-2.2-2.4-4.3-3.8-6.4c-2.6-0.9-5.3-0.4-8-0.3c-1.3,0.4-2.2,1.4-2.9,2.6c-0.6,0.8-0.7,1.8-0.7,2.8c0,0.4,0,0.8,0,1.2
			c0,0.7-0.1,1.3,0.1,2c0.1,0.2,0.1,0.4,0.2,0.5c0.1,0.7,0.5,1.2,1,1.6c0.6,0.7,1.6,1.4,1,2.5c-0.6,1-1.7,0.6-2.6,0.4
			c-0.5-0.1-1-0.2-1.5-0.2c-0.2,0-0.3,0-0.5,0c-0.1,0.2-0.3,0.2-0.4,0c0.1-0.4,0.1-1,0.2-1c2.5-0.6,2.1-2.1,1.6-4
			c-0.5-2.2-0.3-4.4,0.6-6.7c0.8-2.2,2.4-2.9,4.4-3c2.6-0.1,5.1,0,7.7-0.2c-2.6,0.2-4.8-1.6-7.4-1.1c-0.1-0.1-0.2-0.2-0.1-0.3
			C69.3,139.4,69.4,139.4,69.4,139.4z"/>
		<path class="st0" d="M77.4,142.5c1.3,2.3,2.5,4.6,3.9,6.8c0.6,0.9,0.4,1.4-0.4,1.9c-0.5,0.5-0.9,1-1.5,1.4
			c-0.4,0.2-0.4,0.5-0.3,0.8c-0.2,0.4-0.5,0.4-0.8,0.1c-0.3-2.8-0.9-3.6-2.7-3.5c0,0.6,0,1.2-0.1,1.8c0.7,2.4,0.7,4.8-0.4,7.1
			c-1.8,3.9-7.3,4.9-10.4,1.9c-1.5-1.4-1.6-3.2-1.5-5.1c0.3-0.4,0.7-1,1.2-0.6c0.9,0.8,2.2,1.1,2.7,0.4c0.8-1-0.8-1.6-1.2-2.5
			c-0.4-0.6-0.6-1.2-0.8-1.9l0,0.1c-0.7-0.7,0-1.7-0.5-2.4c0.2-0.3,0.2-0.6,0-0.8c0.3-1.1,0.2-2.3,0.9-3.4c0.5-1.3,1.6-2,2.7-2.8
			c2.7-0.3,5.4-0.1,8.1-0.1C76.7,141.8,77.1,142,77.4,142.5z"/>
		<path class="st7" d="M46,161.6c0-3.7,0-3.7,3.3-3.5c1.1,0.1,2.2,0.3,3.3,0.5c1.4,0.2,2.8,0.4,1.5,2.4c-0.4,0.6-0.2,1.4,0.2,2.1
			c2.6,4.8,5.6,8.9,11.6,9.5c1.3,0.1,2.5-0.2,3.7-0.4c0.4-0.1,0.9-0.4,1.2,0.1c0.3,0.7-0.3,1.1-0.8,1.4c-2.6,1.6-5.5,1.7-8.4,1.1
			c-4.5-1-8.3-3.3-11.6-6.6c-0.8-0.8-1.3-2.1-2.9-1c-0.7,0.5-0.7-0.5-0.7-0.9C46.1,164.6,45.7,163,46,161.6z"/>
		<path class="st8" d="M120.9,143.9c0.1-0.7,0.1-1.4,0.3-2.2c0.6-3.2,0.6-3.2,3.7-3.2c0.3-0.3,0.5-0.3,0.8,0c4,1.1,6.1,5.6,4.5,9.7
			c-0.4,1-0.9,1.8-1.6,2.6c-0.5,0.5-1,1.1-0.4,1.7c0.5,0.5,1.2,0.3,1.8,0c1.5-0.8,2.2-0.5,2.2,1.3c0,2.2-0.9,3.9-3,4.8
			c-0.7,0.3-1.6,0.3-2.1,1.1c-0.8-0.7-1-1.6-0.6-2.6c0-0.2,0-0.3,0-0.5c-0.4-0.9,0.1-2-0.4-2.9c0.2-0.5,0.1-1-0.1-1.6
			c-0.5-2-1.3-3.9-2.1-5.8C123.4,145.1,122.6,143.9,120.9,143.9z"/>
		<path class="st7" d="M17.5,27.8c0.1-2.6,2-4.2,4.7-4.1c1.9,0.1,4.1,2.3,4.1,4.3c0,2.3-2.5,4.7-4.6,4.6
			C19,32.3,17.4,30.5,17.5,27.8z"/>
		<path class="st7" d="M168.4,12.7c0,2.3-2.1,4.6-4.2,4.6c-2.1,0-4.5-2.2-4.6-4.3c-0.1-2.6,1.8-4.5,4.4-4.5
			C166.6,8.5,168.4,10.2,168.4,12.7z"/>
		<path class="st9" d="M53.9,137.6c2-1,3.5-0.2,4.8,1.3c0.7,1,0.6,2.1,0,3.1l0,0c-1.7,2.2-2.6,2.5-4.8,1.5c-0.4-0.5-0.9-0.9-1.3-1.4
			c-0.3-1-0.4-2.1,0.1-3.1l0,0C52.8,138.4,53.3,138,53.9,137.6z"/>
		<path class="st10" d="M145.2,139.3c-0.5,0.5-0.9,1-1.4,1.4c-1.4,1-3.4,0.6-4.3-0.8c-1-1.5-0.8-3,0.5-4.2c1.2-1.1,3.2-1,4.4,0.3
			c0.3,0.4,0.6,0.8,0.9,1.3C145.6,137.9,145.7,138.6,145.2,139.3z"/>
		<path class="st11" d="M112.1,189.8c2.2,0,4.3,0,6.5,0c0,0.1,0,0.1,0,0.2c-2.2,0-4.3,0-6.5,0C112.1,189.9,112.1,189.9,112.1,189.8z
			"/>
		<path class="st2" d="M53.9,143.5c2,0.7,3.6,0.2,4.8-1.5C57.8,144.4,55.9,144.9,53.9,143.5z"/>
		<path class="st12" d="M78.3,153.5c0.3,0,0.5,0,0.8-0.1c0,1.3,0,2.6,0,3.9c-0.3-0.1-0.5-0.1-0.8-0.2
			C78.3,156,78.3,154.8,78.3,153.5z"/>
		<path class="st13" d="M75.6,129.6c0.8,0,1.1,0.7,1.8,0.9c0.3,0.6,0.2,1.1-0.5,0.8c-0.9-0.2-1.8-0.2-2.6-0.8
			C74.8,130.2,76.1,131.2,75.6,129.6z"/>
		<path class="st14" d="M105.4,50c-1.8,0-3.6,0-5.3,0C101.8,49.2,103.6,49.1,105.4,50z"/>
		<path class="st14" d="M69.4,139.4c0,0.2,0,0.3,0,0.5c-1.5-0.2-3,0.5-4.4-0.4C66.5,139.4,67.9,139.4,69.4,139.4z"/>
		<path class="st15" d="M132.4,136.7c1-0.2,2.2,0.4,3.1-0.4c0.3,0.2,1,0.6,0.3,0.7C134.7,137.3,133.5,137.5,132.4,136.7z"/>
		<path class="st16" d="M75.5,151.9c-0.4-0.6-0.7-1.3,0.1-1.8C76.3,150.7,76.3,151.3,75.5,151.9z"/>
		<path class="st17" d="M145.2,139.3c0-0.7,0-1.4,0.1-2c0-0.1,0-0.2,0.1-0.2c0.1-0.1,0.2-0.2,0.3-0.3c0.3,0.9,0.3,1.8,0,2.6
			c0,0-0.1,0-0.2,0C145.3,139.4,145.3,139.3,145.2,139.3z"/>
		<path class="st16" d="M127.7,183.8c0-0.8,0-1.7,0-2.5C128.1,182.1,128,183,127.7,183.8z"/>
		<path class="st14" d="M95.3,186.1c-0.2-1.4-0.3-2.2,0.1-3.6C95.6,183.9,95.7,184.8,95.3,186.1z"/>
		<path class="st2" d="M58.7,142c0.2-1,0.2-2.1,0-3.1c0.2,0.2,0.4,0.3,0.5,0.5c0.3,0.7,0.3,1.4,0,2.1
			C59.1,141.7,58.9,141.9,58.7,142z"/>
		<path class="st2" d="M52.6,138.9c0,1,0,2.1-0.1,3.1C51.9,141,51.8,140,52.6,138.9z"/>
		<path class="st14" d="M62.3,155.8c0.1,0,0.3,0,0.4,0c0,0.9,0,1.7,0,2.6c-0.1,0-0.3,0-0.4,0C62.3,157.6,62.3,156.7,62.3,155.8z"/>
		<path class="st18" d="M126.6,157.2c0.1,0.9,0.1,1.8,0.6,2.6c-0.9-0.3-1.1-0.9-1-1.8C126.2,157.7,126.3,157.4,126.6,157.2z"/>
		<path class="st19" d="M143.2,141.8c-0.7,0.4-1.3,0.3-2,0C141.9,141.5,142.5,141.5,143.2,141.8z"/>
		<path class="st16" d="M59.2,141.6c0-0.7,0-1.4,0-2.1C59.9,140.1,59.9,140.8,59.2,141.6z"/>
		<path class="st20" d="M125.7,138.6c-0.3,0-0.5,0-0.8,0c0.1-0.2,0.3-0.3,0.4-0.5c0.4,0,0.8,0,1.3,0
			C126.5,138.7,125.9,138.4,125.7,138.6z"/>
		<path class="st2" d="M53.9,137.6c-0.4,0.5-0.9,0.9-1.3,1.4C52.6,138.1,53,137.6,53.9,137.6z"/>
		<path class="st21" d="M106.7,61.4c5.3,0.6,9.9,4.2,10.9,8.6c0.9,4.1-1.5,8.9-5.4,10.9c-0.6,0.3-1.3,0.7-2,1c0,0-0.2,0.1-0.2,0.1
			c-0.1,0-0.3,0.1-0.4,0.2c0,0.6,0.2,1.2,0.2,1.8c0,0.2-0.1,0.4-0.2,0.5c-0.6,0.1-1.2,0.3-1.8,0.4c-0.3,0.3-0.5,0.3-0.8,0
			c-1.2-0.8-0.1-2.2-0.9-3.1c-0.3,0-0.6,0-0.9,0c-0.6,0.6-0.2,1.4-0.3,2.1c-0.1,0.5-0.2,0.9-0.7,0.9c-0.7,0.1-0.8-0.4-0.9-1
			c0-0.3,0-0.6,0-0.9c0-0.6,0.1-1.4-0.7-1.4c-0.8,0-0.8,0.8-0.8,1.4c0,1.3,0,2.6-2,2.3c-0.8-0.1-1.3-0.2-1.3-1.1
			c0.1-1.1-0.3-1.5-1.5-1.6c-3.7-0.2-6.6-1.8-8-5.3c-1.5-3.8-0.8-7.5,1.6-10.7c2.6-3.4,6.2-5.1,10.5-5.5
			C103.1,61.5,104.9,61.6,106.7,61.4z"/>
		<path class="st22" d="M105.4,82c0.3-0.6,0.6-0.6,0.9,0c-0.2,1.6,0.7,3.6-1.7,4.4C105.7,85,105.3,83.5,105.4,82z"/>
		<path class="st23" d="M106.7,61.4c-1.8,0.8-3.6,0.8-5.4,0c0,0,0.1,0,0.1,0c1.7-0.3,3.4-0.3,5.1,0
			C106.5,61.4,106.6,61.4,106.7,61.4z"/>
		<path class="st21" d="M106.4,61.4c-1.7,0-3.4,0-5.1,0C103,60.9,104.7,60.9,106.4,61.4z"/>
		<ellipse class="st24" cx="118.5" cy="71.9" rx="0.2" ry="2.2"/>
		<path class="st25" d="M110.3,82c1,0.9,0.4,1.8-0.1,2.6C109.8,83.7,109.6,82.8,110.3,82L110.3,82z"/>
		<path class="st26" d="M110.2,81.9c0,0.9,0,1.8,0,2.7c-0.1,0-0.3,0-0.4,0c0-0.2,0-0.3-0.1-0.5c-0.2-0.7-0.3-1.5,0.1-2.2
			C109.9,81.9,110.1,81.9,110.2,81.9z"/>
		<path class="st25" d="M107.2,85.1c0.3,0,0.5,0,0.8,0c0.3,0,0.7,0.1,1.3,0.1C108.3,85.6,107.7,85.7,107.2,85.1z"/>
		<path class="st27" d="M76.5,98.8c-0.3-0.4-0.6-0.9-0.8-1.3c-0.1-0.3-0.2-0.6,0-0.8c0.3-0.2,0.6-0.2,0.8,0c2.5,3.2,6.6,2.9,9.9,4.5
			c1.3,0.7,2.1,1.3,2.2,2.8c0.2,2.1,0.1,4.2-0.3,6.2c-0.5,2.7-2.7,4.6-5.2,4.7c-2.5,0.1-4.6-1.8-5.3-4.5c-0.1-0.5-0.3-1-0.3-1.5
			c-0.2-3.1,0.2-6.4-2.3-8.9c0.1-0.5,0.6-0.4,0.9-0.4C77.7,100.1,76.4,99.1,76.5,98.8z"/>
		<path class="st1" d="M124.4,97.9c1.7-1.6,3.8-2.6,5.7-4c1.4-1,2.9-1.7,3.5-3.4c0.2-0.6,0.6-0.6,1-0.5c0.8,0.2,0,0.7,0,1
			c0,0.9-0.6,1.6-1.1,2.3c-0.4,0.5,0,1,0.3,1.4c0.3-0.2,0.5-0.5,0.8-0.7c0.6-0.3,0.9-0.3,0.9,0.5c-1.1,1.4-0.7,2.9-0.2,4.4
			c0.6,1.7,0.8,3.6,0.6,5.4c-0.3,2.2-1.1,4.1-3.6,4.7c-1,0-2.1-0.4-3.1,0c-1.7-0.3-2.8-1.4-3.4-2.9
			C124.9,103.5,123.6,100.9,124.4,97.9c0.4,0.4,0.2,1,0.3,1.6C124.7,98.9,124.8,98.3,124.4,97.9z"/>
		<path class="st16" d="M110.3,110.8c2.6,1.3,2.7,2.6,0.3,5c-1.7,1-3.5,0.8-5.3,0c-2.1-2.1-1.7-4.1,1.2-5.4c1.2-0.2,2.4-0.3,3.7,0.1
			C110.3,110.5,110.4,110.7,110.3,110.8c-0.4,0.7-1.1,0.7-1.7,0.9c-0.4,0.1-0.8,0.2-1.2,0.2c-1.2,0.2-1.7,0.9-1.3,2.1
			c0.1,0.2,0.2,0.3,0.3,0.4c1,0.6,1.9,0.6,2.9,0c0.7-0.6,0.8-1.4,0.7-2.3C110.1,111.7,109.9,111.2,110.3,110.8z"/>
		<path class="st28" d="M112.6,121.2c-1.5,2.4-3.8,1.7-5.9,1.7c-2,0-3.2-1.4-4.4-2.7c-0.3-0.4,0.1-0.7,0.4-0.9
			c0.5-0.3,0.8-0.1,1.1,0.3c0.6,0.9,1.2,1.9,2.5,1.9c0.1,0.1,0.3,0.3,0.4,0.4c1,0.2,2.1,0.2,3.1,0c0.2-0.1,0.3-0.2,0.4-0.4
			c0.4-0.2,0.9-0.3,1.3-0.5C111.9,121.1,112.3,120.8,112.6,121.2z"/>
		<path class="st29" d="M112.6,121.2c-0.4,0-0.7,0.5-1-0.1c0.6-0.9,1.7-1.4,1.8-2.6c0-0.4,0.4-0.7,0.7-0.4c0.3,0.2,0.8,0.4,0.6,0.8
			C114.1,119.7,114.3,121.2,112.6,121.2z"/>
		<path class="st30" d="M76.5,98.8c0.3,0.3,0.6,0.6,1,0.8c0.6,0.3,1,0.7,0.5,1.3c-0.5,0.7-0.9,0-1.2-0.3c-0.5-0.5-0.8-1.1-1.6-0.6
			C75.3,99.1,76.4,99.5,76.5,98.8z"/>
		<path class="st31" d="M105.3,115.8c1.8,0.4,3.5,0.5,5.3,0C108.9,117.1,107.1,117,105.3,115.8z"/>
		<path class="st19" d="M129.3,109c1-0.8,2.1-0.4,3.1,0C131.4,109.5,130.4,109.4,129.3,109z"/>
		<path class="st32" d="M110.2,121.5c0,0.2,0,0.3,0,0.5c-1.3,0.3-2.7,0.4-4,0c0-0.1,0-0.3,0-0.4
			C107.6,121.7,108.9,121.8,110.2,121.5z"/>
		<path class="st33" d="M110.2,110.5c-1.2,0-2.4-0.1-3.7-0.1C107.8,109.7,109,109.5,110.2,110.5z"/>
		<path class="st1" d="M80.9,130c-0.9-0.2-1.8-0.4-2.2-1.5C79.6,128.9,80.4,129.2,80.9,130z"/>
		<path class="st34" d="M135.6,94.5c-0.2-0.4-0.5-0.5-0.9-0.5c0.2-0.3,0.3-0.6,0.5-0.9c1.1-0.5,1,0.2,0.8,0.9
			C135.9,94.2,135.7,94.3,135.6,94.5z"/>
		<path class="st35" d="M136.1,94.1c-0.1-0.5-0.1-1-0.8-0.9c0.1-0.4,0.4-0.6,0.8-0.4C136.6,93.1,136.5,93.6,136.1,94.1z"/>
		<path class="st36" d="M116.8,156.3c1.8,0.1,3.6,0.1,5.4-0.5C120.5,157.5,118.7,157.5,116.8,156.3z"/>
		<path class="st37" d="M87.7,157.9c0.6-1.7,0.4-3.5,0-5.2C88.9,154.4,89.3,156.1,87.7,157.9z"/>
		<path class="st37" d="M87.7,152.7c-1.1-0.7-0.4-1.3,0.2-1.6c0.7-0.4,1.5-1,2.4-1C89.8,151.3,87.6,150.8,87.7,152.7z"/>
		<path class="st12" d="M85,160.3c0.5-0.8,1.3-1.1,2.1-1.3C86.6,159.8,85.9,160.2,85,160.3z"/>
		<path class="st36" d="M114.3,152.3c0.6,0.6,0.9,1.4,0.8,2.3C114.5,153.9,114.2,153.2,114.3,152.3z"/>
		<path class="st36" d="M115.1,154.6c0.7,0.3,1.2,0.7,1.3,1.5C115.8,155.7,115.2,155.3,115.1,154.6z"/>
		<path class="st36" d="M115,148.8c1,0.9,0.1,1.2-0.5,1.7C114.7,149.9,114.8,149.3,115,148.8z"/>
		<path class="st1" d="M126.3,136.7c-0.8-0.1-1.6,0.3-2.3-0.4C124.8,136.3,125.6,136,126.3,136.7z"/>
		<path class="st38" d="M97.3,90.5c0.5-0.7,1.2-0.5,1.9-0.2C98.6,90.4,97.9,90.4,97.3,90.5C97.3,90.5,97.3,90.5,97.3,90.5z"/>
		<path class="st39" d="M117.8,155.4c-0.5-0.4-0.9-0.9-1.4-1.3c-0.7-1.1-0.8-2.3-0.4-3.6c1.7-2,3.7-2.5,5.2-1.2
			c1.9,1.6,1.9,3.1,0.1,5.5C120.2,155.6,119.1,155.9,117.8,155.4z"/>
		<path class="st40" d="M80.5,153.6c1.7-1.8,3.5-2,5.7-0.4c1,1.2,1,2.6,0.4,4l0,0c-0.3,0.6-0.7,1.1-1.4,1.3
			c-0.8,0.4-1.6,0.4-2.4,0.4c-0.7-0.3-1.5-0.2-1.9-1c-0.2-0.2-0.4-0.5-0.6-0.7C79.5,156,79.9,154.8,80.5,153.6z"/>
		<path class="st1" d="M120.9,143.9c1.3-1,2.1-0.6,2.8,0.7c1.3,2.4,2.2,4.9,2.5,7.7c-1-0.8-0.5-2.3-1.6-3.4c0.2,1.6,0.4,3,0.6,4.4
			c-1.5-1.6-1.6-3.9-3-5.5C121.5,146.6,120.3,145.5,120.9,143.9L120.9,143.9z"/>
		<path class="st1" d="M77.4,142.5c-3-1.2-6.2-0.5-9.3-0.6c2.9-0.8,5.8-0.2,8.7-0.3C77.2,141.7,77.3,142.2,77.4,142.5z"/>
		<path class="st41" d="M120.9,143.8c-0.2,1.5,1.6,2.4,1.2,4C119.5,147.2,120.3,145.5,120.9,143.8z"/>
		<path class="st37" d="M86.7,157.2c0.3-1.4,0.3-2.7-0.4-4C87.7,154.4,87.8,155.7,86.7,157.2z"/>
		<path class="st12" d="M80.5,153.6c-0.3,1.2-0.4,2.4,0,3.6C79,156,79.5,154.8,80.5,153.6z"/>
		<path class="st36" d="M117.8,155.4c1.2-0.1,2.4-0.1,3.5-0.6C120.3,156.1,119.1,156.2,117.8,155.4z"/>
		<path class="st36" d="M116,150.5c-0.1,1.2,0,2.4,0.4,3.6C115.1,153,115.4,151.8,116,150.5z"/>
		<path class="st1" d="M65.4,144.7c-0.3,1.1-0.6,2.2-0.9,3.4C64.5,146.9,64.3,145.6,65.4,144.7z"/>
		<path class="st1" d="M126.3,153.8c0.5,0.9,0.5,1.9,0.4,2.9C125.9,155.8,126.4,154.8,126.3,153.8z"/>
		<path class="st12" d="M85.3,158.5c0.5-0.4,0.9-0.9,1.4-1.3C86.7,158.1,86.2,158.5,85.3,158.5z"/>
		<path class="st1" d="M64.6,148.9c0.2,0.8,0.3,1.6,0.5,2.4C64.1,150.7,64.7,149.7,64.6,148.9z"/>
		<path class="st12" d="M81,157.9c0.6,0.3,1.2,0.7,1.9,1C82,159,81.2,159,81,157.9z"/>
		<path class="st1" d="M65.1,151.3c0.4,0.6,0.8,1.1,0.8,1.9C65,152.8,64.9,152.1,65.1,151.3z"/>
		<path class="st12" d="M79.5,152.7c0.3-0.7,0.8-1.2,1.5-1.4C80.7,152,80.2,152.5,79.5,152.7z"/>
		<path class="st42" d="M114.3,74.8c0,2.3-1,3.2-2.7,3.2c-1.7,0-3-1.7-2.9-4c0-1.6,0.7-2.7,2.5-2.8C112.9,71.2,114.4,73,114.3,74.8z
			"/>
		<path class="st43" d="M93.4,78.9c-2-1-1.2-2.5-0.8-4c0.5-1.5,1.4-2.6,3.1-2.6c1.2,0,2,0.7,2.1,1.9c0.1,1.5,0.1,3.1-1.3,4.2
			c-1.1,0.2-2.2,1.1-3.1-0.3c-0.6-1-0.1-2.9,1.1-4.4C93,75.3,92.9,75.7,93.4,78.9z"/>
		<path class="st25" d="M93.4,78.9c-1-3.3-0.4-4.9,2.7-6.3c-1,1.2-2.2,1.6-2.5,2.8c-0.2,0.9-0.5,1.9,0.2,2.7
			c0.7,0.7,1.4,0.4,2.2-0.1c0.3-0.2,0.4,0.2,0.5,0.5C95.6,79.5,94.6,79.6,93.4,78.9z"/>
		<path class="st23" d="M99.4,83.2c0.2,1,0.4,1.9,1.9,1.4C99.3,85.1,99.3,85.1,99.4,83.2z"/>
		<path class="st23" d="M98.6,75.7c-0.4-0.5-0.3-1.1-0.2-1.7C99.1,74.5,98.5,75.1,98.6,75.7z"/>
		<path class="st23" d="M109.8,82c0,0.7-0.1,1.5-0.1,2.2C109.3,83.4,109,82.6,109.8,82z"/>
		<path class="st44" d="M78.4,110c0-0.4,0-0.9,0-1.4C79,109,78.6,109.5,78.4,110z"/>
		<path class="st20" d="M124.4,97.9c0.6,0.5,0.7,1.2,0.2,2.1C124.5,99.2,124.5,98.5,124.4,97.9C124.4,97.9,124.4,97.9,124.4,97.9z"
			/>
		<path class="st45" d="M110.6,112.4c0.3,1-0.3,1.7-0.9,2.4c-1.4,0.4-2.7,0.7-3.9-0.4l0,0.1c-0.7-1.6,0.1-2.4,1.4-3
			c0.4,0,0.8,0,1.2-0.1C109.4,111.2,110.3,111.3,110.6,112.4z"/>
		<path class="st46" d="M107.3,111.4c-1,0.8-1.8,1.6-1.4,3C104.8,112.7,105.4,111.7,107.3,111.4z"/>
		<path class="st31" d="M105.9,114.4c1.2,0.7,2.6,0.6,3.9,0.4C108.4,115.6,107,116,105.9,114.4z"/>
		<path class="st46" d="M110.6,112.4c-0.7-0.3-1.4-0.7-2.1-1c0.5-0.7,1.3-0.3,1.9-0.5c0,0,0,0,0,0
			C110.4,111.3,110.5,111.8,110.6,112.4z"/>
		<path class="st47" d="M106.3,122c1.3,0,2.7,0,4,0C108.9,122.7,107.6,122.8,106.3,122z"/>
	</g>
</g>
</svg>
