<?xml version="1.0" encoding="utf-8"?>
<!-- Generator: Adobe Illustrator 25.4.1, SVG Export Plug-In . SVG Version: 6.00 Build 0)  -->
<svg version="1.1"
	 id="svg5637" xmlns:cc="http://creativecommons.org/ns#" xmlns:dc="http://purl.org/dc/elements/1.1/" xmlns:inkscape="http://www.inkscape.org/namespaces/inkscape" xmlns:rdf="http://www.w3.org/1999/02/22-rdf-syntax-ns#" xmlns:sodipodi="http://sodipodi.sourceforge.net/DTD/sodipodi-0.dtd" xmlns:svg="http://www.w3.org/2000/svg"
	 xmlns="http://www.w3.org/2000/svg" xmlns:xlink="http://www.w3.org/1999/xlink" x="0px" y="0px" viewBox="0 0 1000 576.7"
	 style="enable-background:new 0 0 1000 576.7;" xml:space="preserve">
<style type="text/css">
	.st0{fill:#FFFFFF;}
	.st1{fill:#231F20;}
	.st2{fill:#FBE559;}
	.st3{fill:#F799BC;}
	.st4{fill:#CBE541;}
	.st5{fill:#FBE58C;}
	.st6{fill:#7A6132;}
	.st7{fill:#FFACD4;}
	.st8{fill:#FDDD04;}
	.st9{fill:#8893B7;}
</style>
<sodipodi:namedview  bordercolor="#666666" borderopacity="1.0" fit-margin-bottom="0.5" fit-margin-left="0.5" fit-margin-right="0.5" fit-margin-top="0.5" id="base" inkscape:current-layer="layer1" inkscape:cx="767.40241" inkscape:cy="156.17415" inkscape:document-units="px" inkscape:pageopacity="0.0" inkscape:pageshadow="2" inkscape:window-height="969" inkscape:window-maximized="0" inkscape:window-width="1058" inkscape:window-x="858" inkscape:window-y="-21" inkscape:zoom="0.52636719" pagecolor="#ffffff" showgrid="false">
	</sodipodi:namedview>
<g id="layer1" transform="translate(-165.52731,225.7055)" inkscape:groupmode="layer" inkscape:label="Layer 1">
	<g id="g3467" transform="matrix(14.22196,0,0,-14.22196,382.54172,157.27814)">
		<path id="path3469" inkscape:connector-curvature="0" class="st0" d="M-0.2,0.1C-0.6-0.3-0.7-0.8-1-1.2C-1.4-1.7-1.9-2.1-2.6-2
			c-0.5,0-1,0.1-1.3,0.5c0.1,0.6,0.2,1.3,0,1.9c0,0-0.1,0.1,0,0.2c0.2,0,0.2-0.2,0.2-0.4C-3.5-0.4-3.5-1-3.7-1.5
			c0.1-0.1,0.3-0.2,0.4-0.2c0.2-0.1,0.5,0,0.7,0.2c0.3,0.3,0.3,0.8,0.1,1.1C-3,0.4-3.4,1.1-4.1,1.7H-4C-3,2-2,2.4-1.2,3.1h0.1
			c0-0.2-0.1-0.4,0-0.6c0-0.3,0.2-0.5,0.4-0.7c0.2-0.1,0.3-0.1,0.5-0.2c0,0,0,0,0-0.1c0-0.5,0.1-1,0.3-1.4C0,0.3-0.1,0.2-0.2,0.1"/>
	</g>
	<g id="g3471" transform="matrix(14.22196,0,0,-14.22196,345.32148,140.23738)">
		<path id="path3473" inkscape:connector-curvature="0" class="st0" d="M-0.2,0.1c0.4-0.5,0.7-0.9,0.9-1.4c0.1-0.3,0.2-0.6,0.2-0.8
			L1-2c0.1,0.2,0.2,0.3,0.3,0.5c0.2,0.3,0.3,0.6,0.6,0.9l0,0c0,0.2-0.1,0.4-0.1,0.6C1.7,0,1.6,0.1,1.5,0.1C1.3,0.3,1.2,0.5,1,0.7
			C0.7,0.5,0.2,0.3-0.2,0.1 M0.1-3.9L0.1-3.9c-0.9,0-1.5,0.3-1.9,0.9c-0.2,0.2-0.2,0.4-0.2,0.6c0.2,0.6,0.2,1.1,0.1,1.4
			C-2-0.7-1.9-0.4-1.7-0.2l-0.1,0.1C-2,0-2.1,0.2-2.1,0.4S-2,0.8-1.9,0.9c0.2,0.2,0.4,0.3,0.5,0.3c1.1,0.3,1.9,0.7,2.5,1.3
			c0.2,0.2,0.5,0.3,0.8,0.1l0,0C2.2,2.3,2.4,2,2.3,1.7c0-0.1,0-0.2,0-0.3s0-0.1,0.1-0.2c0,0,0.1,0,0.2-0.1c0.3,0,0.6-0.3,0.7-0.7
			l0,0c0-0.3,0.1-0.7,0.3-1.1c0.1-0.2,0.1-0.5,0-0.7C3.3-1.4,3.1-1.5,2.9-1.6l0,0C2.8-1.7,2.7-1.9,2.6-2.1C2.5-2.4,2.3-2.6,2.1-2.9
			C1.6-3.5,0.9-3.9,0.1-3.9"/>
	</g>
	<g id="g3475" transform="matrix(14.22196,0,0,-14.22196,1065.0991,213.37376)">
		<path id="path3477" inkscape:connector-curvature="0" class="st0" d="M-1.3,0.2C-1.8,2-3.3,2.9-3.3,2.9C-3.5,3-3.7,3.1-3.9,3.2
			c-0.6,0.3-1.2,0.4-1.9,0.4c-1.2,0-2.3-0.4-3.1-0.8C-9,2.9-9.2,3-9.4,3c0,0.1-0.2,0.1-0.3,0.1s-0.1,0.1-0.2,0.1
			c-0.4,0.1-0.9,0.2-1.3,0.2c-0.7,0-1.3-0.2-1.9-0.4c-0.5-0.3-1-0.6-1.4-1c-0.1-0.1-0.2-0.1-0.2,0.2c0.1,0.5,0.1,1-0.1,1.5
			c0,0.4-0.3,0.8-0.7,1.1l0,0l0,0c-0.4,0.3-1,0.5-1.6,0.5c-0.5,0-0.9-0.1-1.3-0.3l0,0c-0.4-0.2-0.7-0.5-1-0.9
			c-0.3-0.4-0.4-0.9-0.4-1.4s0.1-0.9,0.4-1.3c0.1-0.2,0.2-0.3,0.4-0.4c-0.2-0.2-0.3-0.4-0.3-0.6c-0.4,0.7-1.1,1.2-1.9,1.3
			c-0.2,0-0.5,0-0.8,0c-0.4,0-0.8,0-1.2,0C-23,1.9-23.2,2-23.4,2.2c-0.5,0.4-1.1,0.5-1.7,0.5c-0.4,0-0.8-0.1-1.2-0.2
			c-0.9-0.4-1.5-1.3-1.6-2.2c0-0.1,0-0.2,0-0.3c-0.3,0.2-0.5,0.5-0.9,0.8c0,0-0.1,0-0.1,0.1C-28.9,1-29.1,1-29.3,1
			c-0.4,0-0.8-0.1-1.1-0.4c-0.3-0.3-0.6-0.6-0.8-1c-0.1,0.1-0.2,0.3-0.3,0.4c-0.3,0.4-0.6,0.7-1.1,0.9h-0.1c-0.1,0-0.2,0-0.4,0
			c-0.8,0-1.3-0.6-1.5-0.8c-0.2-0.3-0.4-0.5-0.6-0.8c-0.1-0.1-0.2,0-0.2,0.1s0.1,0.3,0.1,0.5l0,0c0.1,0.9-0.3,1.8-1.1,2.2
			c-0.6,0.4-1.5,0.6-2.2,0.6c-0.9,0-1.7-0.2-2.3-0.6l0,0c-0.6-0.4-1.2-0.9-1.7-1.5c-0.3-0.4-0.6-0.9-0.9-1.4c-0.6,0.7-1.4,1.1-2,1.4
			c-0.1,0-0.2,0.1-0.3,0.1h-0.1c-0.5,0.2-1,0.4-1.4,0.5h-0.1c-0.4,0.1-0.8,0.3-1.1,0.4l-0.2,0.1l0,0c0.2,0.1,0.4,0.2,0.6,0.3
			c0,0,0,0,0.1,0c0.4,0.1,0.9,0.2,1.3,0.2c0.2,0,0.3,0,0.4-0.1h0.1c0.1,0,0.2-0.2,0.3-0.3c0.1-0.1,0.2-0.2,0.4-0.3l0,0
			c0.7-0.5,1.8-0.5,2.5,0l0,0c0.5,0.3,0.9,0.8,1,1.3c0.2,0.5,0.2,1,0,1.5c-0.1,0.5-0.4,0.9-0.8,1.3l0,0c-0.9,0.8-2.1,1.2-3.5,1.2
			c-0.3,0-0.7,0-1.1-0.1C-49,6.4-50.6,5.9-52,4.9c-1.6-1-2.3-2.4-2.1-4l0,0c0.1-0.8,0.5-1.6,1.3-2.2c0.3-0.3,0.7-0.5,1.1-0.7
			c-0.5,0-1-0.1-1.4-0.4c-0.4,0-0.8-0.4-1-0.8l0,0c-0.3-0.5-0.4-1-0.4-1.6c0-0.5,0.2-1,0.4-1.4c0.4-0.9,1.3-1.6,2.2-2
			c0.8-0.3,1.8-0.5,2.7-0.5c0.1,0,0.3,0,0.4,0l0,0c1.3,0.1,2.3,0.5,3.2,1l0,0c0.6,0.4,1.2,0.8,1.7,1.3c0.1,0,0.3,0.1,0.4,0.1h0.1
			c0.2-0.3,0.3-0.5,0.5-0.7c0,0,0,0,0.1-0.1c0.7-0.6,1.6-1,2.4-1c0.4,0,0.8,0.1,1.3,0.2l0,0c0.5,0.2,0.9,0.6,1.4,1
			c0.3-0.4,0.6-0.9,1.2-1.1c0,0,0,0,0.1,0c0.6-0.2,1.3,0,1.9,0.5l0,0c0.3,0.4,0.6,0.8,0.9,1.1c0,0,0,0,0.1,0c0.1,0,0.2-0.1,0.3-0.1
			c0.1-0.3,0.3-0.5,0.4-0.8c0.4-0.7,1-0.9,1.3-0.9h0.1c0.5,0,0.9,0.2,1.2,0.5l0.1,0.1c0.3,0.4,0.5,0.8,0.7,1.1c0,0,0.1,0.1,0.2,0.1
			s0.1,0,0.1,0C-28.8-6.9-28-8-26.7-8c0.2,0,0.3,0,0.5,0c1,0.2,1.8,1.1,2.2,1.8c0,0.1,0.1,0.1,0.1,0.2c0.2,0.3,0.4,0.2,0.6-0.1l0,0
			c0.1-0.4,0.4-0.8,0.9-1.2c0,0,0,0,0.1-0.1c0.7-0.5,1.7-0.7,2.4-0.5c0.7,0.1,1.3,0.4,1.8,0.6c0.5-0.5,1.2-0.7,2-0.7
			c0.4,0,0.8,0.1,1.2,0.2c0.4,0.1,1,0.3,1.6,0.6c0.2-0.3,0.4-0.5,0.7-0.7l0,0c0.5-0.4,1-0.8,1.6-1.1l0,0c0.5-0.2,1.1-0.3,1.7-0.3
			c0.4,0,0.8,0,1.2,0.1c1,0.4,2.1,0.9,3.1,1.6c0.9,0.6,1.6,1.3,2.2,2l0,0c0.7,0.9,1.2,1.6,1.5,2.3c0.1,0.4,0.3,0.8,0.4,1.2v0.1v0.2
			c0,0.3,0.1,0.6,0.1,1C-1.1-0.6-1.2-0.2-1.3,0.2"/>
	</g>
	<g id="g3479" transform="matrix(14.22196,0,0,-14.22196,1159.348,72.960345)">
		<path id="path3481" inkscape:connector-curvature="0" class="st0" d="M-1.5,0c0,0.1,0.1,0.1,0.1,0.2c0,0,0,0.1,0.1,0.1
			C-1.1,0.7-1,1.5-1.1,2.4c-0.1,0.8-0.6,1.5-1.2,2l0,0c-0.6,0.4-1.2,0.8-1.9,0.9C-5,5.3-6,5.1-6.7,4.7C-6.9,4.9-7,5.1-7.2,5.3
			c-0.5,0.5-1,0.8-1.6,1c0,0.1,0,0.2,0,0.3C-9,7.6-9.3,8.3-9.4,9c0,0.1-0.1,0.2-0.1,0.4c0,0,0,0.1-0.1,0.1l0,0
			c0.1,0.3,0.3,0.6,0.4,1.1c0.9,2.3,1,3.4,0.6,4.1C-9,15-9.4,15.2-9.8,15.1h-0.1c-0.7-0.2-1.1-0.5-1.7-0.9c-0.1-0.1-0.2-0.1-0.4-0.2
			l-0.1-0.1c-0.1,0.9-0.2,1.7-0.7,2.2c-0.1,0.1-0.1,0.1-0.2,0.2c-0.6,0.3-1.2,0.2-1.8-0.3c-0.5-0.4-1.1-1-1.6-1.6v0.1
			c-0.3,1.2-0.6,2.2-1.6,2.2H-18c-1-0.1-1.4-0.8-1.9-1.4c-0.4-0.5-0.7-1.1-0.9-1.7c-0.1-0.1-0.3-0.1-0.3,0.1c0,0.5,0,1.1-0.4,1.6
			c0,1.2-0.2,2.3-0.7,3.7c0,0,0,0,0,0.1c0,0,0,0.1-0.1,0.1c-0.1,0.3-0.5,1.2-1.4,1.2l0,0c0,0,0,0-0.1,0c-1.4-0.2-2.5-0.7-3.5-1.2
			c-0.2-0.1-0.3-0.2-0.4-0.2l0,0c-0.1,0.2-0.3,0.4-0.5,0.6l0,0c-1,0.9-2.2,1.2-3.1,0.9c0,0,0,0-0.1,0c-1-0.5-1.4-1.5-1.7-2.2l0,0
			c-0.1-0.1-0.1-0.2-0.1-0.4c-0.8,0-1.6,0-2.3,0c-0.3,0-0.6,0-0.9-0.1c-0.3,0-0.5-0.1-0.7-0.1c-0.6,0.7-1.5,1.3-2.4,1.9l0,0
			c-0.1,0.1-0.2,0.1-0.4,0.2c-0.4,0.2-1,0.5-1.6,0.5c-0.2,0-0.3,0-0.5-0.1c-0.1,0-0.2-0.1-0.3-0.2c-1.5-1.2-2.3-3-2.2-5.2v-0.1v-0.4
			c0-0.3,0.1-0.5,0.1-0.7c-0.3-0.3-0.5-0.7-0.8-1.1c-0.7,0.7-1.6,1-2.6,1.1c-0.1,0-0.3,0-0.5,0c0,1,0,2-0.2,2.7
			c-0.2,0.8-0.8,1.4-1.5,1.7c-0.8,0.3-1.7,0.3-2.4-0.1c-0.9-0.5-1.6-1.3-2.2-2.5c-0.5-1.1-1-2.9-1.3-4.5c-0.3-0.1-0.6-0.3-0.8-0.6
			c-0.3-0.4-0.4-0.9-0.3-1.4l0,0c0-0.1,0-0.1,0.1-0.2c-0.7-0.7-1.3-1.5-1.8-2.3c-0.6,0.1-1.2,0.2-1.8,0.3l0,0l0,0
			c-1.2,0-2.2-0.2-3.1-0.6c-0.3,0.2-0.6,0.3-0.8,0.5c0,0,0,0-0.1,0l-0.1,0.1c-0.5,0.2-1.2,0.5-1.9,0.5c-0.3,0-0.7-0.1-0.9-0.2h-0.1
			c-1-0.6-0.9-1.6-0.8-2.2V4.9V4.8c0.2-1,0.5-1.9,1-2.7c0-0.1,0-0.1,0-0.2c0-0.1,0-0.1,0-0.2c0,0,0,0,0-0.1C-67.1,1-67.2,0.4-67.2,0
			c-0.4,0-0.9,0-1.4-0.1c-0.4-0.1-0.7-0.5-0.7-1c0-0.2,0.1-0.5,0.4-0.7c0.2-0.1,0.4-0.2,0.5-0.2c0.6,0.1,1.1,0.1,1.6,0.1
			c0-0.1,0.1-0.2,0.1-0.3c-0.1-0.1-0.3-0.1-0.4-0.2c-0.1,0-0.2-0.1-0.3-0.1C-68-2.8-68.2-2.9-68.4-3c-0.1-0.1-0.2-0.2-0.3-0.3
			c-0.1-0.2-0.2-0.4-0.2-0.6c0-0.3,0.1-0.6,0.5-0.7c0.2-0.1,0.4-0.1,0.6-0.1c0.7,0.1,1.3,0.4,1.8,0.7c0-0.1,0,0,0.1,0
			c0-0.2,0-0.4,0.1-0.6v-0.1c0.4-0.7,1-1.4,2-2.1c0-0.5,0.2-1.1,0.5-1.5c0-0.1,0-0.2,0-0.3c0,0,0-0.1-0.1-0.1
			c-0.1-0.3-0.3-0.6-0.2-1.1c0.1-0.5,0.4-0.8,1-1h0.1c0.6-0.1,1.3-0.1,1.9,0c0.1,0,0.1,0,0.2,0.1c0.2,0.1,0.4,0.3,0.5,0.5
			c0.2-0.1,0.3-0.1,0.6-0.1c0.1,0,0.2,0,0.2,0c0.2-0.2,0.4-0.3,0.6-0.3c0.3,0,0.5,0.2,0.7,0.3c0.1,0,0.1,0.1,0.1,0.2
			c0.2,0.2,0.2,0.5,0.2,0.8c0.8-0.1,1.6,0.1,2.2,0.6c0.1-0.1,0.2-0.3,0.3-0.4c0-0.1,0.1-0.1,0.1-0.2c0.1-0.2,0.2-0.3,0.4-0.5
			c2.1-2.9,7.6-3.8,13.3-3.9c0.1-0.7,1.2,1,1.6,0.2c0.1-0.2,0.4-0.3,1.1-0.3c0.7,0,0.7-2.2,1.6-2c0.4,0.2,1,0.4,1.3,0.5
			c0.1-0.1,0.2-0.3,0.3-0.5c0.3-0.5,0.7-1.1,1.5-1.1c0.3,0,0.6,0.1,0.9,0.3c0,0,0,0,0.1,0c0.1,0,0.2-0.1,0.4-0.1
			c0.5,0,1,0.9,1.6,1.1c0.2,0.1,0.8,0.6,0.9,0.6c0.3,0,0.7-1.2,1.1-1.4c0.5-0.3,1.1-0.7,1.7-0.7c0.5,0,1.1,0.2,1.6,1.1
			c0,0,0,0,0,0.1c0.5,1.4,0.7,2.3,0.8,3.5l11.3,2.9c0.4-0.2,0.8-0.3,1.1-0.4c0,0,0,0,0.1,0c0.6-0.1,1.3,0.1,1.8,0.4
			c0,0,0.1,0,0.1,0.1c0,0.2,0.2,0.3,0.3,0.4c0.1,0,0.2-0.1,0.3-0.1s0.2,0,0.2,0c0-0.1,0-0.2,0.1-0.2c0-0.1,0-0.1,0.1-0.2
			c0,0,0-0.1,0.1-0.1c0.1-0.3,0.3-0.7,0.7-0.9c0.1,0,0.2-0.1,0.2-0.1c0.3-0.1,0.6,0,0.9,0.1c0.3-0.3,0.7-0.7,1.4-0.6
			c0.1,0,0.1,0,0.2,0c0.2,0.1,0.3,0.2,0.5,0.2l0,0c0.2-0.1,0.4-0.3,0.6-0.4c0.1,0,0.2-0.1,0.3-0.1l0,0c0.3,0,0.6,0.1,0.9,0.3
			c0.5,0.4,0.8,1,0.8,1.7c0,0.1,0,0.1,0,0.2c-0.1,0.3-0.1,0.5-0.1,0.8C-3.4-8.2-3.2-8-3-7.9h0.2c0.4,0.2,0.7,0.5,1,0.7l0.1,0.1
			c0.1,0.2,0.3,0.4,0.3,0.7v0.1c0,0.5-0.2,0.8-0.4,1c0,0.1,0,0.2,0,0.3v0.1c0,0.3-0.2,0.5-0.5,0.7c0.3,0.5,0.4,1,0.5,1.5l0,0
			c0,0.4,0,0.8-0.1,1.2v0.1c0,0,0,0,0,0.1C-1.9-1.2-2-1-2.1-0.8c0,0,0,0,0,0.1S-2-0.6-2-0.5C-1.7-0.5-1.6-0.2-1.5,0"/>
	</g>
	<g id="g3483" transform="matrix(14.22196,0,0,-14.22196,1025.4754,192.68081)">
		<path id="path3485" inkscape:connector-curvature="0" class="st0" d="M-1.2,0.2L-1.2,0.2L-1.2,0.2L-1.2,0.2z"/>
	</g>
	<g id="g3487" transform="matrix(14.22196,0,0,-14.22196,1019.5306,187.23664)">
		<path id="path3489" inkscape:connector-curvature="0" class="st1" d="M-1.2,0.1C-2,0-2.8,0-3,0.6c-0.1,0.4-0.1,0.6-0.1,1
			c-1-0.2-2.6,0.3-3.6,0.4c-1.7-0.3-2.2-0.6-3.5-0.6c0.2-0.4,0.4-0.9,0.1-1.3c-0.3-0.4-1.3-0.4-2.1-0.4c-0.8,0.1-1.7,0.1-1.7,0.7
			c0.1,0.7,0.8,1.1,1.7,1.3c0,0.2-0.1,0.1-0.1,0.3c-0.5,1-0.4,2.2,0,3.2c-0.5,0.3-0.8,0.9-0.8,1.5c0.1,1,0.6,1.8,1.2,2.4
			c-0.5,0.3-1,0.4-1.4,0.8c-1.5,1.3-1.6,3.1-1.4,4.9c0.1,0.8,0.7,1.6,0.9,2.2c-0.2,0.8-0.2,0.3-0.4,2.2c0,0.8-0.1,2,0.1,2.7
			c0,0.2,0.2,0.5,0.7,0.2c1-0.6,1.8-1.5,2.7-2.2c0.5,1,0.9,2.1,1.5,2.8c0.4,0.7,0.7,1,1.3,1.1c0.5,0,0.6-1,1-2.3
			c0.1-0.4,0.3-0.9,0.3-1.2c0.5,1.1,1.4,2.1,2.3,2.8c0.3,0.2,0.6,0.4,0.9,0.2c0.5-0.5,0.5-2,0.6-3c0.4,0.2,0.9,0.6,1.3,0.9
			c0.7,0.4,1.2,0.8,1.9,1c1.1,0.2,0.2-2.3-0.3-3.5c-0.2-0.5-0.3-0.8-0.5-1.3c0-0.2,0.1-0.4,0.2-0.5c0.3-0.8,0.6-1.5,0.8-2.5
			c0.2-1.3-0.2-2.7-0.9-3.8c-0.5-0.6-1-1.2-1.7-1.5C-1.5,9-1,8.5-0.8,7.9c0.2-0.7,0-1.7-0.7-2.2c0-0.4,0.2-0.8,0.3-1.2
			c0-0.8,0.3-2-0.6-2.4c0.5-0.2,0.6-0.3,1.1-0.6c0.3-0.2,0.5-0.6,0.4-0.9C-0.6,0.3-0.8,0.2-1.2,0.1"/>
	</g>
	<g id="g3491" transform="matrix(14.22196,0,0,-14.22196,999.89141,180.19392)">
		<path id="path3493" inkscape:connector-curvature="0" class="st2" d="M-1.2,0.1c-0.3,0.3-0.2,0.7-0.1,1.1C-1.1,1.7-0.4,1.3-0.1,1
			c0.2-0.2,0.9-0.5,0.7-0.7C0.3-0.2-1-0.2-1.2,0.1"/>
	</g>
	<g id="g3495" transform="matrix(14.22196,0,0,-14.22196,995.33618,120.7376)">
		<path id="path3497" inkscape:connector-curvature="0" class="st0" d="M-1.1,0c-0.3-0.1-0.3-0.1-0.5-0.1C-1.6,0-1.5,0-1.3,0
			c0.6,0.2,0.7,0.5,1.2,0.7c0,0,0.1-0.1,0-0.1C-0.5,0.3-0.7,0.1-1.1,0"/>
	</g>
	<g id="g3499" transform="matrix(14.22196,0,0,-14.22196,1001.4615,15.559148)">
		<path id="path3501" inkscape:connector-curvature="0" class="st0" d="M-1.2-0.1c-0.8-0.3-1-0.3-1.5-0.3C-3.6-0.3-4.5,0.1-5,1
			c0,0.1-0.1,0.1-0.2,0.4c-0.3,0.6-0.2,1-0.1,1.6C-4.7,3-4.6,3-3.8,3c0.2-0.7,0.6-0.8,1.1-0.7c0.3,0.1,0.5,0.5,0.5,0.8
			C-1.5,3.2-1,3.2,0,3.3c0.5-1.1,0.5-2-0.5-3C-0.7,0.2-0.9,0-1.2-0.1"/>
	</g>
	<g id="g3503" transform="matrix(14.22196,0,0,-14.22196,984.14201,160.04141)">
		<path id="path3505" inkscape:connector-curvature="0" class="st0" d="M-1.1,0.1c-1.1,0-2.2,0.2-3.2,0.4C-5.6,0.3-6.8-0.2-8-0.1
			c-0.1,0-0.2,0-0.2,0.1c0.1,1,0.3,2.2,0.9,3.1C-7.1,3.2-7,3.2-6.6,3.4C-6.2,3.5-6,3.6-5.7,3.7C-5.2,3.9-4.8,4-4.5,4.3
			c0,0-0.2-0.3-0.1-0.6c0.3-0.6,0.8-1.2,2.2-1.2c0.3,0,0.7,0,1,0C-1.2,2.3-1.2,2.3-1.1,2c0-0.1,0-0.2,0-0.2c0.1-0.5,0.3-1,0.3-1.5
			C-0.8,0.3-0.7,0.1-1.1,0.1"/>
	</g>
	<g id="g3507" transform="matrix(14.22196,0,0,-14.22196,949.12903,92.084672)">
		<path id="path3509" inkscape:connector-curvature="0" class="st0" d="M-1.1,0c-0.1-0.1-0.2-0.1-0.3-0.1c0,0-0.1,0-0.2,0
			C-1.4,0.2-1,0.3-0.7,0.2C-0.8,0-0.9,0.1-1.1,0"/>
	</g>
	<g id="g3511" transform="matrix(14.22196,0,0,-14.22196,938.72709,54.113403)">
		<path id="path3513" inkscape:connector-curvature="0" class="st2" d="M-1.1-0.1C-2.1,0-2.1,0-3,0c0.5,0.4,1.1,0.9,1.6,1
			c0.3,0.2,0.7,0.2,1.2-0.1C0,0.7,0.1,0.7,0.1,0.6C0.3,0.4-0.2,0.1-1.1-0.1"/>
	</g>
	<g id="g3515" transform="matrix(14.22196,0,0,-14.22196,927.64385,33.753245)">
		<path id="path3517" inkscape:connector-curvature="0" class="st2" d="M-1-0.1c-0.3-0.1-1.2-0.7-1.5-1.2c0.2,1,0.7,2,1.8,2.3
			c0.4,0.1,1.2-0.8,1.6-1.4C0.3-0.1-0.3,0.3-1-0.1"/>
	</g>
	<g id="g3519" transform="matrix(14.22196,0,0,-14.22196,955.30989,63.515598)">
		<path id="path3521" inkscape:connector-curvature="0" class="st0" d="M-1.1,0c-0.5,0.3-1.1,0.2-1.5,0.2c-1.3-0.1-1.7-0.4-2.5-0.9
			C-5.2-0.8-6-1.5-5.2-1c1,0.7,1.6,0.9,2.5,1c0.6,0.1,1.4,0.1,2-0.5c0.4-0.7,0.3-1,0.2-1.2c0.1,0,0.1,0.1,0.3,0.1
			C-0.2-0.9-0.6-0.3-1.1,0"/>
	</g>
	<g id="g3523" transform="matrix(14.22196,0,0,-14.22196,902.70002,19.613772)">
		<path id="path3525" inkscape:connector-curvature="0" class="st0" d="M-1-0.1c-0.8-0.2-1.6-0.4-2.4-0.1s-1.5,1-1.7,1.9
			c0,0.1-0.1,0.3-0.1,0.6s0.1,0.5,0.2,1c0.9,0,1.1,0,1.7,0s0.3,0,0.9,0c0-0.3,0.1-0.6,0.4-0.8c1-0.4,1.2,0.7,1.3,0.7
			c0.5,0,0.5,0,1.2,0c0.2-0.6,0.1-1.5-0.2-2.2C0,0.4-0.5,0.1-1-0.1"/>
	</g>
	<g id="g3527" transform="matrix(14.22196,0,0,-14.22196,878.08886,185.91684)">
		<path id="path3529" inkscape:connector-curvature="0" class="st2" d="M-1,0.1C-1.9,0-3.3,0-3.4,0.2c-0.1,0,0,0.2,0,0.3
			c0.3,0.7,2.2,1,2.4,0.7C-0.7,0.9-0.3,0.2-1,0.1"/>
	</g>
	<g id="g3531" transform="matrix(14.22196,0,0,-14.22196,884.03364,120.63952)">
		<path id="path3533" inkscape:connector-curvature="0" class="st0" d="M-1,0c-0.3,0-0.6,0.1-0.7,0.2c0.2,0,0.5,0,0.9,0
			C-0.9,0.1-0.9,0-1,0"/>
	</g>
	<g id="g3535" transform="matrix(14.22196,0,0,-14.22196,1045.8355,141.9042)">
		<path id="path3537" inkscape:connector-curvature="0" class="st0" d="M-1.2,0.1c0.5-0.1,1-0.2,1.5-0.3c0.7-0.1,1.3-0.2,2-0.3
			c0.3-0.4,0.5-0.8,0.6-1.2C3-2.3,3.3-3,3.3-3.6c-0.7,0-1.4,0.1-2,0.2c-1.4,0.2-2.6,0.6-3.9,0.8c-0.1,0.1,0,0.3,0,0.5
			c0,0.5-0.5,0-0.7,0.4c-0.1,0-0.3,0-0.3,0c-0.1,0-0.1-0.1-0.2-0.1c-0.3,0-0.5,0.5-0.8,0.5C-4.7-1.2-4.8-1.6-5-1.5
			c0.3,0.4,1.3,1.8,1.6,2.2C-2.7,0.5-2,0.3-1.2,0.1"/>
	</g>
	<g id="g3539" transform="matrix(14.22196,0,0,-14.22196,1013.8645,132.27878)">
		<path id="path3541" inkscape:connector-curvature="0" class="st3" d="M-1.2,0.1l0.9-0.3c-0.2-0.5-1-2-1.1-2.2
			c-2.5-0.8-1.3-0.5-1.5,0.3C-2.7-1.8-1.8-0.4-1.2,0.1"/>
	</g>
	<g id="g3543" transform="matrix(14.22196,0,0,-14.22196,1047.5023,140.68111)">
		<path id="path3545" inkscape:connector-curvature="0" class="st3" d="M-1.2,0.1l1.2-0.2c0-0.5,0-2.5-0.1-3.2L-2.2-3
			C-2.1-2.4-1.7-0.9-1.2,0.1"/>
	</g>
	<g id="g3547" transform="matrix(14.22196,0,0,-14.22196,1097.8352,148.69513)">
		<path id="path3549" inkscape:connector-curvature="0" class="st3" d="M-1.3,0.1c0,0,1.3-2.4,1-3.4h-0.4L-2-3.2
			c0.2,1.5-0.3,3.4-0.3,3.4L-1.3,0.1z"/>
	</g>
	<g id="g3551" transform="matrix(14.22196,0,0,-14.22196,1111.1684,196.09692)">
		<path id="path3553" inkscape:connector-curvature="0" class="st1" d="M-1.3,0.2c-0.7,0-1.4,0.1-2,0.2c-1.4,0.3-2.6,0.6-3.9,0.8
			c-0.1,0.1,0,0.3,0,0.5c0,0.5-0.3,0-0.5,0.5C-7.8,2.1-8.1,2-8.1,2c-0.1,0-0.5,0.1-0.6,0.1c-0.2-0.1-0.8,0.1-1.1,0
			c-0.1,0.2,0.3,0,0.2,0.1C-9.3,2.7-8.4,4.1-8,4.5c0.7-0.2,1.5-0.4,2.2-0.6c0.5-0.1,1-0.2,1.5-0.3c0.7-0.1,1.3-0.2,2-0.3
			c0.3-0.4,0.5-0.8,0.6-1.2C-1.6,1.5-1.3,0.8-1.3,0.2 M1,8.4c0.2,0.3,0.3,0.6,0.4,0.8c0.2,0.6,0.3,1.2,0.2,1.8
			c-0.1,0.6-0.4,1.1-0.9,1.5c-0.4,0.3-0.9,0.6-1.4,0.7c-0.9,0.1-1.8-0.2-2.4-0.8c0,0-0.2-0.3-0.4-0.4c-0.1,0.6-0.3,1.1-0.7,1.6
			c-0.5,0.5-1.1,0.8-1.7,0.9c-0.7,0.1-1.3-0.1-1.9-0.5c-0.4-0.3-0.7-0.6-1-1c-0.4-0.6-0.5-1.4-0.4-2.1c0-0.2,0.1-0.3,0.1-0.5
			c-0.2-0.2-0.3-0.3-0.5-0.5c-0.2-0.2-0.3-0.4-0.4-0.6C-9.9,9.2-10,9-10.1,8.9c-0.1-0.3-0.2-0.5-0.2-0.8c0-0.2,0-0.5,0-0.8
			c0-0.4,0.1-0.7,0.2-1c-0.1-0.1,0-0.2-0.1-0.3c-0.2,0-0.4,0-0.6-0.1c-0.3-0.1-0.1-0.4-0.2-0.6c-0.3-0.1-0.6-0.1-0.8-0.3
			c-0.1-0.2,0-0.4,0.1-0.6c0.2-0.3,0.4-0.5,0.6-0.7c0.2-0.2,1.1-0.8,1.2-1c0-0.2-0.1-0.7-0.2-0.8c-0.1-0.2-0.6-0.3-0.6-0.3
			c0-0.1,0.1-0.1,0.1-0.2c0-0.4-0.5-0.2-0.3-0.6c0.2-0.3,0.4-0.6,0.7-0.8s0.6-0.3,0.9-0.3c0.4,0,0.9,0,1.3,0.3
			c0.2,0.2,0.4,0.4,0.6,0.6C-7,0.7-6.4,0.6-5.9,0.5c0-0.2,0.1-0.5,0.1-0.7c0.3-0.2,0.4-0.6,0.7-0.7C-4.8-1-4.6-0.8-4.3-0.8l0,0
			c0.3-0.3,0.5-0.8,1-0.7C-3-1.4-2.7-1.1-2.4-1.1c0.3-0.2,0.5-0.5,0.8-0.5l0,0h0.1c0.1,0,0.3,0,0.3,0.1c0.3,0.2,0.4,0.6,0.4,1
			C-0.9,0-0.9,0.6-1,1l0,0c0.2,0.1,0.3,0.1,0.4,0.1c0.3,0.1,0.7,0.2,1,0.4s0.6,0.4,0.8,0.6c0.1,0.1,0.2,0.2,0.2,0.3
			c0,0.3-0.4,0.4-0.6,0.6l0,0c0.1,0.2,0.2,0.3,0.2,0.5c0,0.4-0.4,0.3-0.6,0.4c0,0.1,0,0.3,0,0.5c0.4,0.5,0.6,1,0.7,1.6
			C1,6.3,1,6.6,0.9,7C0.8,7.3,0.7,7.5,0.7,7.8C0.6,7.9,0.6,8,0.6,8C0.7,8.1,0.9,8.3,1,8.4"/>
	</g>
	<g id="g3555" transform="matrix(14.22196,0,0,-14.22196,1057.6682,1.3229658)">
		<path id="path3557" inkscape:connector-curvature="0" class="st0" d="M-1.2-0.1C-1-0.3-0.8-0.5-0.7-0.7c0.2-0.2,0.3-0.4,0.4-0.7
			c0.1-0.4,0.1-0.8,0.1-1.3C-0.3-3-0.3-3.3-0.5-3.6C-0.6-3.9-0.8-4-1-4.2c-0.4-0.4-1-0.6-1.6-0.6c-0.5,0-1,0.1-1.4,0.4
			C-4.2-4.3-4.5-4-4.7-3.9C-5.1-3.2-5.2-2.4-5-1.7c0.1,0.5,0.4,1,0.8,1.3C-3.8,0-3.3,0.2-2.8,0.3S-1.7,0.2-1.2-0.1"/>
	</g>
	<g id="g3559" transform="matrix(14.22196,0,0,-14.22196,1125.0845,14.545065)">
		<path id="path3561" inkscape:connector-curvature="0" class="st0" d="M-1.3-0.1c0.4-0.1,0.7-0.4,1-0.6C-0.2-0.9,0-1.2,0.1-1.5
			c0-0.2,0.1-0.4,0.1-0.6c0-0.3,0-0.6,0-0.9C0.1-3.2,0-3.4-0.1-3.6c-0.1-0.2-0.1-0.5-0.3-0.7C-0.6-4.5-0.8-4.6-1-4.7
			c-0.2-0.1-0.4-0.1-0.5-0.2c-0.3-0.1-0.7,0-1,0C-2.7-4.8-3-4.7-3.3-4.6c-0.3,0.1-0.5,0.3-0.8,0.5c0,0.1-0.2,0.3-0.2,0.4
			c-0.1,0.2-0.2,0.3-0.2,0.5c-0.1,0.2-0.1,0.5-0.1,0.7c0,0.3,0.1,0.5,0.1,0.8C-4.4-1.4-4.2-1-3.9-0.7s0.7,0.5,1.1,0.6
			C-2.3,0-1.8,0.1-1.3-0.1"/>
	</g>
	<g id="g3563" transform="matrix(14.22196,0,0,-14.22196,1056.2517,28.738582)">
		<path id="path3565" inkscape:connector-curvature="0" class="st1" d="M-1.9-0.1c0.2-0.1,0.4-0.3,0.5-0.5c0.1-0.1,0.1-0.3,0-0.5
			c-0.1-0.1-0.2-0.3-0.3-0.4c-0.2-0.1-0.4-0.1-0.6-0.1s-0.3,0.1-0.4,0.2c-0.1,0.2-0.2,0.3-0.2,0.5s0.1,0.4,0.2,0.6
			c0.1,0.1,0.2,0.1,0.3,0.2C-2.2-0.1-2-0.1-1.9-0.1"/>
	</g>
	<g id="g3567" transform="matrix(14.22196,0,0,-14.22196,1097.0289,38.044067)">
		<path id="path3569" inkscape:connector-curvature="0" class="st1" d="M-0.3-0.3c0.2,0,0.3-0.1,0.4-0.3s0.2-0.4,0.2-0.6
			C0.2-1.3,0.1-1.5-0.2-1.6c-0.2-0.1-0.5,0-0.6,0C-0.9-1.5-1-1.4-1-1.2C-1.1-1-1.1-0.7-1-0.5c0.1,0.1,0.2,0.2,0.4,0.3
			C-0.6-0.3-0.4-0.3-0.3-0.3"/>
	</g>
	<g id="g3571" transform="matrix(14.22196,0,0,-14.22196,1049.5573,136.79283)">
		<path id="path3573" inkscape:connector-curvature="0" class="st4" d="M-1.2,0.1c-0.1,0-0.3,0.1-0.4,0.1c-0.5,0.1-1,0.3-1.5,0.4
			s-1,0.3-1.4,0.7c-0.3,0.2-0.5,0.5-0.7,0.7c-0.2,0.3-0.3,0.6-0.4,1c-0.1,0.2,0,0.5-0.1,0.7c0,0.4,0.1,0.7,0.2,1.1
			C-5.3,5-5.1,5.3-4.9,5.5c0.1,0.1,0.2,0.2,0.3,0.3l0,0c0.1-0.2,0.3-0.4,0.5-0.6C-4,5.1-3.9,5-3.7,4.8C-3.5,4.7-3.3,4.6-3,4.4
			c0.2-0.1,0.3-0.1,0.5-0.2c0.5,0,1.1-0.1,1.6,0.2C-0.6,4.6-0.4,4.8-0.2,5C0,5.2,0.1,5.4,0.3,5.5l0,0c0-0.2,0.1-0.4,0.2-0.5
			c0.1-0.3,0.2-0.5,0.4-0.7c0.2-0.2,0.4-0.5,0.7-0.6c0.1-0.1,0.3-0.2,0.5-0.3c0.4-0.1,0.8-0.2,1.2-0.2c0.2,0,0.5,0,0.7,0.1
			s0.4,0.1,0.6,0.2c0.1,0,0.1-0.1,0.1-0.2C4.9,3,4.8,2.5,4.9,2.1c0-0.2,0-0.5-0.1-0.7C4.7,1,4.4,0.6,4.1,0.3C4,0.1,3.8,0,3.6-0.1
			C3.3-0.3,2.8-0.4,2.4-0.5C2-0.5,1.6-0.4,1.2-0.4C0.6-0.2,0-0.2-0.6,0L-1.2,0.1z"/>
	</g>
	<g id="g3575" transform="matrix(14.22196,0,0,-14.22196,987.57235,112.57135)">
		<path id="path3577" inkscape:connector-curvature="0" class="st4" d="M-1.1,0c0.2-0.3,0.4-0.5,0.6-0.7S-0.1-1,0.2-1.1
			C0.1-1.4-0.2-1.7-0.4-2c-0.1-0.2-0.3-0.5-0.5-0.7c-0.1-0.1-0.1-0.1-0.1-0.1c-0.4,0.2-0.9,0.7-1.2,1c-0.2,0.2-0.4,0.4-0.5,0.6
			c0,0-0.1,0.1,0,0.2c0.1,0.1,0.3,0.1,0.5,0.1c0.1,0,0.2,0.1,0.2,0.2c0,0.2-0.1,0.4,0,0.5c0.1,0.1,0.3,0,0.5,0S-1.2,0-1.1,0"/>
	</g>
	<g id="g3579" transform="matrix(14.22196,0,0,-14.22196,1113.7511,176.38961)">
		<path id="path3581" inkscape:connector-curvature="0" class="st4" d="M-1.3,0.1C-1.3,0.1-1.3,0-1.3,0.1c0.6,0,1.1,0.3,1.6,0.5
			C0.4,0.8,0.7,1,0.7,1.1c0,0.1-0.4,0.2-0.5,0.4C0.1,1.7,0.4,2,0.3,2.1c0,0.1-0.3,0.1-0.4,0.1s-0.1,0.1-0.1,0.2s0,0.2,0,0.3
			C-0.5,2.4-0.9,2.2-1.3,2C-1.5,1.9-1.8,1.9-2,1.9l0,0c0.2-0.3,0.3-0.7,0.5-1.1C-1.5,0.6-1.4,0.3-1.3,0.1"/>
	</g>
	<g id="g3583" transform="matrix(14.22196,0,0,-14.22196,1099.9742,201.27804)">
		<path id="path3585" inkscape:connector-curvature="0" class="st4" d="M-1.3,0.2c0.3,0,0.6-0.1,0.9-0.1c0.1-0.2,0-0.5,0-0.7
			c-0.1-0.1-0.1-0.2-0.3-0.2C-1-0.6-1.3-0.3-1.6-0.2C-2-0.1-2.2-0.4-2.4-0.5c-0.1,0-0.1-0.1-0.2-0.1C-2.9-0.4-3,0-3.4,0
			C-3.6,0-3.8-0.1-4-0.1c-0.1,0-0.1,0-0.2,0c-0.2,0.3-0.4,0.6-0.4,0.9l0,0C-3.6,0.5-2.4,0.4-1.3,0.2"/>
	</g>
	<g id="g3587" transform="matrix(14.22196,0,0,-14.22196,1103.9734,111.93136)">
		<path id="path3589" inkscape:connector-curvature="0" class="st3" d="M-1.3,0c0,0.5,0.4,0.9,0.8,0.9C0,0.9,0.2,0.5,0.2,0
			S0-0.8-0.5-0.8C-0.9-0.8-1.3-0.5-1.3,0"/>
	</g>
	<g id="g3591" transform="matrix(14.22196,0,0,-14.22196,994.14153,87.919002)">
		<path id="path3593" inkscape:connector-curvature="0" class="st3" d="M-1.1,0c0,0.5,0.4,0.9,0.8,0.9c0.5,0,0.8-0.4,0.8-0.9
			S0-0.9-0.4-0.9S-1.1-0.5-1.1,0"/>
	</g>
	<g id="g3595" transform="matrix(14.22196,0,0,-14.22196,1095.2796,125.61152)">
		<path id="path3597" inkscape:connector-curvature="0" class="st1" d="M-1.3,0.1L-1.3,0.1C-3-0.8-4.2-0.8-4.2-0.8l0,0l0,0
			c-0.1,0-1.3,0.7-2.2,2.1c-0.1,0.1,0,0.2,0,0.3c0.1,0.1,0.2,0,0.3-0.1c0.8-1.2,1.9-1.8,2.1-2c0.2,0,1.4,0.1,2.7,0.9
			c0.1,0.1,0.2,0,0.3-0.1C-1.2,0.2-1.2,0.1-1.3,0.1"/>
	</g>
	<g id="g3599" transform="matrix(14.22196,0,0,-14.22196,866.42264,166.04171)">
		<path id="path3601" inkscape:connector-curvature="0" class="st0" d="M-1,0.1c0,0,0.7-0.4,1.6-0.2c0.8,0,0.3-0.8,0.3-0.8l-1.4-1.7
			l-1,0.4L-1,0.1z"/>
	</g>
	<g id="g3603" transform="matrix(14.22196,0,0,-14.22196,353.02831,187.70881)">
		<path id="path3605" inkscape:connector-curvature="0" class="st0" d="M-0.2,0.1c0,0,0-0.1-0.6-0.1c0,0,0.1,1.3,0,1.8s-0.5,1-0.1,1
			s0.8-0.4,0.8-1.2C0,0.9-0.2,0.1-0.2,0.1"/>
	</g>
	<g id="g3607" transform="matrix(14.22196,0,0,-14.22196,241.37887,127.36219)">
		<path id="path3609" inkscape:connector-curvature="0" class="st0" d="M0,0.1c0,0-0.3,0.1-0.4,0.3s0.6,1.2,1.9,0.6
			c1.2-0.6,1.8-1.9,1.8-2.1c0-0.1-0.8-0.4-1,0.1C2.2-0.5,1.7,0.3,1.2,0.2C0.6,0.2,0,0.1,0,0.1"/>
	</g>
	<g id="g3611" transform="matrix(14.22196,0,0,-14.22196,392.95936,-15.774675)">
		<path id="path3613" inkscape:connector-curvature="0" class="st1" d="M-0.2-0.2c0.4-0.7,0.2-1.6,0-2.2c-0.3-0.7-0.5-1.3-0.9-1.9
			C-1-4.8-0.8-5.3-0.8-5.8c0-0.4,0-0.8-0.1-1.2l0,0c0.7,0,1.5,0.1,2.2-0.2c0.1,0,0.1-0.1,0.1-0.2L1.2-7.5c-0.7,0.1-1.5,0.1-2.2,0
			C-1-7.7-1.1-7.9-1.2-8.1c-0.1-0.3-0.2-0.5-0.4-0.8c0.7-0.4,1.4-0.7,2.2-1c0,0,0.1-0.1,0.1-0.2c-0.2-0.2-0.4,0-0.6,0
			c-0.7,0.3-1.3,0.7-1.9,1c-0.8-0.8-1.8-1.2-2.8-1.5h-0.1c0.7-0.6,1.2-1.3,1.6-2.1c0.2-0.3,0.2-0.8-0.1-1.1C-3.6-13.9-3.7-14-4-13.9
			c-0.1,0-0.3,0.1-0.4,0.2c0.2,0.5,0.1,1.1,0.1,1.7c-0.1,0.1,0,0.4-0.2,0.4c0,0,0-0.1,0-0.2c0.2-0.6,0.1-1.3,0-1.9
			c0.3-0.4,0.8-0.5,1.3-0.5c0.6,0,1.2,0.3,1.6,0.8c0.3,0.4,0.5,0.9,0.8,1.3c0.1,0.1,0.3,0.3,0.5,0.2c0.1-0.1,0.1-0.2,0.1-0.3
			c-0.3-0.8-0.9-1.5-1.6-2.1c-0.6-0.5-1.4-0.6-2.1-0.4c-0.3,0.1-0.6,0.3-0.9,0.5C-5-14.6-4.5-15-4.4-15.4c0-0.2,0-0.3-0.1-0.4
			c-0.4-0.4,0.2,0.2-0.4,0.2c-0.2,0-0.8-0.2-0.9,0.1c-0.1,0.3-0.8,0.4-0.8,0.7c0,0,0,0.1-0.1,0.1c-0.1,0-0.1-0.1-0.1-0.1
			c0-0.3,0-0.6,0-0.9c0-0.1-0.1-0.3-0.2-0.3c-0.5-0.1-1-0.1-1.6,0c-0.2,0.1-0.4,0.2-0.5,0.4c0,0.4,0.2,0.6,0.3,0.9
			c0,0.2,0,0.4,0,0.7C-9-13.6-9.2-13-9.1-12.4c-0.8,0.5-1.6,1.2-2,2c-0.1,0.3-0.1,0.7,0.1,0.9c0.2,0.3,0.5,0.4,0.8,0.4
			c0.7-0.1,1.3-0.9,1.6-1.5c0,0,0.1,0,0.2,0l-0.1,0.1c-0.3,0.6-0.8,1.2-1.4,1.5c-0.3,0.1-0.7,0.2-1,0c-0.2-0.1-0.4-0.3-0.5-0.5l0,0
			c-0.2,0.1-0.4,0.3-0.6,0.5c-0.8-0.3-1.5-0.8-2.2-0.9c0,0-0.1,0-0.1,0.1s0,0.1,0.1,0.1c0.3,0.1,0.6,0.2,0.9,0.3
			c0.4,0.2,0.8,0.4,1.2,0.6c-0.3,0.4-0.5,0.9-0.7,1.4h-0.1c-0.7,0-1.4,0-2.2-0.1c0,0-0.1,0-0.1,0.1c0,0.1,0.1,0.2,0.1,0.2
			c0.6,0.2,1.4,0.1,2.1,0.1c0,0.6,0.1,1.5,0.2,2.2c0.1,0.2,0.1,0.4,0.2,0.6c-0.6,0.9-0.9,1.9-1.1,2.8c0,0.5-0.1,1.2,0.4,1.6
			c0.8,0.3,1.6-0.1,2.2-0.4c0.4-0.2,0.8-0.4,1.1-0.7c1,0.4,2.2,0.7,3.3,0.7c1-0.1,2-0.2,2.8-0.6C-3-0.4-2.1,0.1-1,0.2
			C-0.6,0.1-0.4,0-0.2-0.2"/>
	</g>
	<g id="g3615" transform="matrix(14.22196,0,0,-14.22196,382.1947,-6.1634741)">
		<path id="path3617" inkscape:connector-curvature="0" class="st5" d="M-0.2-0.1c0.3-0.3,0.1-0.7,0.1-1c-0.1-0.6-0.4-1.1-0.7-1.6
			l0,0C-1.2-2.1-1.7-1.4-2.4-1l0,0c0.5,0.5,1.1,0.7,1.7,0.9C-0.5-0.1-0.3-0.1-0.2-0.1"/>
	</g>
	<g id="g3619" transform="matrix(14.22196,0,0,-14.22196,225.96226,-3.0389663)">
		<path id="path3621" inkscape:connector-curvature="0" class="st5" d="M0-0.1c0.4-0.2,0.8-0.3,1.1-0.6v-0.1
			C0.8-0.9,0.5-1.2,0.3-1.5C0-1.8-0.3-2.2-0.5-2.6l0,0c-0.4,0.7-0.9,1.4-0.8,2.2C-1.2-0.1-1,0.1-1,0.2C-0.6,0.2-0.3,0,0-0.1"/>
	</g>
	<g id="g3623" transform="matrix(14.22196,0,0,-14.22196,356.68199,70.876884)">
		<path id="path3625" inkscape:connector-curvature="0" class="st0" d="M-0.2,0C0-0.4,0.1-0.9-0.1-1.3c-0.2-0.5-0.6-0.9-1.1-1
			c-0.6-0.1-1.1,0.1-1.5,0.5s-0.5,1.1-0.2,1.6c0.2,0.5,0.7,0.9,1.3,0.9C-1,0.7-0.5,0.5-0.2,0"/>
	</g>
	<g id="g3627" transform="matrix(14.22196,0,0,-14.22196,276.54408,75.419379)">
		<path id="path3629" inkscape:connector-curvature="0" class="st0" d="M0,0C0.1-0.5,0-1.1-0.2-1.5c-0.4-0.4-0.9-0.6-1.5-0.6
			C-2.2-2-2.8-1.5-2.9-1c-0.2,0.6,0.1,1.1,0.5,1.6C-2,0.9-1.4,1-0.9,0.9C-0.5,0.7-0.2,0.4,0,0"/>
	</g>
	<g id="g3631" transform="matrix(14.22196,0,0,-14.22196,336.07152,78.238171)">
		<path id="path3633" inkscape:connector-curvature="0" class="st1" d="M-0.1,0C0-0.2,0-0.5-0.1-0.7S-0.4-1-0.6-1S-1-0.8-1.1-0.6
			c-0.1,0.2,0,0.5,0.1,0.7s0.4,0.2,0.6,0.2C-0.3,0.3-0.2,0.1-0.1,0"/>
	</g>
	<g id="g3635" transform="matrix(14.22196,0,0,-14.22196,271.336,79.196731)">
		<path id="path3637" inkscape:connector-curvature="0" class="st1" d="M0,0c0.1-0.2,0.1-0.4,0-0.6C0-0.8-0.2-1-0.5-1
			c-0.2,0-0.3,0.1-0.4,0.2C-1.1-0.6-1.1-0.3-1-0.1c0,0.2,0.2,0.3,0.4,0.4C-0.3,0.3-0.1,0.2,0,0"/>
	</g>
	<g id="g3639" transform="matrix(14.22196,0,0,-14.22196,303.71087,103.23753)">
		<path id="path3641" inkscape:connector-curvature="0" class="st6" d="M-0.1,0c0-0.1,0-0.2,0-0.3c-0.2-0.2-0.4-0.3-0.7-0.2
			c-0.1,0-0.3,0.1-0.3,0.2c-0.1,0.2,0,0.4,0.1,0.5c0.2,0.1,0.4,0.1,0.6,0.1C-0.3,0.3-0.1,0.1-0.1,0"/>
	</g>
	<g id="g3643" transform="matrix(14.22196,0,0,-14.22196,273.57169,136.58371)">
		<path id="path3645" inkscape:connector-curvature="0" class="st7" d="M0,0.1c1-0.2,2.7-0.1,3.6,0.1c0,0-0.3-0.3-0.6-0.5
			C2.7-0.4,2.1-0.6,1.4-0.6c-0.4,0-0.7,0-1.2,0.2C0-0.3-0.2,0.1-0.2,0.1C-0.1,0.1,0,0.1,0,0.1"/>
	</g>
	<g id="g3647" transform="matrix(14.22196,0,0,-14.22196,512.81772,118.2516)">
		<path id="path3649" inkscape:connector-curvature="0" class="st1" d="M-0.4,0"/>
	</g>
	<g id="g3651" transform="matrix(14.22196,0,0,-14.22196,523.34481,-33.759766)">
		<path id="path3653" inkscape:connector-curvature="0" class="st1" d="M-0.4-0.2c0.1,0.8,0.2,1.5,0.2,2.1c0,0.5,0.1,0.9,0.1,1.2
			c0,0,0,0,0,0c-0.3,1.5-1.5,2.2-2.9,2.3c0,0,0,0,0,0c-0.4,0-0.8,0-1.2-0.2c0,0,0,0,0,0h-0.1c0.1,1,0.1,2.5-0.1,3.3c0,0,0,0,0,0
			c-0.2,0.6-0.6,1-1.1,1.2c0,0,0,0,0,0c-0.6,0.2-1.2,0.2-1.9-0.1c-0.7-0.3-1.3-1-1.8-2.2c-0.7-1.5-1.5-4.5-1.6-6.1c0,0,0-0.1,0-0.1
			c-1.7-1.1-3-3.2-3-5.2c0-0.4,0-0.7,0.1-1.1c0.4-1.5,1.4-2.6,3.2-3.2c0,0,0.1,0,0.1-0.1l0,0c0,0,0,0,0-0.1l-0.3-0.3
			c-0.2-0.2-0.4-0.3-0.6-0.4c-0.1,0-0.2-0.1-0.1-0.3c0.1-0.2,0.5-0.4,0.7-0.6c0,0,0,0,0-0.1v0c0,0,0,0,0,0c-0.2-0.3-0.3-0.8-0.3-1.1
			c0-0.3,0.2-0.5,0.4-0.6c0,0,0,0,0,0c0.1-0.1,0.3-0.2,0.5-0.2c0,0,0,0,0-0.1c0-0.5,0.2-1.1,0.4-1.4c0,0,0,0,0,0v-0.1
			c0-0.2,0-0.5,0-0.8v-0.7c0,0,0,0,0,0c-0.1-0.3-0.3-0.9-0.1-1.3c0.3-0.7,1.2-0.9,1.4-0.9c0,0,0,0,0,0c0.8-0.2,1.6,0,2,0.3
			c0,0,0,0,0,0c0.1,0.1,0.2,0.2,0.3,0.3c0,0,0,0,0.1,0h0c0,0,0.1,0,0.1,0c0.2-0.3,0.5-0.5,0.8-0.5c0,0,0,0,0,0
			c0.8-0.2,2.1,0,2.5,0.6c0.3,0.4,0.6,1.1,0.2,1.7c0,0,0,0,0,0c0,0.1-0.1,0.3-0.1,0.6c0,0,0,0,0,0c-0.1,0.3-0.1,0.6-0.2,0.9
			c0,0,0,0,0,0v0.1c0,0,0,0,0,0c0.1,0.2,0.1,0.4,0.1,0.6l0,0c0.1-0.1,0.2-0.2,0.3-0.2c0.4-0.2,0.8-0.2,1.1-0.1
			c0.3,0.1,0.5,0.3,0.6,0.6c0.1,0.3,0,0.8-0.1,1.1C-1-11-1-10.8-1.4-10.8c0,0-0.1,0-0.1,0.1v0c0,0,0,0,0,0c-0.1,0.2-0.4,0.5-0.6,0.7
			c0,0,0,0,0,0.1v0c0,0,0,0,0,0.1C-2-9.7-1.9-9.6-1.9-9.6c0,0,0.1,0,0.1,0.1c0,0.3,0,0.4-0.2,0.5c-0.1,0-0.2,0.1-0.3,0.3
			c0,0,0,0-0.1,0c-0.1,0-0.1,0.1-0.2,0.1l0,0C-1.8-8.3-1-8-0.4-7.4c0,0,0,0,0,0c0.6,0.5,1.4,1.6,1.6,3c0,0,0,0,0,0V-4
			C1.1-3,0.8-1.7-0.4-0.2"/>
	</g>
	<g id="g3655" transform="matrix(14.22196,0,0,-14.22196,361.58424,56.168533)">
		<path id="path3657" inkscape:connector-curvature="0" class="st0" d="M-0.2-0.1c-0.2,0.7,0,1.4,0.2,1.8c0.6,0.9,1.6,1.5,3,1.7
			C4.7,3.7,6.6,3.3,7.4,3c1.5-0.6,2.2-1.3,2.5-2.2C10.1,0,10-1.3,8.6-1.9l0,0C7-2.4,5.4-2.2,4.8-2.1C4.2-2.1,3.6-2,3.1-1.9
			c0,0-0.1,0,0,0.1c0,0.1,0,0.1,0,0.1C3-1.4,2.8-1.3,2.5-1.4c-0.1,0-0.3-0.1-0.4-0.3c0,0,0,0-0.1,0C1.7-1.6,1.4-1.5,1.2-1.4
			C0.5-1.1,0-0.6-0.2-0.1"/>
	</g>
	<g id="g3659" transform="matrix(14.22196,0,0,-14.22196,404.86166,112.63961)">
		<path id="path3661" inkscape:connector-curvature="0" class="st3" d="M-0.2,0C0,0.1,0.3,0.3,0.4,0.7c0.1,0.3,0.1,0.6,0,0.8l0,0
			c0.1,0,0.3,0,0.4-0.1c0,0,0,0,0-0.1c-0.1-0.1-0.3-0.6-0.5-1c0,0-0.1-0.3-0.2-0.4c0,0,0-0.1-0.1,0C-0.1-0.1-0.1-0.1-0.2,0L-0.2,0"
			/>
	</g>
	<g id="g3663" transform="matrix(14.22196,0,0,-14.22196,375.87594,90.530154)">
		<path id="path3665" inkscape:connector-curvature="0" class="st3" d="M-0.2,0C-0.1,0.1,0,0.2,0.2,0.3l0,0c0,0,0-0.1-0.1-0.1
			c-0.2-0.3-0.2-0.6,0-0.9c0,0,0,0-0.1,0h-0.1c-0.3,0.2-0.5,0.3-0.6,0.4C-0.5-0.3-0.4-0.1-0.2,0"/>
	</g>
	<g id="g3667" transform="matrix(14.22196,0,0,-14.22196,374.76515,121.64075)">
		<path id="path3669" inkscape:connector-curvature="0" class="st0" d="M-0.2,0c0,0.3,0.1,0.8,0.4,1.1c0.1,0.1,0.1,0.1,0.1,0.1l0,0
			c0.1-0.2,0.3,0,0.2,0.1C0.4,1.6,0.3,2,0.5,2.2c0.1,0.2,0.3,0.4,0.6,0.4c0-0.1,0.2-0.1,0.2,0c0.1,0.1,0.2,0.3,0.3,0.3
			s0.2,0,0.3-0.1c0-0.1,0-0.3,0-0.4c0-0.2,0.1-0.3,0.2-0.2C2.3,2,2.3,1.7,2.2,1.4C2.1,1.1,1.9,0.9,1.6,0.9c-0.2,0-0.2-0.2,0-0.3l0,0
			c0-0.5-0.3-1.1-0.9-1.2c-0.3,0-0.5,0-0.7,0.1C-0.1-0.2-0.2-0.1-0.2,0"/>
	</g>
	<g id="g3671" transform="matrix(14.22196,0,0,-14.22196,441.26283,180.5282)">
		<path id="path3673" inkscape:connector-curvature="0" class="st0" d="M-0.3,0.1c0,0.1,0.1,0.3,0.1,0.4c0.1-0.1,0.1-0.2,0.1-0.3
			C-0.1,0.2-0.2,0.1-0.3,0.1C-0.3,0-0.3,0.1-0.3,0.1"/>
	</g>
	<g id="g3675" transform="matrix(14.22196,0,0,-14.22196,494.04052,105.58416)">
		<path id="path3677" inkscape:connector-curvature="0" class="st0" d="M-0.4,0c0.2-0.2,0.5-0.5,0.6-0.7C0-0.8,0.1-1,0.3-1
			S0.7-1,1-1.4c0.1-0.2,0.1-0.5,0.1-0.8c0-0.1-0.1-0.3-0.4-0.4C0.5-2.6,0.2-2.6-0.1-2.4C-0.3-2.3-0.4-2.2-0.5-2v0.1
			c0,0.5-0.1,0.9-0.2,1.2S-1.1-0.6-1-0.9c0.2-0.7,0.2-2.1-0.3-2.5c-0.3-0.3,0-0.5,0.2-0.2c0,0,0,0,0.1,0C-1-3.8-0.9-4-0.9-4.2
			c0.1-0.4,0.2-0.6,0.2-0.7c0.3-0.5,0.1-1.1-0.2-1.5C-1.3-6.8-2.4-6.9-3-6.8C-3.3-6.6-3.7-6.4-3.8-6c-0.1,0.2,0,0.7,0.3,0.9
			c0.3,0.1,0.3,0.4,0,0.3c-0.1,0.2-0.2,0.5-0.3,0.7c0,0.1-0.1,0.1-0.2,0.1c-0.1,0-0.1,0-0.1-0.1c-0.1-0.2-0.2-0.5-0.2-0.7
			c-0.2,0-0.4-0.2-0.1-0.3c0.2-0.1,0.3-0.3,0.3-0.5c0-0.3-0.2-0.7-0.4-0.8c-0.4-0.4-1.1-0.5-1.8-0.3c-0.1,0-0.9,0.2-1.1,0.7
			c-0.1,0.3-0.1,0.7,0.1,1c0,0.1,0,0.3,0,0.9c0,0.1,0,0.2,0,0.3l0,0c0,0,0.1,0,0.1-0.1c0.2-0.1,0.3,0.1,0.2,0.2
			c-0.3,0.3-0.7,1-0.7,1.8c0,0,0,0.1,0.1,0.1c0.5,0.1,0.9,0.6,1,1.1c0,0,0,0,0.1,0C-6.3-0.9-6.2-1-6.1-1C-6-1-6-1-5.9-0.9l0.3,0.6
			c0.2,0.4,0.4,0.9,0.5,1.2c0,0,0,0,0.1,0c0.1,0,0.3,0,0.4,0s0.3,0,0.6-0.1h0.1c0.1-0.1,0.1-0.3,0.2-0.5c0.1-0.5,0.4-1,0.5-1.3
			c0-0.1,0.1-0.1,0.1-0.1C-2.1-1.1-1.1-0.5-0.4,0L-0.4,0"/>
	</g>
	<g id="g3679" transform="matrix(14.22196,0,0,-14.22196,487.98481,89.932832)">
		<path id="path3681" inkscape:connector-curvature="0" class="st3" d="M-0.4,0c0.1-0.1,0.2-0.2,0.3-0.3S0-0.4,0.1-0.5
			c-0.4-0.4-1.6-1.3-2.6-1.4C-2.6-1.6-2.8-1.1-3-0.7c-0.1,0.1-0.1,0.3-0.1,0.4l0,0C-2.3-0.3-1.4-0.2-0.4,0L-0.4,0"/>
	</g>
	<g id="g3683" transform="matrix(14.22196,0,0,-14.22196,539.95606,26.975059)">
		<path id="path3685" inkscape:connector-curvature="0" class="st3" d="M-0.5-0.1c-0.1-1.3-0.8-2.3-1.4-2.7
			c-0.3-0.3-0.6-0.5-0.9-0.6c0.6,0.8,0.6,1.7,0.4,2.2c-0.3,1-1.2,1.8-2.7,2.4c-0.8,0.3-2.7,0.8-4.5,0.5c-1.6-0.3-2.6-0.9-3.2-2
			c-0.3-0.5-0.5-1.3-0.3-2.1c0.1-0.3,0.2-0.5,0.4-0.7c-0.9,0.6-1.5,1.4-1.8,2.4c-0.5,2,0.8,4.6,2.8,5.8c0.1,0,0.1,0.1,0.1,0.2
			c0.1,1.5,0.9,4.7,1.6,6.2c0.5,1.1,1,1.7,1.7,2.1c0.5,0.3,1,0.3,1.5,0.1c0.4-0.2,0.7-0.5,0.8-1c0.3-0.9,0.2-2.4,0.1-3.4
			c0-0.1,0-0.1-0.1-0.1c-1.3-0.6-2.2-1.8-2.4-2.9c-0.1-0.6,0-1.2,0.3-1.6c0.3-0.4,0.8-0.7,1.4-0.7c1.5-0.2,2.8,0.5,3.5,2
			c0.2,0.4-0.2,0.6-0.4,0.2c-0.7-1.3-1.9-2-3.1-1.8c-0.5,0.1-0.8,0.3-1.1,0.6C-8.1,5.4-8.1,5.8-8,6.2c0.4,1.5,2,3,3.7,2.9
			C-3,9-2,8.4-1.7,7.1c0.1-0.6,0.6-1.8,0.2-3.2c0-0.1-0.5-0.1-0.4-0.1C-0.8,2.6-0.4,1.3-0.5-0.1"/>
	</g>
	<g id="g3687" transform="matrix(14.22196,0,0,-14.22196,454.65275,173.37455)">
		<path id="path3689" inkscape:connector-curvature="0" class="st1" d="M-0.3,0.1c-0.2-0.1,0-0.3,0.1-0.2C0,0,0.5,0,0.7,0
			c0.3-0.1,0.3,0.1,0.1,0.2C0.5,0.3,0,0.3-0.3,0.1"/>
	</g>
	<g id="g3691" transform="matrix(14.22196,0,0,-14.22196,413.68076,172.56959)">
		<path id="path3693" inkscape:connector-curvature="0" class="st1" d="M-0.3,0.1c-0.2-0.1-0.1-0.3,0-0.2c0.3,0,0.8,0,1.1-0.2
			C1-0.4,1.1-0.2,0.9-0.1C0.6,0.1,0,0.2-0.3,0.1"/>
	</g>
	<g id="g3695" transform="matrix(14.22196,0,0,-14.22196,381.93165,22.197959)">
		<path id="path3697" inkscape:connector-curvature="0" class="st1" d="M-0.2-0.1c-0.4-0.4-0.6-1.2-0.3-1.5C-0.3-2,0.1-2,0.4-1.8
			c0.3,0.2,0.4,1,0.2,1.5C0.5,0.1,0.1,0.1-0.2-0.1"/>
	</g>
	<g id="g3699" transform="matrix(14.22196,0,0,-14.22196,490.63715,30.863342)">
		<path id="path3701" inkscape:connector-curvature="0" class="st1" d="M-0.4-0.1C0-0.5-0.1-1.4-0.3-1.7C-0.6-2-1-2-1.2-1.7
			c-0.3,0.3-0.3,1.1,0,1.6C-1,0.2-0.7,0.2-0.4-0.1"/>
	</g>
	<g id="g3703" transform="matrix(14.22196,0,0,-14.22196,434.59694,74.001392)">
		<path id="path3705" inkscape:connector-curvature="0" class="st1" d="M-0.3,0c0-0.1-0.1-0.2-0.1-0.2c-0.1,0-0.1,0.1-0.1,0.2
			s0.1,0.2,0.1,0.2C-0.3,0.2-0.3,0.1-0.3,0"/>
	</g>
	<g id="g3707" transform="matrix(14.22196,0,0,-14.22196,425.15219,49.100219)">
		<path id="path3709" inkscape:connector-curvature="0" class="st1" d="M-0.3-0.1c0-0.3,0.3-0.5,0.6-0.6C0.7-0.7,1-0.5,1-0.2l0,0
			C1-0.1,1,0,0.9,0.1C0.8,0.3,0.6,0.4,0.4,0.4C0,0.4-0.3,0.2-0.3-0.1"/>
	</g>
	<g id="g3711" transform="matrix(14.22196,0,0,-14.22196,434.18029,54.252778)">
		<path id="path3713" inkscape:connector-curvature="0" class="st8" d="M-0.3-0.1c-0.2,0-0.4,0.2-0.4,0.3c0,0.2,0.2,0.3,0.5,0.3
			c0.1,0,0.3-0.1,0.4-0.2c0,0,0.1-0.1,0.1-0.2C0.2,0-0.1-0.1-0.3-0.1"/>
	</g>
	<g id="g3715" transform="matrix(14.22196,0,0,-14.22196,391.98658,214.91542)">
		<path id="path3717" inkscape:connector-curvature="0" class="st0" d="M-0.2,0.2c0,0-6.4,0.3-4.9,2.5s3.2,2.8,4.6,2.6
			s5.7-2.6,5.7-2.6L3-0.3L-0.2,0.2z"/>
	</g>
	<g id="g3719" transform="matrix(14.22196,0,0,-14.22196,364.43147,-69.883545)">
		<path id="path3721" inkscape:connector-curvature="0" class="st1" d="M-0.2-0.2C-0.4-0.4-0.4-0.7-0.4-1l0,0
			c0.1-0.2,0.2-0.5,0.5-0.7C-0.1-1.8-0.3-2-0.3-2.3c0-0.1,0-0.3,0-0.4c0-0.2,0.1-0.4,0.3-0.5c0.2-0.2,0.5-0.3,0.8-0.3
			s0.7,0.2,0.9,0.4c0.2-0.2,0.5-0.4,0.8-0.4s0.6,0,0.8,0.2c0.2,0.2,0.3,0.4,0.3,0.7c0,0.1,0,0.1,0,0.2c0,0.3-0.1,0.6-0.3,0.7
			C3.4-1.5,3.5-1.3,3.6-1c0,0.1,0,0.3,0,0.4c0,0.2-0.1,0.3-0.3,0.5C3.1,0,2.8,0.1,2.5,0.1C2.1,0,1.8-0.1,1.6-0.2
			C1.4-0.1,1.1,0.1,0.7,0.1C0.4,0.1,0,0-0.2-0.2"/>
	</g>
	<g id="g3723" transform="matrix(14.22196,0,0,-14.22196,378.47287,-27.051324)">
		<path id="path3725" inkscape:connector-curvature="0" class="st0" d="M-0.2-0.2c-0.2,0-0.5,0.1-0.6,0.2C-1,0.2-1.1,0.4-1,0.7
			c0,0.2,0.2,0.4,0.4,0.6l0.1,0.1c0,0,0,0.1-0.1,0.1c-0.3,0.1-0.5,0.3-0.5,0.6c0,0.1,0,0.3,0.1,0.5c0.2,0.3,0.5,0.3,0.7,0.3
			c0.3,0,0.6-0.2,0.8-0.4l0.1-0.1c0,0,0.1,0,0.1,0.1c0.1,0.2,0.5,0.4,0.8,0.4s0.5,0,0.7-0.2c0.2-0.2,0.2-0.4,0.2-0.6
			c0-0.3-0.2-0.5-0.4-0.6L1.8,1.4c0,0,0-0.1,0.1-0.1c0.2-0.2,0.4-0.5,0.4-0.8c0-0.2-0.1-0.4-0.2-0.5C2-0.1,1.8-0.2,1.6-0.2
			S1,0,0.8,0.2c0,0.1,0,0.1,0,0.1H0.7C0.4,0,0.1-0.2-0.2-0.2"/>
	</g>
	<g id="g3727" transform="matrix(14.22196,0,0,-14.22196,380.37577,-48.579048)">
		<path id="path3729" inkscape:connector-curvature="0" class="st1" d="M-0.2-0.2c0-0.1,0.1-0.3,0.2-0.4s0.3-0.2,0.5-0.2
			c0.4,0,0.7,0.3,0.7,0.6C1.2,0,1.1,0.1,1,0.2C0.9,0.4,0.7,0.5,0.5,0.4C0.1,0.4-0.2,0.1-0.2-0.2"/>
	</g>
	<g id="g3731" transform="matrix(14.22196,0,0,-14.22196,390.72219,-42.968542)">
		<path id="path3733" inkscape:connector-curvature="0" class="st3" d="M-0.2-0.2c-0.2,0-0.3,0-0.4,0.1s-0.1,0.2-0.1,0.3
			c0,0.2,0.2,0.4,0.5,0.4c0.2,0,0.3,0,0.4-0.1s0.1-0.1,0.1-0.2c0,0,0,0,0-0.1C0.3,0,0.1-0.2-0.2-0.2"/>
	</g>
	<g id="g3735" transform="matrix(14.22196,0,0,-14.22196,779.14668,89.54315)">
		<path id="path3737" inkscape:connector-curvature="0" class="st1" d="M-0.8,0c2.3,0.4,4.5,1.3,6,3.3c0.1,0,0.1,0,0.2,0
			c0.6-0.2,1.3-0.1,0.5,0.3C5.7,3.7,5.5,3.7,5.5,3.9C5.8,4.5,5.9,5,6.2,5.6c0.3,0,0.6-0.1,1-0.2C7.5,5.3,8,5.1,8.3,5.2
			c0.1,0.1,0,0.2,0,0.3C7.7,5.7,7.2,5.9,6.6,6C6.4,6,6.3,6.1,6.2,6.3c0,0.6,0.2,1.2,0.2,1.9c0,0.1,0.1,0.2,0.2,0.3
			c1,0,1.2,0.4,0,0.4c-0.1,0-0.1,0-0.2,0c-0.2,1.5-0.4,2.9-1.2,4.1c-0.1,0.3-0.4,0.5-0.5,0.8c0.2,0.7,0.6,1.8-0.1,2.4
			c0,1.4-0.3,2.5-0.7,3.7c-0.1,0.3-0.3,0.8-0.7,0.8C2.1,20.5,1,20.1,0,19.6c-0.3-0.1-0.6-0.4-1-0.5c-0.4,0.3-0.5,0.7-0.9,1.1
			c-0.7,0.6-1.5,1-2.3,0.7c-0.8-0.4-1.1-1.1-1.3-1.8c-0.1-0.5-0.2-1-0.4-1c-0.9,0-1.9,0-2.6,0c-0.7,0-1.4-0.2-2-0.1
			c-0.7,0.8-1.6,1.5-2.4,2c-0.6,0.3-1.2,0.8-1.9,0.6c-1.4-1.1-2.1-2.8-2-4.5c0.1-0.5,0.1-1,0.1-1.4c-2.1-2.2-2.6-5.1-2.4-8.1
			c-0.2-0.3-0.5-0.2-0.7-0.3c-0.7,0-1.2-0.4-1.8-0.6c-0.1-0.1-0.3-0.2-0.2-0.4c0-0.1,0.2,0,0.2,0c0.8,0.4,1.6,0.7,2.4,0.8L-19,6
			c0.2-0.6,0.3-1.2,0.5-1.7c0.7-1-0.9-0.8-1.2-1.5c0-0.1,0-0.1,0-0.2c0.6,0.1,1,0.5,1.6,0.5c0.4-0.5,0.8-1.1,1.4-1.6V1.5
			c-0.4-0.6-1-0.9-1.2-1.5c0-0.1,0.1-0.1,0.2-0.1c0.4,0.4,0.9,0.8,1.4,1.2c0.1,0,0.1,0.1,0.2,0.1c1.1-0.6,2.2-1,3.4-1.2
			c0.1,0,0.3,0,0.2-0.2c-1-0.8-2-1.7-2.8-2.8c-0.3-0.1-0.7-0.2-0.9-0.4c-0.4-0.2-0.6-0.7-0.6-1.2c0-0.4,0.3-0.6,0.5-0.9
			c0.1-0.3,0.1-0.7,0.2-1c0.2-0.8,1-1.3,1.7-1.6c0.2-0.1,0.6-0.1,0.8-0.2c0.1-0.4,0-0.8,0-1.1c0-2.1-0.1-3,0.8-4.9
			c0.4-0.8,3.2,1,4,1c1.1,0,1.1-2.2,2.2-1.4c0.2,0.1,0.3,0.3,0.5,0.3c0.6-0.6,2.1,0.7,2.7,0.7c1.3,0.1,2.7-2.2,3.6-0.5
			c0.9,2.2,0.9,3.5,0.6,6.2c0,0-0.2,2-0.7,3.1C-0.6-3.7-1.1-2-1.2-1.1v1C-1.2-0.1-0.8,0-0.8,0"/>
	</g>
	<g id="g3739" transform="matrix(14.22196,0,0,-14.22196,609.24693,-181.90993)">
		<path id="path3741" inkscape:connector-curvature="0" class="st0" d="M-0.6-0.4c0.5-0.4,1.1-0.9,1.3-1.5C0.9-2,1.1-2,1.3-2
			c1.5,0.3,3,0.4,4.5,0.2C6.1-2,5.9-2.3,5.9-2.6C5.7-3.4,5.7-4.4,6.3-5c0.9-0.7,2.2-0.2,3.1,0C9.6-5.2,9.8-5.4,10-5.6
			c0.4-0.3,0.9-0.4,1.4-0.5c0.3-0.3,0.3-0.8,0.6-1.1c0.2-0.5,0.8-1.1,1.4-1.3c1.4-0.1,2.2,1.2,2.9,2.2c0.3,0,0.4-0.3,0.5-0.5
			c0.6-1,1-2.2,0.9-3.4c0-0.1-0.1-0.1-0.1-0.1c-0.7-0.2-1.5-0.2-2.2-0.6c-0.1-0.1-0.1-0.2,0-0.2c0.3-0.2,0.5,0.1,0.8,0.1
			c0.5,0.1,1,0.2,1.5,0.1c0.2-0.2,0.1-0.4,0.1-0.6c-0.1-0.5-0.1-1-0.3-1.3c-0.5,0-1.1,0.1-1.7-0.1c-0.1-0.1,0-0.2,0-0.2
			c0.5-0.2,1,0,1.5-0.2c0.2-0.1,0.1-0.3,0-0.4c-0.1-0.5-0.4-1-0.7-1.4c-0.3-0.1-0.7,0.1-1.1,0.1c-0.1,0-0.2,0.1-0.4,0
			c-0.1-0.1-0.1-0.2,0-0.3c0.3-0.3,0.8-0.1,1.1-0.3c-0.8-1.3-2.2-1.9-3.5-2.2c-3.5-1.2-7.7-1.1-11.4-0.9c-1.7,0.2-3.4,0.2-4.9,1.1
			c-0.1,0.1-0.2,0.1-0.1,0.2c0.2,0.3,0.6,0.4,0.7,0.7c-0.1,0.1-0.3,0-0.4,0c-0.4-0.2-0.6-0.6-1-0.5c-0.5,0.4-0.9,0.8-1.2,1.4
			c0,0.1,0.1,0.2,0.2,0.2c0.3,0.2,0.9,0.1,1.2,0.4c-0.2,0.3-0.7,0.1-1,0.1c-0.3-0.1-0.4-0.2-0.6,0c-0.1,0.6-0.4,1.1-0.5,1.9l0.1,0.1
			c0.6,0.1,1.3,0.1,1.9,0.2c0.1,0,0,0.1,0,0.1c-0.6,0.3-1.3,0.2-2.1,0.2l-0.1,0.1C-6.4-9.6-6.3-7.1-4.4-5c0.3,0.4,0.9,0.6,0.9,1.2
			c0,0.1-0.2,0.1-0.4,0.1c-0.1,0-0.1-0.1-0.2,0C-4.4-3.4-4.3-3-4.3-2.6C-4.2-1.4-3.9,0-2.7,0.7C-1.9,0.6-1.2,0.1-0.6-0.4"/>
	</g>
	<g id="g3743" transform="matrix(14.22196,0,0,-14.22196,769.31362,-180.4792)">
		<path id="path3745" inkscape:connector-curvature="0" class="st3" d="M-0.8-0.4c0.1-0.4,0.3-0.7,0.3-1.1c-0.2-0.1-0.4-0.4-0.7-0.3
			C-1.5-1.6-2-1.5-2.4-1.7c-0.3-0.1-0.4-0.5-0.4-0.8S-2.7-3-2.6-3.2C-2.4-3.3-2.1-3.3-2-3.6c0-0.3,0.1-0.6-0.2-0.7
			c-0.7-0.2-1.6-0.6-2.3-0.1c-0.7,0.6-0.4,1.6-0.3,2.3c0.3,0.9,0.5,1.9,1,2.6C-3.6,0.9-3.3,1.2-3,1.2C-2,1.2-1.2,0.5-0.8-0.4"/>
	</g>
	<g id="g3747" transform="matrix(14.22196,0,0,-14.22196,840.5059,-195.02121)">
		<path id="path3749" inkscape:connector-curvature="0" class="st0" d="M-0.9-0.4c0.3-0.9,0.6-1.9,0.5-2.8c-0.1-0.2-0.3-0.1-0.4-0.1
			c-0.7,0.1-1.4,0-2-0.1c-0.3,0.3-0.6,0.7-0.9,0.8c-0.3,0.1-0.7,0.2-1,0.2C-4.7-2.3-4.9-2-4.8-1.8c1,0.9,2.2,1.5,3.4,1.8
			C-1.1,0.1-1-0.2-0.9-0.4"/>
	</g>
	<g id="g3751" transform="matrix(14.22196,0,0,-14.22196,759.47919,-153.89699)">
		<path id="path3753" inkscape:connector-curvature="0" class="st3" d="M-0.8-0.4c0-0.1-0.1-0.2-0.2-0.3C-1.1-0.9-1.1-1-1.2-1.1
			c-0.1-0.1-0.1-0.1-0.3,0C-1.7-1-1.7-0.8-1.7-0.5c0.1,0.2,0.2,0.3,0.4,0.3C-1.1-0.2-0.9-0.2-0.8-0.4"/>
	</g>
	<g id="g3755" transform="matrix(14.22196,0,0,-14.22196,801.20073,-151.09094)">
		<path id="path3757" inkscape:connector-curvature="0" class="st3" d="M-0.9-0.4c0.3-0.4,0.5-1,0.4-1.6S-1-3.2-1.7-3.3
			c-0.5-0.1-1.1,0-1.5,0.4S-3.7-2-3.6-1.5C-3.5-1-3.1-0.3-2.5,0C-1.9,0.2-1.2,0-0.9-0.4"/>
	</g>
	<g id="g3759" transform="matrix(14.22196,0,0,-14.22196,854.53308,-136.77227)">
		<path id="path3761" inkscape:connector-curvature="0" class="st3" d="M-0.9-0.3c0.4-1-0.3-1.9-0.7-2.6c-0.6-0.7-1.1-1.8-2.1-1.7
			C-4.6-4.6-4.7-3.7-5-3c0,0.3,0.4,0.5,0.7,0.7c0.4,0,0.6-0.4,1-0.3c0.2,0,0.5,0.3,0.6,0.6c0.1,0.4-0.1,0.8-0.4,1.1
			c-0.2,0.1-0.3,0.1-0.4,0.3c0,0.3-0.2,0.6,0.2,0.7c0.7,0.2,1.5,0.1,2.2-0.1C-1.1-0.2-1-0.3-0.9-0.3"/>
	</g>
	<g id="g3763" transform="matrix(14.22196,0,0,-14.22196,819.56265,-119.91071)">
		<path id="path3765" inkscape:connector-curvature="0" class="st3" d="M-0.9-0.3c0.1-0.1,0.1-0.3,0-0.4c0-0.2-0.2-0.2-0.4-0.1
			c-0.1,0.1-0.2,0.2-0.2,0.3s0.1,0.3,0.2,0.3C-1.1-0.1-1-0.2-0.9-0.3"/>
	</g>
	<g id="g3767" transform="matrix(14.22196,0,0,-14.22196,712.70316,19.280978)">
		<path id="path3769" inkscape:connector-curvature="0" class="st1" d="M-0.7-0.1c0.1-0.2,0.2-0.5,0.1-0.7c-0.1-0.5-0.6-0.6-1-0.6
			c-0.3,0-0.7,0-1,0.1C-3-1.1-3.2-0.7-3.1-0.3C-3.1-0.2-3-0.1-3,0c0.1,0.1,0.2,0.2,0.3,0.2c0.4,0.3,1,0.3,1.6,0.1
			C-1,0.3-0.9,0.1-0.7-0.1C-0.8,0-0.7-0.1-0.7-0.1"/>
	</g>
	<g id="g3771" transform="matrix(14.22196,0,0,-14.22196,708.92581,22.877769)">
		<path id="path3773" inkscape:connector-curvature="0" class="st8" d="M-0.7-0.1c0.1-0.2,0-0.4-0.1-0.5C-1.1-1-1.7-0.9-2.1-0.8
			c-0.2,0-0.4,0.2-0.4,0.3c-0.1,0.2,0,0.4,0.1,0.5C-1.9,0.3-1,0.4-0.7-0.1"/>
	</g>
	<g id="g3775" transform="matrix(14.22196,0,0,-14.22196,653.09324,97.432129)">
		<path id="path3777" inkscape:connector-curvature="0" class="st9" d="M-0.6,0C-0.6,0-0.6-0.1-0.6,0c0.2-0.6,0.4-1.1,0.5-1.6
			C0-1.8,0.3-1.7,0.5-1.8c1.4,0.1,2.7,0,4.1,0.1c0.1,0,0.2,0.1,0.3,0.2C5-1,5-0.5,5.1,0c0,0.1,0.1,0.1,0.1,0.1
			c0.6,0.1,1.1,0.1,1.7,0.2C7,0.3,7,0.2,7,0.2C6.9-2.7,8.6-4.7,8.8-7.4c0-0.2,0-0.4,0-0.6c0.1-1.1,0.1-2,0.1-2.9
			c-0.1-0.6-0.8-0.6-1.2-0.7c-1.6-0.2-3,0-4.5-0.1c-0.5,0.1-0.7,1.2-1.3,0.5c-0.2-0.8-1.2-0.5-1.9-0.6c-1.4,0.1-2.8,0-4.2,0.4
			c-0.2,0.2-0.2,0.5-0.2,0.8C-4.5-8.2-4-5.9-3.2-3.7C-2.8-2.4-2.5-1.3-2.4,0c0.1,0.3,0.5,0.1,0.8,0.1S-0.9,0.2-0.6,0"/>
	</g>
	<g id="g3779" transform="matrix(14.22196,0,0,-14.22196,726.59085,95.613083)">
		<path id="path3781" inkscape:connector-curvature="0" class="st7" d="M-0.7,0C-0.7,0-0.6,0-0.7,0c0.1-0.5,0-0.9-0.1-1.3l-0.1-0.1
			c-1.4,0-2.7-0.1-4,0C-5.1-1-5.1-0.6-5.2-0.1c0,0,0,0.1,0.1,0.1C-3.7,0-2.2-0.1-0.7,0"/>
	</g>
	<g id="g3783" transform="matrix(14.22196,0,0,-14.22196,616.20432,112.91836)">
		<path id="path3785" inkscape:connector-curvature="0" class="st7" d="M-0.6,0c-0.1-0.7-0.2-1.3-0.5-1.9c0-0.1-0.1-0.2-0.2-0.1
			C-1.7-1.6-2.1-1.3-2.6-1c0,0,0,0.1,0,0.2C-2-0.2-1.4,0.5-0.6,0.9C-0.5,0.7-0.6,0.3-0.6,0"/>
	</g>
	<g id="g3787" transform="matrix(14.22196,0,0,-14.22196,654.44,128.33497)">
		<path id="path3789" inkscape:connector-curvature="0" class="st1" d="M-0.6,0.1C-0.4-0.2-0.4-0.7-0.5-1C-0.7-1.3-1-1.6-1.4-1.6
			c-0.3,0-0.7,0.1-0.9,0.4s-0.2,0.7-0.1,1.1c0.1,0.3,0.5,0.5,0.8,0.6C-1.2,0.4-0.8,0.4-0.6,0.1"/>
	</g>
	<g id="g3791" transform="matrix(14.22196,0,0,-14.22196,650.92581,132.89032)">
		<path id="path3793" inkscape:connector-curvature="0" class="st0" d="M-0.6,0.1c0.1-0.3,0.1-0.6-0.1-0.8c-0.2-0.1-0.4-0.2-0.6-0.2
			c-0.3,0.1-0.5,0.4-0.5,0.7c0,0.2,0,0.3,0.2,0.4S-1.2,0.4-1,0.4C-0.8,0.3-0.7,0.2-0.6,0.1"/>
	</g>
	<g id="g3795" transform="matrix(14.22196,0,0,-14.22196,755.20259,125.47351)">
		<path id="path3797" inkscape:connector-curvature="0" class="st1" d="M-0.8,0.1c0.2-0.2,0.4-0.5,0.4-0.8c0-0.4-0.2-0.8-0.5-0.9
			c-0.3-0.2-0.8-0.2-1,0c-0.3,0.2-0.4,0.5-0.5,0.9c0,0.3,0.2,0.7,0.5,0.9S-1.1,0.2-0.8,0.1"/>
	</g>
	<g id="g3799" transform="matrix(14.22196,0,0,-14.22196,603.21819,150.83411)">
		<path id="path3801" inkscape:connector-curvature="0" class="st0" d="M-0.5,0.1c0.1-0.1,0-0.3,0-0.4C-0.8-1.2-1-2.1-1.3-2.9
			c-0.3-0.3-0.8-0.1-1.1,0c-0.8,0.3-1.2,1.1-1.1,2C-3.7-0.7-4-0.3-3.8,0.1C-3.6,0.7-3,0.5-2.6,0.7c0.1,0.2,0.2,0.4,0.4,0.5
			C-1.6,0.9-1,0.6-0.5,0.1"/>
	</g>
	<g id="g3803" transform="matrix(14.22196,0,0,-14.22196,751.14648,129.29216)">
		<path id="path3805" inkscape:connector-curvature="0" class="st0" d="M-0.8,0.1C-0.6,0-0.5-0.2-0.5-0.4s-0.1-0.3-0.2-0.5
			s-0.4-0.2-0.6-0.2C-1.5-1-1.7-0.9-1.8-0.7C-1.9-0.5-1.9-0.2-1.7,0S-1.1,0.3-0.8,0.1"/>
	</g>
	<g id="g3807" transform="matrix(14.22196,0,0,-14.22196,866.92177,56.293686)">
		<path id="path3809" inkscape:connector-curvature="0" class="st1" d="M-1-0.1c-0.8,1-2.2,0.6-2.6,0.5C-3.8,0.6-4.4,0.8-5,0.5
			s-0.8-1-0.8-1.4c0-0.1,0-0.1,0-0.2C-6-1.2-6.9-1.6-7.8-2l0,0C-7.9-2-8-2.1-8-2.2c0,0,0-0.1,0-0.3c0-0.4,0-1.2,0.3-2.2
			C-7.3-6.1-7-6.7-7-6.7c0-0.2,0.1-0.2,0.3-0.2c0,0,0.4,0.1,3.1,1.5c2.3,1.2,3,2.4,3.2,3.3C-0.3-1.4-0.5-0.6-1-0.1"/>
	</g>
	<g id="g3811" transform="matrix(14.22196,0,0,-14.22196,866.75543,85.113067)">
		<path id="path3813" inkscape:connector-curvature="0" class="st0" d="M-1,0c-0.1-0.7-0.8-1.8-2.8-2.8l-1.7,3.3
			c0.1,0.1,0.2,0.1,0.3,0.2c0,0.1,0.1,0.1,0.1,0.2l0,0c0,0,0,0.1,0,0.2c0,0.3,0.1,0.8,0.4,0.9c0.5,0.3,0.9,0,0.9,0
			c0.1-0.1,0.2-0.1,0.3-0.1c0,0,1.5,0.5,2.2-0.3C-1.1,1.3-0.9,0.9-1,0.3C-1,0.2-1,0.1-1,0"/>
	</g>
	<g id="g3815" transform="matrix(14.22196,0,0,-14.22196,775.86857,122.22385)">
		<path id="path3817" inkscape:connector-curvature="0" class="st7" d="M-0.8,0C-1,1-1.1,1.7-1,2.1c0,0,0,0,0,0.1
			c0.4,0.2,1,0.4,1.5,0.6l1.7-3.3c-1.4-0.7-2.1-1-2.3-1.1C-0.4-1.3-0.6-0.8-0.8,0"/>
	</g>
	<g id="g3819" transform="matrix(14.22196,0,0,-14.22196,413.48586,185.13896)">
		<path id="path3821" inkscape:connector-curvature="0" class="st0" d="M-0.3,0.1c0-1-0.8-1.9-1.9-1.9S-4-0.8-4,0.1S-3.2,2-2.1,2
			S-0.3,1.1-0.3,0.1"/>
	</g>
	<g id="g3823" transform="matrix(14.22196,0,0,-14.22196,486.87402,208.72181)">
		<path id="path3825" inkscape:connector-curvature="0" class="st0" d="M-0.4,0.2c0-1-0.9-1.9-2.1-1.9c-1.1,0-2,0.9-2,1.9
			S-3.5,2-2.3,2C-1.3,2-0.4,1.2-0.4,0.2"/>
	</g>
	<g id="g3827" transform="matrix(14.22196,0,0,-14.22196,1059.8626,163.90273)">
		<path id="path3829" inkscape:connector-curvature="0" class="st0" d="M-1.2,0.1c-1.1,0-2-0.9-2-1.9c0-1.1,0.9-2,2-2s2,0.9,2,2
			C0.7-0.8-0.2,0.1-1.2,0.1"/>
	</g>
	<g id="g3831" transform="matrix(14.22196,0,0,-14.22196,1065.0991,213.37376)">
		<path id="path3833" inkscape:connector-curvature="0" class="st0" d="M-1.3,0.2C-1.8,2-3.3,2.9-3.3,2.9C-3.5,3-3.7,3.1-3.9,3.2
			c-0.6,0.3-1.2,0.4-1.9,0.4c-1.2,0-2.3-0.4-3.1-0.8C-9,2.9-9.2,3-9.4,3c0,0.1-0.2,0.1-0.3,0.1s-0.1,0.1-0.2,0.1
			c-0.4,0.1-0.9,0.2-1.3,0.2c-0.7,0-1.3-0.2-1.9-0.4c-0.5-0.3-1-0.6-1.4-1c-0.1-0.1-0.2-0.1-0.2,0.2c0.1,0.5,0.1,1-0.1,1.5
			c0,0.4-0.3,0.8-0.7,1.1l0,0l0,0c-0.4,0.3-1,0.5-1.6,0.5c-0.5,0-0.9-0.1-1.3-0.3l0,0c-0.4-0.2-0.7-0.5-1-0.9
			c-0.3-0.4-0.4-0.9-0.4-1.4s0.1-0.9,0.4-1.3c0.1-0.2,0.2-0.3,0.4-0.4c-0.2-0.2-0.3-0.4-0.3-0.6c-0.4,0.7-1.1,1.2-1.9,1.3
			c-0.2,0-0.5,0-0.8,0c-0.4,0-0.8,0-1.2,0C-23,1.9-23.2,2-23.4,2.2c-0.5,0.4-1.1,0.5-1.7,0.5c-0.4,0-0.8-0.1-1.2-0.2
			c-0.9-0.4-1.5-1.3-1.6-2.2c0-0.1,0-0.2,0-0.3c-0.3,0.2-0.5,0.5-0.9,0.8c0,0-0.1,0-0.1,0.1C-28.9,1-29.1,1-29.3,1
			c-0.4,0-0.8-0.1-1.1-0.4c-0.3-0.3-0.6-0.6-0.8-1c-0.1,0.1-0.2,0.3-0.3,0.4c-0.3,0.4-0.6,0.7-1.1,0.9h-0.1c-0.1,0-0.2,0-0.4,0
			c-0.8,0-1.3-0.6-1.5-0.8c-0.2-0.3-0.4-0.5-0.6-0.8c-0.1-0.1-0.2,0-0.2,0.1s0.1,0.3,0.1,0.5l0,0c0.1,0.9-0.3,1.8-1.1,2.2
			c-0.6,0.4-1.5,0.6-2.2,0.6c-0.9,0-1.7-0.2-2.3-0.6l0,0c-0.6-0.4-1.2-0.9-1.7-1.5c-0.3-0.4-0.6-0.9-0.9-1.4c-0.6,0.7-1.4,1.1-2,1.4
			c-0.1,0-0.2,0.1-0.3,0.1h-0.1c-0.5,0.2-1,0.4-1.4,0.5h-0.1c-0.4,0.1-0.8,0.3-1.1,0.4l-0.2,0.1l0,0c0.2,0.1,0.4,0.2,0.6,0.3
			c0,0,0,0,0.1,0c0.4,0.1,0.9,0.2,1.3,0.2c0.2,0,0.3,0,0.4-0.1h0.1c0.1,0,0.2-0.2,0.3-0.3c0.1-0.1,0.2-0.2,0.4-0.3l0,0
			c0.7-0.5,1.8-0.5,2.5,0l0,0c0.5,0.3,0.9,0.8,1,1.3c0.2,0.5,0.2,1,0,1.5c-0.1,0.5-0.4,0.9-0.8,1.3l0,0c-0.9,0.8-2.1,1.2-3.5,1.2
			c-0.3,0-0.7,0-1.1-0.1C-49,6.4-50.6,5.9-52,4.9c-1.6-1-2.3-2.4-2.1-4l0,0c0.1-0.8,0.5-1.6,1.3-2.2c0.3-0.3,0.7-0.5,1.1-0.7
			c-0.5,0-1-0.1-1.4-0.4c-0.4,0-0.8-0.4-1-0.8l0,0c-0.3-0.5-0.4-1-0.4-1.6c0-0.5,0.2-1,0.4-1.4c0.4-0.9,1.3-1.6,2.2-2
			c0.8-0.3,1.8-0.5,2.7-0.5c0.1,0,0.3,0,0.4,0l0,0c1.3,0.1,2.3,0.5,3.2,1l0,0c0.6,0.4,1.2,0.8,1.7,1.3c0.1,0,0.3,0.1,0.4,0.1h0.1
			c0.2-0.3,0.3-0.5,0.5-0.7c0,0,0,0,0.1-0.1c0.7-0.6,1.6-1,2.4-1c0.4,0,0.8,0.1,1.3,0.2l0,0c0.5,0.2,0.9,0.6,1.4,1
			c0.3-0.4,0.6-0.9,1.2-1.1c0,0,0,0,0.1,0c0.6-0.2,1.3,0,1.9,0.5l0,0c0.3,0.4,0.6,0.8,0.9,1.1c0,0,0,0,0.1,0c0.1,0,0.2-0.1,0.3-0.1
			c0.1-0.3,0.3-0.5,0.4-0.8c0.4-0.7,1-0.9,1.3-0.9h0.1c0.5,0,0.9,0.2,1.2,0.5l0.1,0.1c0.3,0.4,0.5,0.8,0.7,1.1c0,0,0.1,0.1,0.2,0.1
			s0.1,0,0.1,0C-28.8-6.9-28-8-26.7-8c0.2,0,0.3,0,0.5,0c1,0.2,1.8,1.1,2.2,1.8c0,0.1,0.1,0.1,0.1,0.2c0.2,0.3,0.4,0.2,0.6-0.1l0,0
			c0.1-0.4,0.4-0.8,0.9-1.2c0,0,0,0,0.1-0.1c0.7-0.5,1.7-0.7,2.4-0.5c0.7,0.1,1.3,0.4,1.8,0.6c0.5-0.5,1.2-0.7,2-0.7
			c0.4,0,0.8,0.1,1.2,0.2c0.4,0.1,1,0.3,1.6,0.6c0.2-0.3,0.4-0.5,0.7-0.7l0,0c0.5-0.4,1-0.8,1.6-1.1l0,0c0.5-0.2,1.1-0.3,1.7-0.3
			c0.4,0,0.8,0,1.2,0.1c1,0.4,2.1,0.9,3.1,1.6c0.9,0.6,1.6,1.3,2.2,2l0,0c0.7,0.9,1.2,1.6,1.5,2.3c0.1,0.4,0.3,0.8,0.4,1.2v0.1v0.2
			c0,0.3,0.1,0.6,0.1,1C-1.1-0.6-1.2-0.2-1.3,0.2"/>
	</g>
	<g id="g3835" transform="matrix(14.22196,0,0,-14.22196,523.7758,236.94387)">
		<path id="path3837" inkscape:connector-curvature="0" class="st0" d="M-0.4,0.2C-0.7,0-0.9-0.3-1.1-0.5c0-0.1-0.1-0.2-0.2-0.3l0,0
			C-1.4-1-1.6-1.1-1.8-1.3C-1.7-1-1.6-0.7-1.3-0.3C-1.1,0-0.8,0.3-0.6,0.3l0,0l0,0C-0.5,0.2-0.5,0.2-0.4,0.2"/>
	</g>
	<g id="g3839" transform="matrix(14.22196,0,0,-14.22196,1011.0727,248.02699)">
		<path id="path3841" inkscape:connector-curvature="0" class="st3" d="M-1.2,0.2c0.2,0.4,0.3,1,0,1.4c-0.2,0.4-0.6,0.6-1,0.5
			C-2.9,2-3.5,1.6-4.2,1.2c-0.6-0.4-1.4-1-2.1-0.5C-6.7,1-6.9,1.5-6.8,2.1c-0.1,0-0.1,0-0.2,0c-0.4,0-0.7-0.2-0.9-0.5
			C-8.3,0.9-8.2,0-8-0.7C-7.7-1.6-7.3-2.4-6.7-3c0.3-0.2,0.7-0.3,1-0.1c1,0.3,1.9,0.7,2.6,1.4c0.5,0.4,1,0.8,1.4,1.4
			C-1.5-0.2-1.3,0-1.2,0.2 M1.6,0.5c-0.1-0.3-0.2-0.7-0.3-1C1-1.2,0.5-1.9,0-2.5c-0.7-0.7-1.4-1.3-2.1-1.8C-2.9-4.8-3.9-5.3-5-5.6
			c-0.7-0.2-1.6-0.2-2.2,0.1c-0.5,0.2-0.9,0.6-1.3,0.9c-0.4,0.4-0.7,0.8-1,1.3h-0.1c-0.7-0.3-1.5-0.6-2.2-0.8
			c-0.8-0.2-1.7-0.2-2.2,0.5c-0.1,0.1-0.1,0.2-0.2,0.3h-0.1c-0.7-0.3-1.5-0.6-2.2-0.8c-0.6-0.1-1.2,0-1.7,0.3
			c-0.2,0.2-0.5,0.4-0.6,0.7c-0.2,0.5-0.1,1-0.1,1.5c0,0.8,0.1,1.6,0.1,2.3c0,0.1-0.1,0.2-0.2,0.3c-0.2,0.1-0.4,0-0.5,0
			s-0.2,0-0.4,0l0,0c-0.4-1.3-0.8-2.5-1.4-3.7c-0.3-0.6-0.9-1.3-1.6-1.4c-0.9-0.2-1.5,0.7-2,1.3c-0.2,0.2-0.5,0.7-0.8,1.1
			c0,0.1-0.1,0.1-0.2,0.1S-26-1.8-26-1.9c-0.5-0.8-0.9-1.5-1.4-2.2c-0.1-0.1-0.2-0.2-0.4-0.2c-0.2,0-0.3,0.2-0.4,0.3
			c-0.4,0.8-0.8,1.5-1.2,2.2c-0.1,0.1-0.2,0.2-0.3,0.2c-0.1,0-0.2-0.1-0.2-0.2c-0.6-0.7-1.1-1.5-1.7-2.2c-0.2-0.2-0.5-0.3-0.7-0.3
			c-0.6,0.2-0.8,0.9-1.2,1.3c-0.1,0.2-0.2,0.3-0.4,0.5c-0.2,0.1-0.2-0.1-0.3-0.2c-0.5-0.6-1-1.1-1.7-1.4c-0.9-0.3-1.9-0.1-2.5,0.5
			c-0.5,0.6-0.8,1.3-0.8,2c0,1,0.1,1.9,0.4,2.7c0.4,1.1,1.2,2.2,2.2,2.7c1,0.6,2.4,0.7,3.4,0c0.4-0.3,0.7-0.7,0.6-1.2
			c0-0.4-0.3-0.9-0.8-1.1c-0.6-0.2-1.1,0.3-1.6,0.3c-0.6,0.1-1.1-0.4-1.5-0.9c-0.4-0.6-0.6-1.3-0.6-2.1c0-0.2,0.1-0.5,0.3-0.5
			c0.1-0.1,0.3,0,0.4,0c0.4,0.4,0.8,0.8,1.1,1.2c0.3,0.4,0.6,0.8,1,1.1c0.2,0.1,0.4,0.1,0.6,0c0.3-0.2,0.5-0.6,0.7-0.9
			c0.2-0.2,0.3-0.5,0.5-0.6c0.1,0,0.2,0.1,0.3,0.2c0.7,0.8,1.3,1.7,2,2.5c0.2,0.2,0.5,0.5,0.8,0.4c0.2-0.1,0.4-0.2,0.5-0.4
			c0.3-0.5,0.6-1.1,0.9-1.6c0-0.1,0.1-0.1,0.2-0.1c0.1,0,0.2,0.1,0.2,0.2c0.5,0.6,0.8,1.3,1.4,1.9c0.1,0.1,0.4,0.2,0.6,0.1
			c0.4-0.2,0.5-0.6,0.8-0.9c0.5-0.8,0.9-1.6,1.5-2.2c0.1,0,0.1-0.1,0.2-0.1c0.2,0.1,0.3,0.3,0.4,0.5c0.2,0.5,0.4,1,0.5,1.5
			c0,0,0,0.1-0.1,0.1c-0.6,0.3-1,0.9-0.9,1.6c0,0.6,0.4,1.1,0.9,1.3c0.6,0.2,1.3,0.2,1.8-0.2c0.2-0.2,0.4-0.4,0.5-0.7l0,0
			c0.8,0,1.6,0.1,2.4,0c0.4,0,0.8-0.3,1-0.7c0.2-0.4,0.1-0.9,0.1-1.4c0-0.7-0.1-1.4-0.1-2.2c0,0,0-0.1,0-0.2c0-0.1,0-0.2,0.1-0.3
			c0.2-0.1,0.4-0.1,0.5,0c0.4,0.2,0.8,0.3,1.1,0.5l0,0c0,1.2,0,2.2,0.2,3.4c0.1,0.4,0.4,0.8,0.8,0.8c0.5,0.1,1,0.1,1.4-0.3
			c0.2-0.2,0.3-0.5,0.3-0.7c0-1.1-0.1-2.2-0.1-3.3c0-0.2,0.1-0.4,0.2-0.5c0.2-0.1,0.5,0,0.7,0.1c0.3,0.1,0.6,0.2,0.8,0.4
			c-0.2,1.1-0.3,2.2,0,3.2c0.2,1,1,1.9,1.9,2.3c1,0.5,2.1,0.5,2.7,0.2c0.4-0.1,0.7-0.3,1.1-0.6h0.1c1.4,0.7,3,1.4,4.6,0.7
			c1.3-0.6,2.1-1.9,2.2-3.2C1.7,1.1,1.6,0.8,1.6,0.5"/>
	</g>
	<g id="g3843" transform="matrix(14.22196,0,0,-14.22196,848.33936,192.23572)">
		<path id="path3845" inkscape:connector-curvature="0" class="st3" d="M-0.9,0.2c-0.5-0.3-1.2-0.3-1.7-0.1
			c-0.5,0.3-0.8,0.7-0.8,1.3c0,0.5,0.3,1,0.8,1.3c0.5,0.3,1.3,0.3,1.8-0.1s0.7-1,0.6-1.6C-0.3,0.6-0.6,0.4-0.9,0.2"/>
	</g>
	<g id="g3847" transform="matrix(14.22196,0,0,-14.22196,451.12433,178.55555)">
		<path id="path3849" inkscape:connector-curvature="0" class="st3" d="M-0.3,0.1c-0.4-0.3-1-0.3-1.3,0c-0.3,0.2-0.6,0.6-1,0.7
			c-0.8,0.4-1.8,0.1-2.5-0.1c-0.6-0.2-1.3-0.5-1.8-1C-7-0.5-7.1-0.6-7-0.8C-6.9-1-6.7-1.1-6.5-1.2c0.3-0.2,0.7-0.3,1-0.4
			c0.9-0.3,1.8-0.7,2.6-1c0.7-0.3,1.5-0.6,2-1.3c0.4-0.6,0.6-1.4,0.4-2.1c-0.1-1.4-1.3-2.4-2.3-3.1c-0.8-0.5-1.8-0.8-2.7-0.9
			c-1,0-1.9,0.1-2.7,0.4C-9-9.3-9.7-8.8-10-8.1c-0.3,0.6-0.4,1.4-0.1,2c0.4,0.7,1.1,1,1.8,0.9c0.4-0.1,0.7-0.3,0.9-0.6
			c0.3-0.4,0-0.9,0.2-1.3c0.4-0.6,1.2-0.6,1.9-0.5C-4.4-7.4-3.5-7-3-6c0.1,0.2,0.2,0.5,0,0.8C-3.3-5-3.8-4.9-4.2-4.7
			c-1.1,0.4-2.2,0.8-3.2,1.2c-1,0.4-2.2,1-2.3,2.2C-10-0.1-9.2,1-8.2,1.6c1.3,1,2.7,1.5,4.3,1.7c1.4,0.2,2.7,0,3.8-0.9
			C0.4,2,0.6,1.3,0.4,0.7C0.2,0.5,0,0.3-0.3,0.1"/>
	</g>
	<g id="g3851" transform="matrix(14.22196,0,0,-14.22196,566.62224,134.72347)">
		<path id="path3853" inkscape:connector-curvature="0" class="st1" d="M-0.5,0.1C-0.8,0-1.2-0.1-1.4-0.3C-1.8-0.5-2-1-2-1.5
			c0-0.4,0.3-0.6,0.5-0.9c0.1-0.3,0.1-0.7,0.2-1c0.2-0.8,1-1.3,1.7-1.6c0.1,0,0.4,0,0.6-0.1l0.4,0.4l0.4,0.2l0.8,3.5L0.3,0.5
			L-0.5,0.1z"/>
	</g>
	<g id="g3855" transform="matrix(14.22196,0,0,-14.22196,603.21819,150.83411)">
		<path id="path3857" inkscape:connector-curvature="0" class="st0" d="M-0.5,0.1c0.1-0.1,0-0.3,0-0.4C-0.8-1.2-1-2.1-1.3-2.9
			c-0.3-0.3-0.8-0.1-1.1,0c-0.8,0.3-1.2,1.1-1.1,2C-3.7-0.7-4-0.3-3.8,0.1C-3.6,0.7-3,0.5-2.6,0.7c0.1,0.2,0.2,0.4,0.4,0.5
			C-1.6,0.9-1,0.6-0.5,0.1"/>
	</g>
	<g id="g3859" transform="matrix(14.22196,0,0,-14.22196,1056.6825,190.54182)">
		<path id="path3861" inkscape:connector-curvature="0" class="st3" d="M-1.2,0.2v0.4h0.3c0.1,0,0.3,0,0.3-0.2
			C-0.8,0.2-0.9,0.2-1,0.2H-1.2z M-1.2,0H-1l0.3-0.5h0.2l-0.3,0.6c0.2,0,0.3,0.1,0.3,0.3s-0.1,0.3-0.4,0.3h-0.5v-1.2h0.2
			C-1.2-0.5-1.2,0-1.2,0z M-1-0.9C-0.5-0.9,0-0.5,0,0.2c0,0.5-0.5,1-1.1,1s-1.1-0.4-1.1-1.1C-2.1-0.5-1.6-0.9-1-0.9 M-1.8,0.1
			c0,0.5,0.4,0.9,0.9,0.9s0.9-0.4,0.9-0.9c-0.1-0.5-0.5-0.9-1-0.9S-1.8-0.4-1.8,0.1"/>
	</g>
	<g id="g3863" transform="matrix(14.22196,0,0,-14.22196,604.4555,-17.55242)">
		<path id="path3865" inkscape:connector-curvature="0" class="st1" d="M-0.6-0.2c0.4-0.4,0.4-1,0.3-1.5c0-0.2-0.2-0.4-0.4-0.5
			c-0.2-0.1-0.5,0-0.7,0.1c-0.4,0.4-0.4,1.2-0.2,1.7C-1.4-0.2-1.2-0.1-1,0C-0.8,0-0.7-0.1-0.6-0.2"/>
	</g>
	<g id="g3867" transform="matrix(14.22196,0,0,-14.22196,802.61724,-20.35699)">
		<path id="path3869" inkscape:connector-curvature="0" class="st1" d="M-0.9-0.2c0.4-0.3,0.3-0.9,0.3-1.3c0-0.3-0.2-0.5-0.4-0.7
			c-0.1-0.1-0.4-0.1-0.5,0c-0.4,0.2-0.5,0.6-0.5,1s0,0.9,0.5,1.1C-1.2,0-1.1-0.1-0.9-0.2"/>
	</g>
</g>
</svg>
