<?xml version="1.0" encoding="utf-8"?>
<!-- Generator: Adobe Illustrator 25.4.1, SVG Export Plug-In . SVG Version: 6.00 Build 0)  -->
<svg version="1.1" id="Capa_1" xmlns="http://www.w3.org/2000/svg" xmlns:xlink="http://www.w3.org/1999/xlink" x="0px" y="0px"
	 viewBox="0 0 200 200" style="enable-background:new 0 0 200 200;" xml:space="preserve">
<style type="text/css">
	.st0{fill:#FEFEFE;}
	.st1{fill:#1D1D1D;}
	.st2{fill:#F187B6;}
	.st3{fill:#F5F5F5;}
	.st4{fill:#E886B2;}
	.st5{fill:#F4F4F4;}
	.st6{fill:#EF87B5;}
	.st7{fill:#F4C95F;}
	.st8{fill:#F1F1F1;}
	.st9{fill:#E1BA59;}
	.st10{fill:#EAC15C;}
	.st11{fill:#E6BE5B;}
	.st12{fill:#ECC35D;}
	.st13{fill:#1E1E1D;}
	.st14{fill:#1F1F1F;}
	.st15{fill:#202020;}
	.st16{fill:#F2D339;}
	.st17{fill:#F4D53A;}
	.st18{fill:#ECCD39;}
</style>
<g>
	<g>
		<path class="st1" d="M92.2,200.2c-0.9-0.7-2.1-0.6-3.1-0.9c-4.2-1.3-7.6-3.5-8.6-8.1c-0.5-2.2-0.3-4.5,0.4-6.6
			c0.8-2.2,0.1-4.5,0.5-6.8c0.1-0.6-0.6-0.6-1-0.8c-9.2-3.1-17.4-8-24.5-14.6c-1.8-1.7-3.4-3.5-5.1-5.2c-1.2-1.3-0.9-2.2,0.7-2.9
			c8.1-3.4,15.3-8.3,22.2-13.7c0.4-0.3,0.6-0.7,0.7-1.3c0-1,0.2-1.9,0.6-2.8c0.4-0.8,0.8-1.6,1.2-2.5c-2.1-1-4.3-2-6.4-3.1
			c-3.1-1.6-6-3.6-8.6-6c-5.5-5.2-7.9-11.6-8.1-19.1c-0.3-7.8,1.5-15,5.5-21.7c0.3-0.5,0.5-0.9,0.4-1.6c-0.3-2.5,0.3-4.9,2-6.8
			c0.6-0.7,0.3-0.9-0.1-1.4c-2-2.2-3.3-4.7-2.8-7.7c0.8-5.1,5.7-8.4,11.1-7.3c1.2,0.2,2.3,0.6,3.5,1c1.1-9.5,2.7-18.8,5.3-28
			c2.1-7.2,4.6-14.2,9-20.4c2.7-3.8,5.9-7,10.4-8.2c7.7-2.1,16.8,0.1,20.3,11.3c1.8,5.8,2,11.7,1.7,17.7c-0.2,3.6-0.5,7.1-1.1,10.6
			c-0.1,0.4-0.2,0.9,0,1.4c3.5-1.4,7.1-2.1,10.8-2c9,0.3,15.5,4.5,19.3,12.8c2.8,6.3,4,12.9,4.1,19.7c0,2.8,0.8,5.1,2.4,7.4
			c6.9,10,8.9,21,6.2,32.8c-2.1,9.2-8.2,15.2-16.3,19.4c-2.5,1.3-5.2,2.3-7.9,3.2c0.4,0.6,1.1,0.6,1.6,0.8
			c9.2,3.1,16.6,8.5,22.5,16.3c0.4,0.6,0.4,1.2,0.3,1.9c-0.7,4.9-3.3,8.7-6.9,11.9c-5.3,4.8-11.8,7.3-18.6,8.9
			c-1.2,0.3-1.4,0.7-1,1.8c0.5,1.3,0.7,2.7,1.1,4.1c1.6,6.3-1.2,12.1-7.2,14.5c-4.2,1.7-8.6,2.1-13,1.2c-3-0.6-5.5-2-7.3-4.9
			c-2.2,3.7-5.7,4.8-9.5,5.7C96.9,200.2,94.5,200.2,92.2,200.2z"/>
		<path class="st2" d="M149.8,77.5c-0.1,1.8,0.6,3.3,1.6,4.8c3.1,4.5,5.9,9.3,7.1,14.7c1.7,8,1.5,15.9-2.2,23.3
			c-2.6,5.2-6.9,8.8-12.1,11.4c0.8-1.7,1.7-3.4,2-5.3c1-6.4-1.5-11.5-5.8-16c-5.3-5.4-11.9-8.5-19.1-10.2c-12.6-3-25.3-3.5-37.9,0.1
			c-5.5,1.6-10.3,4.2-14,8.8c-4.2,5.3-4.5,10.7-0.8,16.5c0.3,0.4,0.7,0.8,0.7,1.6c-6.5-4-11.4-9-12.7-16.7c-1.4-8.1-0.3-15.8,3.6-23
			c0.1-0.2,0.3-0.4,0.4-0.8c1.6,1.9,3.5,3.1,5.9,3.6c3.6,0.6,6.8-0.4,9.6-2.7c0.7-0.5,1.1-0.6,1.8-0.1c2.5,1.8,5.3,2.6,8.3,2.3
			c6.4-0.8,9.4-6.6,6.4-12.4c-0.5-1-1.8-1.9-1.8-2.9c-0.1-1,1.3-1.8,1.7-2.9c1.4-3.2,1.2-6.3-0.8-9.1c-2-2.9-5-3.7-8.3-3.5
			c-2.8,0.2-5.3,1.1-7.9,3.1c0.5-3.6,0.9-6.9,1.4-10c1.5-9.5,3.5-18.9,7-27.8c1.9-4.9,4.3-9.7,8-13.6c3.9-4.1,8.6-5.7,14.2-4.3
			c3.9,1,6.3,3.6,7.9,7.1c1.7,3.8,2.3,7.9,2.5,12c0.3,6.7-0.3,13.3-1.4,19.9c-0.1,0.9-0.5,1.4-1.2,1.9c-6.9,4.8-11.6,11.2-13.3,19.5
			c-2.1,11,4.4,17.5,14.8,17.9c7,0.3,12.5-3,17.4-7.6c1.7-1.6,3.2-3.5,4.7-5.4c0.4-0.3,0.9-0.1,1.3,0.1c3.4,1.7,6.8,3.3,10.1,5.1
			C149.3,77,149.6,77.3,149.8,77.5z"/>
		<path class="st3" d="M101.4,100.9c9.5,0.1,18.2,1.1,26.5,4.7c5.3,2.3,9.9,5.5,13.2,10.5c1.3,1.9,2.2,4,2.4,6.3
			c0.5,5.5-2.2,9.9-7.7,12.4c-6.1,2.7-12.6,3.7-19.3,3.5c-7.3-0.2-14.4-1.4-21.6-2.3c-1.6-0.2-2.5-1.7-3.9-2.3
			c-0.5-0.2-0.1-0.6-0.1-1c0.2-2.5-1.4-4.3-3.9-4.3c-2.5,0-4.7,1-6.9,2.2c-0.4,0.2-0.7,0.7-1.4,0.3c-4.3-2.5-7.9-5.7-9.3-10.7
			c-0.8-2.8-0.2-5.4,1.4-7.8c3-4.6,7.5-7.2,12.5-8.9C89.4,101.4,95.7,100.9,101.4,100.9z"/>
		<path class="st3" d="M102,143.6c1.7,5,4.2,9.6,7.3,13.7c2.7,3.5,5.8,6.5,9.3,9.2c1.1,0.8,1.9,0.8,2.9,0c3.6-2.9,7.5-5.3,11.8-7.5
			c0.1,2.6-0.4,4.9-1,7.3c-0.7,2.6-1.7,5-3.1,7.2c-0.4,0.6-0.7,1.2-0.2,1.8c0.4,0.6,1,0.7,1.6,0.4c0.7-0.4,0.6,0.2,0.7,0.5
			c0.9,3.2,1.8,6.3,2.5,9.6c0.8,3.7-1.3,7.8-4.8,9.5c-4.4,2.2-9,2.6-13.8,1.2c-2.4-0.7-4.3-2.1-4.7-4.7c-0.5-2.7,0.1-5.2,2.5-6.9
			c0.6-0.4,0.9-0.9,0.7-1.6c-0.2-0.7-0.7-1-1.4-0.9c-0.7,0.1-0.8-0.3-1-0.8c-0.5-1.2-1-2.4-1.4-3.5c-0.2-0.6-0.5-1-1.2-1
			c-0.7,0-1,0.5-1.1,1.1c-0.4,1.3-0.7,2.6-1,4c-0.1,0.6-0.3,0.9-1,0.8c-0.6-0.1-1.1,0.1-1.4,0.7c-0.3,0.7,0,1.2,0.5,1.6
			c4.5,4.1,2.5,9.5-2.8,11.3c-5.2,1.8-10.4,1.3-15.3-1.3c-3.4-1.8-4.6-5.3-3.3-9.3c0.6-1.8,0.7-3.5,0.7-5.4c0-1.1,0-2.2,0.1-3.4
			c0-0.8,0-1.5,1.2-1.6c1-0.1,1.2-1.2,0.3-2.3c-1.6-2-2.8-4.2-3.6-6.7c-0.1-0.3-0.2-0.6-0.3-0.9c-0.2-0.9-0.6-1.8-0.5-2.7
			c0.2-1.1,1.5-0.7,2.3-1c4.3-2.1,6.2-5.6,6.5-10.2c0.1-1.2,0.5-1.7,1.4-2.5c2.3-2.2,5-3.5,8-4.3C100.3,144.9,101,144.2,102,143.6z"
			/>
		<path class="st4" d="M149.8,77.5c-3.5-1.7-6.9-3.4-10.4-5.1c-0.6-0.3-1.2-0.5-1.8-0.8c0.1-0.8,0.3-1.7-0.7-2.1
			c-1.1-0.5-1.7,0.3-2.3,1c-3.8,4.9-8.3,8.9-14.4,10.6c-3.9,1.1-7.7,0.6-11.3-1.1c-4.1-1.9-6.2-6-5.7-11
			c1.1-10.7,10.4-21.2,20.7-23.1c10.5-2,18.5,1.9,22.5,11.9C149,64.3,149.9,70.8,149.8,77.5z"/>
		<path class="st3" d="M68.1,61.9c2.2,0.1,4.5,0.9,6.2,3.1c0.8,1.1,1.4,1,2.3,0c2.3-2.7,5.4-3.6,8.8-3.2c2.6,0.3,4.4,1.7,5.1,4.4
			c0.7,2.7-0.1,5-2.3,6.8c-1.8,1.6-1.9,1.5,0,3.1c1.1,0.9,1.9,2,2.4,3.3c1.7,4.3-0.7,7.9-5.4,7.9c-2.6,0-5-0.8-6.8-2.8
			c-1-1-1.6-1.1-2.6,0c-2.5,2.7-5.5,4.1-9.2,3.2c-2.6-0.6-4.3-2.3-4.7-5c-0.4-2.6,0.5-4.7,2.7-6.2c1.6-1.1,1.5-1.4-0.1-2.6
			c-2.2-1.6-3.7-3.7-3.6-6.5C61,64.1,63.9,61.9,68.1,61.9z"/>
		<path class="st2" d="M104.5,140.9c1.7,2,3.6,3.6,6,4.7c0.5,0.2,0.2,0.6,0.3,0.9c0.4,1.8,0.7,3.4,0.2,5.3c-0.4,1.3,0.7,2.6,2,3.3
			c1.4,0.7,2.9,0.7,4.2-0.3c0.6-0.4,0.9-0.4,1.7-0.1c2,0.9,4,2.1,6.5,1.4c0.5-0.2,1.2,0.5,1.9,0.3c1.1-0.3,3.2-2.7,3.6-3.8
			c0.4-1,1-2,2.3-2.2c2-0.4,3.3-2,3.3-4c0-1.9-1.5-3.7-3.3-4c-2.1-0.4-3.9,0.7-4.7,2.6c-0.3,0.7-0.4,1.4-0.2,2.1
			c0.6,1.9-0.1,3.4-1.3,4.9c-0.5,0.6-1.2,0.9-1.8,0.8c-0.6-0.1-0.2-0.9-0.3-1.4c0-0.2,0.1-0.4,0-0.6c-0.8-1.3-0.5-2.7-0.2-4.1
			c0.2-1,0.4-1.5,1.3-1.9c1.7-0.8,2.9-2.1,3.2-4c0.1-0.6,0.4-0.8,0.9-1c0.8-0.2,1.5-0.2,2.3-0.1c8.8,1.7,16.3,5.7,22.7,12
			c0.1,0.1,0.1,0.3,0.2,0.4c-10-1.5-18.7,1.9-27.1,6.7c-2.5,1.4-4.8,3-7.1,4.7c-0.5,0.4-0.9,0.6-1.5,0.1c-7.1-5.8-12.2-12.9-15-21.6
			C104.2,141.8,103.9,141.4,104.5,140.9z"/>
		<path class="st3" d="M79.8,160.2c-4.4-0.1-6.9-3.7-5.8-8.3c0.3-1.2,0.8-2.3,1.6-3.3c0.6-0.7,1-1.7,2.2-0.6
			c0.4,0.3,1.1,0.2,1.5-0.4c0.4-0.6,0.3-1.2-0.1-1.7c-0.6-0.8-1.1-1.6-1.4-2.5c-1.5-3.5-0.8-6.6,1.8-9.2c1.8-1.7,4.1-2.7,6.5-3.2
			c0.7-0.2,1.4-0.2,1.9,0.5c0.5,0.7,0.1,1.3-0.2,1.8c-0.8,1.2-0.3,1.8,0.9,2.3c3.5,1.4,4.8,3.4,4.5,6.8c-0.3,2.9-2.5,5.1-5.8,5.7
			c-0.3,0.1-0.7,0.1-1.1,0.1c-0.7,0.1-1.2,0.6-1.2,1.3c0,0.8,0.5,1.3,1.3,1.2c1.1-0.1,1.1,0.5,1,1.2
			C87.1,156.8,83.8,160.3,79.8,160.2z"/>
		<path class="st2" d="M54,156.4c7.5-3.5,14.2-7.9,20.7-12.9c0.8,1.3,0.8,1.3-0.2,2.3c-2.7,2.8-3.9,6.2-3.3,10
			c0.5,3.5,2.7,5.6,6,6.5c0.9,0.3,1.3,0.7,1.4,1.6c0.4,2.9,1.3,5.5,2.8,8c0.3,0.5,0.4,1,0.4,1.6c-0.1,0.7-0.3,0.9-1,0.6
			C70.4,170.6,61.6,164.6,54,156.4z"/>
		<path class="st2" d="M135,166.8c4,2.2,8.1,2.6,11.7-0.2c4.1-3.2,4.1-7.5,2.1-12c3-0.1,5.8,0,8.5,1.2c1.1,0.5,1.5,1.1,1.1,2.4
			c-1.1,3.6-3.1,6.5-5.9,8.9c-5.1,4.4-11.3,6.7-17.7,8.3c-0.6,0.2-0.9,0-1.1-0.7c-0.4-1.5-0.8-2.9,0.1-4.4
			C134.4,169.1,134.6,167.9,135,166.8z"/>
		<path class="st3" d="M140.4,165.8c-0.7,0-1.6-0.1-2.5-0.5c-1.9-0.8-2.3-1.5-2.1-3.5c0.1-0.6,0.3-1.2,0.2-1.8
			c-0.3-2,0.6-2.7,2.4-3.2c2.1-0.6,4.1-1.3,6.3-1.8c0.9-0.2,1.3,0.1,1.7,0.8c1.3,2.3,1.5,4.6,0.2,6.9
			C145.4,165,143.2,165.9,140.4,165.8z"/>
		<path class="st5" d="M120.8,153.5c-0.7,0.1-1.2-0.4-1.8-0.9c-0.8-0.8-1.6-0.7-2.3,0.1c-0.6,0.7-1.4,1.2-2.4,0.9
			c-1.5-0.4-2.1-2.1-1-3.3c0.8-0.9,0.8-1.4-0.1-2.2c-0.9-0.8-0.9-1.8-0.2-2.7c0.8-0.9,1.9-1.2,2.8-0.3c1.4,1.2,2.4,1.1,3.6-0.2
			c0.9-0.9,2-0.7,2.8,0.2c0.8,0.9,0.8,2,0,2.7c-0.9,0.9-0.8,1.5,0.1,2.2c0.7,0.6,0.8,1.4,0.5,2.2
			C122.5,153.1,121.9,153.5,120.8,153.5z"/>
		<path class="st6" d="M126.5,140.5c-1.3,2.2-2.6,2.8-4.6,2.2c-1.2-0.4-2.4-0.2-3.3,0.5c-0.7,0.6-1.2,0.5-2,0
			c-0.9-0.6-2-0.8-2.9-0.4c-1.5,0.8-2.6,0.1-3.8-0.7c-0.6-0.4-1.2-0.7-1.7-1.5C114.3,141.4,120.3,141.6,126.5,140.5z"/>
		<path class="st7" d="M132.3,144.3c1.2,0,2.2,1,2.3,2.2c0,1.3-1.1,2.3-2.4,2.3c-1.2,0-2.2-1-2.2-2.2
			C130,145.3,131,144.3,132.3,144.3z"/>
		<path class="st6" d="M101.4,140.2c-1.3,1.7-2.9,2.7-4.8,3.3c-0.6,0.2-1,0.2-0.8-0.7c0.1-0.5,0-1,0.1-1.5c0.1-0.7-0.6-1.6,0-1.9
			c0.5-0.3,1.4,0.1,2.1,0.2c0.9,0.1,1.8,0.3,2.7,0.4C100.8,140,101,140.1,101.4,140.2z"/>
		<path class="st8" d="M108.9,181.8c0.7,1.4,1.5,2.4,0.2,3.5c-0.2,0.2-0.3,0.7-0.6,0.5c-0.3-0.2-0.6-0.6-0.5-1
			C108.3,184,108.6,183.1,108.9,181.8z"/>
		<path class="st9" d="M129.4,152.9c0,0.3-0.2,0.6-0.6,0.6c-0.5,0-0.7-0.3-0.7-0.7c0-0.4,0.3-0.6,0.7-0.6
			C129.2,152.2,129.4,152.4,129.4,152.9z"/>
		<path class="st10" d="M126.7,153.8c0.4,0.1,0.7,0.3,0.7,0.7c0,0.4-0.3,0.6-0.6,0.6c-0.4,0-0.7-0.2-0.7-0.6
			C126.1,154.1,126.3,153.9,126.7,153.8z"/>
		<path class="st11" d="M124.6,154.6c-0.1,0.4-0.4,0.6-0.7,0.5c-0.2,0-0.6-0.2-0.4-0.5c0.1-0.4,0.4-0.7,0.8-0.7
			C124.5,154,124.6,154.3,124.6,154.6z"/>
		<path class="st12" d="M129.4,150.3c0-0.3,0.1-0.5,0.4-0.4c0.3,0.1,0.7,0.2,0.8,0.6c0.1,0.3-0.2,0.4-0.5,0.4
			C129.7,150.9,129.5,150.7,129.4,150.3z"/>
		<path class="st1" d="M87.4,112.4c-0.1,2.4-0.6,4.4-1.7,6.2c-1.3,2.1-3.3,2.9-5.5,2.3c-1.9-0.5-3.1-2.3-3.2-4.7
			c-0.1-2.9,1-5.5,2.9-7.6c1.1-1.3,2.6-2.1,4.3-1.6c1.8,0.5,2.5,1.9,2.9,3.6C87.2,111.2,87.3,111.9,87.4,112.4z"/>
		<path class="st1" d="M126.9,118.7c-0.1-1.9,0.3-3.7,1.3-5.3c1.6-2.4,4.5-2.6,6.3-0.3c2.2,2.8,2.8,6,1.8,9.5
			c-0.6,2.1-2.3,3.3-4.2,3.4c-2,0.1-3.7-1.1-4.6-3.2C127,121.5,126.9,120.1,126.9,118.7z"/>
		<path class="st13" d="M106.8,127.6c-1.6,0-2.7-0.3-3.7-0.9c-2.2-1.4-2.1-4.4,0.2-5.6c1.9-1,3.8-1,5.7,0c1.4,0.8,2.2,2.3,1.9,3.7
			c-0.3,1.4-1.6,2.6-3.2,2.8C107.2,127.6,106.7,127.6,106.8,127.6z"/>
		<path class="st14" d="M106.4,132.1c-2.4-0.1-4.6-0.9-6.7-2.2c-0.9-0.5-0.8-1.3-0.2-1.9c0.5-0.7,1.1-0.7,1.8-0.1
			c3,2.7,5.6,3,9.1,0.9c0.8-0.5,1.3-0.3,1.7,0.4c0.4,0.8,0.3,1.4-0.6,1.8C109.8,131.7,108.1,132.1,106.4,132.1z"/>
		<path class="st14" d="M96.8,180.6c2.1,0,4,0.4,5.8,1.5c0.7,0.4,1.2,0.9,0.7,1.7c-0.4,0.7-1.1,0.5-1.7,0.2
			c-1.9-1.2-4.1-1.4-6.3-1.2c-0.8,0.1-1.7,0.2-1.8-0.8c-0.1-1.1,0.8-1.2,1.7-1.3C95.7,180.6,96.3,180.6,96.8,180.6z"/>
		<path class="st14" d="M122.4,183.2c-1.9-0.7-3.7-0.4-5.6,0.2c-0.6,0.2-1.1-0.2-1.3-0.8c-0.2-0.6,0.1-1,0.7-1.2
			c2.2-0.8,4.4-1.1,6.7-0.3c0.7,0.2,1,0.7,0.8,1.4C123.5,183.1,123,183.2,122.4,183.2z"/>
		<path class="st1" d="M69.9,74.9c-0.1-1,0.4-2.1,1.1-3c2.3-2.8,7-3,9.5-0.5c1.7,1.7,1.9,4.3,0.5,6.2c-2.2,3-7.3,3.3-9.8,0.5
			C70.3,77.4,69.9,76.3,69.9,74.9z"/>
		<path class="st15" d="M117.7,146.6c1.4,0,2.5,1.1,2.5,2.5c0,1.4-1,2.4-2.3,2.5c-1.4,0.1-2.6-1-2.6-2.4
			C115.3,147.7,116.3,146.6,117.7,146.6z"/>
		<path class="st16" d="M106.8,125.8c-2.2,0-3.5-0.8-3.4-1.9c0.1-1.1,1.5-1.7,3.2-1.5c1.1,0.2,2.2,0.7,2.1,2
			C108.7,125.6,107.5,125.7,106.8,125.8z"/>
		<path class="st17" d="M75.9,77.9c-2,0-3.7-1.3-3.6-2.9c0-1.6,1.9-3,3.8-2.9c1.9,0,3.6,1.3,3.6,2.8C79.7,76.5,77.9,77.9,75.9,77.9z
			"/>
		<path class="st18" d="M117.8,150.2c-0.6,0-1-0.4-1.1-1c0-0.7,0.4-1.1,1.1-1.1c0.7,0,1,0.4,1,1
			C118.9,149.7,118.5,150.1,117.8,150.2z"/>
	</g>
</g>
</svg>
