<?xml version="1.0" encoding="utf-8"?>
<!-- Generator: Adobe Illustrator 25.4.1, SVG Export Plug-In  SVG Version: 6.00 Build 0)  -->
<svg version="1.1" xmlns="http://www.w3.org/2000/svg" xmlns:xlink="http://www.w3.org/1999/xlink" x="0px" y="0px"
	 viewBox="0 0 200 200" style="enable-background:new 0 0 200 200;" xml:space="preserve">
<style type="text/css">
	.st0{fill:#FFFFFF;}
	.st1{fill:#FEFEFE;}
	.st2{fill:#221714;}
	.st3{fill:#231815;}
	.st4{fill:#F7BD00;}
	.st5{fill:#241916;}
	.st6{fill:#005BAA;}
	.st7{fill:#F8BD00;}
	.st8{fill:#FBFBFB;}
	.st9{fill:#251A16;}
	.st10{fill:#251A15;}
	.st11{fill:#281D1B;}
	.st12{fill:#291F1C;}
	.st13{fill:#322826;}
	.st14{fill:#2D2220;}
	.st15{fill:#FAFBFC;}
	.st16{fill:#1D6DB4;}
</style>
<g id="Capa_2">
	<polygon class="st0" points="95.7,130.3 60.6,121.2 64.5,140.3 69.7,149.4 90.5,155.1 93.6,157.2 103.6,157.2 130,150.7 137,142 
		140.9,135.5 	"/>
</g>
<g id="Capa_1">
	<g>
		<g>
			<path class="st2" d="M141.1,86.3c2.5,4.2,0.6,8.1-1,12.3c7.9-0.8,14.6,2.3,21.1,6c4.7,2.6,7.1,6.7,6.2,12.5
				c-0.9,5.5-4.7,8.2-9.5,8.9c-4.4,0.7-7.8,3.6-12.2,4.1c-1.2,0.1-1.3,1-1.4,1.9c-1.3,11.5-8,18.8-18.1,23.4c-4.7,2.1-4.7,2-0.9,5.9
				c-0.9,3.1-2.6,3.5-5.2,1.4c-1.1-1-1.7-2.6-3.3-3c-0.9-0.2-1.9-0.2-2.5,0.5c-0.8,0.9-0.1,1.7,0.6,2.3c0.4,0.4,0.9,0.8,1.3,1.2
				c0.8,0.9,1.7,1.9,0.8,3.2c-0.9,1.3-2.3,1.4-3.7,1.1c-1.5-0.4-2.6-1.5-3.6-2.7c-0.7-1.1-1.5-2.1-1.6-3.4c0.1-2.1-0.8-3-3-2.9
				c-2,0.1-4.4,0.2-4.3-2.6c0.1-3.3,2.8-2.5,4.8-2.5c5.3,0.1,10.6-0.4,15.7-2c6.8-2.1,12.3-6.1,15.9-13c-22,1.7-42.8-2.3-63.6-8.6
				c0.1,5.1,0.4,10.1-2.2,14.6c-1.1,1.9,0.9,2.3,1.9,3c6,4.3,12.7,6.2,20,5.8c2-0.1,4.3-0.4,4.3,2.4c0,2.5-2.3,2.4-4.1,2.5
				c-8.6,0.6-16.5-1.5-23.4-6.7c-1.9-1.5-3.1-1.6-5.3-0.1c-10.8,7.3-24.6,6-31.7-2.7c-2.6-3.2-4.3-6.9-4.1-11.2
				c0.1-2.2,0.5-4.8,2.2-5.7c5.3-2.8,8.7-8,14.2-10.5c0.8-0.4,2-0.3,1.9-1.5c-0.4-3.6,1.9-7.4-3.5-10.4c-4-2.3-8.2-5.8-11.2-9.9
				c-5.1-7.1-3.1-13.5,5.2-16.2c0.7-0.2,1.4-0.5,2.1-0.7c3.8-0.8,17.4,0.1,21.8,1.4c-1.6-5.3-2.1-10.5,1.2-15.1
				c1-1.4,1.8-3.4,4.2-2.8c0.4-0.3,0.8-0.4,1.3-0.2c1.7,1.2,1.9,2.9,0.9,4.4c-4.2,5.6-1.6,11.5-0.7,17.3c0.2,1.2,0.6,2.3-0.1,3.5
				c-2.4,2.5-4.8,1-7-0.2c-2.8-1.5-4.8-1-6.5,1.7c-1.9,2.9-3.8,5.8-5.3,9c-0.6,1.3-1,2.6,0,3.8c1.1,1.4,2.6,1.3,4.1,0.7
				c0.6-0.2,1.1-0.5,1.7-0.7c1.9-0.8,3.6-0.5,4.7,1.4c1,1.8,0.1,3.1-1.2,4.4c-4.4,4.2-4.4,4.4,1.3,6.8c21.5,9.3,43.8,14.6,67.2,15.1
				c1.5,0,3,0,4.5-0.2c2.3-0.3,4.5-0.4,3.6-4c-0.6-2.3,1.5-3.3,3.5-3.9c7.1-2.2,7.8-3.2,7.8-10.8c0-9.6-2.8-11.8-11.5-7.9
				c-4.2,1.9-8,0.7-12,0.9c-16.9,1-32.8-3-47.8-10.3c-2.6-1.3-6.3-2.1-6.2-6.3c1.5-2.6,3.6-1.7,5.5-0.7c12.8,7.1,26.5,10.6,41,11.8
				c4.1,0.3,8.5,0.4,12.1-0.6c4.4-1.2,6.7-6,7.9-10.6c0.5-1.8,0-4,2.3-5C139.3,85.4,140.3,85.5,141.1,86.3z"/>
			<path class="st3" d="M68,66.4c-0.3,0-0.6,0-0.9-0.1c-3.8-5.4-2.6-11.3-1.4-16.9c3.6-16.4,18.2-27,35-25.5
				c2.3,0.2,3.9,0.4,5.5-2.1c2.2-3.5,6.5-3.4,10.2,0.1c1.9,1.7,3.2,2.3,5.7,1.1c4-2,7.5-0.8,9.5,3.1c0.9,1.7,2.1,2,3.6,2
				c4.8,0.1,8.6,5.4,5.7,10.1c0.5,2-1.4,2.1-2.4,2.9c-1.6,0.9-3.1,0.8-4.5-0.6c-1.9-1.9-0.1-3.6,0.4-5.7c-3.7-1.1-10.2,2.8-9.7-5.8
				c-4.2,2.7-7.7,2.8-10.9-0.8c-0.9-1-2.1-1.4-2.9,0.2c-1.9,3.4-4.8,2.9-7.9,2.4c-12.7-1.9-23.1,3.1-28.6,13.6
				C71.6,49.4,71,55,71.1,60.9C71.2,63.2,71.6,66,68,66.4z"/>
			<path class="st3" d="M108.2,161.8c1.2,0.5,1.8,1.4,1.8,2.7c-0.1,3-2.2,3.6-4.7,3.9c-2.1,0.2-4.2-0.1-6.3,0.3
				c-1.1,0.2-2.2,0.6-2.3,1.8c-0.1,1,0.7,1.6,1.5,2.1c8.2,5.5,30.3-0.3,35.1-9.5c-2.5-0.1-5.4,1-6.5-2.4c1.4-3.7,4.5-4.7,8-4.5
				c4.8,0.2,7.1,4.1,5.3,8.6c-0.9,2.3-2.5,4.2-4.3,5.8c-11.4,9.9-24.5,12.4-38.8,8.5c-5.4-1.4-8-4.9-7.8-8.7
				c0.2-3.9,3.6-6.8,9.1-8.1C101.6,161.5,104.9,162.3,108.2,161.8z"/>
			<path class="st4" d="M126.8,160.7c1.7,1.2,3.3,2.6,5.5,0.9c0.8-0.6,2.1-1,2.9,0c0.8,1.1-0.2,2-0.8,2.8
				c-5.4,7.1-13.1,9.9-21.5,10.9c-4.9,0.6-10,0.7-14.7-1.3c-1.6-0.7-3.8-1.3-3.6-3.5c0.2-2.4,2.4-3,4.3-3.3c1.9-0.3,3.9-0.3,5.9-0.2
				c2.4,0.2,4-0.7,5.2-2.7c0.7,0.6,1.3,1.3,2.1,1.7c1.4,0.8,3.1,2.2,4.3,0.2c1-1.6-1.1-2.1-2-2.8c-1.3-1.1-2.8-2.1-2.5-4
				c0.2-1.3,1.7-1.2,2.6-1.2c1.9-0.1,3.9-1.2,5.3,1.6c1,2.1,2.8,5.4,5.6,1.3C125.8,161,126.3,160.8,126.8,160.7z"/>
			<path class="st5" d="M138.2,40c0.6-1.1,2.4-0.6,2.8-2c6.1,2.8,8.6,8.3,9.8,14.3c2.5,12.2,0.3,23.4-8.8,32.5
				c-0.4,0.4-0.6,1-0.9,1.5c-1,0-2,0-2.9,0.1c-3.4-2.7-1.3-5,0.5-7.2c6-7,7.7-15.1,6.4-24c-0.5-3.7-2-6.9-4.5-9.7
				C139.2,44,137.8,42.4,138.2,40z"/>
			<path class="st1" d="M138.2,40c1.1,3.1,4,4.7,5.5,7.5c5.2,9.7,3.6,23.9-3.9,32.3c-1.8,2-3.6,3.8-1.6,6.6c-1,0.5-1,1.4-0.9,2.3
				c0.4,3.9-1.2,6.9-4,9.6c-3.8,3.6-4.5,4.3-9.7,4.6c-17.4,1-33.6-3.2-48.9-11.5c-1.5-0.8-3.1-2.9-4.8-0.2c-0.6,0.3-1.1,0.2-1.5-0.3
				c-2.3-3.4-1.1-7.6-2.5-11.3c-1.2-3.1,0.1-6,2-8.4c1.3-1.6,2-3,0.2-4.7c2.9-1.3,2.2-3.8,2-6.2c-1.3-16.9,9.5-29.8,26.2-31.4
				c2.9-0.3,5.7,0.1,8.5,0.8c2.9,0.7,5.1,0.7,5.3-3.1c0.1-2.4,1.9-2.5,3-1c3.4,5.2,7.2,5.6,11.9,1.8c0.3-0.2,0.9,0.1,1.7,0.1
				c-0.2,1.9-2.3,3.8-0.2,5.6c1.9,1.6,3.7,0.1,5.6-0.1c0.9-0.1,1.8-0.1,2.7,0c0.9,0.1,1.8,0.5,2.1,1.4c0.2,1-0.8,1.1-1.4,1.5
				c-1.3,0.8-2.2,1.9-1.4,3.4C134.9,40.9,136.5,41.2,138.2,40z"/>
			<path class="st6" d="M68.4,90.8c0.5,0.1,1,0.2,1.5,0.3c1.2,3.5,4.6,4.3,7.3,5.5c15.4,7,31.4,10.5,48.7,9.7
				c5.5-0.2,10.1-2.3,15.2-2.7c3.9-0.3,6.2,0.2,6.6,4.9c0.2,3.2,0.5,6.3,0.4,9.5c-0.2,4.7-1.9,8.1-7.4,8.1c-1.5,0-3.5-0.1-4.2,2
				c-0.8,2.4,1.6,2.9,2.8,4.8c-6.3,1.8-12.5,1.8-18.7,1.4c-15.6-1.1-30.8-4.1-45.6-9c-6.5-2.2-12.7-5.3-19.1-7.8
				c-3.2-1.3-3.1-2.8-0.6-4.7c0.2-0.2,0.5-0.3,0.7-0.5c1.4-1.6,5.5-1.8,3.5-5.1c-2-3.3-4.2-0.1-6.1,0.9c-2.2,1.1-3.4-0.5-4.9-1.3
				c-1.8-1-1.3-2.5-0.6-3.9c1.4-2.7,2.8-5.4,4.3-8c4.2-7.2,4.2-7.2,11.6-3.7C65.5,91.9,66.9,92.1,68.4,90.8z"/>
			<path class="st7" d="M49.9,151.2c-8.1,0.1-14-4.3-15.4-10.6c-0.9-4.5,0.3-6.5,4.9-7.1c2.3-0.3,3.4-1.5,4.2-3.5
				c1.8-4.2,4.7-5.3,8-2.4c3,2.6,5,2,7.9-0.1c4.2-3,7.4-1.5,8.6,3.5c2.4,9.7-3.3,17.6-14.2,19.7C52.3,151.1,50.6,151.1,49.9,151.2z"
				/>
			<path class="st8" d="M52.4,88.5c-2.6,3.5-5.1,6.8-6.4,10.6c-1.4,4-3.1,3.2-5.6,1.1c-2.6-2.3-6.1-4.5-5.1-8.2
				c1.1-4.1,5.4-4.2,9-4.5C46.8,87.1,49.4,87.4,52.4,88.5z"/>
			<path class="st8" d="M150.8,105.5c3.6,0.9,6.4,2.1,8.9,4.1c4.6,3.8,3.8,9-1.7,11.1c-0.6,0.2-1.2,0.3-1.7,0.5
				c-5.4,1.6-5.5,1.6-5-3.8C151.7,113.5,150.8,109.7,150.8,105.5z"/>
			<path class="st7" d="M127.9,91c-0.6,1-0.6,2.5-2.2,2.8c-7.1-1.4-14.1-0.5-21.2,0.2c-4.5,0.5-8.9-0.3-12.4-3.3
				c-5.4-4.6-12.4-5.4-18.4-8.5c-0.3-1-0.5-2.1-0.8-3.1c1.6-3.5,4.6-4.2,7.9-3.6c4.7,0.8,9.2,0.5,13.9-0.7c4.3-1.2,8.9-1,12.5,1.9
				c4,3.2,8.5,5.1,13.1,7C123.8,85.1,126.8,87.1,127.9,91z"/>
			<path class="st9" d="M127.9,91c-3.5-4.5-8.3-6.7-13.5-8.4c-2-0.7-3.8-1.7-5.4-3.2c-4.5-4.4-9.7-5.1-15.4-3
				c-3.4,1.2-6.8,1.5-10.2,0.6c-3.9-1-7.4-0.7-10.5,2.1c-1.3-3.2,0.2-6.4,3.7-5.9c8.4,1.3,16.4-0.6,24.6-1.3
				c1.6-0.1,3.6,0.2,4.8,1.1c5.9,4.9,13.2,7.1,19.6,11C128,85.4,131.3,87.3,127.9,91z"/>
			<path class="st10" d="M73.8,82.2c5.5,0.8,11,1.6,15.5,5.2c6.5,5.2,13.3,6.9,21.6,4.7c4.9-1.3,10.2-1.2,14.9,1.7
				c0.8,2.8-1,2.8-2.7,2.3c-4.9-1.6-9.7-1-14.6,0.1c-6.3,1.4-12.3,0.4-17.6-3.5c-4-3-8.2-5.4-13.3-6.3
				C75.5,85.9,73.2,85.2,73.8,82.2z"/>
			<path class="st11" d="M98.7,31.5c0.5,0.1,1.3,0,2,0.2c2.2,0.5,6,0.5,5.5,3.2c-0.7,3.4-3.7,0.3-5.6,0.1c-2.9-0.3-5.3,0.2-7.6,1.9
				c-1,0.8-2.1,1.8-3.1,0.6c-1-1.2-0.1-2.5,1-3.5C93.1,32.4,95.7,31.6,98.7,31.5z"/>
			<path class="st12" d="M125.7,39.8c4.2,0,8.9,3.8,9.8,8c0.3,1.2,0.7,2.5-0.9,3c-1.2,0.4-1.9-0.7-2.3-1.7c-1.5-3.6-3.7-6.1-8-6
				c-1,0-2.3-0.7-2-1.9C122.7,39.7,124.3,39.7,125.7,39.8z"/>
			<path class="st13" d="M117.2,71.3c-0.6,1.3-0.7,3.3-2.8,3.4c-1.8,0.1-2.3-1.2-2.3-2.6c0.1-1.5,0.4-3,2.4-3.2
				C116.2,68.8,116.9,69.7,117.2,71.3z"/>
			<path class="st14" d="M98.1,65.9c0,1.3-0.7,2.8-2.3,3.1c-1.4,0.3-2.6-0.8-2.7-2.3c-0.1-1.9,1.1-3.2,2.9-3.4
				C97.3,63.1,98.1,64.2,98.1,65.9z"/>
			<path class="st15" d="M100.9,115.8c-0.1,4-1.8,5.8-5,5.9c-2.3,0-4,0.2-4.7,2.9c-0.3,1.5-1.8,2.1-3.3,1.5c-1.8-0.7-2-2-1.4-3.7
				c0.9-2.7,1.7-5.5,2.8-8.1c0.8-1.9,0.7-4.8,4.3-3.9C97,111.3,100.6,112,100.9,115.8z"/>
			<path class="st16" d="M97.2,116.7c-0.2,0.8-0.8,1.2-1.6,1.3c-0.9,0.1-1.6-0.3-1.5-1.2c0.1-0.8,0.2-2,1.5-1.7
				C96.4,115.3,97.1,115.7,97.2,116.7z"/>
		</g>
	</g>
</g>
</svg>
