<?xml version="1.0" encoding="utf-8"?>
<!-- Generator: Adobe Illustrator 25.4.1, SVG Export Plug-In . SVG Version: 6.00 Build 0)  -->
<svg version="1.1" xmlns="http://www.w3.org/2000/svg" xmlns:xlink="http://www.w3.org/1999/xlink" x="0px" y="0px"
	 viewBox="0 0 200 200" style="enable-background:new 0 0 200 200;" xml:space="preserve">
<style type="text/css">
	.st0{fill:#FFFFFF;}
	.st1{fill:#85C494;}
	.st2{fill:#FEFEFE;}
	.st3{fill:#231815;}
	.st4{fill:#231916;}
	.st5{fill:#281F1D;}
	.st6{fill:#2B2220;}
	.st7{fill:#2B2321;}
	.st8{fill:#2C221F;}
	.st9{fill:#2F2422;}
	.st10{fill:#2D221F;}
	.st11{fill:#1F1411;}
	.st12{fill:#EEF7FD;}
	.st13{fill:#FDFDFD;}
	.st14{fill:#FDFCFC;}
	.st15{fill:#DD1F1A;}
	.st16{fill:#E7CD9A;}
	.st17{fill:#DC1F1A;}
	.st18{fill:#FCFCFC;}
	.st19{fill:#E5CC99;}
	.st20{fill:#E6CC99;}
	.st21{fill:#F0F0F0;}
	.st22{fill:#E3C997;}
	.st23{fill:#E4CA97;}
	.st24{fill:#EEEDED;}
	.st25{fill:#DA2520;}
	.st26{fill:#DEC493;}
	.st27{fill:#D3BB8C;}
	.st28{fill:#D72520;}
	.st29{fill:#DDC493;}
	.st30{fill:#DFE0E0;}
	.st31{fill:#201411;}
	.st32{fill:#EFD59F;}
	.st33{fill:#E5C5C4;}
	.st34{fill:#1E1311;}
	.st35{fill:#CFB78A;}
	.st36{fill:#CAB286;}
	.st37{fill:#E5E4E4;}
	.st38{fill:#1E1310;}
	.st39{fill:#1F130F;}
	.st40{fill:#D3D1D1;}
	.st41{fill:#A29E9D;}
	.st42{fill:#969190;}
	.st43{fill:#D5D3D2;}
	.st44{fill:#7F7978;}
	.st45{fill:#766F6D;}
	.st46{fill:#A49F9E;}
	.st47{fill:#2F2522;}
	.st48{fill:#2B201E;}
	.st49{fill:#3E3532;}
	.st50{fill:#372D2A;}
	.st51{fill:#2A201D;}
	.st52{fill:#291F1C;}
	.st53{fill:#3A302D;}
	.st54{fill:#302623;}
	.st55{fill:#3D3027;}
</style>
<g id="Capa_2">
	<polygon class="st0" points="81.5,38.8 72.4,38.8 53.2,51.2 45,75.4 44.4,90.7 45,94.2 44.4,108.9 62.7,119.4 82.9,122.6 
		106.2,122.9 128.3,108.9 124.9,97.9 122.4,77.1 121,62.3 106.2,43.3 	"/>
	<path class="st1" d="M93.4,71.9"/>
</g>
<g id="Capa_1">
	<g>
		<g>

			<path class="st3" d="M171.1,158.3c5.1,2,6.9,6.7,11.6,8.3c3.2,1,4.5,6.6,4.1,9.8c-0.6,5.6-4.4,5.6-8.5,5.9
				c-9.5,0.7-19,0.3-28.5,0c-9.7-0.3-19.2,1.7-28.8,0.8c-9.8-0.9-19.5-0.6-29.3-1.3c-5.5-0.4-11.2,0.9-16.4-0.3
				c-8.1-1.8-16-0.7-24,0.1c-6.3,0.7-11.8-2-17.8-2.7c-1.9-0.2-3.7-1.6-1.5-3.6c1.9-1.7,1-3.4,0.4-4.8c-3.3-8.2-1.9-14.6,4.5-20.6
				c2.8-2.6,5.6-5.1,9-7.4c-5.2-4.6-10.3-9-13.1-15c-4-8.4-1.9-14,6.3-18.2c2-1,1.2-1.7,0.7-3c-1.8-4.4-0.7-9.2,2.5-11.2
				c1.6-1,3.4-1.4,4.9-0.1s0.3,2.7-0.5,4c-1.9,3.2-1.2,6.3,1.3,8.5c7.1,6.4,15.5,10.2,24.9,11.7c2.6,0.4,5,1.9,7.8,1.4
				c1-0.2,1.9,0.9,2.2,2c0.4,1.3,0,2.4-1.3,2.9c-2.5,1-1.3,2.1-0.1,3.1c3.8,3.5,8,2.9,12.4-2c-1.8-0.7-4.5-0.8-3.8-3.6
				c0.6-2.5,2.9-2.3,4.8-2.2c10.5,0.3,19.6-3.3,27.7-9.9c3.2-2.7,3.8-6.3,1.2-9.6c-1.3-1.6-2.5-3.3-0.7-5.1c1.7-1.7,3.4-0.1,4.8,0.8
				c5.1,3.2,4.8,10.9-0.3,16.8c-3.4,3.9-8.1,5.7-13.1,8.7c5.8,1,10.5,2.8,15,4.8c4.3,1.9,8.5,4.2,10.5,8.9c1.2,2.9,4.3,2.2,6.5,2.6
				c0.7,0.1,2.3-2.1,0.4-4.2c-4.7-5.1-3.9-12.4,1.3-16.3c6.2-4.5,14.9-3.5,18.7,2c1.9,2.8,3.5,5.4,1.6,8.9c-0.8,1.5,0,2.5,1.5,3.5
				c4.8,3.1,8,7.2,8.5,13.3C178.8,151.4,177,155.4,171.1,158.3z"/>
			<path class="st3" d="M57.7,45.1c3.6-3,6.6-5.4,10.5-6.4c1-0.3,2-0.7,3-0.8c1.8-0.2,3.7-0.3,4.2,2.2c0.5,2.4-1.3,3.3-3.1,3.6
				c-8.8,1.2-14.7,7.3-18.2,14.2c-3.9,7.8-8.2,16.3-5.8,25.9c0.2,0.7,0.2,1.5,0.2,2.2c0,2.7-1.1,4.8-4.1,4.7c-3-0.1-3.2-2.6-3.2-4.9
				c0-7.9,1.2-15.7,3.2-23.3c0.1-0.3,0-0.7,0.2-0.9c5-4.2,1.2-8.2-0.1-12.4c-3-10.3-0.2-20.3,2.6-30.2c1.3-4.6,3.8-8.7,7.5-11.8
				c3.6-3,4.9-2.7,6,1.8C63.3,21,61.7,32.6,57.7,45.1z"/>
			<path class="st4" d="M121,85.2c-1.1-5.9-0.8-12.1-2.4-17.9c-2.2-7.6-5.4-14.6-12-19.6c-1.8-1.4-3.7-2.4-6.1-2.6
				c-1.9-0.1-2.4-1.5-2.4-3.2c0-2,1.5-2.4,3.1-2.4c1.8,0,3.4,0.5,5,1.5c7.4,4.7,15,4.2,22.9,1.2c8.8-3.3,17.6-3.2,26.1,1
				c0.3,0.1,0.6,0.2,0.8,0.4c2.7,2,5.5,4.2,5.4,7.7c-0.2,3.1-3.6,3.5-6,4.5c-9.7,3.9-19.2,2.1-28.7-0.9c-2.4-0.7-4.8-1.6-7.6-2.5
				c2,5.3,4.3,10.1,5.6,15.2c1.3,5.2,2,10.6,2.4,15.9c0.1,1.8,0.4,3.5,0.6,5.2c0.3,2.6-1.3,4-3.4,4.5c-1.6,0.4-3.4,0-3.1-2.5
				C122,88.8,120.7,87,121,85.2z"/>
			<path class="st5" d="M74.2,29.7c2.5,0.8,5.4,0.5,7.7,2.5c1.1,1,1.3,2,0.9,3.1c-0.6,1.5-1.8,1.4-2.9,0.7c-1.7-1.2-3.4-0.8-5.1-0.3
				c-1.6,0.5-3.2,1.2-4.4-0.4c-0.7-1-0.8-2.2-0.4-3.4C70.7,29.9,72.6,30.2,74.2,29.7z"/>
			<path class="st6" d="M79.4,26c0.7-1.1,1.4-2.3,2.7-2.7c1.8-0.6,3.3,0.3,4.2,1.7c1,1.8,1.7,3.7,2.2,5.7c0.3,1.2,0,2.8-1.4,3.5
				c-1.5,0.7-1.7-1-2.5-1.7C82.6,30.6,80.4,28.9,79.4,26z"/>
			<path class="st7" d="M97,35.6c-1.6-0.1-3.6,0.3-5.4,1.3c-1.1,0.6-1.9,0.4-1.8-1c0.2-2.8,2.4-4.3,4.4-5.6c1.6-1.1,3.7-1.2,5.4-0.1
				c1.4,1,3.3,2.2,2.4,4.2C101.2,36.4,99.3,36.3,97,35.6z"/>
			<path class="st8" d="M87,106.4c-2.2-0.5-5-0.5-5-3.4c0-2.8,2.6-3.3,4.8-3.4c2.3,0,4.6,0.8,4.6,3.6C91.5,106.1,89,106,87,106.4z"
				/>
			<path class="st9" d="M62.9,95c0.1-2.1,0.2-4.4,2.8-4.4c2.9-0.1,3.5,2.3,3.5,4.7c0,2-0.3,4.2-2.8,4.3C63.4,99.7,63.4,96.9,62.9,95
				z"/>
			<path class="st10" d="M102.3,96.2c0.3-2.5,0.8-4.7,3.5-4.7c3,0,2.9,2.4,2.9,4.5c0,2.2-0.5,4.5-3.2,4.5
				C102.6,100.5,102.7,97.9,102.3,96.2z"/>
			<path class="st11" d="M121,85.2c1.5,1.8,1.5,3.6,0.1,5.4C120.5,88.8,120.2,87,121,85.2z"/>
			<path class="st12" d="M85.8,38.4c-1.5,0.4-2.4,0.7-3.2-0.2C83.6,37.7,84.5,37.8,85.8,38.4z"/>
			<path class="st13" d="M49.8,142.8c2.1-3.4,0-4.9-2-6.5c-3.7-3-7-6.4-9.5-10.5c-2.1-3.5-2.2-7.3,0.8-10.2c2.7-2.6,5.9-2.3,9.3-0.5
				c5.9,3.3,11.9,6.5,19.2,8.7C60.5,129.4,56.6,137.2,49.8,142.8z"/>
			<path class="st13" d="M134.8,158.3c3.4,4.6,3,9.8,1.4,14.8c-1.2,3.7-4.9,5.2-8.6,5.1c-5.8-0.1-11.7,0.4-17.4-1.9
				c-1.3-0.5-2.5-0.8-2.6-2.5c-0.1-3.7-0.5-7.9,1.5-10.8c1.8-2.7,2.6-6.3,5.7-8.1c0.8-0.2,1.1,0.3,1.3,0.9c0.3,1.2-0.6,2.8,1,3.5
				c1.8,0.7,2.5-1.1,3.6-1.9c0.4-0.2,0.8-0.3,1.2-0.4c1.8,0.2,3.6,0.4,5.5,0.2c0.7,0.1,1.1,0.6,1.3,1.2c0.2,1.1-0.2,2.5,1.1,3
				s2.2-0.3,2.7-1.5C133.1,159,133.3,157.7,134.8,158.3z"/>
			<path class="st14" d="M70.1,169.4c-2-0.2-3.7,0.2-5.2,1.7c-5.2,5.3-18.5,5.8-24.2,1.1c-3.4-2.9-5-9.1-3.5-13.7
				c1.5-0.4,1.7,1.3,2.7,1.7c3.7,1.2,3.3-1.6,3.8-3.7c0.3-0.6,0.7-1,1.3-1.1c2.4,0.8,4.9,1.5,7.3,0.1c0.3,0,0.6,0,0.8,0.1
				c1.5,0.5,2.8,2.5,4.7,1.1c1.6-1.3,0.1-3,0.3-4.5c0.2-0.6,0.5-1.2,1.3-0.8c4.4,2.7,4.6,7.4,5.3,11.7c0.5,3.4,2,4.8,5.3,4
				C70.8,167.8,70.7,168.6,70.1,169.4z"/>
			<path class="st15" d="M60.1,145.7c-1.7-3.4,1-5.4,2.6-7.7c5.8-0.9,11.5,1,17.1,1.6c8.5,1,16.8-0.2,25.2-0.9
				c2.5-0.2,4.9-1.3,7.5-0.4c1.4,2.2,3,4.3,3.3,7c-1.7,2.5-4.7,1.6-7,2.6C92.4,149.7,76.1,149.9,60.1,145.7z"/>
			<path class="st16" d="M171.9,151.3c-0.8,2.6-5.4,5.3-7.4,4.3c-1.6-0.8-0.7-2-0.5-3.1c0.2-0.9,0.4-1.9-0.7-2.2
				c-0.8-0.2-1.1,0.7-1.5,1.3c-2.2,3.8-4.5,4-7.9,0.9c-3.9-3.6-3.8-10.2,0.2-14.8c3.6-4,11-4.6,15-1.4c1.7,1.4,0.9,2.1-0.3,3
				c-1,0.8-2.8,1.6-1.8,3c1.3,1.7,2.3-0.4,3.1-1.1c1.5-1.3,2.3-0.8,3,0.7c0.8,1.8,1,3.7,0.6,5.6c-0.3,0.3-0.7,0.4-1.1,0.4
				c-1-0.1-2.1-0.6-2.6,0.8c-0.3,1.1,0.8,1.4,1.4,1.9C171.7,150.9,171.8,151.1,171.9,151.3z"/>
			<path class="st14" d="M60.1,145.7c4.3-1,8.4,0.6,12.6,1.1c12.2,1.6,24.5,0.6,36.7-0.1c1.7-0.1,3.6-1.5,4.7,1.1
				c-1.9,1.8-3.7,3.6-5.6,5.3c-5.4,3.5-11.8,2.8-17.6,2.7c-6,0-12.1-0.2-18-1.4c-1.6-0.3-3.3-0.3-4.5-1.6
				C65.5,150.6,63.5,147.4,60.1,145.7z"/>
			<path class="st13" d="M70.1,169.4c0-0.8,0-1.6-0.1-2.4c0.8-1.1,1.2-2.6,3.3-2.1c8.2,2.1,16.6,1.1,24.9,0.8
				c3.4-0.1,4.8,0.3,4.8,4.3c-0.1,6.5,0.3,7-5.9,6.3c-7.3-0.8-14.7-0.1-22-1.2C71,174.4,72.3,170.8,70.1,169.4z"/>
			<path class="st14" d="M112.5,138.3c-12.9,3.6-25.9,3.5-39,1.9c-3.6-0.4-7.3-0.7-10.8-2.2c1.3-2.4,3-4.5,4.9-6.4
				c5-1.3,9.3,1.2,13.9,2.4c3.9,1.3,7.9,1.3,11.8,0.3c4.8-1.3,9.6-2.6,14.6-1.8C110,134,111.1,136.2,112.5,138.3z"/>
			<path class="st17" d="M68.3,153c10,0.6,20,2.3,30,1.3c3.4-0.3,6.7-0.7,10.1-1.1c-2.7,7.4-3.9,8.3-12.4,8.1
				c-6.7-0.2-13.4-1-20.2-1.6C71.6,159.3,69,157.2,68.3,153z"/>
			<path class="st18" d="M111.7,128.1c7.2,0.2,13.3,2.1,18.8,5.2c5.2,2.9,5.6,5.9,2.2,10.9c-0.6,0.8-0.9,1.8-1.4,2.9
				c-2.3-1.4-4.5-2.4-7.2-2c-1.2,0.2-1.9-0.4-2.3-1.6C119.5,138.1,115.5,133.7,111.7,128.1z"/>
			<path class="st19" d="M145.6,158.6c-4,0-9.1-4.9-9.2-8c-0.1-3.9,2.1-7.3,4.8-7.5c4.1-0.3,8.4,5.3,8.3,10.9
				C149.5,157,147.7,158.6,145.6,158.6z"/>
			<path class="st20" d="M156.4,119.4c2.6,0.2,4.8,1.3,6.5,2.8s1.2,3.5,0.9,5.4c-0.3,2-1.8,1.9-3.2,2.4c-1.7,0.5-3.5,0.1-5.2,1
				c-1.9,1.1-4.1,1.4-5.7-0.3c-1.9-2-1.4-4.4-0.3-6.6C151,121.3,153.5,119.9,156.4,119.4z"/>
			<path class="st21" d="M45.1,155.8c-0.3,0.4-0.7,0.8-1,1.2c-3.1-0.5-4,1.8-5,4.1c-1.3-0.3-0.9-2-1.9-2.6c0.8-2.5,2.6-4.2,4.3-6
				c5.7-6.3,11.1-6.6,17.9-1.2c-0.3,0.3-0.6,0.7-0.9,1c-1.7,1.2-3.2,2.6-5.4,2.7C49.4,150.5,48.6,150.6,45.1,155.8z"/>
			<path class="st22" d="M146.4,178c-2-0.5-5-0.6-4.9-4.7c0.1-3.4,2.8-4.4,5.2-4.3c2.6,0,4.7,1.9,4.8,4.8
				C151.6,176.4,150.3,178.3,146.4,178z"/>
			<path class="st23" d="M159.5,161.1c-2.2,1.8,0.2,2.8,0.8,4c0.7,1.5,1.7,3,0.7,4.6c-1.1,1.7-2.7,0.4-4.1,0.2
				c-4.5-0.9-6.2-2.8-4.3-5.1c1.5-1.9,3.2-3.9,5.7-4.7C159.4,159.7,159.6,160.2,159.5,161.1z"/>
			<path class="st24" d="M134.8,158.3c-1.3,0.6-1.1,1.9-1.4,3c-1.8-1.1-3.4-2.4-5.3-3.3c-0.2-0.1-0.4-0.2-0.5-0.4
				c-1.2-1.9-1.5-5.3-5.1-3.1c-0.7,0.4-1.4,0.8-2.2,1c-0.8,0.1-1.6-0.2-2.4-0.5c-0.7-0.4-1.5-0.6-1.4-1.7
				C122.5,147.5,132.2,150.2,134.8,158.3z"/>
			<path class="st25" d="M108,132.5c-4.7,1.7-9.7,2-14.6,1.8c2.1-2.1,5.1-3.2,6.6-5.8c1.6-2.7,3-2.2,4.6-0.1
				C105.7,129.7,106.8,131.1,108,132.5z"/>
			<path class="st26" d="M183.6,173.9c-0.3,2.3-1.4,4-3.8,4.1c-2.7,0.1-4-1.7-3.9-4.3c0.1-2.3,1.4-3.9,3.9-3.8
				C182.2,169.9,183.3,171.6,183.6,173.9z"/>
			<path class="st27" d="M163,177.1c-2-0.2-4.1-0.3-6.1-0.5c-0.8-0.1-1.5-0.3-1.4-1.2c0.1-1,1-1,1.7-0.9c4.1,0.7,7.9-1.7,12-1.4
				c0.9,0.1,2.1-1.1,2.8,0.2c0.5,0.9,0.8,2.1,0.5,3c-0.5,1.6-2,0.6-3.1,0.7c-0.9,0.1-1.8,0.1-2.7,0.1
				C165.4,177.2,164.2,177.2,163,177.1z"/>
			<path class="st28" d="M81.5,134c-4.8-0.2-9.3-1.3-13.9-2.4c3.5-5.3,3.7-5.3,8.5-1.2C77.7,131.8,79.7,132.8,81.5,134z"/>
			<path class="st29" d="M169.5,161.9c0.3,0.1,0.6,0,0.8,0.2c1.7,1.3,4.6,2.8,3.4,4.9c-1.1,2-4.4,2-6.8,2.1c-2,0.1-1.5-1.9-1.1-3
				c0.5-1.2,1.6-2.1,2.4-3.1C168.2,162.1,168.4,161.5,169.5,161.9z"/>
			<path class="st30" d="M144.3,162.8c1.3,0.6,3.6-0.6,3.4,1.2c-0.3,2-2.9,1.3-4.4,1.9c-1.6,0.7-1.8-0.8-1.8-1.6
				C141.3,161.3,143.8,164.1,144.3,162.8z"/>
			<path class="st31" d="M80.2,180.1c2.9,0,5.8,0,8.7,0c0,0.1,0,0.3,0,0.4c-2.9,0-5.8,0-8.7,0C80.2,180.4,80.2,180.2,80.2,180.1z"/>
			<path class="st32" d="M162.3,160.1c1.4,0.1,2.8,0.2,4.2,0.3c0.4,1.7-1.2,0.9-1.7,1.4c-1.3,0.3-2.7,1.6-3.7-0.5
				C160.9,160.3,161.2,159.8,162.3,160.1z"/>
			<path class="st33" d="M114,147.8c-1.2-1.8-3.2-0.4-4.7-1.1c2.1-0.5,4.3-1,6.4-1.5C116.7,147.2,115.8,147.8,114,147.8z"/>
			<path class="st34" d="M163,177.1c1.2-0.6,2.4-0.6,3.7-0.1C165.5,178.5,164.2,178.5,163,177.1z"/>
			<path class="st35" d="M164.8,161.8c0.6-0.5,1.1-1,1.7-1.4c1,0.5,2,1,3,1.5c-0.4,0.4-0.8,0.8-1.2,1.1
				C167.4,161.8,166.1,161.9,164.8,161.8z"/>
			<path class="st36" d="M172.9,147.7c0.3,0,0.6,0,0.9,0c-0.1,1.4,1,3.5-1.9,3.5v0.1C170.9,149.8,171.6,148.7,172.9,147.7z"/>
			<path class="st11" d="M36.1,118.5c0.1,2.1,0.5,3.2-0.4,4.4C35.2,121.5,35.1,120.3,36.1,118.5z"/>
			<path class="st37" d="M116.7,153.3c0.7,0.3,1.3,0.6,2,0.9c-0.5,1.5-1.4,2.2-3,1.5c-0.3-0.3-0.5-0.5-0.8-0.8
				C115.2,154.1,115.9,153.6,116.7,153.3z"/>
			<path class="st35" d="M162.3,160.1c-0.4,0.4-0.8,0.8-1.2,1.3c-0.6-0.1-1.1-0.2-1.7-0.2c-0.4-0.3-0.7-0.7-1.1-1
				C159.7,158.9,161,159.2,162.3,160.1z"/>
			<path class="st38" d="M73.9,120.4c-1,0.8-1.9,0.6-2.9,0.1C71.9,119.8,72.9,120,73.9,120.4z"/>
			<path class="st38" d="M52.5,146.4c-1,0.5-2,0.6-3-0.1C50.6,145.8,51.5,145.7,52.5,146.4z"/>
			<path class="st39" d="M108.8,181.2c-1,0.7-2.5,0.6-2.6,0.2c-0.3-1.2,0.9-0.5,1.4-0.6C107.9,180.7,108.3,181,108.8,181.2z"/>
			<path class="st40" d="M50.4,48.4c0.2,1.1,0.5,2.2-0.8,2.2c-1.8,0-1.8-1.6-2.1-2.9c-0.2-1,0-2.5,1.1-2.5
				C50.6,45.3,50.1,47.3,50.4,48.4z"/>
			<path class="st13" d="M47.9,36.1c-0.6-1.6-2.6-3.4,0.7-4.3C49.3,33.4,50.1,35,47.9,36.1z"/>
			<path class="st41" d="M47.9,36.1c1.8-1.1,0.2-2.9,0.7-4.3c1.2,1,1.1,2.5,1,3.8C49.5,36.8,48.9,37.6,47.9,36.1z"/>
			<path class="st42" d="M57.1,18.6c-0.5,0.3-0.9,0.6-1.2,0.5c-0.7-0.1-0.9-0.6-0.8-1.2c0.1-0.7,0.6-1.1,1.2-0.8
				C56.6,17.3,56.8,17.9,57.1,18.6z"/>
			<path class="st43" d="M154.1,49.4c-1.2,0-2.4,0-3.6,0c-1.2-0.8-2.8,0.6-3.8-0.9c1.6-1.3,3.7-0.5,5.5-1.1
				C153,47.9,154.4,47.9,154.1,49.4z"/>
			<path class="st44" d="M129.5,48.1c2.4-1.9,4.1,0.1,5.6-0.7C133.7,49.1,132.1,48.6,129.5,48.1z"/>
			<path class="st43" d="M146.7,48.5c1.3,0.3,2.7-0.3,3.8,0.9c-1.5,0.5-3,2.2-4.6,0.3C145,48.6,146.1,48.7,146.7,48.5z"/>
			<path class="st43" d="M154.1,49.4c-0.6-0.7-1.3-1.3-1.9-2c1.4-1.8,2.6,0,3.2,0.6C156,48.5,155,49.3,154.1,49.4z"/>
			<path class="st45" d="M139.4,47.9c-0.2,0.7-0.7,0.7-1.3,0.7c-0.7-0.1-1-0.5-0.8-1.1c0.1-0.3,0.7-0.5,1-0.5
				C138.9,46.9,139.5,47.1,139.4,47.9z"/>
			<path class="st46" d="M141.5,51.2c1.6,0.4,2.8,0.7,3.8,1c0,1.1-0.7,1.2-1.2,1.1C143.1,53.3,142.3,52.8,141.5,51.2z"/>
			<path class="st47" d="M120.7,175.5c-3.2,0.1-3.7-2-3.7-3.8c0-2,1.8-3.3,3.6-3c1.9,0.3,4.4,0.9,4.3,3.7
				C124.7,175.3,122,174.9,120.7,175.5z"/>
			<path class="st48" d="M121.8,154c1.3-2.8,3.4-1.3,5.1-0.7c2.5,0.9,0.9,2.8,0.8,4.3c-1.9,2.3-3.8,1.1-5.7,0
				C120.9,156.4,121.2,155.2,121.8,154z"/>
			<path class="st49" d="M115.7,155.7c1-0.5,2-1,3-1.5c0.5,0.3,0.9,0.5,1.4,0.8c0.9,0.7,1.5,1.4,1,2.6c-0.6,2.3-1.6,4.4-4.4,3.3
				C113.9,159.8,114.2,157.8,115.7,155.7z"/>
			<path class="st50" d="M128.2,158c3-0.8,4.5,0.7,5.3,3.3c-1.1,2.8-3.2,2.1-5,1.2C126.1,161.3,127.8,159.5,128.2,158z"/>
			<path class="st37" d="M121.1,157.6c-0.3-0.9-0.7-1.7-1-2.6c0.6-0.3,1.2-0.6,1.8-0.9c0.1,1.2,0.1,2.4,0.2,3.5
				C121.7,157.5,121.4,157.5,121.1,157.6z"/>
			<path class="st51" d="M45.1,155.8c-0.3-2.9,0.6-5.3,3.8-5.3c2.5,0,4.6,1.3,4.3,4.4c-0.2,0.4-0.5,0.7-0.9,0.8
				C50,158.7,47.6,158.5,45.1,155.8z"/>
			<path class="st52" d="M55.4,169.7c0,1.6-0.7,3-3.1,2.7c-2.2-0.3-4.6-0.2-4.5-3.5c0-3,2.1-3.2,4.2-3.3
				C54.3,165.6,55.6,166.8,55.4,169.7z"/>
			<path class="st53" d="M52.3,155.7c0.3-0.3,0.6-0.6,0.9-0.8c1.4-1.6,3-2.9,5.3-2.6c2.2,2,2.2,4.3,0,5.9c-2.1,1.4-4.2,0.8-5.1-2
				C53.3,156,52.7,155.9,52.3,155.7z"/>
			<path class="st54" d="M39.1,161.1c-0.4-1.7-0.8-3.4,1-4.7c1.6-1.1,2.7-0.1,4,0.7C45,161.4,43.7,162.5,39.1,161.1z"/>
			<path class="st55" d="M172.9,147.7c-0.3,1.2-0.6,2.4-0.9,3.6c-1.4-0.1-3.1,0.6-3.6-1.5c-0.3-1.3,0.3-2.3,1.3-3.1
				C171.2,145.6,172.1,146.5,172.9,147.7z"/>
		</g>
	</g>
</g>
</svg>
