<?xml version="1.0" encoding="utf-8"?>
<!-- Generator: Adobe Illustrator 25.4.1, SVG Export Plug-In . SVG Version: 6.00 Build 0)  -->
<svg version="1.1" id="Capa_1" xmlns="http://www.w3.org/2000/svg" xmlns:xlink="http://www.w3.org/1999/xlink" x="0px" y="0px"
	 viewBox="0 0 200 200" style="enable-background:new 0 0 200 200;" xml:space="preserve">
<style type="text/css">
	.st0{fill:#FEFEFE;}
	.st1{fill:#552E31;}
	.st2{fill:#FEF7AF;}
	.st3{fill:#76322E;}
	.st4{fill:#FDE692;}
	.st5{fill:#FCF5AE;}
	.st6{fill:#F7EEAA;}
	.st7{fill:#562F31;}
	.st8{fill:#573133;}
	.st9{fill:#5E3938;}
	.st10{fill:#633F3B;}
</style>
<g>
	<g>
		<path class="st0" d="M99.5,199.9c-32.1,0-64.2,0-96.3,0.1c-2.7,0-3.3-0.5-3.3-3.3c0.1-64.5,0.1-129,0-193.5C0,0.5,0.5,0,3.3,0
			c64.5,0.1,129,0.1,193.5,0c2.7,0,3.3,0.5,3.3,3.3c-0.1,64.5-0.1,129,0,193.5c0,2.7-0.5,3.3-3.3,3.3
			C164.3,199.9,131.9,199.9,99.5,199.9z"/>
		<path class="st1" d="M161.2,123.3c8.5-6.8,14.1-4.7,16.5,5.9c1.9,8.6-2.4,17.9-10.6,22c-2.1,1.1-3.5,2.3-4.4,4.6
			c-2.9,7.8-9,12.4-16.6,14.9c-19.9,6.5-40.3,7.4-61,5.9c-2.7-0.2-5.2-0.2-8,0.6c-7.3,2-14.1,0.8-20-4.2c-3.2-2.8-6.3-4.1-10.9-3.4
			c-9.7,1.6-17.6-3.2-21-12.6c-2.9-8-4.9-16.1,2.2-23.3c0.6-0.6,0.6-1.3,0.7-2.1c1.4-11.3,6.7-20.2,16.2-26.5
			c2.3-1.5,2.6-3.5,1.8-5.5c-0.8-2.1-2.5-0.3-3.8-0.1c-12.3,1.9-21.7-11.3-17.1-24.4c3.5-9.9,11.4-15.4,20.1-20
			c7-3.8,14.6-6.5,21.4-10.8c1.6-1,3.2-1.9,3.7-4.1c0.8-3.1,3.6-4.7,6.3-6c4.5-2.2,9.4-3.2,14.4-3.8c1.5-0.2,3.1,0.2,4-2.1
			c2.4-6.4,9-7.4,12.6-1.7c2.1,3.3,4.6,4.6,8.2,5.2c4,0.7,7.8,2.2,11.4,4.3c2,1.1,4.3,2.4,4.8,4.6c1.3,5.6,5.9,7.7,10,10.3
			c9.9,6.4,20.3,12,29,20.1c4.5,4.1,7.6,8.9,7.9,15.2c0.5,11.1-6,18.1-17.2,18.1c-6.1,0-6.5,0.7-4.7,6.4
			C158.6,115,159.9,119,161.2,123.3z"/>
		<path class="st2" d="M89.1,171.6c-5.2,0.4-10.2-0.7-15.5,0.9c-6.8,2-12.9-1.6-15.8-6.9c-3.4-6.4-3-16.3,1-21.1
			c4.2-5.1,9.4-4.4,11.9,1.7c0.8,2.1,1.7,3.8,4.1,2.8c2.2-0.9,1.5-2.9,0.9-4.7c-2.9-8.5-12.1-11.2-18.8-5.3
			c-6,5.3-7.6,12.3-6.2,19.8c0.7,3.9-0.9,5.2-4.2,5.8c-5.9,0.9-10.9-0.6-14.2-5.7c-3.1-4.7-4.3-10-3.8-15.5c0.3-2.7,1.4-5,4.2-5.9
			c2.8-0.9,5-1,4.9,3.2c0,3.1,0.8,6.3,1.3,9.4c0.3,1.6,1.2,2.9,3.1,2.5c1.9-0.4,2.3-1.9,1.9-3.5c-3.2-15.6,1-29.9,7.6-43.8
			c0.6-1.2,0.6-2.3,0.5-3.5c-0.7-10.4,2.5-19.6,8.7-27.9c1.2-1.6,2.3-3.1,0.4-4.7c-2-1.7-3.4,0-4.5,1.4c-4.2,4.9-6.7,10.7-8.3,17
			c-0.8,3.4-1.9,6.4-5.9,7c-4.3,0.6-7.8-0.9-10.4-4.2c-3.4-4.2-3.2-8.9-1.4-13.7c2.2-5.6,6.4-9.5,11.2-12.7c8.9-6.1,19.5-9,28.4-15
			c1-0.6,1.8-0.8,2.9,0c5.6,4.3,12.4,5.6,19.1,6.2c12.8,1,25.7,2.4,37.7-4.2c1.2-0.7,1.9-0.4,2.8,0.3c10.1,6.7,20.2,13.2,30.2,20
			c3.6,2.5,6.9,5.5,9.1,9.4c3.4,6.1,2.6,13-2,16.5c-5,3.8-13.3,3.1-17.9-1.6c-4.9-5-6.2-11.6-7.4-18.2c-0.2-1.2-0.1-2.5-1.3-3.2
			c-1-0.6-2.1-0.6-3,0.1c-1.1,0.8-1.2,2-1,3.3c1.4,8.9,3.6,17.5,11.2,23.5c0.8,0.7,1.7,1.3,1.4,2.6c-1.9,6.5,1.8,12.1,3.3,18
			c1.6,6.3,3.7,12.5,4.4,19c0.5,4,0.2,7.8-1.2,11.5c-2.9,4.2-7.4,6.1-11.9,7.8c-17.7,6.9-36,11.5-55.1,11.6
			C90.6,171.3,89.8,171.2,89.1,171.6z"/>
		<path class="st3" d="M101,28.8c3,0.6,3.8,2.7,4.6,4.8c0.9,2.4,1.8,3.5,5.2,3.3c5.5-0.2,10.9,1.7,15.5,5.3c2.6,2.1,2.1,4-0.8,5
			c-3.4,1.2-6.9,2.6-10.4,2.7c-11.6,0.4-23.2,1.2-34.4-3.1C78.5,46,76,45.1,75.9,43c-0.1-2.5,2.5-3.3,4.6-4.2
			c4.2-1.8,8.7-2.2,13.1-3.1c0.8-0.2,1.9,0,2.6,0.4c1.3,0.8,2.5,1.7,4,0.4c1.6-1.4,1.7-3,1-4.9C101,30.8,101.1,29.9,101,28.8z"/>
		<path class="st4" d="M89.1,171.6c5.7-0.8,11.5-1.6,17.2-2.6c18.2-3.1,36.3-6.7,52.1-17.2c-1.1,5.6-4.7,9.2-9.5,11.9
			c-7.3,4-15.3,5.3-23.3,6.5C113.4,172,101.3,172.9,89.1,171.6z"/>
		<path class="st5" d="M165,146c-0.3-5-0.8-9.9-1.6-14.8c-0.5-3.1,2.6-5.2,5.1-6.7c1-0.6,1.8,0.7,2.3,1.7
			C174.3,131.7,173.7,141.5,165,146z"/>
		<path class="st6" d="M40.6,117.6c-0.8,4.1-1.7,8.1-2.4,12.2c-0.3,1.9-1.4,1.9-2.8,1.9c-1.8-0.1-2-1.2-1.6-2.4
			C35.1,124.8,36.7,120.6,40.6,117.6z"/>
		<path class="st7" d="M96.6,112.1c-0.1-7.6,7.8-14,15.4-12.4c3.5,0.7,6.5,2.3,9.4,4.2c3.4,2.2,6.7,4.6,10.2,6.6
			c1.7,1,2.7,2.2,1.8,4c-1,2-2.8,1.5-4.3,0.7c-2.4-1.3-4.6-2.8-6.9-4.3c-3.1-2.1-6.1-4.4-9.8-5.7c-3.7-1.3-6.5-0.2-8.8,2.6
			c-2.3,2.8-2.2,5.8-0.3,8.8c3.6,5.7,9,9.2,15,11.9c1.8,0.8,4.2,1.3,3.2,3.9c-1.1,3-3.4,1.8-5.3,1c-6.4-2.7-11.8-6.6-16.1-12
			C98,118.7,97,115.6,96.6,112.1z"/>
		<path class="st8" d="M100.8,77.2c2,0.3,4.1-0.3,5,1.3c0.9,1.8-0.9,2.9-2.1,4c-2.2,1.9-0.7,3.6,0.3,5.1c1.4,1.9,3.5,3.1,5.9,2.3
			c1.8-0.6,1.2-2.1,0.5-3.4c-0.6-0.9-0.6-1.8,0.3-2.3c1.1-0.7,2,0,2.7,0.9c1.2,1.7,1.6,3.6,0.5,5.5c-1.2,2.2-3.3,3-5.7,2.8
			c-3-0.2-5.1-3.4-7.5-3.5c-2.2-0.1-4.4,3.2-7.5,3.1c-2.2-0.1-4.3-0.4-5.4-2.5c-1-1.8-0.9-3.8,0.3-5.6c0.6-0.9,1.5-1.7,2.6-1.3
			c1.5,0.5,1.1,1.6,0.5,2.5c-0.7,1.1-1.1,2.2,0.1,3.2c1.1,0.9,2.3,0.5,3.4,0.1c3.8-1.4,5-4.8,2.6-7.8c-0.8-1-1.8-2.1-1.2-3.2
			C97.3,76.5,99.5,77.8,100.8,77.2z"/>
		<path class="st9" d="M78.6,74.9c-0.2,1.8-1.3,2.9-3,2.7c-1.7-0.1-2.9-1-2.8-2.9c0.1-2,1.2-3.1,3.2-2.9
			C77.8,72,78.5,73.3,78.6,74.9z"/>
		<path class="st10" d="M129.7,78.2c-0.2,1.7-1,2.8-2.9,2.9c-1.8,0.1-3-0.8-3.1-2.6c-0.1-1.9,1-3.2,3-3.2
			C128.5,75.4,129.4,76.6,129.7,78.2z"/>
	</g>
</g>
</svg>
