<?xml version="1.0" encoding="utf-8"?>
<!-- Generator: Adobe Illustrator 25.4.1, SVG Export Plug-In . SVG Version: 6.00 Build 0)  -->
<svg version="1.1"
	 id="svg5637" xmlns:cc="http://creativecommons.org/ns#" xmlns:dc="http://purl.org/dc/elements/1.1/" xmlns:inkscape="http://www.inkscape.org/namespaces/inkscape" xmlns:rdf="http://www.w3.org/1999/02/22-rdf-syntax-ns#" xmlns:sodipodi="http://sodipodi.sourceforge.net/DTD/sodipodi-0.dtd" xmlns:svg="http://www.w3.org/2000/svg"
	 xmlns="http://www.w3.org/2000/svg" xmlns:xlink="http://www.w3.org/1999/xlink" x="0px" y="0px" viewBox="0 0 1000 576.7"
	 style="enable-background:new 0 0 1000 576.7;" xml:space="preserve">
<style type="text/css">
	.st0{fill:#FFFFFF;}
</style>
<sodipodi:namedview  bordercolor="#666666" borderopacity="1.0" fit-margin-bottom="0.5" fit-margin-left="0.5" fit-margin-right="0.5" fit-margin-top="0.5" id="base" inkscape:current-layer="layer1" inkscape:cx="767.40241" inkscape:cy="156.17415" inkscape:document-units="px" inkscape:pageopacity="0.0" inkscape:pageshadow="2" inkscape:window-height="969" inkscape:window-maximized="0" inkscape:window-width="1058" inkscape:window-x="858" inkscape:window-y="-21" inkscape:zoom="0.52636719" pagecolor="#ffffff" showgrid="false">
	</sodipodi:namedview>
<g>
	<path class="st0" d="M707.7,211.6c16,0,28.9-11.8,28.9-26.3s-12.9-26.2-28.9-26.2c-16,0-29,11.7-29,26.2
		C678.8,199.9,691.7,211.6,707.7,211.6 M219.7,190c-7.3,4.8-16.8,4.7-24.1-0.2c-5.7-4.2-10.8-10.4-17.5-12.9
		c-14.4-7.1-35.6-1.7-46.2,2.1c-10.6,3.7-22,9.2-31.6,18.7c-2.8,2.7-8.9,10.9,4.8,17.5c13.7,6.5,56,22.1,66.8,26.1
		c10.8,4.1,26.8,11.8,36.5,23.7c7.9,9.6,10.9,22.8,8.5,37.5c-4.9,28.7-25,46.6-43.8,57.4c-20.9,11.8-36.8,14.5-50.9,15.6
		c-14,1.2-33.8-0.8-50.1-7c-12.5-4.8-24.1-14.2-30.4-26.4c-5.2-9.9-7.8-23-1-36.1s22.8-18.1,32.4-16c9.6,2.2,13.8,6.4,16,11.5
		c3.3,7.6-0.2,14.6,3.8,22.1c5.8,10.7,20.5,10.5,32.5,9.7c17-1.2,37.4-13.4,44.2-28.1c2.6-5.6,3.6-10.5-0.8-15.2
		c-5.6-6-13.5-8.3-21.7-11.4c-14.4-5.6-39.8-14.5-59.8-21.5c-17.9-6.6-40.5-18.2-43.8-40.7C40,193,54.3,173.4,73.1,161.4
		c24-15.8,51.3-25.9,79.8-29.7c24.8-3,50.9-0.3,69.7,15.6c8.4,7.5,11.7,19,8.1,29.9c-1.9,5.2-6.2,9.8-11,12.8 M930,278
		c4.4-7.2,5.1-18.7,0.5-25.9c-4.1-6.6-11.3-9.6-18.5-8.6c-13.7,2.3-25.3,10.1-37.5,16c-11.6,6.4-24.7,18-38.7,9.7
		c-7.8-6-11.8-14.9-10.2-24.7c-1.2-1.2-2.9-1.5-4.5-1.5c-6.4-0.2-12.8,3.6-16.3,9.3c-7.1,12.5-4.1,30-0.8,43.4
		c4.8,15.4,12.1,30.1,24.8,41.7c4.8,4.2,12.7,4.7,18.9,2.7c17.3-5.3,33.9-13.3,48.6-25.2c9.6-7,18.2-15.3,25.6-24.5
		C925,286.5,927.5,282.2,930,278 M939.8,340.9c-33.5,30.9-67.3,42.7-81.1,45.4c-13.1,2.5-26.8,3.4-41-2.6
		c-9.8-4.2-16.1-9.2-23.3-15.5c-7.4-6.8-12.9-14.6-17.7-22.7c-0.3-0.6-1.5-0.5-1.9-0.2c-13.3,6-27,10.7-40.7,15.1
		c-4.8,1.5-9.9,2.5-14.9,2.5c-20.5,0-28.1-13.9-29.1-15.2c-0.6-1.2-1.5-1.5-3.2-0.8c-13.3,5.3-28.4,11.5-40.5,13.7
		c-12.2,2.3-17,4.6-30.7-5.4c-12.4-9-12-21-12.2-25.2c-1-7.4,1.9-42.6,2.5-57.1c-0.2-2.1-1-4.1-3.3-5.2c-2.3-1.2-12,0-13.7,0.2
		c-2.1,0.2-2.9,0.8-3.6,2.7c-6.4,23.1-13.5,45.9-25.5,66.6c-6.2,10.4-15.3,22.3-29,25.1c-15.8,3.4-27.6-12.2-35.4-23.5
		c-7.7-11.3-14.7-21-16.2-23.2c-1.7-2.1-4.2-3.3-7.9,1.5c-3.3,4.2-23.9,41.1-28,43.9c-6,4.1-9.9,0.3-13.1-4.2
		c-2.3-3.2-20.1-38.8-21.5-41.4c-1-2-3.3-6-8.7,1.2c-10.7,13.5-23.7,33.8-31.3,40.9s-12.9,6.4-19.4,0.3
		c-7.2-6.8-13.3-17.9-17.5-23.6c-2.3-3.2-4.2-7.2-8.6-1.9c-6.8,8-18.7,21.8-31.8,27.7c-15.6,6.1-34.2,1.7-46.3-9.7
		c-9.5-10.2-13.9-22.7-15.2-36.4c-1-17.6,1.7-34.5,7.7-49.6c7.4-19.3,21.2-38.9,40.1-50c18.9-11,47.5-11.4,63.9-0.3
		c8.6,5.8,12.9,14.4,11.2,22.3c-1.9,7.9-6.2,16.6-14.2,19.1c-11.3,2.7-21.1-5.9-30.5-6.8c-9.5-0.8-19.6,8.1-25,17.2
		c-6.8,11.3-11.6,26.6-11.1,37.6c0.6,11.2,11.4,11.8,13.9,9.6c6.5-5.6,14.3-14.4,20.3-22.2c5.4-6.5,10.1-14.5,17.5-19.2
		c3.3-1.5,7.8-1.5,11,0.5c6.1,3.7,11.6,12.2,16.9,20.3c5.2,8,9,5.2,11.7,1.8c9.1-12,24.1-31,36.7-46.4c3.6-4.1,8.5-8.4,14.3-7
		c3.6,1.2,6.6,4,8.7,7.5c5.8,9.3,11,19.1,16.8,28.6c0.6,1,3,4.8,7.2-0.6c10.8-13.9,14.8-23.5,25.5-33.4c2.5-2.3,6.8-2.7,10.4-1.5
		c3.7,1.3,9.3,9.1,13.8,15.5c4.6,6.8,17.4,29.1,28,42.3c1,1,2.2,2,4.2,1.3c3.1-1.3,4-4.7,6.8-9.2c3.4-5.3,7.5-17.8,9.5-27.4
		c0.2-0.6-0.6-1.3-1.2-1.5c-11-5.3-17.6-16.8-16.7-28.9c0.6-10.2,6.5-19.9,16.9-24.3c10.4-4.4,23.2-3.7,32.4,3.1
		c4.7,3.4,6.2,7.4,8.2,12c0.8,1.5,2.1,1.2,2.1,1.2c14.6-0.6,28.4-2.1,43.2-0.8c7.8,1,15.2,6,18.7,13.4c3,7.7,1.9,16.2,1.9,25
		c-0.6,13-1.2,27.3-2.1,39.3c-0.8,11.2,9.9,8.9,12.1,8c2.7-1.2,13.4-5.2,19.9-9.2c0,0,0.8-0.3,0.8-1.5c0.2-21.1-0.5-41.7,3.3-61.9
		c1-6.8,5.9-12.7,14-14.7c8.1-2.1,18.1-1.2,24.4,4.8c3.7,3.7,4.8,8.3,5.3,13.2c0.3,5-1.5,40.4-1.3,60.9c0,3.3,0.8,6.8,3.9,8.6
		c3.7,1.7,7.3,0.2,11-1.2c3.7-1.3,10-3.5,14-6.4c1.2-0.6,1.2-2.1,1-2.6c-3-18.5-4.8-39.4,0.2-57.7c5.2-18.9,14-32,33.8-43.2
		c12.2-6.8,31-7.5,46.1-1.7c6.1,2.3,14.8,7.2,17.3,9.9c1.2,1.3,2.6,0.8,4.6-0.2c25.2-12,55.3-23.9,83.2-11.2
		c23.6,10.8,39.1,34,39.1,58.7c0,19-8.3,55.1-41.8,86"/>
</g>
</svg>
