<?xml version="1.0" encoding="utf-8"?>
<!-- Generator: Adobe Illustrator 25.4.1, SVG Export Plug-In . SVG Version: 6.00 Build 0)  -->
<svg version="1.1"
	 id="svg5637" xmlns:cc="http://creativecommons.org/ns#" xmlns:dc="http://purl.org/dc/elements/1.1/" xmlns:inkscape="http://www.inkscape.org/namespaces/inkscape" xmlns:rdf="http://www.w3.org/1999/02/22-rdf-syntax-ns#" xmlns:sodipodi="http://sodipodi.sourceforge.net/DTD/sodipodi-0.dtd" xmlns:svg="http://www.w3.org/2000/svg"
	 xmlns="http://www.w3.org/2000/svg" xmlns:xlink="http://www.w3.org/1999/xlink" x="0px" y="0px" viewBox="0 0 1000 576.7"
	 style="enable-background:new 0 0 1000 576.7;" xml:space="preserve">
<style type="text/css">
	.st0{fill:#FEFEFE;}
	.st1{fill:#FE0051;}
	.st2{fill:#FB0050;}
	.st3{fill:#F8004F;}
	.st4{fill:#010101;}
	.st5{fill:#FDFDFD;}
</style>
<sodipodi:namedview  bordercolor="#666666" borderopacity="1.0" fit-margin-bottom="0.5" fit-margin-left="0.5" fit-margin-right="0.5" fit-margin-top="0.5" id="base" inkscape:current-layer="layer1" inkscape:cx="767.40241" inkscape:cy="156.17415" inkscape:document-units="px" inkscape:pageopacity="0.0" inkscape:pageshadow="2" inkscape:window-height="969" inkscape:window-maximized="0" inkscape:window-width="1058" inkscape:window-x="858" inkscape:window-y="-21" inkscape:zoom="0.52636719" pagecolor="#ffffff" showgrid="false">
	</sodipodi:namedview>
<g>
	<g>
		<path d="M818.8,302.6c-10.6,1.2-21.2,0.2-31.8-0.5c-5.6-0.4-11.1-0.3-16.7,0.3c-3.3,0.4-4.6,1.8-4.9,5.3c-0.6,7-1.8,14-2.8,21.1
			c-1.3,9.1,0.3,11.5,9.7,13.2c8.5,1.5,16.8,3.6,24.7,7c3.1,1.3,7.6,2.2,6.3,7c-1.2,4.7-5.6,3.8-8.9,3.5c-8.3-0.8-16.6-2-24.8-3.2
			c-11.4-1.7-12.1-1.3-16.3,9.3c-2.4,6.1-4.9,12.2-8.2,17.9c-2.6,4.5-1.6,6.8,2.6,8.9c6.1,3,12.2,6.1,18.2,9.5
			c5.1,2.8,10,5.9,14.8,9.2c3.2,2.2,4.5,5.6,2.5,9.3c-1.9,3.6-5.3,3.8-8.6,2.4c-6.7-2.8-13.4-5.8-20-9c-20-9.8-19.9-9.8-36.3,4.9
			c-4.7,4.2-9.6,8.3-14.8,11.9c-3.6,2.4-4.1,4.3-2.2,8.4c8.3,18.3,7.4,36.3-3.6,53.5c-15.3,23.8-41.9,30-68.4,15.3
			c-4-2.2-7.5-2.9-12.1-2c-27.3,5.4-47.8-5.7-58.2-31.5c-1.3-3.3-2.8-4.2-6-4.1c-19.3,0.1-38.5-0.7-57.6-3c-3.2-0.4-4.3,0.8-5.2,3.7
			c-10.4,31.8-32.7,44-65.4,36c-3.6-0.9-6.8-1-10.1,1.2c-3.2,2.1-6.9,2.9-10.8,2.8c-3.4-0.1-7.3-1.4-9.5,3.4c-0.5,1.1-4.2,1-6.5,1.1
			c-23.4,0.5-44.1-17.1-50.1-41.9c-3.7-15.2-1-29.1,7.4-42.1c2.3-3.5,2.2-5.1-1.6-7.6c-6.6-4.2-12.9-9-18.7-14.2
			c-3.8-3.4-7.3-3.8-11.5-1.7c-8.4,4.2-16.9,8-24.8,13.1c-4.2,2.7-8.8,4.9-13.3,7.1c-2.8,1.4-6.4,2.2-8.4-0.7
			c-2.1-3.1-1.5-7.1,1.7-9.6c6-4.6,12.1-9.1,18.5-13.1c5.3-3.4,11-6.2,16.6-9.1c3.5-1.8,5-3.2,2.1-7.3c-5-7-9.3-14.5-13.6-21.9
			c-2.4-4-5.3-5.6-10-4.8c-7.7,1.2-15.6,1.7-23.4,2.8c-3,0.4-6,0.7-6.9-2.7c-0.8-3,0-5.9,3.3-7.7c6.8-3.7,14.2-5.2,21.6-6.8
			c5.5-1.2,7.1-3,5.2-8.8c-2.4-7.4-3.6-15.2-5.2-22.9c-1.9-9.2-3.3-10.4-12.7-9.7c-10.9,0.7-21.7,1.9-32.6,2.7
			c-3.8,0.3-8.7,1.8-9.5-4.4c-0.7-5.5,3.4-7.9,7.7-8.7c7.9-1.5,16-2.4,24.1-3.4c4.8-0.6,9.6-0.9,14.4-1c4.3-0.2,6.2-1.9,6.3-6.5
			c0.8-32.8,10.3-63.2,26.7-91.5c1.9-3.3,1.2-6,0.3-9.3c-6.4-23-8.8-46.2-3.5-69.8c2.2-9.9,6.4-19.2,10.9-28.2
			C319.4,65,332.6,58.2,355.4,63c24.1,5,47.1,13.4,68.8,25.3c5.2,2.9,10.4,3.7,16,2.6c24.8-4.6,49.9-5.3,75-5
			c4.6,0.1,7.4-1.3,10-5.1c5.7-8.4,12.3-16.1,20-22.8c18.4-15.8,40.1-16.9,60-3.1c7.4,5.1,13.9,11.2,19,18.5
			c3.6,5.3,7.2,5.4,12.7,3.4c17.1-6.3,34.3-12.4,52.4-15.2c1.3-0.2,2.5-0.5,3.7-0.6c31-3.5,39.9,2.2,49.9,32
			c4.8,14.1,6.7,28.5,6.1,43.3c-0.1,2.8,0.1,5,2.2,7.5c15.7,18.6,18.4,43.6,5.7,65c-5.3,9-6,16.4-2.1,25.9
			c5.9,14.3,8.7,29.6,10.4,44.9c0.6,5.2,2.6,7,7.4,7.2c9.1,0.4,18.2,1.3,27.3,1.7c6.7,0.3,12.9,2.1,18.8,5.1
			C818.8,296.5,818.8,299.6,818.8,302.6z"/>
		<path class="st0" d="M420.2,395c-21.7,0.1-38.6,4.9-53.7,15c-3.5,2.3-6.1,2.8-9.5,0.2c-4.6-3.5-9.4-6.8-14.2-10.2
			c-3.7-2.7-3.9-4.9,0.7-6.9c2.8-1.2,5.4-2.7,7.9-4.4c2.1-1.4,3.9-3.4,2.7-6.4c-1.2-2.9-3.3-4.5-6.6-3.7c-4.9,1.2-9.9,2.3-14.6,3.8
			c-5,1.7-8.7,0.7-11.9-3.7c-4.3-6-8.3-12.1-11.6-18.7c-1.8-3.6-1.2-5.5,3-6.4c3.7-0.8,7.2-2.5,10.8-3.4c2.9-0.7,4.7-1.9,4-5.1
			c-0.6-2.8-2.5-4.3-5.5-4.2c-4.3,0-8.7-0.6-12.9,0.1c-5.6,1-7.7-1.6-9.4-6.3c-2.4-7-3.6-14.2-4.9-21.4c-1.4-7.1,1.9-8.3,7.8-7.8
			c5.3,0.5,10.6,0.5,15.9,0.8c3.7,0.2,7.1-1,7.7-4.6c0.7-4-3-5.7-6.2-6.4c-6.6-1.6-13.3-3.1-20.1-3.9c-5.1-0.6-6.8-2.6-6.7-7.7
			c0.6-32,10.6-61,27.2-88.1c3.7-6,7.8-11.9,11.9-17.6c2.5-3.4,3.8-6.7,0.9-10.3c-3-3.6-6.5-3.5-10-0.8c-3,2.3-4,0.9-5.3-2
			c-9.4-21.2-2.5-61.7,13.3-79c6.4-7,14.5-6.4,22.6-5c17.2,2.8,32.9,9.6,48.5,16.9c5.7,2.7,11.6,5.3,16.6,9.1
			c6.3,4.7,12.8,5.3,20.1,3.6c21.9-4.9,44.1-6.3,66.5-6.2c5.7,0,6.4,1.7,4.6,6.7c-5.8,15.7-8.6,31.7-4.9,48.4
			c4.8,21.8,22.7,36.3,45,36.9c11.8,0.3,23.2-1.6,34.3-5.6c3.4-1.2,5.7-1.8,8.1,2.2c9,14.7,22.9,22.5,39.5,25.6
			c3.7,0.7,5.7,2.1,7.4,5.3c4,7.1,8.8,13.6,14.5,19.5c15.8,16.1,34.9,19.8,55.6,10.7c8-3.5,15.2-8,21.8-13.7c3.7-3.2,6.2-2.8,8,1.7
			c5,12.8,7.9,26.1,8.8,39.8c0.3,4.9-3.1,6.5-7.2,7.1c-6,1-12,1.9-17.9,3.1c-4.1,0.8-8.5,2.2-8,7.4c0.5,5.6,5.3,6.3,9.8,6.1
			c5.5-0.3,11.1-1.1,16.6-1.9c4.7-0.7,7.1,0.4,6.5,6c-0.7,7.6-1.9,15-3.4,22.5c-0.9,4.2-3.1,5.3-6.9,5.1c-2.8-0.2-5.5,0-8.3,0.1
			c-2.9,0.2-5.8,0.8-6.4,4.2c-0.5,3.3,2.2,4.8,4.5,6.4c3.3,2.1,9.4,1,10,5.5c0.6,4.5-2.4,9.1-4.5,13.4c-0.8,1.6-1.5,3.2-2.4,4.7
			c-6.3,11.6-6.3,11.8-19.4,9.5c-4.1-0.7-7.7-0.8-9.5,3.6c-2,4.8,1.4,7.2,5,8.7c6,2.4,6,5,1.3,8.7c-1.6,1.2-2.5,3.2-4.1,4.4
			c-4.7,3.8-9.2,8.4-14.5,10.8c-6.7,3-10.2-4.6-15.3-7.1c-23.6-11.2-48.3-15.5-73.8-9.7c-23.8,5.4-37.6,21.7-42.8,45.2
			c-1.1,4.8-2.7,5.9-7.3,5.9c-17.5,0.1-35-0.6-52.4-2.2c-2.7-0.3-5.9,0.3-6.8-4.2c-6.1-28-25.8-41.6-52-47.9
			C431.4,395.8,424.1,394.9,420.2,395z"/>
		<path class="st0" d="M418.5,411.8c15.6,0,30,3.9,42.3,13.9c17.1,13.9,19.3,40.5,4.5,56.8c-10.1,11-23.3,12-36.4,7.8
			c-8.3-2.7-14.7-1.6-22.1,2.4c-17.2,9.2-32.5,6.9-43.4-5.6c-12.2-13.8-13.4-33.2-3.2-48.4C371.4,422,393.5,411.8,418.5,411.8z"/>
		<path class="st0" d="M628.4,413.4c19.1,0.7,38,7.2,52.3,23.9c13.4,15.7,12.5,37.5-1.8,52.4c-10.5,10.9-26.1,13-41,3.9
			c-7.8-4.8-14.6-6.2-23.9-4.2c-18.7,4.1-31.8-2.7-38.5-17.6c-7.3-16.4-3.1-34.7,10.9-45.8C597.9,416.6,611.6,413.5,628.4,413.4z"/>
		<path class="st1" d="M554.2,180.9c-22.6,0-37.4-15.2-34.9-37.3c3.2-27.7,14.1-52.1,35.5-71c14.5-12.8,30.8-12.5,44.9,0.8
			c11.1,10.5,18.8,23.1,23.4,37.6c0.9,2.8,2.3,6-1.3,8.1c-3.3,2-6,0.9-8.9-1.4c-14.4-11.2-31.5-8.9-41.1,5.3
			c-9.3,13.8-5.2,29.9,10.4,39.3c3.3,2,3.6,4.2,3.7,7.4c0,3.6-2.3,4.7-5,5.7C572.2,178.6,563.4,180.9,554.2,180.9z"/>
		<path class="st1" d="M710.3,146.9c18.8-1.1,33.7,7.8,37.7,22.7c2,7.5,1.7,15.2-1.3,22.4c-7.9,18.9-19.9,34.7-38.1,44.8
			c-19.9,11.1-39.5,6.4-50.9-11.7c-1.6-2.6-5.6-5.9-2.7-8.5c3.6-3.3,7.7-7.9,13.9-5.7c4.4,1.5,8.7,2.3,13.4,2.4
			c9.9,0.1,17.1-4.2,21.2-13.1c4.2-8.9,2.7-17.3-3.7-24.7c-2.5-2.8-5.3-5.7-8.6-7.4c-5.8-3.1-5.3-8.2-5-13.2
			c0.3-5.2,4.9-4.8,8.4-5.9C699.7,147.3,705,147.3,710.3,146.9z"/>
		<path class="st0" d="M713.6,130.3c-11-0.1-21.7,2.3-32.4,4.3c-2.6,0.5-4.7,0.7-6.9-1.3c-7.4-6.8-16.3-11-25.9-13.8
			c-9-2.6-7.9-10.7-9.6-17.2c-1.5-5.8,3.9-7,7.6-8.8c16.5-8,33.9-13.2,52.1-15.6c12.9-1.7,19,1.7,25,13.4c5.6,11.1,7.6,22.9,8,35.2
			c0.1,4.4-1,5.8-5.6,4.6C721.8,130.2,717.6,130.5,713.6,130.3z"/>
		<path class="st1" d="M671.3,166.4c0,20.7-15.4,37-35,37.1c-19.1,0.1-34.3-14.8-34.6-33.9c-0.3-20.1,15.1-35.8,35.3-35.9
			C656.5,133.7,671.3,147.8,671.3,166.4z"/>
		<path class="st2" d="M581,138.7c-0.1-7.8,5-13.6,12.2-14c3.6-0.2,7.6-0.1,9.4,3.3c1.8,3.3-2.1,5.1-3.7,7.4c-1.8,2.7-3.8,5.3-5.5,8
			c-1.6,2.6-1.8,7-6.3,5.9c-3.9-0.9-5.1-4.5-5.8-8C581.1,140.2,581.1,139.2,581,138.7z"/>
		<path class="st3" d="M692.7,190.9c0.4,4.7-2.2,7.6-6,9.6c-2.7,1.5-5.9,2.6-8.5,0.4c-3.1-2.6,0.3-4.9,1.3-7.2
			c0.8-2.1,1.9-4.1,3.2-5.9c1.4-2,1-6.4,4.9-5.4C691.5,183.6,692.3,187.3,692.7,190.9z"/>
		<path class="st4" d="M520.1,385c-5.9,0.3-11.5-1-17-3.2c-7.1-2.9-11.9-7.6-12.4-15.6c-0.5-8.3,3.2-15,10.5-18.7
			c11.9-6,24.1-5.1,35.4,1.6c6.6,3.9,10.7,10.1,9.5,18.4c-1.2,8.3-6.3,13.4-14.1,16C528.1,384.8,524.2,385,520.1,385z"/>
		<path d="M378,325c0.1-6.6,1.1-12,3.7-17.1c3.4-6.3,8.8-9,15.7-8.5c6.8,0.6,12,4,14.2,10.7c2.5,8,2.4,16-0.8,23.8
			c-3.3,8.2-9.9,12.2-17.7,11.2c-8.2-1.1-13-6.1-14.4-15.1C378.3,328,378.1,326,378,325z"/>
		<path d="M655.1,329.5c-0.1,3.1-1,7.7-3.1,12.1c-3.1,6.6-8.3,10.1-15.6,9.8c-7.4-0.2-12.4-4.6-15-11c-2.8-7-2.5-14.4,0-21.6
			c3.3-9.5,10.8-14,19.9-12.4C650.4,308.1,655.3,315.7,655.1,329.5z"/>
		<path class="st5" d="M515.4,355.6c11.4-0.1,18.4,4.5,17.7,10.8c-0.6,5.8-8,9-17.5,7.6c-1.7-0.3-3.5-0.8-5.1-1.3
			c-3.8-1.3-7.1-3.2-7-7.8c0.1-4.8,3.5-7.1,7.4-8.5C512.8,355.6,514.9,355.7,515.4,355.6z"/>
	</g>
</g>
</svg>
