<?xml version="1.0" encoding="utf-8"?>
<!-- Generator: Adobe Illustrator 25.4.1, SVG Export Plug-In . SVG Version: 6.00 Build 0)  -->
<svg version="1.1" xmlns="http://www.w3.org/2000/svg" xmlns:xlink="http://www.w3.org/1999/xlink" x="0px" y="0px"
	 viewBox="0 0 200 200" style="enable-background:new 0 0 200 200;" xml:space="preserve">
<style type="text/css">
	.st0{fill:#FFFFFF;}
	.st1{fill:#FEFEFE;}
	.st2{fill:#231815;}
	.st3{fill:#251A17;}
	.st4{fill:#6C9AD1;}
	.st5{fill:#FEE35F;}
	.st6{fill:#241A17;}
	.st7{fill:#FDE35E;}
	.st8{fill:#251A16;}
	.st9{fill:#E86C98;}
	.st10{fill:#261B17;}
	.st11{fill:#271E1C;}
	.st12{fill:#271D1B;}
	.st13{fill:#231916;}
	.st14{fill:#271C1A;}
	.st15{fill:#271C17;}
	.st16{fill:#281E1B;}
	.st17{fill:#FBFBFB;}
	.st18{fill:#E46B95;}
	.st19{fill:#E56B96;}
	.st20{fill:#DD6791;}
	.st21{fill:#251C1C;}
	.st22{fill:#261D1C;}
	.st23{fill:#536E92;}
</style>
<g id="Capa_2">
	<polygon class="st0" points="46.7,84.3 30.2,101.5 24,107 21.1,112 14.4,134 16.7,149.9 25.4,165.2 39.2,175.9 54.1,182.1 
		66.5,185.3 79,183.3 88.6,181.5 99.5,181.8 104.4,185.3 109.7,182.4 106.8,168.8 111.9,147.7 118.2,141.4 128.3,138.9 125.9,133.2 
		119.6,107 112.9,98 84.6,89.1 68.3,81.3 	"/>
</g>
<g id="Capa_1">
	<g>
		<g>
			<path class="st2" d="M183,65c4.6,0.8,9.5,1.1,12.9,5c0,0.7,0,1.3,0,2c-3,3.1-6.1,5.9-7.5,10.4c-1,3.3-2.8,2.7-7-2.5
				c-2.4,2.8-5.7,4.1-9.3,4.1c-2.5,0-2.8,1.8-3.5,3.5c-4.5,11.1-2.6,21.3,3.6,31.4c4.6,7.5,2.3,16.7-4.2,22.6
				c-1.2,1.1-2.4,1.8-4,1.4c-1.2-1.6-0.3-3,0.7-4c6.8-6.9,4.9-14.1,1.2-21.5c-0.5-1-0.9-2.2-1.7-3c-5.6-5.3-4.9-11.7-2.8-18
				c2-6,0.8-10.4-3.9-14.6c-15.4-13.8-21-31.7-20.8-51.8c0-3.8,0.2-7.6,2.3-11c3.4-2.6,6.3-5.7,10-8c5.6-3.4,11.7-0.6,13,6.2
				c-3.2,1.1-4.5,3.1-5.2,6.7c-2.3,11.7,2.3,21.9,6.2,32.2c2.1,5.4,5,10.5,9.7,14.3c1.5,1.2,2.6,2,4.1,0.2c0.6-0.3,1.3-0.4,2.1-0.3
				c2.6,0.9,2.8,4,5.3,5.6c1.5-1.7,2.6-3.9,4.9-4.9c-2.1-2.8-6.6-1.4-7.5-5.1C181.8,65.2,182.1,64.6,183,65z"/>
			<path class="st3" d="M58,195.9c-4-1.9-8.8-2.1-12.4-5.1c0.6-3.3,3.1-3.3,5.3-2.5c3.7,1.3,7.4,1.1,11.7,1c-3.4-2.1-9-1.3-8.6-7.3
				c0.6-0.1,1.4-0.5,1.9-0.3c11,4.7,21.8,1.9,32.7-0.2c6.2-1.2,11.9-0.2,17.9,3.2c-1.3,1.2-2.9,0.7-4.2,0.5
				c-8.8-1.5-17.1,1.4-25.7,2.2c-0.9,0.1-2,0.7-2.6,1.3c-3.4,3.7-7.6,5.7-12.7,5.9c-0.9,0-2.1-0.1-2.5,1.2
				C58.7,195.9,58.4,195.9,58,195.9z"/>
			<path class="st4" d="M138.9,19c-0.4,7.2-1.8,14.3-0.7,21.8c2.4,16.8,9.2,31,22.1,42.1c3.6,3.1,4.1,6.5,3.1,10.7
				c-0.6,2.2-1.4,4.4-1.8,6.7c-0.8,4.6-0.3,8.3,2.9,12.8c6.7,9.2,9.5,19.8,0.1,28.2c-0.4,0.4-0.4,1.2-0.6,1.8
				c-0.3,0.3-0.6,0.6-0.8,0.9c-3-1.7-2.2-5.3-4.5-8.7c1,3.4,1.4,5.7,2,8.1c1,4.2,0.3,8.2-1.9,11.9c-0.8,1.3-1.6,2.5-1,4.1
				c-0.3,0.8-0.9,0.9-1.6,0.6c-1.2,1.2-2.1,0.5-3-0.4c-1.2-1.2-1.7-2.8-2.3-4.4c-2.9-8-5.6-9.5-13.8-7.5c-1.6-0.1-2.9-0.8-3.7-2.1
				c-0.3-3.4-4.2-4.4-5.2-7.4c0.2-0.3,0.4-0.7,0.6-1c-4.9-5.9-5.7-13.4-7-20.5c-1-5.4-3-10.2-6.3-14.5c-1.5-1.9-3.2-3.4-5.9-3.2
				c-0.5-0.3-0.9-0.7-1.4-1c-0.6-5.3-3.4-9.6-6.2-13.9c-3.2-4.8-7.8-7.2-13.4-7.6c-3.6-0.3-7.3-0.1-11-0.1c-2.5,0-4.6,0.7-5.4,3.4
				c-0.8,2.8-2.9,2.8-5.2,2.4C53.7,79.7,42.9,84,33.6,93.9c-3.8,4-7.4,8-9.6,13.1c-1,1.7-2,3.3-3,5c-1.1,1-1.7,3.5-3.7,2.1
				c-2.2-1.5-0.5-3.9-0.7-6c-2,2.4-1.4,5.9-3.7,8c-0.4-0.4-0.7-0.8-1.1-1.1C0.7,98,8.6,81.5,24.4,71.8c6.2-3.8,9.9-8,11.9-14.8
				c3.1-10.5,7.6-20.4,16.2-27.6c12.8-10.7,26.2-20.2,44-19.9c0.5,0,1-0.2,1.4-0.4c2.9-1.3,6.1-0.8,9.1-1
				C119.4,7,130.1,10.4,138.9,19L138.9,19z"/>
			<path class="st5" d="M133.6,145.1c1,1.2,2.5,1.5,4,1.9c1.9,0.8,3.9,0.5,5.8,1.2c3.7,1.4,5.7,4,5.8,7.9c0.1,2.9,1.2,4.9,3.9,6.4
				c7.1,3.8,7.5,10,1.4,15.9c-10,9.8-21.3,13.8-35,9.3c-0.5-0.2-1,0.1-1.5,0.2c-1.9-0.9-3.8-1.7-5.7-2.6c0.3-1.9-0.5-3.5-1.1-5.2
				c-3.9-10-4-20,0.5-29.9C116.5,139.7,124.2,138,133.6,145.1z"/>
			<path class="st5" d="M54.1,182.1c0.9,3.8,3.7,4.5,7,5.1c1.6,0.3,4.9-0.4,4.5,2.3c-0.2,2-3,1.2-4.8,1.2c-3.8,0.1-7.5,0.7-11.1-1.5
				c-1.4-0.9-3.3-0.3-4.1,1.7c-0.9,0.1-1.9,0.1-2.8,0.2c-3.7,0.3-7.2-0.8-10.8-1.2c-1.7-0.2-3.2-1-4.2-2.3c-2.9-3.9-5.6-7.9-9.7-11
				c-2.6-2-1.4-5.1,2.7-8.5c0.6-0.4,1.2-0.7,1.8-1.1c3.7,0.9,5.7,4.5,9.2,5.7c1.9,0.6,3.5,1.9,5.6,1.9
				C42.3,178.6,48.4,179.9,54.1,182.1z"/>
			<path class="st6" d="M24,107c-0.5-2.8,0.4-5.6,2.2-7.4c6-6.4,11.9-13.3,20-16.9c6.5-2.9,13.8-3.2,21-1.7c1.8,0.4,4.1,1.9,4.1-2.2
				c0-3,3.1-3.7,5.6-3.7c4.7,0,9.3,0.1,14,0.5c7.2,0.5,11.2,5.5,14.2,11.2c1.9,3.4,5.8,6.5,3.1,11.3c-7.2,2.2-14.1,1.9-20.5-2.3
				c1.5-2.6,3.8-1.3,5.8-1c3.4,0.5,7.9,2.9,9.8,0.1c1.9-2.9-2.4-5.9-4.3-8.7c-3.8-5.7-14.6-8.8-21-6.6c-2.4,0.8-1.5,2.2-0.5,3.4
				c1.6,2.1,3.7,3.8,5.4,5.8c1,1.2,2.5,2.4,1.2,4.3c-1.7,0.3-3.2-0.3-4-1.5c-5.1-7-12.4-8.9-20.5-8.4c-9.3,0.5-16.5,5-22.7,11.9
				C33,99.3,28.3,103,24,107z"/>
			<path class="st3" d="M86,102.2c1.3-1.7,3-1.8,4.9-1.5c3.1,0.4,6.2,0.9,9.4,1.1c5.7,0.4,7.5,2.7,5.9,8.4c-0.6,2-1.3,4.2-2.5,5.9
				c-5.5,8.2-10.8,8.2-16.3,0c-4.3-6.4-8.9-8.2-16.7-6.6c-3.4,0.7-7.1,1.8-9.7-1.5c-2.5-3.3-1.4-6.9,0.2-10.4
				c1.3-2.7,2.7-5.3,5.3-7.1c2.2-1.6,4.8-2.1,6.9-0.2c3.1,2.7,6.5,5.1,8.1,9.2c0,2.8-1.7,2.4-3.3,1.5c-1.3-0.7-2.2-2-3.1-3.1
				c-1.4-1.7-2.8-3.7-5.3-2.4c-2.8,1.5-4.4,4.1-4.6,7.2c-0.1,1.4,1.2,1.8,2.4,2c2,0.3,4,0,5.9-0.4c6.7-1.5,12,0.7,16,6.3
				c0.7,0.9,1.3,1.9,2.1,2.8c1.5,1.7,2.6,4.4,5.4,3.4c2.6-0.8,3.4-3.4,4.2-5.8c0.8-2.3-0.1-3.8-2.4-4.7c-2.3-0.8-4.5-0.6-6.9-0.4
				C89.2,105.9,86.5,105.7,86,102.2z"/>
			<path class="st7" d="M84,93c-1-4-5-5.5-7.1-8.6c-1.1-1.6-3.3-3-2.2-5.1c1-2,3.5-1.5,5.4-1.5c1.3,0,2.7,0.4,4,0.2
				c12.2-1.7,16.6,7.6,21.7,15.6c1.3,2-0.1,3-2.1,3.3c-4,0.5-7.9-0.5-11.8-1.3c-1.4-0.3-2.8-1.2-4.2,0C86.5,94.8,85.3,93.9,84,93z"
				/>
			<path class="st3" d="M37.4,174.5c-0.5,2.2-1.7,1.3-2.9,0.7c-4.4-2.2-8.7-4.4-11.9-8.2c-11.8-13.9-13-30-10.1-47
				c0.2-1.3,0.3-2.6,0.4-3.9c0.4-4.3,2-8.1,4.1-12.4c2.6,3.6-0.3,6.9,0.2,10c1.9,0.6,2.3-1.9,3.9-1.7c0.5,2.9-0.6,5.6-1.8,8.1
				c-6.2,12.9-4.6,25.3,2.3,37.4c3.1,5.5,6.4,10.9,12.6,13.5C35.8,171.5,36.3,173.3,37.4,174.5z"/>
			<path class="st8" d="M118.2,187.9c0.7-1.2,1.4-1.9,3.1-1.3c12.3,4.4,27.4-0.8,34.6-11.8c3.5-5.4,2.4-9-3.7-11.3
				c-2.8-1-4.2-2.8-4.3-5.9c-0.3-7.1-1.7-8.4-9-8.8c-1.4-0.1-1.7-0.6-1.3-1.8c6.1-3.7,11.6-1.1,14.3,6.5c0.9,2.5,0.5,5.9,4.3,6.4
				c7.8,6.4,8.4,11.4,1.5,19.4c-9.2,10.6-20.6,15.2-34.7,11.8C121,190.6,119.3,189.8,118.2,187.9z"/>
			<path class="st9" d="M86,102.2c1.1,2.5,3.4,2.4,5.5,2.3c1.3,0,2.6-0.3,3.9-0.3c7.7,0.2,9.6,3.5,5.7,10.1c-3.3,5.6-5.9,5.8-10,0.7
				c-1.1-1.4-2.3-2.8-3.3-4.3c-3.3-5.2-8.1-6.4-13.8-5.3c-0.5,0.1-1,0.3-1.4,0.4c-3.2,0.2-6.8,1.9-9.1-1.6c-1.3-2,3-9.5,5.8-10.9
				c2-1,3.5-0.3,4.8,1.3c1.1,1.4,2,3.1,3.2,4.4c1.1,1.1,2.4,3.4,4.1,0.4C82.4,101.2,83.8,102.3,86,102.2z"/>
			<path class="st10" d="M133.6,145.1c-1.5,0.1-3,0.1-4.2-1.2c-4.1-4.3-9.7-2.3-13.5,1.9c-6.6,7.5-8.3,25.2-3.3,34
				c1,1.8,3.6,3.8-0.3,5.5c-6.1-5.6-6.9-13.2-7.8-20.7c-1.6-13,10.5-26.6,23.5-26.5C130.4,140.1,134.7,140.5,133.6,145.1z"/>
			<path class="st11" d="M109.7,98.9c2.5-2.4,4.3-0.3,5.8,1.3c3.6,3.8,5.9,8.3,7,13.4c1.8,7.6,1.5,15.9,7,22.4
				c0.1,0.1-0.4,0.7-0.7,1.1c-3.7-1.5-5.6-4.2-6.4-8.1c-0.9-4.7-2.3-9.3-3.1-14C118,108.4,115.2,102.9,109.7,98.9z"/>
			<path class="st12" d="M157.8,159.3c-1.4-0.2-3.6-0.3-1.7-2.4c5.4-6.1,3.9-12.8,1.8-19.5c-0.4-1.4-2.2-3.3,0.2-4.1
				c2.3-0.7,2.3,1.7,2.8,3.2c0.8,2.5,1.5,5.1,2.2,7.6C163.9,149.9,162.6,155.2,157.8,159.3z"/>
			<path class="st1" d="M177.2,71c-1,1.1-0.3,2.5-0.5,4.1c-7.4-4.2-11.8-10.5-14.7-17.8c-3.6-9-7.8-18-7.1-28.1
				c0.2-3.1,0.6-6.3,0.9-9.4c0.4-4.5,3.9-2.2,6.1-2.7c0.7,0.5,1.3,1.1,2,1.6c0.2,0.8-1.8,0.7-0.8,1.6c0.7,0.6,1.8,0.8,2.7,1.2
				c19,8.7,20.8,29.4,12.7,43.4C177.4,67,176.6,68.8,177.2,71z"/>
			<path class="st13" d="M98,9.1c-0.5,1.8-1.9,2-3.5,2c-13-0.2-23.2,6.4-33.6,13.4C47.3,33.6,40.3,46.6,36,61.7
				c-1.4,4.9-4.1,7.8-8.8,9.8C16.1,76.2,7.8,89.4,8.1,100.7c0.1,2.9,0.6,5.6,2.1,8.1c1.1,1.9,2,3.8,1.7,6.1c-5.3-2-7.1-6.5-7.7-11.5
				c-2-16.4,6.3-29.6,22.2-36.6c2.8-1.2,4.7-3.1,5.6-5.9c1.2-3.6,2.3-7.3,3.5-10.9c4.9-15.3,16.3-24.9,28.7-33.9
				c7.3-5.3,15.4-8.1,24.3-9C91.9,6.7,95,7.5,98,9.1z"/>
			<path class="st14" d="M177.2,71c-2.8-1.5-3.4-2.3-0.7-5.4c5.6-6.3,6.4-14.4,5-22.4c-2.1-12.4-10.2-19.5-22.1-22.6
				c0.8-2.8,3.1-1.3,4.6-1.9c20.4,5.9,24.7,28.4,19.2,42.2c-0.5,1.2-2,2.6-0.1,3.9c-0.4,0.3-0.7,0.6-1.1,0.9
				c-0.7,1.9-2.4,3.3-3.1,5.2C178.3,71,177.7,71,177.2,71z"/>
			<path class="st15" d="M20.8,168c0.5,1.5-0.8,1.9-1.5,2.7c-2.4,2.5-2.1,4.6,1,6.4c1.1,0.7,2.8,1.2,3.2,2.2
				c3.3,8.3,10.2,10.3,18.1,10.9c0.4,0,0.8,0.5,1.3,0.8c-6,4.5-14,3.4-18-2.6c-2.2-3.2-4.5-6.1-8-7.9c-3.3-1.7-5.1-4.5-3.9-8.1
				C14.2,168.8,17.1,167.5,20.8,168z"/>
			<path class="st16" d="M139,19.1c-3.1-1.8-6.3-3.5-9.4-5.3c-5.4-3.1-11.2-4.5-17.4-4.7c-1.8,0-3.6,0.2-5.2-1.1
				c1-2.3,3.3-2.1,5.1-2.3c10.1-1,20.7,2.3,26.4,11C139.1,17.4,138.9,18.3,139,19.1z"/>
			<path class="st17" d="M145.1,18.7c-1.5,24.7,4.9,46.2,24.4,63c-11.2-2.6-17.4-11.1-21.2-20.3C142.8,47.8,137.5,33.5,145.1,18.7z"
				/>
			<path class="st18" d="M165.5,71.5c-4.2-1.6-6.4-5.1-8.1-8.8c-6.1-12.9-9.6-26.4-9.4-40.9c0.1-4.2-0.9-7.8,5.2-7.6
				C149.4,34.9,153.3,54,165.5,71.5z"/>
			<path class="st19" d="M178.9,71.1c-1.8-3.4,1.5-3.8,3.1-5.2c2.5,2.9,7,1.7,9.6,4.5c-5.4,4.3-5.4,4.3-5.9,8.5
				C181.9,77.5,180.9,73.8,178.9,71.1z"/>
			<path class="st20" d="M176.6,78.5c-4,3.3-5.2-1.1-8.6-3.1C172.2,75.4,173.7,78.8,176.6,78.5z"/>
			<path class="st21" d="M79,67.9c-0.6,2.5-1.7,4.8-4.8,5.1c-2.1,0.2-3.1-1-2.9-3c0.3-2.7,1.3-5.3,4.6-5.4
				C77.8,64.5,78.9,65.7,79,67.9z"/>
			<path class="st22" d="M111.9,88.5c0.3-2.2,1.4-4.4,4.4-4.5c2.1-0.1,2.9,1.6,2.6,3.4c-0.5,2.6-1.9,4.8-4.7,5.1
				C111.9,92.7,111.8,90.8,111.9,88.5z"/>
			<path class="st23" d="M60.7,75.7c-0.3-0.3-1-0.6-1.1-1.1c-0.2-0.7,0.5-1.1,1.1-1.3c0.7-0.1,1.3,0.2,1.3,1
				C61.9,75,61.9,75.7,60.7,75.7z"/>
		</g>
	</g>
</g>
</svg>
